<?xml version="1.0" encoding="utf-8" standalone="no"?>
<!DOCTYPE svg PUBLIC "-//W3C//DTD SVG 1.1//EN"
  "http://www.w3.org/Graphics/SVG/1.1/DTD/svg11.dtd">
<svg xmlns:xlink="http://www.w3.org/1999/xlink" width="648pt" height="648pt" viewBox="0 0 648 648" xmlns="http://www.w3.org/2000/svg" version="1.1">
 <metadata>
  <rdf:RDF xmlns:dc="http://purl.org/dc/elements/1.1/" xmlns:cc="http://creativecommons.org/ns#" xmlns:rdf="http://www.w3.org/1999/02/22-rdf-syntax-ns#">
   <cc:Work>
    <dc:type rdf:resource="http://purl.org/dc/dcmitype/StillImage"/>
    <dc:date>2023-03-24T16:57:48.760935</dc:date>
    <dc:format>image/svg+xml</dc:format>
    <dc:creator>
     <cc:Agent>
      <dc:title>Matplotlib v3.6.3, https://matplotlib.org/</dc:title>
     </cc:Agent>
    </dc:creator>
   </cc:Work>
  </rdf:RDF>
 </metadata>
 <defs>
  <style type="text/css">*{stroke-linejoin: round; stroke-linecap: butt}</style>
 </defs>
 <g id="figure_1">
  <g id="patch_1">
   <path d="M 0 648 
L 648 648 
L 648 0 
L 0 0 
z
" style="fill: #ffffff"/>
  </g>
  <g id="axes_1">
   <g id="patch_2">
    <path d="M 81 277.344 
L 583.2 277.344 
L 583.2 77.76 
L 81 77.76 
z
" style="fill: #ffffff"/>
   </g>
   <g id="PathCollection_1"/>
   <g id="PathCollection_2"/>
   <g id="PathCollection_3"/>
   <g id="patch_3">
    <path d="M 426.631765 190.8576 
L 428.404235 190.8576 
L 428.404235 176.88672 
L 426.631765 176.88672 
L 426.631765 190.8576 
z
" clip-path="url(#p4e3d68f9a7)" style="fill: none; stroke-dasharray: 3.7,1.6; stroke-dashoffset: 0; stroke: #808080; stroke-linejoin: miter"/>
   </g>
   <g id="matplotlib.axis_1">
    <g id="xtick_1">
     <g id="line2d_1">
      <defs>
       <path id="m0335771646" d="M 0 0 
L 0 3.5 
" style="stroke: #000000; stroke-width: 0.8"/>
      </defs>
      <g>
       <use xlink:href="#m0335771646" x="110.541176" y="277.344" style="stroke: #000000; stroke-width: 0.8"/>
      </g>
     </g>
     <g id="text_1">
      <!-- −50 -->
      <g transform="translate(102.059926 291.517437) scale(0.1 -0.1)">
       <defs>
        <path id="Helvetica-2212" d="M 3547 1894 
L 3547 1369 
L 288 1369 
L 288 1894 
L 3547 1894 
z
" transform="scale(0.015625)"/>
        <path id="Helvetica-35" d="M 791 1141 
Q 847 659 1238 475 
Q 1438 381 1700 381 
Q 2200 381 2440 700 
Q 2681 1019 2681 1406 
Q 2681 1875 2395 2131 
Q 2109 2388 1709 2388 
Q 1419 2388 1211 2275 
Q 1003 2163 856 1963 
L 369 1991 
L 709 4400 
L 3034 4400 
L 3034 3856 
L 1131 3856 
L 941 2613 
Q 1097 2731 1238 2791 
Q 1488 2894 1816 2894 
Q 2431 2894 2859 2497 
Q 3288 2100 3288 1491 
Q 3288 856 2895 371 
Q 2503 -113 1644 -113 
Q 1097 -113 676 195 
Q 256 503 206 1141 
L 791 1141 
z
" transform="scale(0.015625)"/>
        <path id="Helvetica-30" d="M 1731 4475 
Q 2600 4475 2988 3759 
Q 3288 3206 3288 2244 
Q 3288 1331 3016 734 
Q 2622 -122 1728 -122 
Q 922 -122 528 578 
Q 200 1163 200 2147 
Q 200 2909 397 3456 
Q 766 4475 1731 4475 
z
M 1725 391 
Q 2163 391 2422 778 
Q 2681 1166 2681 2222 
Q 2681 2984 2493 3476 
Q 2306 3969 1766 3969 
Q 1269 3969 1039 3501 
Q 809 3034 809 2125 
Q 809 1441 956 1025 
Q 1181 391 1725 391 
z
" transform="scale(0.015625)"/>
       </defs>
       <use xlink:href="#Helvetica-2212"/>
       <use xlink:href="#Helvetica-35" x="58.398438"/>
       <use xlink:href="#Helvetica-30" x="114.013672"/>
      </g>
     </g>
    </g>
    <g id="xtick_2">
     <g id="line2d_2">
      <g>
       <use xlink:href="#m0335771646" x="169.623529" y="277.344" style="stroke: #000000; stroke-width: 0.8"/>
      </g>
     </g>
     <g id="text_2">
      <!-- −40 -->
      <g transform="translate(161.142279 291.517437) scale(0.1 -0.1)">
       <defs>
        <path id="Helvetica-34" d="M 2116 1584 
L 2116 3613 
L 681 1584 
L 2116 1584 
z
M 2125 0 
L 2125 1094 
L 163 1094 
L 163 1644 
L 2213 4488 
L 2688 4488 
L 2688 1584 
L 3347 1584 
L 3347 1094 
L 2688 1094 
L 2688 0 
L 2125 0 
z
" transform="scale(0.015625)"/>
       </defs>
       <use xlink:href="#Helvetica-2212"/>
       <use xlink:href="#Helvetica-34" x="58.398438"/>
       <use xlink:href="#Helvetica-30" x="114.013672"/>
      </g>
     </g>
    </g>
    <g id="xtick_3">
     <g id="line2d_3">
      <g>
       <use xlink:href="#m0335771646" x="228.705882" y="277.344" style="stroke: #000000; stroke-width: 0.8"/>
      </g>
     </g>
     <g id="text_3">
      <!-- −30 -->
      <g transform="translate(220.224632 291.517437) scale(0.1 -0.1)">
       <defs>
        <path id="Helvetica-33" d="M 1663 -122 
Q 869 -122 511 314 
Q 153 750 153 1375 
L 741 1375 
Q 778 941 903 744 
Q 1122 391 1694 391 
Q 2138 391 2406 628 
Q 2675 866 2675 1241 
Q 2675 1703 2392 1887 
Q 2109 2072 1606 2072 
Q 1550 2072 1492 2070 
Q 1434 2069 1375 2066 
L 1375 2563 
Q 1463 2553 1522 2550 
Q 1581 2547 1650 2547 
Q 1966 2547 2169 2647 
Q 2525 2822 2525 3272 
Q 2525 3606 2287 3787 
Q 2050 3969 1734 3969 
Q 1172 3969 956 3594 
Q 838 3388 822 3006 
L 266 3006 
Q 266 3506 466 3856 
Q 809 4481 1675 4481 
Q 2359 4481 2734 4176 
Q 3109 3872 3109 3294 
Q 3109 2881 2888 2625 
Q 2750 2466 2531 2375 
Q 2884 2278 3082 2001 
Q 3281 1725 3281 1325 
Q 3281 684 2859 281 
Q 2438 -122 1663 -122 
z
" transform="scale(0.015625)"/>
       </defs>
       <use xlink:href="#Helvetica-2212"/>
       <use xlink:href="#Helvetica-33" x="58.398438"/>
       <use xlink:href="#Helvetica-30" x="114.013672"/>
      </g>
     </g>
    </g>
    <g id="xtick_4">
     <g id="line2d_4">
      <g>
       <use xlink:href="#m0335771646" x="287.788235" y="277.344" style="stroke: #000000; stroke-width: 0.8"/>
      </g>
     </g>
     <g id="text_4">
      <!-- −20 -->
      <g transform="translate(279.306985 291.517437) scale(0.1 -0.1)">
       <defs>
        <path id="Helvetica-32" d="M 200 0 
Q 231 578 439 1006 
Q 647 1434 1250 1784 
L 1850 2131 
Q 2253 2366 2416 2531 
Q 2672 2791 2672 3125 
Q 2672 3516 2437 3745 
Q 2203 3975 1813 3975 
Q 1234 3975 1013 3538 
Q 894 3303 881 2888 
L 309 2888 
Q 319 3472 525 3841 
Q 891 4491 1816 4491 
Q 2584 4491 2939 4075 
Q 3294 3659 3294 3150 
Q 3294 2613 2916 2231 
Q 2697 2009 2131 1694 
L 1703 1456 
Q 1397 1288 1222 1134 
Q 909 863 828 531 
L 3272 531 
L 3272 0 
L 200 0 
z
" transform="scale(0.015625)"/>
       </defs>
       <use xlink:href="#Helvetica-2212"/>
       <use xlink:href="#Helvetica-32" x="58.398438"/>
       <use xlink:href="#Helvetica-30" x="114.013672"/>
      </g>
     </g>
    </g>
    <g id="xtick_5">
     <g id="line2d_5">
      <g>
       <use xlink:href="#m0335771646" x="346.870588" y="277.344" style="stroke: #000000; stroke-width: 0.8"/>
      </g>
     </g>
     <g id="text_5">
      <!-- −10 -->
      <g transform="translate(338.389338 291.517437) scale(0.1 -0.1)">
       <defs>
        <path id="Helvetica-31" d="M 613 3169 
L 613 3600 
Q 1222 3659 1462 3798 
Q 1703 3938 1822 4456 
L 2266 4456 
L 2266 0 
L 1666 0 
L 1666 3169 
L 613 3169 
z
" transform="scale(0.015625)"/>
       </defs>
       <use xlink:href="#Helvetica-2212"/>
       <use xlink:href="#Helvetica-31" x="58.398438"/>
       <use xlink:href="#Helvetica-30" x="114.013672"/>
      </g>
     </g>
    </g>
    <g id="xtick_6">
     <g id="line2d_6">
      <g>
       <use xlink:href="#m0335771646" x="405.952941" y="277.344" style="stroke: #000000; stroke-width: 0.8"/>
      </g>
     </g>
     <g id="text_6">
      <!-- 0 -->
      <g transform="translate(403.172472 291.517437) scale(0.1 -0.1)">
       <use xlink:href="#Helvetica-30"/>
      </g>
     </g>
    </g>
    <g id="xtick_7">
     <g id="line2d_7">
      <g>
       <use xlink:href="#m0335771646" x="465.035294" y="277.344" style="stroke: #000000; stroke-width: 0.8"/>
      </g>
     </g>
     <g id="text_7">
      <!-- 10 -->
      <g transform="translate(459.474357 291.517437) scale(0.1 -0.1)">
       <use xlink:href="#Helvetica-31"/>
       <use xlink:href="#Helvetica-30" x="55.615234"/>
      </g>
     </g>
    </g>
    <g id="xtick_8">
     <g id="line2d_8">
      <g>
       <use xlink:href="#m0335771646" x="524.117647" y="277.344" style="stroke: #000000; stroke-width: 0.8"/>
      </g>
     </g>
     <g id="text_8">
      <!-- 20 -->
      <g transform="translate(518.55671 291.517437) scale(0.1 -0.1)">
       <use xlink:href="#Helvetica-32"/>
       <use xlink:href="#Helvetica-30" x="55.615234"/>
      </g>
     </g>
    </g>
    <g id="xtick_9">
     <g id="line2d_9">
      <g>
       <use xlink:href="#m0335771646" x="583.2" y="277.344" style="stroke: #000000; stroke-width: 0.8"/>
      </g>
     </g>
     <g id="text_9">
      <!-- 30 -->
      <g transform="translate(577.639063 291.517437) scale(0.1 -0.1)">
       <use xlink:href="#Helvetica-33"/>
       <use xlink:href="#Helvetica-30" x="55.615234"/>
      </g>
     </g>
    </g>
    <g id="text_10">
     <!-- Z (mm) -->
     <g transform="translate(315.997656 304.848687) scale(0.1 -0.1)">
      <defs>
       <path id="Helvetica-5a" d="M 147 516 
L 2963 4044 
L 353 4044 
L 353 4591 
L 3763 4591 
L 3763 4056 
L 931 547 
L 3763 547 
L 3763 0 
L 147 0 
L 147 516 
z
M 2059 4591 
L 2059 4591 
z
" transform="scale(0.015625)"/>
       <path id="Helvetica-20" transform="scale(0.015625)"/>
       <path id="Helvetica-28" d="M 1894 4666 
Q 1403 3713 1256 3263 
Q 1034 2578 1034 1681 
Q 1034 775 1288 25 
Q 1444 -438 1903 -1306 
L 1525 -1306 
Q 1069 -594 959 -397 
Q 850 -200 722 138 
Q 547 600 478 1125 
Q 444 1397 444 1644 
Q 444 2569 734 3291 
Q 919 3750 1503 4666 
L 1894 4666 
z
" transform="scale(0.015625)"/>
       <path id="Helvetica-6d" d="M 413 3347 
L 969 3347 
L 969 2872 
Q 1169 3119 1331 3231 
Q 1609 3422 1963 3422 
Q 2363 3422 2606 3225 
Q 2744 3113 2856 2894 
Q 3044 3163 3297 3292 
Q 3550 3422 3866 3422 
Q 4541 3422 4784 2934 
Q 4916 2672 4916 2228 
L 4916 0 
L 4331 0 
L 4331 2325 
Q 4331 2659 4164 2784 
Q 3997 2909 3756 2909 
Q 3425 2909 3186 2687 
Q 2947 2466 2947 1947 
L 2947 0 
L 2375 0 
L 2375 2184 
Q 2375 2525 2294 2681 
Q 2166 2916 1816 2916 
Q 1497 2916 1236 2669 
Q 975 2422 975 1775 
L 975 0 
L 413 0 
L 413 3347 
z
" transform="scale(0.015625)"/>
       <path id="Helvetica-29" d="M 222 -1306 
Q 719 -338 863 106 
Q 1081 778 1081 1681 
Q 1081 2584 828 3334 
Q 672 3797 213 4666 
L 591 4666 
Q 1072 3897 1173 3717 
Q 1275 3538 1394 3222 
Q 1544 2831 1608 2450 
Q 1672 2069 1672 1716 
Q 1672 791 1378 66 
Q 1194 -400 613 -1306 
L 222 -1306 
z
" transform="scale(0.015625)"/>
      </defs>
      <use xlink:href="#Helvetica-5a"/>
      <use xlink:href="#Helvetica-20" x="61.083984"/>
      <use xlink:href="#Helvetica-28" x="88.867188"/>
      <use xlink:href="#Helvetica-6d" x="122.167969"/>
      <use xlink:href="#Helvetica-6d" x="205.46875"/>
      <use xlink:href="#Helvetica-29" x="288.769531"/>
     </g>
    </g>
   </g>
   <g id="matplotlib.axis_2">
    <g id="ytick_1">
     <g id="line2d_10">
      <defs>
       <path id="m2f14b0f5a1" d="M 0 0 
L -3.5 0 
" style="stroke: #000000; stroke-width: 0.8"/>
      </defs>
      <g>
       <use xlink:href="#m2f14b0f5a1" x="81" y="277.344" style="stroke: #000000; stroke-width: 0.8"/>
      </g>
     </g>
     <g id="text_11">
      <!-- −1500 -->
      <g transform="translate(45.915625 280.930719) scale(0.1 -0.1)">
       <use xlink:href="#Helvetica-2212"/>
       <use xlink:href="#Helvetica-31" x="58.398438"/>
       <use xlink:href="#Helvetica-35" x="114.013672"/>
       <use xlink:href="#Helvetica-30" x="169.628906"/>
       <use xlink:href="#Helvetica-30" x="225.244141"/>
      </g>
     </g>
    </g>
    <g id="ytick_2">
     <g id="line2d_11">
      <g>
       <use xlink:href="#m2f14b0f5a1" x="81" y="244.08" style="stroke: #000000; stroke-width: 0.8"/>
      </g>
     </g>
     <g id="text_12">
      <!-- −1000 -->
      <g transform="translate(45.915625 247.666719) scale(0.1 -0.1)">
       <use xlink:href="#Helvetica-2212"/>
       <use xlink:href="#Helvetica-31" x="58.398438"/>
       <use xlink:href="#Helvetica-30" x="114.013672"/>
       <use xlink:href="#Helvetica-30" x="169.628906"/>
       <use xlink:href="#Helvetica-30" x="225.244141"/>
      </g>
     </g>
    </g>
    <g id="ytick_3">
     <g id="line2d_12">
      <g>
       <use xlink:href="#m2f14b0f5a1" x="81" y="210.816" style="stroke: #000000; stroke-width: 0.8"/>
      </g>
     </g>
     <g id="text_13">
      <!-- −500 -->
      <g transform="translate(51.476562 214.402719) scale(0.1 -0.1)">
       <use xlink:href="#Helvetica-2212"/>
       <use xlink:href="#Helvetica-35" x="58.398438"/>
       <use xlink:href="#Helvetica-30" x="114.013672"/>
       <use xlink:href="#Helvetica-30" x="169.628906"/>
      </g>
     </g>
    </g>
    <g id="ytick_4">
     <g id="line2d_13">
      <g>
       <use xlink:href="#m2f14b0f5a1" x="81" y="177.552" style="stroke: #000000; stroke-width: 0.8"/>
      </g>
     </g>
     <g id="text_14">
      <!-- 0 -->
      <g transform="translate(68.439063 181.138719) scale(0.1 -0.1)">
       <use xlink:href="#Helvetica-30"/>
      </g>
     </g>
    </g>
    <g id="ytick_5">
     <g id="line2d_14">
      <g>
       <use xlink:href="#m2f14b0f5a1" x="81" y="144.288" style="stroke: #000000; stroke-width: 0.8"/>
      </g>
     </g>
     <g id="text_15">
      <!-- 500 -->
      <g transform="translate(57.317188 147.874719) scale(0.1 -0.1)">
       <use xlink:href="#Helvetica-35"/>
       <use xlink:href="#Helvetica-30" x="55.615234"/>
       <use xlink:href="#Helvetica-30" x="111.230469"/>
      </g>
     </g>
    </g>
    <g id="ytick_6">
     <g id="line2d_15">
      <g>
       <use xlink:href="#m2f14b0f5a1" x="81" y="111.024" style="stroke: #000000; stroke-width: 0.8"/>
      </g>
     </g>
     <g id="text_16">
      <!-- 1000 -->
      <g transform="translate(51.75625 114.610719) scale(0.1 -0.1)">
       <use xlink:href="#Helvetica-31"/>
       <use xlink:href="#Helvetica-30" x="55.615234"/>
       <use xlink:href="#Helvetica-30" x="111.230469"/>
       <use xlink:href="#Helvetica-30" x="166.845703"/>
      </g>
     </g>
    </g>
    <g id="ytick_7">
     <g id="line2d_16">
      <g>
       <use xlink:href="#m2f14b0f5a1" x="81" y="77.76" style="stroke: #000000; stroke-width: 0.8"/>
      </g>
     </g>
     <g id="text_17">
      <!-- 1500 -->
      <g transform="translate(51.75625 81.346719) scale(0.1 -0.1)">
       <use xlink:href="#Helvetica-31"/>
       <use xlink:href="#Helvetica-35" x="55.615234"/>
       <use xlink:href="#Helvetica-30" x="111.230469"/>
       <use xlink:href="#Helvetica-30" x="166.845703"/>
      </g>
     </g>
    </g>
    <g id="text_18">
     <!-- R (mm) -->
     <g transform="translate(39.83125 194.211375) rotate(-90) scale(0.1 -0.1)">
      <defs>
       <path id="Helvetica-52" d="M 2622 2488 
Q 3059 2488 3314 2663 
Q 3569 2838 3569 3294 
Q 3569 3784 3213 3963 
Q 3022 4056 2703 4056 
L 1184 4056 
L 1184 2488 
L 2622 2488 
z
M 563 4591 
L 2688 4591 
Q 3213 4591 3553 4438 
Q 4200 4144 4200 3353 
Q 4200 2941 4029 2678 
Q 3859 2416 3553 2256 
Q 3822 2147 3958 1969 
Q 4094 1791 4109 1391 
L 4131 775 
Q 4141 513 4175 384 
Q 4231 166 4375 103 
L 4375 0 
L 3613 0 
Q 3581 59 3562 153 
Q 3544 247 3531 516 
L 3494 1281 
Q 3472 1731 3159 1884 
Q 2981 1969 2600 1969 
L 1184 1969 
L 1184 0 
L 563 0 
L 563 4591 
z
" transform="scale(0.015625)"/>
      </defs>
      <use xlink:href="#Helvetica-52"/>
      <use xlink:href="#Helvetica-20" x="72.216797"/>
      <use xlink:href="#Helvetica-28" x="100"/>
      <use xlink:href="#Helvetica-6d" x="133.300781"/>
      <use xlink:href="#Helvetica-6d" x="216.601562"/>
      <use xlink:href="#Helvetica-29" x="299.902344"/>
     </g>
    </g>
   </g>
   <g id="line2d_17">
    <path d="M 110.541176 111.024 
L 353.014521 110.914442 
L 358.321427 110.695495 
L 361.218238 110.363389 
L 363.496648 109.878127 
L 365.597844 109.20316 
L 367.842084 108.240702 
L 370.36733 106.907058 
L 373.374943 105.059804 
L 377.225423 102.416981 
L 387.453566 95.229041 
L 389.412444 94.218996 
L 391.01899 93.632767 
L 392.357992 93.370069 
L 393.53339 93.35147 
L 394.589657 93.535973 
L 395.640283 93.937459 
L 396.665426 94.565664 
L 397.707224 95.469772 
L 398.78835 96.717535 
L 399.898481 98.35138 
L 401.073513 100.49082 
L 402.331468 103.261034 
L 403.700334 106.833561 
L 405.241955 111.509701 
L 407.051168 117.752234 
L 409.400505 126.722309 
L 417.63896 158.885063 
L 420.215527 167.667485 
L 422.659478 175.217168 
L 425.095015 182.022272 
L 427.608997 188.374603 
L 430.198511 194.306621 
L 432.912645 199.972318 
L 435.888931 205.664532 
L 439.191536 211.495909 
L 443.485434 218.592119 
L 450.938268 230.857106 
L 455.862538 239.513819 
L 466.070024 258.02843 
L 583.645613 472.567758 
L 583.645613 472.567758 
" clip-path="url(#p4e3d68f9a7)" style="fill: none; stroke: #1e90ff; stroke-width: 1.5; stroke-linecap: square"/>
   </g>
   <g id="line2d_18">
    <path d="M 110.541176 177.552 
L 367.343162 174.549481 
L 379.44314 174.055722 
L 394.316987 173.459767 
L 399.035224 173.517849 
L 402.930337 173.785846 
L 406.872718 174.282317 
L 412.514838 175.247135 
L 421.461782 176.754728 
L 428.013612 177.616136 
L 436.057944 178.438653 
L 449.216882 179.518929 
L 473.492449 181.587661 
L 584.79698 191.192794 
L 584.79698 191.192794 
" clip-path="url(#p4e3d68f9a7)" style="fill: none; stroke: #ff0000; stroke-width: 1.5; stroke-linecap: square"/>
   </g>
   <g id="line2d_19">
    <path d="M 426.727657 177.552 
L 649 196.733275 
" clip-path="url(#p4e3d68f9a7)" style="fill: none; stroke-dasharray: 5.55,2.4; stroke-dashoffset: 0; stroke: #cd5c5c; stroke-width: 1.5"/>
   </g>
   <g id="line2d_20">
    <path d="M 421.970392 177.552 
L 649 591.822724 
" clip-path="url(#p4e3d68f9a7)" style="fill: none; stroke-dasharray: 5.55,2.4; stroke-dashoffset: 0; stroke: #87ceeb; stroke-width: 1.5"/>
   </g>
   <g id="LineCollection_1">
    <path d="M 110.541176 177.552 
L 649 177.552 
" clip-path="url(#p4e3d68f9a7)" style="fill: none; stroke: #000000; stroke-width: 1.5"/>
   </g>
   <g id="LineCollection_2">
    <path d="M 427.467412 177.552 
L 427.467412 177.562481 
" clip-path="url(#p4e3d68f9a7)" style="fill: none; stroke: #1f77b4; stroke-width: 1.5"/>
   </g>
   <g id="LineCollection_3">
    <path d="M 426.727657 177.552 
L 426.727657 177.560681 
" clip-path="url(#p4e3d68f9a7)" style="fill: none; stroke: #ff0000; stroke-width: 1.5"/>
   </g>
   <g id="patch_4">
    <path d="M 81 277.344 
L 81 77.76 
" style="fill: none; stroke: #000000; stroke-width: 0.8; stroke-linejoin: miter; stroke-linecap: square"/>
   </g>
   <g id="patch_5">
    <path d="M 81 277.344 
L 583.2 277.344 
" style="fill: none; stroke: #000000; stroke-width: 0.8; stroke-linejoin: miter; stroke-linecap: square"/>
   </g>
   <g id="patch_6">
    <path d="M 82.732483 376.132248 
Q 253.817601 277.010364 424.902718 177.888481 
" style="fill: none; opacity: 0.5; stroke: #808080; stroke-linecap: round"/>
   </g>
   <g id="patch_7">
    <path d="M 581.978848 375.556275 
Q 505.801988 277.011192 429.625127 178.466109 
" style="fill: none; opacity: 0.5; stroke: #808080; stroke-linecap: round"/>
   </g>
   <g id="text_19">
    <!-- First Order Properties of NanoMi Symmetric Lens -->
    <g transform="translate(200.7375 71.76) scale(0.12 -0.12)">
     <defs>
      <path id="Helvetica-46" d="M 547 4591 
L 3731 4591 
L 3731 4028 
L 1169 4028 
L 1169 2634 
L 3422 2634 
L 3422 2088 
L 1169 2088 
L 1169 0 
L 547 0 
L 547 4591 
z
" transform="scale(0.015625)"/>
      <path id="Helvetica-69" d="M 413 3331 
L 984 3331 
L 984 0 
L 413 0 
L 413 3331 
z
M 413 4591 
L 984 4591 
L 984 3953 
L 413 3953 
L 413 4591 
z
" transform="scale(0.015625)"/>
      <path id="Helvetica-72" d="M 428 3347 
L 963 3347 
L 963 2769 
Q 1028 2938 1284 3180 
Q 1541 3422 1875 3422 
Q 1891 3422 1928 3419 
Q 1966 3416 2056 3406 
L 2056 2813 
Q 2006 2822 1964 2825 
Q 1922 2828 1872 2828 
Q 1447 2828 1219 2554 
Q 991 2281 991 1925 
L 991 0 
L 428 0 
L 428 3347 
z
" transform="scale(0.015625)"/>
      <path id="Helvetica-73" d="M 747 1050 
Q 772 769 888 619 
Q 1100 347 1625 347 
Q 1938 347 2175 483 
Q 2413 619 2413 903 
Q 2413 1119 2222 1231 
Q 2100 1300 1741 1391 
L 1294 1503 
Q 866 1609 663 1741 
Q 300 1969 300 2372 
Q 300 2847 642 3140 
Q 984 3434 1563 3434 
Q 2319 3434 2653 2991 
Q 2863 2709 2856 2384 
L 2325 2384 
Q 2309 2575 2191 2731 
Q 1997 2953 1519 2953 
Q 1200 2953 1036 2831 
Q 872 2709 872 2509 
Q 872 2291 1088 2159 
Q 1213 2081 1456 2022 
L 1828 1931 
Q 2434 1784 2641 1647 
Q 2969 1431 2969 969 
Q 2969 522 2630 197 
Q 2291 -128 1597 -128 
Q 850 -128 539 211 
Q 228 550 206 1050 
L 747 1050 
z
M 1578 3428 
L 1578 3428 
z
" transform="scale(0.015625)"/>
      <path id="Helvetica-74" d="M 525 4281 
L 1094 4281 
L 1094 3347 
L 1628 3347 
L 1628 2888 
L 1094 2888 
L 1094 703 
Q 1094 528 1213 469 
Q 1278 434 1431 434 
Q 1472 434 1519 436 
Q 1566 438 1628 444 
L 1628 0 
Q 1531 -28 1426 -40 
Q 1322 -53 1200 -53 
Q 806 -53 665 148 
Q 525 350 525 672 
L 525 2888 
L 72 2888 
L 72 3347 
L 525 3347 
L 525 4281 
z
" transform="scale(0.015625)"/>
      <path id="Helvetica-4f" d="M 2469 4716 
Q 3684 4716 4269 3934 
Q 4725 3325 4725 2375 
Q 4725 1347 4203 666 
Q 3591 -134 2456 -134 
Q 1397 -134 791 566 
Q 250 1241 250 2272 
Q 250 3203 713 3866 
Q 1306 4716 2469 4716 
z
M 2531 422 
Q 3353 422 3720 1011 
Q 4088 1600 4088 2366 
Q 4088 3175 3664 3669 
Q 3241 4163 2506 4163 
Q 1794 4163 1344 3673 
Q 894 3184 894 2231 
Q 894 1469 1280 945 
Q 1666 422 2531 422 
z
M 2488 4716 
L 2488 4716 
z
" transform="scale(0.015625)"/>
      <path id="Helvetica-64" d="M 769 1634 
Q 769 1097 997 734 
Q 1225 372 1728 372 
Q 2119 372 2370 708 
Q 2622 1044 2622 1672 
Q 2622 2306 2362 2611 
Q 2103 2916 1722 2916 
Q 1297 2916 1033 2591 
Q 769 2266 769 1634 
z
M 1616 3406 
Q 2000 3406 2259 3244 
Q 2409 3150 2600 2916 
L 2600 4606 
L 3141 4606 
L 3141 0 
L 2634 0 
L 2634 466 
Q 2438 156 2169 18 
Q 1900 -119 1553 -119 
Q 994 -119 584 351 
Q 175 822 175 1603 
Q 175 2334 548 2870 
Q 922 3406 1616 3406 
z
" transform="scale(0.015625)"/>
      <path id="Helvetica-65" d="M 1806 3422 
Q 2163 3422 2497 3255 
Q 2831 3088 3006 2822 
Q 3175 2569 3231 2231 
Q 3281 2000 3281 1494 
L 828 1494 
Q 844 984 1069 676 
Q 1294 369 1766 369 
Q 2206 369 2469 659 
Q 2619 828 2681 1050 
L 3234 1050 
Q 3213 866 3089 639 
Q 2966 413 2813 269 
Q 2556 19 2178 -69 
Q 1975 -119 1719 -119 
Q 1094 -119 659 336 
Q 225 791 225 1609 
Q 225 2416 662 2919 
Q 1100 3422 1806 3422 
z
M 2703 1941 
Q 2669 2306 2544 2525 
Q 2313 2931 1772 2931 
Q 1384 2931 1121 2651 
Q 859 2372 844 1941 
L 2703 1941 
z
M 1753 3428 
L 1753 3428 
z
" transform="scale(0.015625)"/>
      <path id="Helvetica-50" d="M 547 4591 
L 2613 4591 
Q 3225 4591 3600 4245 
Q 3975 3900 3975 3275 
Q 3975 2738 3640 2339 
Q 3306 1941 2613 1941 
L 1169 1941 
L 1169 0 
L 547 0 
L 547 4591 
z
M 3347 3272 
Q 3347 3778 2972 3959 
Q 2766 4056 2406 4056 
L 1169 4056 
L 1169 2466 
L 2406 2466 
Q 2825 2466 3086 2644 
Q 3347 2822 3347 3272 
z
" transform="scale(0.015625)"/>
      <path id="Helvetica-6f" d="M 1741 363 
Q 2300 363 2508 786 
Q 2716 1209 2716 1728 
Q 2716 2197 2566 2491 
Q 2328 2953 1747 2953 
Q 1231 2953 997 2559 
Q 763 2166 763 1609 
Q 763 1075 997 719 
Q 1231 363 1741 363 
z
M 1763 3444 
Q 2409 3444 2856 3012 
Q 3303 2581 3303 1744 
Q 3303 934 2909 406 
Q 2516 -122 1688 -122 
Q 997 -122 590 345 
Q 184 813 184 1600 
Q 184 2444 612 2944 
Q 1041 3444 1763 3444 
z
M 1744 3428 
L 1744 3428 
z
" transform="scale(0.015625)"/>
      <path id="Helvetica-70" d="M 1825 378 
Q 2219 378 2480 708 
Q 2741 1038 2741 1694 
Q 2741 2094 2625 2381 
Q 2406 2934 1825 2934 
Q 1241 2934 1025 2350 
Q 909 2038 909 1556 
Q 909 1169 1025 897 
Q 1244 378 1825 378 
z
M 369 3331 
L 916 3331 
L 916 2888 
Q 1084 3116 1284 3241 
Q 1569 3428 1953 3428 
Q 2522 3428 2919 2992 
Q 3316 2556 3316 1747 
Q 3316 653 2744 184 
Q 2381 -113 1900 -113 
Q 1522 -113 1266 53 
Q 1116 147 931 375 
L 931 -1334 
L 369 -1334 
L 369 3331 
z
" transform="scale(0.015625)"/>
      <path id="Helvetica-66" d="M 553 3856 
Q 566 4206 675 4369 
Q 872 4656 1434 4656 
Q 1488 4656 1544 4653 
Q 1600 4650 1672 4644 
L 1672 4131 
Q 1584 4138 1545 4139 
Q 1506 4141 1472 4141 
Q 1216 4141 1166 4008 
Q 1116 3875 1116 3331 
L 1672 3331 
L 1672 2888 
L 1109 2888 
L 1109 0 
L 553 0 
L 553 2888 
L 88 2888 
L 88 3331 
L 553 3331 
L 553 3856 
z
" transform="scale(0.015625)"/>
      <path id="Helvetica-4e" d="M 488 4591 
L 1222 4591 
L 3541 872 
L 3541 4591 
L 4131 4591 
L 4131 0 
L 3434 0 
L 1081 3716 
L 1081 0 
L 488 0 
L 488 4591 
z
M 2269 4591 
L 2269 4591 
z
" transform="scale(0.015625)"/>
      <path id="Helvetica-61" d="M 844 891 
Q 844 647 1022 506 
Q 1200 366 1444 366 
Q 1741 366 2019 503 
Q 2488 731 2488 1250 
L 2488 1703 
Q 2384 1638 2221 1594 
Q 2059 1550 1903 1531 
L 1563 1488 
Q 1256 1447 1103 1359 
Q 844 1213 844 891 
z
M 2206 2028 
Q 2400 2053 2466 2191 
Q 2503 2266 2503 2406 
Q 2503 2694 2298 2823 
Q 2094 2953 1713 2953 
Q 1272 2953 1088 2716 
Q 984 2584 953 2325 
L 428 2325 
Q 444 2944 830 3186 
Q 1216 3428 1725 3428 
Q 2316 3428 2684 3203 
Q 3050 2978 3050 2503 
L 3050 575 
Q 3050 488 3086 434 
Q 3122 381 3238 381 
Q 3275 381 3322 386 
Q 3369 391 3422 400 
L 3422 -16 
Q 3291 -53 3222 -62 
Q 3153 -72 3034 -72 
Q 2744 -72 2613 134 
Q 2544 244 2516 444 
Q 2344 219 2022 53 
Q 1700 -113 1313 -113 
Q 847 -113 551 170 
Q 256 453 256 878 
Q 256 1344 547 1600 
Q 838 1856 1309 1916 
L 2206 2028 
z
M 1741 3428 
L 1741 3428 
z
" transform="scale(0.015625)"/>
      <path id="Helvetica-6e" d="M 413 3347 
L 947 3347 
L 947 2872 
Q 1184 3166 1450 3294 
Q 1716 3422 2041 3422 
Q 2753 3422 3003 2925 
Q 3141 2653 3141 2147 
L 3141 0 
L 2569 0 
L 2569 2109 
Q 2569 2416 2478 2603 
Q 2328 2916 1934 2916 
Q 1734 2916 1606 2875 
Q 1375 2806 1200 2600 
Q 1059 2434 1017 2257 
Q 975 2081 975 1753 
L 975 0 
L 413 0 
L 413 3347 
z
M 1734 3428 
L 1734 3428 
z
" transform="scale(0.015625)"/>
      <path id="Helvetica-4d" d="M 472 4591 
L 1363 4591 
L 2681 709 
L 3991 4591 
L 4872 4591 
L 4872 0 
L 4281 0 
L 4281 2709 
Q 4281 2850 4287 3175 
Q 4294 3500 4294 3872 
L 2984 0 
L 2369 0 
L 1050 3872 
L 1050 3731 
Q 1050 3563 1058 3217 
Q 1066 2872 1066 2709 
L 1066 0 
L 472 0 
L 472 4591 
z
" transform="scale(0.015625)"/>
      <path id="Helvetica-53" d="M 894 1481 
Q 916 1091 1078 847 
Q 1388 391 2169 391 
Q 2519 391 2806 491 
Q 3363 684 3363 1184 
Q 3363 1559 3128 1719 
Q 2891 1875 2384 1991 
L 1763 2131 
Q 1153 2269 900 2434 
Q 463 2722 463 3294 
Q 463 3913 891 4309 
Q 1319 4706 2103 4706 
Q 2825 4706 3329 4357 
Q 3834 4009 3834 3244 
L 3250 3244 
Q 3203 3613 3050 3809 
Q 2766 4169 2084 4169 
Q 1534 4169 1293 3937 
Q 1053 3706 1053 3400 
Q 1053 3063 1334 2906 
Q 1519 2806 2169 2656 
L 2813 2509 
Q 3278 2403 3531 2219 
Q 3969 1897 3969 1284 
Q 3969 522 3414 194 
Q 2859 -134 2125 -134 
Q 1269 -134 784 303 
Q 300 738 309 1481 
L 894 1481 
z
M 2150 4716 
L 2150 4716 
z
" transform="scale(0.015625)"/>
      <path id="Helvetica-79" d="M 2503 3347 
L 3125 3347 
Q 3006 3025 2597 1878 
Q 2291 1016 2084 472 
Q 1597 -809 1397 -1090 
Q 1197 -1372 709 -1372 
Q 591 -1372 527 -1362 
Q 463 -1353 369 -1328 
L 369 -816 
Q 516 -856 581 -865 
Q 647 -875 697 -875 
Q 853 -875 926 -823 
Q 1000 -772 1050 -697 
Q 1066 -672 1162 -440 
Q 1259 -209 1303 -97 
L 66 3347 
L 703 3347 
L 1600 622 
L 2503 3347 
z
M 1597 3428 
L 1597 3428 
z
" transform="scale(0.015625)"/>
      <path id="Helvetica-63" d="M 1703 3444 
Q 2269 3444 2623 3169 
Q 2978 2894 3050 2222 
L 2503 2222 
Q 2453 2531 2275 2736 
Q 2097 2941 1703 2941 
Q 1166 2941 934 2416 
Q 784 2075 784 1575 
Q 784 1072 996 728 
Q 1209 384 1666 384 
Q 2016 384 2220 598 
Q 2425 813 2503 1184 
L 3050 1184 
Q 2956 519 2581 211 
Q 2206 -97 1622 -97 
Q 966 -97 575 383 
Q 184 863 184 1581 
Q 184 2463 612 2953 
Q 1041 3444 1703 3444 
z
M 1616 3428 
L 1616 3428 
z
" transform="scale(0.015625)"/>
      <path id="Helvetica-4c" d="M 488 4591 
L 1109 4591 
L 1109 547 
L 3434 547 
L 3434 0 
L 488 0 
L 488 4591 
z
" transform="scale(0.015625)"/>
     </defs>
     <use xlink:href="#Helvetica-46"/>
     <use xlink:href="#Helvetica-69" x="61.083984"/>
     <use xlink:href="#Helvetica-72" x="83.300781"/>
     <use xlink:href="#Helvetica-73" x="116.601562"/>
     <use xlink:href="#Helvetica-74" x="166.601562"/>
     <use xlink:href="#Helvetica-20" x="194.384766"/>
     <use xlink:href="#Helvetica-4f" x="222.167969"/>
     <use xlink:href="#Helvetica-72" x="299.951172"/>
     <use xlink:href="#Helvetica-64" x="333.251953"/>
     <use xlink:href="#Helvetica-65" x="388.867188"/>
     <use xlink:href="#Helvetica-72" x="444.482422"/>
     <use xlink:href="#Helvetica-20" x="477.783203"/>
     <use xlink:href="#Helvetica-50" x="505.566406"/>
     <use xlink:href="#Helvetica-72" x="572.265625"/>
     <use xlink:href="#Helvetica-6f" x="605.566406"/>
     <use xlink:href="#Helvetica-70" x="661.181641"/>
     <use xlink:href="#Helvetica-65" x="716.796875"/>
     <use xlink:href="#Helvetica-72" x="772.412109"/>
     <use xlink:href="#Helvetica-74" x="805.712891"/>
     <use xlink:href="#Helvetica-69" x="833.496094"/>
     <use xlink:href="#Helvetica-65" x="855.712891"/>
     <use xlink:href="#Helvetica-73" x="911.328125"/>
     <use xlink:href="#Helvetica-20" x="961.328125"/>
     <use xlink:href="#Helvetica-6f" x="989.111328"/>
     <use xlink:href="#Helvetica-66" x="1044.726562"/>
     <use xlink:href="#Helvetica-20" x="1072.509766"/>
     <use xlink:href="#Helvetica-4e" x="1100.292969"/>
     <use xlink:href="#Helvetica-61" x="1172.509766"/>
     <use xlink:href="#Helvetica-6e" x="1228.125"/>
     <use xlink:href="#Helvetica-6f" x="1283.740234"/>
     <use xlink:href="#Helvetica-4d" x="1339.355469"/>
     <use xlink:href="#Helvetica-69" x="1422.65625"/>
     <use xlink:href="#Helvetica-20" x="1444.873047"/>
     <use xlink:href="#Helvetica-53" x="1472.65625"/>
     <use xlink:href="#Helvetica-79" x="1539.355469"/>
     <use xlink:href="#Helvetica-6d" x="1589.355469"/>
     <use xlink:href="#Helvetica-6d" x="1672.65625"/>
     <use xlink:href="#Helvetica-65" x="1755.957031"/>
     <use xlink:href="#Helvetica-74" x="1811.572266"/>
     <use xlink:href="#Helvetica-72" x="1839.355469"/>
     <use xlink:href="#Helvetica-69" x="1872.65625"/>
     <use xlink:href="#Helvetica-63" x="1894.873047"/>
     <use xlink:href="#Helvetica-20" x="1944.873047"/>
     <use xlink:href="#Helvetica-4c" x="1972.65625"/>
     <use xlink:href="#Helvetica-65" x="2028.271484"/>
     <use xlink:href="#Helvetica-6e" x="2083.886719"/>
     <use xlink:href="#Helvetica-73" x="2139.501953"/>
    </g>
   </g>
   <g id="patch_8">
    <path d="M 110.541176 111.024 
L 117.187941 117.6768 
L 112.756765 117.6768 
L 112.756765 177.552 
L 108.325588 177.552 
L 108.325588 117.6768 
L 103.894412 117.6768 
z
" clip-path="url(#p4e3d68f9a7)" style="stroke: #000000; stroke-linejoin: miter"/>
   </g>
   <g id="patch_9">
    <path d="M 426.727657 186.232787 
L 426.639034 185.567507 
L 426.698116 185.567507 
L 426.698116 177.552 
L 426.757199 177.552 
L 426.757199 185.567507 
L 426.816281 185.567507 
z
" clip-path="url(#p4e3d68f9a7)" style="fill: #808080; stroke: #808080; stroke-linejoin: miter"/>
   </g>
   <g id="patch_10">
    <path d="M 427.467412 188.033338 
L 427.378789 187.368058 
L 427.437871 187.368058 
L 427.437871 177.552 
L 427.496953 177.552 
L 427.496953 187.368058 
L 427.556036 187.368058 
z
" clip-path="url(#p4e3d68f9a7)" style="stroke: #000000; stroke-linejoin: miter"/>
   </g>
  </g>
  <g id="axes_2">
   <g id="patch_11">
    <path d="M 81 576.72 
L 583.2 576.72 
L 583.2 377.136 
L 81 377.136 
z
" style="fill: #ffffff"/>
   </g>
   <g id="matplotlib.axis_3">
    <g id="xtick_10">
     <g id="line2d_21">
      <g>
       <use xlink:href="#m0335771646" x="81" y="576.72" style="stroke: #000000; stroke-width: 0.8"/>
      </g>
     </g>
     <g id="text_20">
      <!-- 3.4 -->
      <g transform="translate(74.05 590.893438) scale(0.1 -0.1)">
       <defs>
        <path id="Helvetica-2e" d="M 547 681 
L 1200 681 
L 1200 0 
L 547 0 
L 547 681 
z
" transform="scale(0.015625)"/>
       </defs>
       <use xlink:href="#Helvetica-33"/>
       <use xlink:href="#Helvetica-2e" x="55.615234"/>
       <use xlink:href="#Helvetica-34" x="83.398438"/>
      </g>
     </g>
    </g>
    <g id="xtick_11">
     <g id="line2d_22">
      <g>
       <use xlink:href="#m0335771646" x="206.55" y="576.72" style="stroke: #000000; stroke-width: 0.8"/>
      </g>
     </g>
     <g id="text_21">
      <!-- 3.5 -->
      <g transform="translate(199.6 590.893438) scale(0.1 -0.1)">
       <use xlink:href="#Helvetica-33"/>
       <use xlink:href="#Helvetica-2e" x="55.615234"/>
       <use xlink:href="#Helvetica-35" x="83.398438"/>
      </g>
     </g>
    </g>
    <g id="xtick_12">
     <g id="line2d_23">
      <g>
       <use xlink:href="#m0335771646" x="332.1" y="576.72" style="stroke: #000000; stroke-width: 0.8"/>
      </g>
     </g>
     <g id="text_22">
      <!-- 3.6 -->
      <g transform="translate(325.15 590.893438) scale(0.1 -0.1)">
       <defs>
        <path id="Helvetica-36" d="M 1872 4494 
Q 2622 4494 2917 4105 
Q 3213 3716 3213 3303 
L 2656 3303 
Q 2606 3569 2497 3719 
Q 2294 4000 1881 4000 
Q 1409 4000 1131 3564 
Q 853 3128 822 2316 
Q 1016 2600 1309 2741 
Q 1578 2866 1909 2866 
Q 2472 2866 2890 2506 
Q 3309 2147 3309 1434 
Q 3309 825 2912 354 
Q 2516 -116 1781 -116 
Q 1153 -116 697 361 
Q 241 838 241 1966 
Q 241 2800 444 3381 
Q 834 4494 1872 4494 
z
M 1831 384 
Q 2275 384 2495 682 
Q 2716 981 2716 1388 
Q 2716 1731 2519 2042 
Q 2322 2353 1803 2353 
Q 1441 2353 1167 2112 
Q 894 1872 894 1388 
Q 894 963 1142 673 
Q 1391 384 1831 384 
z
" transform="scale(0.015625)"/>
       </defs>
       <use xlink:href="#Helvetica-33"/>
       <use xlink:href="#Helvetica-2e" x="55.615234"/>
       <use xlink:href="#Helvetica-36" x="83.398438"/>
      </g>
     </g>
    </g>
    <g id="xtick_13">
     <g id="line2d_24">
      <g>
       <use xlink:href="#m0335771646" x="457.65" y="576.72" style="stroke: #000000; stroke-width: 0.8"/>
      </g>
     </g>
     <g id="text_23">
      <!-- 3.7 -->
      <g transform="translate(450.7 590.893438) scale(0.1 -0.1)">
       <defs>
        <path id="Helvetica-37" d="M 3347 4400 
L 3347 3909 
Q 3131 3700 2773 3181 
Q 2416 2663 2141 2063 
Q 1869 1478 1728 997 
Q 1638 688 1494 0 
L 872 0 
Q 1084 1281 1809 2550 
Q 2238 3294 2709 3834 
L 234 3834 
L 234 4400 
L 3347 4400 
z
" transform="scale(0.015625)"/>
       </defs>
       <use xlink:href="#Helvetica-33"/>
       <use xlink:href="#Helvetica-2e" x="55.615234"/>
       <use xlink:href="#Helvetica-37" x="83.398438"/>
      </g>
     </g>
    </g>
    <g id="xtick_14">
     <g id="line2d_25">
      <g>
       <use xlink:href="#m0335771646" x="583.2" y="576.72" style="stroke: #000000; stroke-width: 0.8"/>
      </g>
     </g>
     <g id="text_24">
      <!-- 3.8 -->
      <g transform="translate(576.25 590.893438) scale(0.1 -0.1)">
       <defs>
        <path id="Helvetica-38" d="M 1741 2600 
Q 2113 2600 2322 2808 
Q 2531 3016 2531 3303 
Q 2531 3553 2331 3762 
Q 2131 3972 1722 3972 
Q 1316 3972 1134 3762 
Q 953 3553 953 3272 
Q 953 2956 1187 2778 
Q 1422 2600 1741 2600 
z
M 1775 384 
Q 2166 384 2423 595 
Q 2681 806 2681 1225 
Q 2681 1659 2415 1884 
Q 2150 2109 1734 2109 
Q 1331 2109 1076 1879 
Q 822 1650 822 1244 
Q 822 894 1055 639 
Q 1288 384 1775 384 
z
M 975 2384 
Q 741 2484 609 2619 
Q 363 2869 363 3269 
Q 363 3769 725 4128 
Q 1088 4488 1753 4488 
Q 2397 4488 2762 4148 
Q 3128 3809 3128 3356 
Q 3128 2938 2916 2678 
Q 2797 2531 2547 2391 
Q 2825 2263 2984 2097 
Q 3281 1784 3281 1284 
Q 3281 694 2884 283 
Q 2488 -128 1763 -128 
Q 1109 -128 657 226 
Q 206 581 206 1256 
Q 206 1653 400 1942 
Q 594 2231 975 2384 
z
" transform="scale(0.015625)"/>
       </defs>
       <use xlink:href="#Helvetica-33"/>
       <use xlink:href="#Helvetica-2e" x="55.615234"/>
       <use xlink:href="#Helvetica-38" x="83.398438"/>
      </g>
     </g>
    </g>
    <g id="text_25">
     <!-- Z (mm) -->
     <g transform="translate(315.997656 604.224688) scale(0.1 -0.1)">
      <use xlink:href="#Helvetica-5a"/>
      <use xlink:href="#Helvetica-20" x="61.083984"/>
      <use xlink:href="#Helvetica-28" x="88.867188"/>
      <use xlink:href="#Helvetica-6d" x="122.167969"/>
      <use xlink:href="#Helvetica-6d" x="205.46875"/>
      <use xlink:href="#Helvetica-29" x="288.769531"/>
     </g>
    </g>
   </g>
   <g id="matplotlib.axis_4">
    <g id="ytick_8">
     <g id="line2d_26">
      <g>
       <use xlink:href="#m2f14b0f5a1" x="81" y="576.72" style="stroke: #000000; stroke-width: 0.8"/>
      </g>
     </g>
     <g id="text_26">
      <!-- −200 -->
      <g transform="translate(51.476562 580.306719) scale(0.1 -0.1)">
       <use xlink:href="#Helvetica-2212"/>
       <use xlink:href="#Helvetica-32" x="58.398438"/>
       <use xlink:href="#Helvetica-30" x="114.013672"/>
       <use xlink:href="#Helvetica-30" x="169.628906"/>
      </g>
     </g>
    </g>
    <g id="ytick_9">
     <g id="line2d_27">
      <g>
       <use xlink:href="#m2f14b0f5a1" x="81" y="552.96" style="stroke: #000000; stroke-width: 0.8"/>
      </g>
     </g>
     <g id="text_27">
      <!-- −175 -->
      <g transform="translate(51.476562 556.546719) scale(0.1 -0.1)">
       <use xlink:href="#Helvetica-2212"/>
       <use xlink:href="#Helvetica-31" x="58.398438"/>
       <use xlink:href="#Helvetica-37" x="114.013672"/>
       <use xlink:href="#Helvetica-35" x="169.628906"/>
      </g>
     </g>
    </g>
    <g id="ytick_10">
     <g id="line2d_28">
      <g>
       <use xlink:href="#m2f14b0f5a1" x="81" y="529.2" style="stroke: #000000; stroke-width: 0.8"/>
      </g>
     </g>
     <g id="text_28">
      <!-- −150 -->
      <g transform="translate(51.476562 532.786719) scale(0.1 -0.1)">
       <use xlink:href="#Helvetica-2212"/>
       <use xlink:href="#Helvetica-31" x="58.398438"/>
       <use xlink:href="#Helvetica-35" x="114.013672"/>
       <use xlink:href="#Helvetica-30" x="169.628906"/>
      </g>
     </g>
    </g>
    <g id="ytick_11">
     <g id="line2d_29">
      <g>
       <use xlink:href="#m2f14b0f5a1" x="81" y="505.44" style="stroke: #000000; stroke-width: 0.8"/>
      </g>
     </g>
     <g id="text_29">
      <!-- −125 -->
      <g transform="translate(51.476562 509.026719) scale(0.1 -0.1)">
       <use xlink:href="#Helvetica-2212"/>
       <use xlink:href="#Helvetica-31" x="58.398438"/>
       <use xlink:href="#Helvetica-32" x="114.013672"/>
       <use xlink:href="#Helvetica-35" x="169.628906"/>
      </g>
     </g>
    </g>
    <g id="ytick_12">
     <g id="line2d_30">
      <g>
       <use xlink:href="#m2f14b0f5a1" x="81" y="481.68" style="stroke: #000000; stroke-width: 0.8"/>
      </g>
     </g>
     <g id="text_30">
      <!-- −100 -->
      <g transform="translate(51.476562 485.266719) scale(0.1 -0.1)">
       <use xlink:href="#Helvetica-2212"/>
       <use xlink:href="#Helvetica-31" x="58.398438"/>
       <use xlink:href="#Helvetica-30" x="114.013672"/>
       <use xlink:href="#Helvetica-30" x="169.628906"/>
      </g>
     </g>
    </g>
    <g id="ytick_13">
     <g id="line2d_31">
      <g>
       <use xlink:href="#m2f14b0f5a1" x="81" y="457.92" style="stroke: #000000; stroke-width: 0.8"/>
      </g>
     </g>
     <g id="text_31">
      <!-- −75 -->
      <g transform="translate(57.0375 461.506719) scale(0.1 -0.1)">
       <use xlink:href="#Helvetica-2212"/>
       <use xlink:href="#Helvetica-37" x="58.398438"/>
       <use xlink:href="#Helvetica-35" x="114.013672"/>
      </g>
     </g>
    </g>
    <g id="ytick_14">
     <g id="line2d_32">
      <g>
       <use xlink:href="#m2f14b0f5a1" x="81" y="434.16" style="stroke: #000000; stroke-width: 0.8"/>
      </g>
     </g>
     <g id="text_32">
      <!-- −50 -->
      <g transform="translate(57.0375 437.746719) scale(0.1 -0.1)">
       <use xlink:href="#Helvetica-2212"/>
       <use xlink:href="#Helvetica-35" x="58.398438"/>
       <use xlink:href="#Helvetica-30" x="114.013672"/>
      </g>
     </g>
    </g>
    <g id="ytick_15">
     <g id="line2d_33">
      <g>
       <use xlink:href="#m2f14b0f5a1" x="81" y="410.4" style="stroke: #000000; stroke-width: 0.8"/>
      </g>
     </g>
     <g id="text_33">
      <!-- −25 -->
      <g transform="translate(57.0375 413.986719) scale(0.1 -0.1)">
       <use xlink:href="#Helvetica-2212"/>
       <use xlink:href="#Helvetica-32" x="58.398438"/>
       <use xlink:href="#Helvetica-35" x="114.013672"/>
      </g>
     </g>
    </g>
    <g id="ytick_16">
     <g id="line2d_34">
      <g>
       <use xlink:href="#m2f14b0f5a1" x="81" y="386.64" style="stroke: #000000; stroke-width: 0.8"/>
      </g>
     </g>
     <g id="text_34">
      <!-- 0 -->
      <g transform="translate(68.439063 390.226719) scale(0.1 -0.1)">
       <use xlink:href="#Helvetica-30"/>
      </g>
     </g>
    </g>
    <g id="text_35">
     <!-- R (mm) -->
     <g transform="translate(45.392187 493.587375) rotate(-90) scale(0.1 -0.1)">
      <use xlink:href="#Helvetica-52"/>
      <use xlink:href="#Helvetica-20" x="72.216797"/>
      <use xlink:href="#Helvetica-28" x="100"/>
      <use xlink:href="#Helvetica-6d" x="133.300781"/>
      <use xlink:href="#Helvetica-6d" x="216.601562"/>
      <use xlink:href="#Helvetica-29" x="299.902344"/>
     </g>
    </g>
   </g>
   <g id="LineCollection_4">
    <path d="M -1 386.64 
L 649 386.64 
" clip-path="url(#pe62387a81a)" style="fill: none; stroke: #000000; stroke-width: 1.5"/>
   </g>
   <g id="line2d_35">
    <path d="M 70.317636 483.880453 
L 90.23084 487.303627 
L 110.079535 490.702948 
L 129.951655 494.093589 
L 149.914274 497.486958 
L 170.02268 500.892303 
L 190.322772 504.31715 
L 210.840296 507.765529 
L 231.568317 511.235944 
L 252.479884 514.723583 
L 273.505661 518.216682 
L 294.532618 521.696437 
L 315.43761 525.142672 
L 336.078367 528.532386 
L 356.342326 531.847772 
L 376.145109 535.075864 
L 395.437197 538.209522 
L 414.211916 541.248609 
L 432.471199 544.194354 
L 450.24655 547.052698 
L 467.572925 549.830037 
L 484.491719 552.5337 
L 501.042667 555.170646 
L 517.262945 557.747338 
L 533.185543 560.26949 
L 548.843961 562.742826 
L 564.265786 565.172071 
L 579.478273 567.56184 
L 594.506305 569.916325 
" clip-path="url(#pe62387a81a)" style="fill: none; stroke: #1e90ff; stroke-width: 1.5; stroke-linecap: square"/>
   </g>
   <g id="line2d_36">
    <path d="M 42.542335 383.835704 
L 88.899243 384.226059 
L 142.484258 384.673377 
L 210.97243 385.239094 
L 306.972498 386.020913 
L 383.632149 386.636071 
L 442.585946 387.103731 
L 500.192465 387.556234 
L 549.797186 387.942397 
L 593.549732 388.280362 
" clip-path="url(#pe62387a81a)" style="fill: none; stroke: #ff0000; stroke-width: 1.5; stroke-linecap: square"/>
   </g>
   <g id="line2d_37">
    <path d="M -1 482.691001 
L 649 562.427677 
" clip-path="url(#pe62387a81a)" style="fill: none; stroke-dasharray: 5.55,2.4; stroke-dashoffset: 0; stroke: #87ceeb; stroke-width: 1.5"/>
   </g>
   <g id="line2d_38">
    <path d="M 226.927183 386.64 
L 649 389.088626 
" clip-path="url(#pe62387a81a)" style="fill: none; stroke-dasharray: 5.55,2.4; stroke-dashoffset: 0; stroke: #cd5c5c; stroke-width: 1.5"/>
   </g>
   <g id="patch_12">
    <path d="M 81 576.72 
L 81 377.136 
" style="fill: none; stroke: #000000; stroke-width: 0.8; stroke-linejoin: miter; stroke-linecap: square"/>
   </g>
   <g id="patch_13">
    <path d="M 81 576.72 
L 583.2 576.72 
" style="fill: none; stroke: #000000; stroke-width: 0.8; stroke-linejoin: miter; stroke-linecap: square"/>
   </g>
   <g id="text_36">
    <!-- Inset Axis - Real &amp; Asymptotic Image -->
    <g transform="translate(233.402813 371.136) scale(0.12 -0.12)">
     <defs>
      <path id="Helvetica-49" d="M 628 4591 
L 1256 4591 
L 1256 0 
L 628 0 
L 628 4591 
z
" transform="scale(0.015625)"/>
      <path id="Helvetica-41" d="M 2844 1881 
L 2147 3909 
L 1406 1881 
L 2844 1881 
z
M 1822 4591 
L 2525 4591 
L 4191 0 
L 3509 0 
L 3044 1375 
L 1228 1375 
L 731 0 
L 94 0 
L 1822 4591 
z
M 2144 4591 
L 2144 4591 
z
" transform="scale(0.015625)"/>
      <path id="Helvetica-78" d="M 94 3347 
L 822 3347 
L 1591 2169 
L 2369 3347 
L 3053 3331 
L 1925 1716 
L 3103 0 
L 2384 0 
L 1553 1256 
L 747 0 
L 34 0 
L 1213 1716 
L 94 3347 
z
" transform="scale(0.015625)"/>
      <path id="Helvetica-2d" d="M 266 2072 
L 1834 2072 
L 1834 1494 
L 266 1494 
L 266 2072 
z
" transform="scale(0.015625)"/>
      <path id="Helvetica-6c" d="M 428 4591 
L 991 4591 
L 991 0 
L 428 0 
L 428 4591 
z
" transform="scale(0.015625)"/>
      <path id="Helvetica-26" d="M 1828 2806 
Q 2125 3016 2238 3147 
Q 2422 3359 2422 3619 
Q 2422 3822 2287 3969 
Q 2153 4116 1925 4116 
Q 1578 4116 1444 3884 
Q 1375 3766 1375 3625 
Q 1375 3434 1479 3259 
Q 1584 3084 1828 2806 
z
M 1684 388 
Q 2031 388 2281 547 
Q 2531 706 2666 903 
L 1628 2169 
Q 1188 1875 1053 1719 
Q 847 1484 847 1147 
Q 847 781 1114 584 
Q 1381 388 1684 388 
z
M 1316 2553 
Q 1025 2888 926 3116 
Q 828 3344 828 3556 
Q 828 4000 1128 4292 
Q 1428 4584 1931 4584 
Q 2409 4584 2678 4312 
Q 2947 4041 2947 3663 
Q 2947 3222 2669 2891 
Q 2506 2697 2125 2444 
L 2963 1444 
Q 3047 1694 3080 1817 
Q 3113 1941 3147 2163 
L 3681 2163 
Q 3628 1722 3468 1317 
Q 3309 913 3309 991 
L 4125 0 
L 3400 0 
L 2969 525 
Q 2713 247 2500 119 
Q 2128 -106 1644 -106 
Q 928 -106 603 280 
Q 278 666 278 1150 
Q 278 1672 594 2022 
Q 788 2234 1316 2553 
z
" transform="scale(0.015625)"/>
      <path id="Helvetica-67" d="M 1594 3406 
Q 1988 3406 2281 3213 
Q 2441 3103 2606 2894 
L 2606 3316 
L 3125 3316 
L 3125 272 
Q 3125 -366 2938 -734 
Q 2588 -1416 1616 -1416 
Q 1075 -1416 706 -1173 
Q 338 -931 294 -416 
L 866 -416 
Q 906 -641 1028 -763 
Q 1219 -950 1628 -950 
Q 2275 -950 2475 -494 
Q 2594 -225 2584 466 
Q 2416 209 2178 84 
Q 1941 -41 1550 -41 
Q 1006 -41 598 345 
Q 191 731 191 1622 
Q 191 2463 602 2934 
Q 1013 3406 1594 3406 
z
M 2606 1688 
Q 2606 2309 2350 2609 
Q 2094 2909 1697 2909 
Q 1103 2909 884 2353 
Q 769 2056 769 1575 
Q 769 1009 998 714 
Q 1228 419 1616 419 
Q 2222 419 2469 966 
Q 2606 1275 2606 1688 
z
M 1659 3428 
L 1659 3428 
z
" transform="scale(0.015625)"/>
     </defs>
     <use xlink:href="#Helvetica-49"/>
     <use xlink:href="#Helvetica-6e" x="27.783203"/>
     <use xlink:href="#Helvetica-73" x="83.398438"/>
     <use xlink:href="#Helvetica-65" x="133.398438"/>
     <use xlink:href="#Helvetica-74" x="189.013672"/>
     <use xlink:href="#Helvetica-20" x="216.796875"/>
     <use xlink:href="#Helvetica-41" x="244.580078"/>
     <use xlink:href="#Helvetica-78" x="311.279297"/>
     <use xlink:href="#Helvetica-69" x="361.279297"/>
     <use xlink:href="#Helvetica-73" x="383.496094"/>
     <use xlink:href="#Helvetica-20" x="433.496094"/>
     <use xlink:href="#Helvetica-2d" x="461.279297"/>
     <use xlink:href="#Helvetica-20" x="494.580078"/>
     <use xlink:href="#Helvetica-52" x="522.363281"/>
     <use xlink:href="#Helvetica-65" x="594.580078"/>
     <use xlink:href="#Helvetica-61" x="650.195312"/>
     <use xlink:href="#Helvetica-6c" x="705.810547"/>
     <use xlink:href="#Helvetica-20" x="728.027344"/>
     <use xlink:href="#Helvetica-26" x="755.810547"/>
     <use xlink:href="#Helvetica-20" x="822.509766"/>
     <use xlink:href="#Helvetica-41" x="850.292969"/>
     <use xlink:href="#Helvetica-73" x="916.992188"/>
     <use xlink:href="#Helvetica-79" x="966.992188"/>
     <use xlink:href="#Helvetica-6d" x="1016.992188"/>
     <use xlink:href="#Helvetica-70" x="1100.292969"/>
     <use xlink:href="#Helvetica-74" x="1155.908203"/>
     <use xlink:href="#Helvetica-6f" x="1183.691406"/>
     <use xlink:href="#Helvetica-74" x="1239.306641"/>
     <use xlink:href="#Helvetica-69" x="1267.089844"/>
     <use xlink:href="#Helvetica-63" x="1289.306641"/>
     <use xlink:href="#Helvetica-20" x="1339.306641"/>
     <use xlink:href="#Helvetica-49" x="1367.089844"/>
     <use xlink:href="#Helvetica-6d" x="1394.873047"/>
     <use xlink:href="#Helvetica-61" x="1478.173828"/>
     <use xlink:href="#Helvetica-67" x="1533.789062"/>
     <use xlink:href="#Helvetica-65" x="1589.404297"/>
    </g>
   </g>
   <g id="patch_14">
    <path d="M 226.927183 510.651241 
L 222.219058 501.147241 
L 225.357808 501.147241 
L 225.357808 386.64 
L 228.496558 386.64 
L 228.496558 501.147241 
L 231.635308 501.147241 
z
" clip-path="url(#pe62387a81a)" style="fill: #808080; stroke: #808080; stroke-linejoin: miter"/>
   </g>
   <g id="patch_15">
    <path d="M 384.125059 536.3734 
L 379.416934 526.8694 
L 382.555684 526.8694 
L 382.555684 386.64 
L 385.694434 386.64 
L 385.694434 526.8694 
L 388.833184 526.8694 
z
" clip-path="url(#pe62387a81a)" style="stroke: #000000; stroke-linejoin: miter"/>
   </g>
  </g>
  <g id="axes_3">
   <g id="line2d_39">
    <path d="M 110.541176 177.552006 
L 343.918804 177.663217 
L 350.010256 177.931713 
L 353.697032 178.297047 
L 356.06035 178.742643 
L 357.809204 179.291312 
L 359.227195 179.964667 
L 360.467937 180.799234 
L 361.625963 181.849151 
L 362.772172 183.196928 
L 363.953831 184.941614 
L 365.230022 187.239513 
L 366.665738 190.304149 
L 368.373235 194.500877 
L 370.565212 200.518051 
L 373.879765 210.342739 
L 381.525098 233.144589 
L 384.579686 241.466746 
L 387.120253 247.766771 
L 389.353588 252.729976 
L 391.374225 256.695427 
L 393.241246 259.883833 
L 394.990101 262.443334 
L 396.650332 264.490306 
L 398.245571 266.112315 
L 399.781728 267.364556 
L 401.276526 268.301868 
L 402.735875 268.958908 
L 404.171591 269.364131 
L 405.589581 269.534642 
L 406.995755 269.480514 
L 408.401929 269.203394 
L 409.814011 268.697196 
L 411.243819 267.9459 
L 412.697259 266.927796 
L 414.186149 265.609238 
L 415.722306 263.946336 
L 417.323453 261.877294 
L 419.001409 259.336284 
L 420.779806 256.22939 
L 422.694093 252.424821 
L 424.791538 247.745111 
L 427.137131 241.948814 
L 429.860855 234.599869 
L 433.252215 224.770323 
L 443.721713 193.93016 
L 445.600551 189.367389 
L 447.148524 186.165545 
L 448.507431 183.845675 
L 449.75999 182.132253 
L 450.965282 180.850102 
L 452.176482 179.880849 
L 453.452674 179.142878 
L 454.876573 178.579334 
L 456.566345 178.157007 
L 458.734689 177.85627 
L 461.88381 177.6633 
L 467.620764 177.570011 
L 490.414964 177.55224 
L 583.204727 177.552003 
L 583.204727 177.552003 
" clip-path="url(#p4e3d68f9a7)" style="fill: none; stroke: #808080; stroke-opacity: 0.7; stroke-width: 1.5; stroke-linecap: square"/>
   </g>
   <g id="matplotlib.axis_5">
    <g id="ytick_17">
     <g id="line2d_40">
      <defs>
       <path id="mbe35aee448" d="M 0 0 
L 3.5 0 
" style="stroke: #000000; stroke-width: 0.8"/>
      </defs>
      <g>
       <use xlink:href="#mbe35aee448" x="583.2" y="277.344" style="stroke: #000000; stroke-width: 0.8"/>
      </g>
     </g>
     <g id="text_37">
      <!-- −1000 -->
      <g transform="translate(590.2 280.930719) scale(0.1 -0.1)">
       <use xlink:href="#Helvetica-2212"/>
       <use xlink:href="#Helvetica-31" x="58.398438"/>
       <use xlink:href="#Helvetica-30" x="114.013672"/>
       <use xlink:href="#Helvetica-30" x="169.628906"/>
       <use xlink:href="#Helvetica-30" x="225.244141"/>
      </g>
     </g>
    </g>
    <g id="ytick_18">
     <g id="line2d_41">
      <g>
       <use xlink:href="#mbe35aee448" x="583.2" y="252.396" style="stroke: #000000; stroke-width: 0.8"/>
      </g>
     </g>
     <g id="text_38">
      <!-- −750 -->
      <g transform="translate(590.2 255.982719) scale(0.1 -0.1)">
       <use xlink:href="#Helvetica-2212"/>
       <use xlink:href="#Helvetica-37" x="58.398438"/>
       <use xlink:href="#Helvetica-35" x="114.013672"/>
       <use xlink:href="#Helvetica-30" x="169.628906"/>
      </g>
     </g>
    </g>
    <g id="ytick_19">
     <g id="line2d_42">
      <g>
       <use xlink:href="#mbe35aee448" x="583.2" y="227.448" style="stroke: #000000; stroke-width: 0.8"/>
      </g>
     </g>
     <g id="text_39">
      <!-- −500 -->
      <g transform="translate(590.2 231.034719) scale(0.1 -0.1)">
       <use xlink:href="#Helvetica-2212"/>
       <use xlink:href="#Helvetica-35" x="58.398438"/>
       <use xlink:href="#Helvetica-30" x="114.013672"/>
       <use xlink:href="#Helvetica-30" x="169.628906"/>
      </g>
     </g>
    </g>
    <g id="ytick_20">
     <g id="line2d_43">
      <g>
       <use xlink:href="#mbe35aee448" x="583.2" y="202.5" style="stroke: #000000; stroke-width: 0.8"/>
      </g>
     </g>
     <g id="text_40">
      <!-- −250 -->
      <g transform="translate(590.2 206.086719) scale(0.1 -0.1)">
       <use xlink:href="#Helvetica-2212"/>
       <use xlink:href="#Helvetica-32" x="58.398438"/>
       <use xlink:href="#Helvetica-35" x="114.013672"/>
       <use xlink:href="#Helvetica-30" x="169.628906"/>
      </g>
     </g>
    </g>
    <g id="ytick_21">
     <g id="line2d_44">
      <g>
       <use xlink:href="#mbe35aee448" x="583.2" y="177.552" style="stroke: #000000; stroke-width: 0.8"/>
      </g>
     </g>
     <g id="text_41">
      <!-- 0 -->
      <g transform="translate(590.2 181.138719) scale(0.1 -0.1)">
       <use xlink:href="#Helvetica-30"/>
      </g>
     </g>
    </g>
    <g id="ytick_22">
     <g id="line2d_45">
      <g>
       <use xlink:href="#mbe35aee448" x="583.2" y="152.604" style="stroke: #000000; stroke-width: 0.8"/>
      </g>
     </g>
     <g id="text_42">
      <!-- 250 -->
      <g transform="translate(590.2 156.190719) scale(0.1 -0.1)">
       <use xlink:href="#Helvetica-32"/>
       <use xlink:href="#Helvetica-35" x="55.615234"/>
       <use xlink:href="#Helvetica-30" x="111.230469"/>
      </g>
     </g>
    </g>
    <g id="ytick_23">
     <g id="line2d_46">
      <g>
       <use xlink:href="#mbe35aee448" x="583.2" y="127.656" style="stroke: #000000; stroke-width: 0.8"/>
      </g>
     </g>
     <g id="text_43">
      <!-- 500 -->
      <g transform="translate(590.2 131.242719) scale(0.1 -0.1)">
       <use xlink:href="#Helvetica-35"/>
       <use xlink:href="#Helvetica-30" x="55.615234"/>
       <use xlink:href="#Helvetica-30" x="111.230469"/>
      </g>
     </g>
    </g>
    <g id="ytick_24">
     <g id="line2d_47">
      <g>
       <use xlink:href="#mbe35aee448" x="583.2" y="102.708" style="stroke: #000000; stroke-width: 0.8"/>
      </g>
     </g>
     <g id="text_44">
      <!-- 750 -->
      <g transform="translate(590.2 106.294719) scale(0.1 -0.1)">
       <use xlink:href="#Helvetica-37"/>
       <use xlink:href="#Helvetica-35" x="55.615234"/>
       <use xlink:href="#Helvetica-30" x="111.230469"/>
      </g>
     </g>
    </g>
    <g id="ytick_25">
     <g id="line2d_48">
      <g>
       <use xlink:href="#mbe35aee448" x="583.2" y="77.76" style="stroke: #000000; stroke-width: 0.8"/>
      </g>
     </g>
     <g id="text_45">
      <!-- 1000 -->
      <g transform="translate(590.2 81.346719) scale(0.1 -0.1)">
       <use xlink:href="#Helvetica-31"/>
       <use xlink:href="#Helvetica-30" x="55.615234"/>
       <use xlink:href="#Helvetica-30" x="111.230469"/>
       <use xlink:href="#Helvetica-30" x="166.845703"/>
      </g>
     </g>
    </g>
    <g id="text_46">
     <!-- Voltage (V) -->
     <g transform="translate(629.575 202.562937) rotate(-90) scale(0.1 -0.1)">
      <defs>
       <path id="Helvetica-56" d="M 850 4591 
L 2169 681 
L 3472 4591 
L 4169 4591 
L 2494 0 
L 1834 0 
L 163 4591 
L 850 4591 
z
" transform="scale(0.015625)"/>
      </defs>
      <use xlink:href="#Helvetica-56"/>
      <use xlink:href="#Helvetica-6f" x="66.699219"/>
      <use xlink:href="#Helvetica-6c" x="122.314453"/>
      <use xlink:href="#Helvetica-74" x="144.53125"/>
      <use xlink:href="#Helvetica-61" x="172.314453"/>
      <use xlink:href="#Helvetica-67" x="227.929688"/>
      <use xlink:href="#Helvetica-65" x="283.544922"/>
      <use xlink:href="#Helvetica-20" x="339.160156"/>
      <use xlink:href="#Helvetica-28" x="366.943359"/>
      <use xlink:href="#Helvetica-56" x="400.244141"/>
      <use xlink:href="#Helvetica-29" x="466.943359"/>
     </g>
    </g>
   </g>
   <g id="patch_16">
    <path d="M 81 277.344 
L 81 77.76 
" style="fill: none; stroke: #000000; stroke-width: 0.8; stroke-linejoin: miter; stroke-linecap: square"/>
   </g>
   <g id="patch_17">
    <path d="M 583.2 277.344 
L 583.2 77.76 
" style="fill: none; stroke: #000000; stroke-width: 0.8; stroke-linejoin: miter; stroke-linecap: square"/>
   </g>
   <g id="patch_18">
    <path d="M 81 277.344 
L 583.2 277.344 
" style="fill: none; stroke: #000000; stroke-width: 0.8; stroke-linejoin: miter; stroke-linecap: square"/>
   </g>
  </g>
  <g id="legend_1">
   <g id="patch_19">
    <path d="M 476.578125 110.590312 
L 576.9 110.590312 
Q 578.7 110.590312 578.7 108.790313 
L 578.7 6.3 
Q 578.7 4.5 576.9 4.5 
L 476.578125 4.5 
Q 474.778125 4.5 474.778125 6.3 
L 474.778125 108.790313 
Q 474.778125 110.590312 476.578125 110.590312 
z
" style="fill: #ffffff; opacity: 0.8; stroke: #cccccc; stroke-linejoin: miter"/>
   </g>
   <g id="line2d_49">
    <path d="M 478.378125 11.406094 
L 487.378125 11.406094 
L 496.378125 11.406094 
" style="fill: none; stroke: #1e90ff; stroke-width: 1.5; stroke-linecap: square"/>
   </g>
   <g id="text_47">
    <!-- g -->
    <g transform="translate(503.578125 14.556094) scale(0.09 -0.09)">
     <use xlink:href="#Helvetica-67"/>
    </g>
   </g>
   <g id="line2d_50">
    <path d="M 478.378125 24.353437 
L 487.378125 24.353437 
L 496.378125 24.353437 
" style="fill: none; stroke: #ff0000; stroke-width: 1.5; stroke-linecap: square"/>
   </g>
   <g id="text_48">
    <!-- h -->
    <g transform="translate(503.578125 27.503437) scale(0.09 -0.09)">
     <defs>
      <path id="Helvetica-68" d="M 413 4606 
L 975 4606 
L 975 2894 
Q 1175 3147 1334 3250 
Q 1606 3428 2013 3428 
Q 2741 3428 3000 2919 
Q 3141 2641 3141 2147 
L 3141 0 
L 2563 0 
L 2563 2109 
Q 2563 2478 2469 2650 
Q 2316 2925 1894 2925 
Q 1544 2925 1259 2684 
Q 975 2444 975 1775 
L 975 0 
L 413 0 
L 413 4606 
z
" transform="scale(0.015625)"/>
     </defs>
     <use xlink:href="#Helvetica-68"/>
    </g>
   </g>
   <g id="line2d_51">
    <path d="M 478.378125 37.206562 
L 487.378125 37.206562 
L 496.378125 37.206562 
" style="fill: none; stroke-dasharray: 5.55,2.4; stroke-dashoffset: 0; stroke: #cd5c5c; stroke-width: 1.5"/>
   </g>
   <g id="text_49">
    <!-- h asymptote -->
    <g transform="translate(503.578125 40.356562) scale(0.09 -0.09)">
     <use xlink:href="#Helvetica-68"/>
     <use xlink:href="#Helvetica-20" x="55.615234"/>
     <use xlink:href="#Helvetica-61" x="83.398438"/>
     <use xlink:href="#Helvetica-73" x="139.013672"/>
     <use xlink:href="#Helvetica-79" x="189.013672"/>
     <use xlink:href="#Helvetica-6d" x="239.013672"/>
     <use xlink:href="#Helvetica-70" x="322.314453"/>
     <use xlink:href="#Helvetica-74" x="377.929688"/>
     <use xlink:href="#Helvetica-6f" x="405.712891"/>
     <use xlink:href="#Helvetica-74" x="461.328125"/>
     <use xlink:href="#Helvetica-65" x="489.111328"/>
    </g>
   </g>
   <g id="line2d_52">
    <path d="M 478.378125 50.092031 
L 487.378125 50.092031 
L 496.378125 50.092031 
" style="fill: none; stroke-dasharray: 5.55,2.4; stroke-dashoffset: 0; stroke: #87ceeb; stroke-width: 1.5"/>
   </g>
   <g id="text_50">
    <!-- g asymptote -->
    <g transform="translate(503.578125 53.242031) scale(0.09 -0.09)">
     <use xlink:href="#Helvetica-67"/>
     <use xlink:href="#Helvetica-20" x="55.615234"/>
     <use xlink:href="#Helvetica-61" x="83.398438"/>
     <use xlink:href="#Helvetica-73" x="139.013672"/>
     <use xlink:href="#Helvetica-79" x="189.013672"/>
     <use xlink:href="#Helvetica-6d" x="239.013672"/>
     <use xlink:href="#Helvetica-70" x="322.314453"/>
     <use xlink:href="#Helvetica-74" x="377.929688"/>
     <use xlink:href="#Helvetica-6f" x="405.712891"/>
     <use xlink:href="#Helvetica-74" x="461.328125"/>
     <use xlink:href="#Helvetica-65" x="489.111328"/>
    </g>
   </g>
   <g id="PathCollection_4">
    <defs>
     <path id="m12ebb0baa4" d="M 0.493671 -2.236068 
L 0.761732 -2.236068 
L 1.930326 -1.060797 
L 1.572593 -0.703064 
L 0.880976 -1.401358 
L 0.880976 2.236068 
L 0.374427 2.236068 
L 0.374427 -1.401358 
L -0.323867 -0.703064 
L -0.6816 -1.060797 
L 0.493671 -2.236068 
z
" style="stroke: #000000"/>
    </defs>
    <g>
     <use xlink:href="#m12ebb0baa4" x="487.378125" y="64.002656" style="stroke: #000000"/>
    </g>
   </g>
   <g id="text_51">
    <!-- Real Object -->
    <g transform="translate(503.578125 66.365156) scale(0.09 -0.09)">
     <defs>
      <path id="Helvetica-62" d="M 369 4606 
L 916 4606 
L 916 2941 
Q 1100 3181 1356 3307 
Q 1613 3434 1913 3434 
Q 2538 3434 2927 3004 
Q 3316 2575 3316 1738 
Q 3316 944 2931 419 
Q 2547 -106 1866 -106 
Q 1484 -106 1222 78 
Q 1066 188 888 428 
L 888 0 
L 369 0 
L 369 4606 
z
M 1831 391 
Q 2288 391 2514 753 
Q 2741 1116 2741 1709 
Q 2741 2238 2514 2584 
Q 2288 2931 1847 2931 
Q 1463 2931 1173 2647 
Q 884 2363 884 1709 
Q 884 1238 1003 944 
Q 1225 391 1831 391 
z
" transform="scale(0.015625)"/>
      <path id="Helvetica-6a" d="M 975 3941 
L 413 3941 
L 413 4591 
L 975 4591 
L 975 3941 
z
M -119 -847 
Q 259 -834 336 -779 
Q 413 -725 413 -438 
L 413 3331 
L 975 3331 
L 975 -497 
Q 975 -863 856 -1044 
Q 659 -1350 109 -1350 
Q 69 -1350 23 -1347 
Q -22 -1344 -119 -1334 
L -119 -847 
z
" transform="scale(0.015625)"/>
     </defs>
     <use xlink:href="#Helvetica-52"/>
     <use xlink:href="#Helvetica-65" x="72.216797"/>
     <use xlink:href="#Helvetica-61" x="127.832031"/>
     <use xlink:href="#Helvetica-6c" x="183.447266"/>
     <use xlink:href="#Helvetica-20" x="205.664062"/>
     <use xlink:href="#Helvetica-4f" x="233.447266"/>
     <use xlink:href="#Helvetica-62" x="311.230469"/>
     <use xlink:href="#Helvetica-6a" x="366.845703"/>
     <use xlink:href="#Helvetica-65" x="389.0625"/>
     <use xlink:href="#Helvetica-63" x="444.677734"/>
     <use xlink:href="#Helvetica-74" x="494.677734"/>
    </g>
   </g>
   <g id="PathCollection_5">
    <defs>
     <path id="m2e3a0ebccf" d="M 0.761732 2.236068 
L 0.493671 2.236068 
L -0.6816 1.061751 
L -0.323867 0.704018 
L 0.374427 1.401358 
L 0.374427 -2.236068 
L 0.880976 -2.236068 
L 0.880976 1.401358 
L 1.572593 0.704018 
L 1.930326 1.061751 
L 0.761732 2.236068 
z
" style="stroke: #000000"/>
    </defs>
    <g>
     <use xlink:href="#m2e3a0ebccf" x="487.378125" y="76.857187" style="stroke: #000000"/>
    </g>
   </g>
   <g id="text_52">
    <!-- Real Image -->
    <g transform="translate(503.578125 79.219687) scale(0.09 -0.09)">
     <use xlink:href="#Helvetica-52"/>
     <use xlink:href="#Helvetica-65" x="72.216797"/>
     <use xlink:href="#Helvetica-61" x="127.832031"/>
     <use xlink:href="#Helvetica-6c" x="183.447266"/>
     <use xlink:href="#Helvetica-20" x="205.664062"/>
     <use xlink:href="#Helvetica-49" x="233.447266"/>
     <use xlink:href="#Helvetica-6d" x="261.230469"/>
     <use xlink:href="#Helvetica-61" x="344.53125"/>
     <use xlink:href="#Helvetica-67" x="400.146484"/>
     <use xlink:href="#Helvetica-65" x="455.761719"/>
    </g>
   </g>
   <g id="PathCollection_6">
    <defs>
     <path id="mf679c5e5b2" d="M 0.761732 2.236068 
L 0.493671 2.236068 
L -0.6816 1.061751 
L -0.323867 0.704018 
L 0.374427 1.401358 
L 0.374427 -2.236068 
L 0.880976 -2.236068 
L 0.880976 1.401358 
L 1.572593 0.704018 
L 1.930326 1.061751 
L 0.761732 2.236068 
z
" style="stroke: #808080"/>
    </defs>
    <g>
     <use xlink:href="#mf679c5e5b2" x="487.378125" y="89.804531" style="fill: #808080; stroke: #808080"/>
    </g>
   </g>
   <g id="text_53">
    <!-- Asymptotic Image -->
    <g transform="translate(503.578125 92.167031) scale(0.09 -0.09)">
     <use xlink:href="#Helvetica-41"/>
     <use xlink:href="#Helvetica-73" x="66.699219"/>
     <use xlink:href="#Helvetica-79" x="116.699219"/>
     <use xlink:href="#Helvetica-6d" x="166.699219"/>
     <use xlink:href="#Helvetica-70" x="250"/>
     <use xlink:href="#Helvetica-74" x="305.615234"/>
     <use xlink:href="#Helvetica-6f" x="333.398438"/>
     <use xlink:href="#Helvetica-74" x="389.013672"/>
     <use xlink:href="#Helvetica-69" x="416.796875"/>
     <use xlink:href="#Helvetica-63" x="439.013672"/>
     <use xlink:href="#Helvetica-20" x="489.013672"/>
     <use xlink:href="#Helvetica-49" x="516.796875"/>
     <use xlink:href="#Helvetica-6d" x="544.580078"/>
     <use xlink:href="#Helvetica-61" x="627.880859"/>
     <use xlink:href="#Helvetica-67" x="683.496094"/>
     <use xlink:href="#Helvetica-65" x="739.111328"/>
    </g>
   </g>
   <g id="line2d_53">
    <path d="M 478.378125 101.964375 
L 487.378125 101.964375 
L 496.378125 101.964375 
" style="fill: none; stroke: #808080; stroke-opacity: 0.7; stroke-width: 1.5; stroke-linecap: square"/>
   </g>
   <g id="text_54">
    <!-- Lens Potential -->
    <g transform="translate(503.578125 105.114375) scale(0.09 -0.09)">
     <use xlink:href="#Helvetica-4c"/>
     <use xlink:href="#Helvetica-65" x="55.615234"/>
     <use xlink:href="#Helvetica-6e" x="111.230469"/>
     <use xlink:href="#Helvetica-73" x="166.845703"/>
     <use xlink:href="#Helvetica-20" x="216.845703"/>
     <use xlink:href="#Helvetica-50" x="244.628906"/>
     <use xlink:href="#Helvetica-6f" x="311.328125"/>
     <use xlink:href="#Helvetica-74" x="366.943359"/>
     <use xlink:href="#Helvetica-65" x="394.726562"/>
     <use xlink:href="#Helvetica-6e" x="450.341797"/>
     <use xlink:href="#Helvetica-74" x="505.957031"/>
     <use xlink:href="#Helvetica-69" x="533.740234"/>
     <use xlink:href="#Helvetica-61" x="555.957031"/>
     <use xlink:href="#Helvetica-6c" x="611.572266"/>
    </g>
   </g>
  </g>
 </g>
 <defs>
  <clipPath id="p4e3d68f9a7">
   <rect x="81" y="77.76" width="502.2" height="199.584"/>
  </clipPath>
  <clipPath id="pe62387a81a">
   <rect x="81" y="377.136" width="502.2" height="199.584"/>
  </clipPath>
 </defs>
</svg>
