<?xml version="1.0" encoding="utf-8" standalone="no"?>
<!DOCTYPE svg PUBLIC "-//W3C//DTD SVG 1.1//EN"
  "http://www.w3.org/Graphics/SVG/1.1/DTD/svg11.dtd">
<svg xmlns:xlink="http://www.w3.org/1999/xlink" width="864pt" height="432pt" viewBox="0 0 864 432" xmlns="http://www.w3.org/2000/svg" version="1.1">
 <metadata>
  <rdf:RDF xmlns:dc="http://purl.org/dc/elements/1.1/" xmlns:cc="http://creativecommons.org/ns#" xmlns:rdf="http://www.w3.org/1999/02/22-rdf-syntax-ns#">
   <cc:Work>
    <dc:type rdf:resource="http://purl.org/dc/dcmitype/StillImage"/>
    <dc:date>2023-02-03T17:58:03.787202</dc:date>
    <dc:format>image/svg+xml</dc:format>
    <dc:creator>
     <cc:Agent>
      <dc:title>Matplotlib v3.6.3, https://matplotlib.org/</dc:title>
     </cc:Agent>
    </dc:creator>
   </cc:Work>
  </rdf:RDF>
 </metadata>
 <defs>
  <style type="text/css">*{stroke-linejoin: round; stroke-linecap: butt}</style>
 </defs>
 <g id="figure_1">
  <g id="patch_1">
   <path d="M 0 432 
L 864 432 
L 864 0 
L 0 0 
z
" style="fill: #ffffff"/>
  </g>
  <g id="axes_1">
   <g id="patch_2">
    <path d="M 108 384.48 
L 710.64 384.48 
L 710.64 51.84 
L 108 51.84 
z
" style="fill: #ffffff"/>
   </g>
   <g id="line2d_1">
    <path d="M 162.785455 66.96 
L 167.76595 117.4256 
L 172.746446 156.534502 
L 177.726942 187.432355 
L 182.707438 212.252574 
L 187.687934 232.478608 
L 192.66843 249.169337 
L 197.648926 263.095697 
L 202.629421 274.829768 
L 207.609917 284.803913 
L 212.590413 293.349965 
L 217.570909 300.724167 
L 222.551405 307.129289 
L 227.531901 312.725479 
L 232.512397 317.641496 
L 237.492893 321.981774 
L 242.473388 325.831294 
L 247.453884 329.260158 
L 252.43438 332.326462 
L 257.414876 335.078629 
L 262.395372 337.557319 
L 267.375868 339.79693 
L 272.356364 341.826613 
L 277.33686 343.671228 
L 282.317355 345.35212 
L 287.297851 346.887654 
L 292.278347 348.293703 
L 297.258843 349.584098 
L 302.239339 350.770837 
L 307.219835 351.864443 
L 312.200331 352.874148 
L 317.180826 353.80806 
L 322.161322 354.673378 
L 327.141818 355.476428 
L 332.122314 356.222897 
L 337.10281 356.917777 
L 342.083306 357.565568 
L 347.063802 358.170288 
L 352.044298 358.735536 
L 357.024793 359.26455 
L 362.005289 359.760252 
L 366.985785 360.225269 
L 371.966281 360.661989 
L 376.946777 361.072569 
L 381.927273 361.458967 
L 386.907769 361.822968 
L 391.888264 362.166194 
L 396.86876 362.490127 
L 401.849256 362.79612 
L 406.829752 363.085413 
L 411.810248 363.359141 
L 416.790744 363.618346 
L 421.77124 363.863985 
L 426.751736 364.096945 
L 431.732231 364.318032 
L 436.712727 364.527997 
L 441.693223 364.727534 
L 446.673719 364.917281 
L 451.654215 365.097832 
L 456.634711 365.269735 
L 461.615207 365.433499 
L 466.595702 365.589598 
L 471.576198 365.738473 
L 476.556694 365.880529 
L 481.53719 366.016149 
L 486.517686 366.145688 
L 491.498182 366.269476 
L 496.478678 366.387823 
L 501.459174 366.501016 
L 506.439669 366.609324 
L 511.420165 366.713001 
L 516.400661 366.81228 
L 521.381157 366.907383 
L 526.361653 366.998516 
L 531.342149 367.085872 
L 536.322645 367.169632 
L 541.30314 367.249965 
L 546.283636 367.327028 
L 551.264132 367.40097 
L 556.244628 367.471929 
L 561.225124 367.540034 
L 566.20562 367.605402 
L 571.186116 367.668146 
L 576.166612 367.728366 
L 581.147107 367.786155 
L 586.127603 367.841598 
L 591.108099 367.894769 
L 596.088595 367.945733 
L 601.069091 367.994544 
L 606.049587 368.041245 
L 611.030083 368.085864 
L 616.010579 368.128413 
L 620.991074 368.168883 
L 625.97157 368.207241 
L 630.952066 368.243419 
L 635.932562 368.277304 
L 640.913058 368.308719 
L 645.893554 368.337394 
L 650.87405 368.362922 
L 655.854545 368.384674 
" clip-path="url(#p337a3dcfec)" style="fill: none; stroke: #0000ff; stroke-width: 1.5; stroke-linecap: square"/>
   </g>
   <g id="PathCollection_1">
    <defs>
     <path id="meb13623214" d="M 0 0.707107 
C 0.187527 0.707107 0.367398 0.632602 0.5 0.5 
C 0.632602 0.367398 0.707107 0.187527 0.707107 0 
C 0.707107 -0.187527 0.632602 -0.367398 0.5 -0.5 
C 0.367398 -0.632602 0.187527 -0.707107 0 -0.707107 
C -0.187527 -0.707107 -0.367398 -0.632602 -0.5 -0.5 
C -0.632602 -0.367398 -0.707107 -0.187527 -0.707107 0 
C -0.707107 0.187527 -0.632602 0.367398 -0.5 0.5 
C -0.367398 0.632602 -0.187527 0.707107 0 0.707107 
z
" style="stroke: #000000"/>
    </defs>
    <g clip-path="url(#p337a3dcfec)">
     <use xlink:href="#meb13623214" x="162.785455" y="66.96" style="stroke: #000000"/>
     <use xlink:href="#meb13623214" x="167.76595" y="117.4256" style="stroke: #000000"/>
     <use xlink:href="#meb13623214" x="172.746446" y="156.534502" style="stroke: #000000"/>
     <use xlink:href="#meb13623214" x="177.726942" y="187.432355" style="stroke: #000000"/>
     <use xlink:href="#meb13623214" x="182.707438" y="212.252574" style="stroke: #000000"/>
     <use xlink:href="#meb13623214" x="187.687934" y="232.478608" style="stroke: #000000"/>
     <use xlink:href="#meb13623214" x="192.66843" y="249.169337" style="stroke: #000000"/>
     <use xlink:href="#meb13623214" x="197.648926" y="263.095697" style="stroke: #000000"/>
     <use xlink:href="#meb13623214" x="202.629421" y="274.829768" style="stroke: #000000"/>
     <use xlink:href="#meb13623214" x="207.609917" y="284.803913" style="stroke: #000000"/>
     <use xlink:href="#meb13623214" x="212.590413" y="293.349965" style="stroke: #000000"/>
     <use xlink:href="#meb13623214" x="217.570909" y="300.724167" style="stroke: #000000"/>
     <use xlink:href="#meb13623214" x="222.551405" y="307.129289" style="stroke: #000000"/>
     <use xlink:href="#meb13623214" x="227.531901" y="312.725479" style="stroke: #000000"/>
     <use xlink:href="#meb13623214" x="232.512397" y="317.641496" style="stroke: #000000"/>
     <use xlink:href="#meb13623214" x="237.492893" y="321.981774" style="stroke: #000000"/>
     <use xlink:href="#meb13623214" x="242.473388" y="325.831294" style="stroke: #000000"/>
     <use xlink:href="#meb13623214" x="247.453884" y="329.260158" style="stroke: #000000"/>
     <use xlink:href="#meb13623214" x="252.43438" y="332.326462" style="stroke: #000000"/>
     <use xlink:href="#meb13623214" x="257.414876" y="335.078629" style="stroke: #000000"/>
     <use xlink:href="#meb13623214" x="262.395372" y="337.557319" style="stroke: #000000"/>
     <use xlink:href="#meb13623214" x="267.375868" y="339.79693" style="stroke: #000000"/>
     <use xlink:href="#meb13623214" x="272.356364" y="341.826613" style="stroke: #000000"/>
     <use xlink:href="#meb13623214" x="277.33686" y="343.671228" style="stroke: #000000"/>
     <use xlink:href="#meb13623214" x="282.317355" y="345.35212" style="stroke: #000000"/>
     <use xlink:href="#meb13623214" x="287.297851" y="346.887654" style="stroke: #000000"/>
     <use xlink:href="#meb13623214" x="292.278347" y="348.293703" style="stroke: #000000"/>
     <use xlink:href="#meb13623214" x="297.258843" y="349.584098" style="stroke: #000000"/>
     <use xlink:href="#meb13623214" x="302.239339" y="350.770837" style="stroke: #000000"/>
     <use xlink:href="#meb13623214" x="307.219835" y="351.864443" style="stroke: #000000"/>
     <use xlink:href="#meb13623214" x="312.200331" y="352.874148" style="stroke: #000000"/>
     <use xlink:href="#meb13623214" x="317.180826" y="353.80806" style="stroke: #000000"/>
     <use xlink:href="#meb13623214" x="322.161322" y="354.673378" style="stroke: #000000"/>
     <use xlink:href="#meb13623214" x="327.141818" y="355.476428" style="stroke: #000000"/>
     <use xlink:href="#meb13623214" x="332.122314" y="356.222897" style="stroke: #000000"/>
     <use xlink:href="#meb13623214" x="337.10281" y="356.917777" style="stroke: #000000"/>
     <use xlink:href="#meb13623214" x="342.083306" y="357.565568" style="stroke: #000000"/>
     <use xlink:href="#meb13623214" x="347.063802" y="358.170288" style="stroke: #000000"/>
     <use xlink:href="#meb13623214" x="352.044298" y="358.735536" style="stroke: #000000"/>
     <use xlink:href="#meb13623214" x="357.024793" y="359.26455" style="stroke: #000000"/>
     <use xlink:href="#meb13623214" x="362.005289" y="359.760252" style="stroke: #000000"/>
     <use xlink:href="#meb13623214" x="366.985785" y="360.225269" style="stroke: #000000"/>
     <use xlink:href="#meb13623214" x="371.966281" y="360.661989" style="stroke: #000000"/>
     <use xlink:href="#meb13623214" x="376.946777" y="361.072569" style="stroke: #000000"/>
     <use xlink:href="#meb13623214" x="381.927273" y="361.458967" style="stroke: #000000"/>
     <use xlink:href="#meb13623214" x="386.907769" y="361.822968" style="stroke: #000000"/>
     <use xlink:href="#meb13623214" x="391.888264" y="362.166194" style="stroke: #000000"/>
     <use xlink:href="#meb13623214" x="396.86876" y="362.490127" style="stroke: #000000"/>
     <use xlink:href="#meb13623214" x="401.849256" y="362.79612" style="stroke: #000000"/>
     <use xlink:href="#meb13623214" x="406.829752" y="363.085413" style="stroke: #000000"/>
     <use xlink:href="#meb13623214" x="411.810248" y="363.359141" style="stroke: #000000"/>
     <use xlink:href="#meb13623214" x="416.790744" y="363.618346" style="stroke: #000000"/>
     <use xlink:href="#meb13623214" x="421.77124" y="363.863985" style="stroke: #000000"/>
     <use xlink:href="#meb13623214" x="426.751736" y="364.096945" style="stroke: #000000"/>
     <use xlink:href="#meb13623214" x="431.732231" y="364.318032" style="stroke: #000000"/>
     <use xlink:href="#meb13623214" x="436.712727" y="364.527997" style="stroke: #000000"/>
     <use xlink:href="#meb13623214" x="441.693223" y="364.727534" style="stroke: #000000"/>
     <use xlink:href="#meb13623214" x="446.673719" y="364.917281" style="stroke: #000000"/>
     <use xlink:href="#meb13623214" x="451.654215" y="365.097832" style="stroke: #000000"/>
     <use xlink:href="#meb13623214" x="456.634711" y="365.269735" style="stroke: #000000"/>
     <use xlink:href="#meb13623214" x="461.615207" y="365.433499" style="stroke: #000000"/>
     <use xlink:href="#meb13623214" x="466.595702" y="365.589598" style="stroke: #000000"/>
     <use xlink:href="#meb13623214" x="471.576198" y="365.738473" style="stroke: #000000"/>
     <use xlink:href="#meb13623214" x="476.556694" y="365.880529" style="stroke: #000000"/>
     <use xlink:href="#meb13623214" x="481.53719" y="366.016149" style="stroke: #000000"/>
     <use xlink:href="#meb13623214" x="486.517686" y="366.145688" style="stroke: #000000"/>
     <use xlink:href="#meb13623214" x="491.498182" y="366.269476" style="stroke: #000000"/>
     <use xlink:href="#meb13623214" x="496.478678" y="366.387823" style="stroke: #000000"/>
     <use xlink:href="#meb13623214" x="501.459174" y="366.501016" style="stroke: #000000"/>
     <use xlink:href="#meb13623214" x="506.439669" y="366.609324" style="stroke: #000000"/>
     <use xlink:href="#meb13623214" x="511.420165" y="366.713001" style="stroke: #000000"/>
     <use xlink:href="#meb13623214" x="516.400661" y="366.81228" style="stroke: #000000"/>
     <use xlink:href="#meb13623214" x="521.381157" y="366.907383" style="stroke: #000000"/>
     <use xlink:href="#meb13623214" x="526.361653" y="366.998516" style="stroke: #000000"/>
     <use xlink:href="#meb13623214" x="531.342149" y="367.085872" style="stroke: #000000"/>
     <use xlink:href="#meb13623214" x="536.322645" y="367.169632" style="stroke: #000000"/>
     <use xlink:href="#meb13623214" x="541.30314" y="367.249965" style="stroke: #000000"/>
     <use xlink:href="#meb13623214" x="546.283636" y="367.327028" style="stroke: #000000"/>
     <use xlink:href="#meb13623214" x="551.264132" y="367.40097" style="stroke: #000000"/>
     <use xlink:href="#meb13623214" x="556.244628" y="367.471929" style="stroke: #000000"/>
     <use xlink:href="#meb13623214" x="561.225124" y="367.540034" style="stroke: #000000"/>
     <use xlink:href="#meb13623214" x="566.20562" y="367.605402" style="stroke: #000000"/>
     <use xlink:href="#meb13623214" x="571.186116" y="367.668146" style="stroke: #000000"/>
     <use xlink:href="#meb13623214" x="576.166612" y="367.728366" style="stroke: #000000"/>
     <use xlink:href="#meb13623214" x="581.147107" y="367.786155" style="stroke: #000000"/>
     <use xlink:href="#meb13623214" x="586.127603" y="367.841598" style="stroke: #000000"/>
     <use xlink:href="#meb13623214" x="591.108099" y="367.894769" style="stroke: #000000"/>
     <use xlink:href="#meb13623214" x="596.088595" y="367.945733" style="stroke: #000000"/>
     <use xlink:href="#meb13623214" x="601.069091" y="367.994544" style="stroke: #000000"/>
     <use xlink:href="#meb13623214" x="606.049587" y="368.041245" style="stroke: #000000"/>
     <use xlink:href="#meb13623214" x="611.030083" y="368.085864" style="stroke: #000000"/>
     <use xlink:href="#meb13623214" x="616.010579" y="368.128413" style="stroke: #000000"/>
     <use xlink:href="#meb13623214" x="620.991074" y="368.168883" style="stroke: #000000"/>
     <use xlink:href="#meb13623214" x="625.97157" y="368.207241" style="stroke: #000000"/>
     <use xlink:href="#meb13623214" x="630.952066" y="368.243419" style="stroke: #000000"/>
     <use xlink:href="#meb13623214" x="635.932562" y="368.277304" style="stroke: #000000"/>
     <use xlink:href="#meb13623214" x="640.913058" y="368.308719" style="stroke: #000000"/>
     <use xlink:href="#meb13623214" x="645.893554" y="368.337394" style="stroke: #000000"/>
     <use xlink:href="#meb13623214" x="650.87405" y="368.362922" style="stroke: #000000"/>
     <use xlink:href="#meb13623214" x="655.854545" y="368.384674" style="stroke: #000000"/>
    </g>
   </g>
   <g id="PathCollection_2">
    <defs>
     <path id="mf5de85e3fb" d="M -3 3 
L 3 3 
L 3 -3 
L -3 -3 
z
" style="stroke: #000000; stroke-opacity: 0.5"/>
    </defs>
    <g clip-path="url(#p337a3dcfec)">
     <use xlink:href="#mf5de85e3fb" x="381.927273" y="361.502212" style="fill: #ff0000; fill-opacity: 0.5; stroke: #000000; stroke-opacity: 0.5"/>
     <use xlink:href="#mf5de85e3fb" x="436.712727" y="364.645327" style="fill: #ff0000; fill-opacity: 0.5; stroke: #000000; stroke-opacity: 0.5"/>
     <use xlink:href="#mf5de85e3fb" x="491.498182" y="366.35159" style="fill: #ff0000; fill-opacity: 0.5; stroke: #000000; stroke-opacity: 0.5"/>
     <use xlink:href="#mf5de85e3fb" x="546.283636" y="367.339426" style="fill: #ff0000; fill-opacity: 0.5; stroke: #000000; stroke-opacity: 0.5"/>
     <use xlink:href="#mf5de85e3fb" x="601.069091" y="367.968049" style="fill: #ff0000; fill-opacity: 0.5; stroke: #000000; stroke-opacity: 0.5"/>
     <use xlink:href="#mf5de85e3fb" x="655.854545" y="368.327262" style="fill: #ff0000; fill-opacity: 0.5; stroke: #000000; stroke-opacity: 0.5"/>
    </g>
   </g>
   <g id="PathCollection_3">
    <defs>
     <path id="m9feb5a6415" d="M 0 3 
C 0.795609 3 1.55874 2.683901 2.12132 2.12132 
C 2.683901 1.55874 3 0.795609 3 0 
C 3 -0.795609 2.683901 -1.55874 2.12132 -2.12132 
C 1.55874 -2.683901 0.795609 -3 0 -3 
C -0.795609 -3 -1.55874 -2.683901 -2.12132 -2.12132 
C -2.683901 -1.55874 -3 -0.795609 -3 0 
C -3 0.795609 -2.683901 1.55874 -2.12132 2.12132 
C -1.55874 2.683901 -0.795609 3 0 3 
z
" style="stroke: #000000; stroke-opacity: 0.5"/>
    </defs>
    <g clip-path="url(#p337a3dcfec)">
     <use xlink:href="#m9feb5a6415" x="655.854545" y="368.376431" style="fill: #008000; fill-opacity: 0.5; stroke: #000000; stroke-opacity: 0.5"/>
     <use xlink:href="#m9feb5a6415" x="601.069091" y="367.971814" style="fill: #008000; fill-opacity: 0.5; stroke: #000000; stroke-opacity: 0.5"/>
     <use xlink:href="#m9feb5a6415" x="546.283636" y="367.292498" style="fill: #008000; fill-opacity: 0.5; stroke: #000000; stroke-opacity: 0.5"/>
     <use xlink:href="#m9feb5a6415" x="491.498182" y="366.218602" style="fill: #008000; fill-opacity: 0.5; stroke: #000000; stroke-opacity: 0.5"/>
     <use xlink:href="#m9feb5a6415" x="436.712727" y="364.391974" style="fill: #008000; fill-opacity: 0.5; stroke: #000000; stroke-opacity: 0.5"/>
     <use xlink:href="#m9feb5a6415" x="381.927273" y="361.260613" style="fill: #008000; fill-opacity: 0.5; stroke: #000000; stroke-opacity: 0.5"/>
    </g>
   </g>
   <g id="matplotlib.axis_1">
    <g id="xtick_1">
     <g id="line2d_2">
      <defs>
       <path id="m73fd52d58d" d="M 0 0 
L 0 3.5 
" style="stroke: #000000; stroke-width: 0.8"/>
      </defs>
      <g>
       <use xlink:href="#m73fd52d58d" x="108" y="384.48" style="stroke: #000000; stroke-width: 0.8"/>
      </g>
     </g>
     <g id="text_1">
      <!-- 0.0 -->
      <g transform="translate(101.05 398.653437) scale(0.1 -0.1)">
       <defs>
        <path id="Helvetica-30" d="M 1731 4475 
Q 2600 4475 2988 3759 
Q 3288 3206 3288 2244 
Q 3288 1331 3016 734 
Q 2622 -122 1728 -122 
Q 922 -122 528 578 
Q 200 1163 200 2147 
Q 200 2909 397 3456 
Q 766 4475 1731 4475 
z
M 1725 391 
Q 2163 391 2422 778 
Q 2681 1166 2681 2222 
Q 2681 2984 2493 3476 
Q 2306 3969 1766 3969 
Q 1269 3969 1039 3501 
Q 809 3034 809 2125 
Q 809 1441 956 1025 
Q 1181 391 1725 391 
z
" transform="scale(0.015625)"/>
        <path id="Helvetica-2e" d="M 547 681 
L 1200 681 
L 1200 0 
L 547 0 
L 547 681 
z
" transform="scale(0.015625)"/>
       </defs>
       <use xlink:href="#Helvetica-30"/>
       <use xlink:href="#Helvetica-2e" x="55.615234"/>
       <use xlink:href="#Helvetica-30" x="83.398438"/>
      </g>
     </g>
    </g>
    <g id="xtick_2">
     <g id="line2d_3">
      <g>
       <use xlink:href="#m73fd52d58d" x="162.785455" y="384.48" style="stroke: #000000; stroke-width: 0.8"/>
      </g>
     </g>
     <g id="text_2">
      <!-- 0.1 -->
      <g transform="translate(155.835455 398.653437) scale(0.1 -0.1)">
       <defs>
        <path id="Helvetica-31" d="M 613 3169 
L 613 3600 
Q 1222 3659 1462 3798 
Q 1703 3938 1822 4456 
L 2266 4456 
L 2266 0 
L 1666 0 
L 1666 3169 
L 613 3169 
z
" transform="scale(0.015625)"/>
       </defs>
       <use xlink:href="#Helvetica-30"/>
       <use xlink:href="#Helvetica-2e" x="55.615234"/>
       <use xlink:href="#Helvetica-31" x="83.398438"/>
      </g>
     </g>
    </g>
    <g id="xtick_3">
     <g id="line2d_4">
      <g>
       <use xlink:href="#m73fd52d58d" x="217.570909" y="384.48" style="stroke: #000000; stroke-width: 0.8"/>
      </g>
     </g>
     <g id="text_3">
      <!-- 0.2 -->
      <g transform="translate(210.620909 398.653437) scale(0.1 -0.1)">
       <defs>
        <path id="Helvetica-32" d="M 200 0 
Q 231 578 439 1006 
Q 647 1434 1250 1784 
L 1850 2131 
Q 2253 2366 2416 2531 
Q 2672 2791 2672 3125 
Q 2672 3516 2437 3745 
Q 2203 3975 1813 3975 
Q 1234 3975 1013 3538 
Q 894 3303 881 2888 
L 309 2888 
Q 319 3472 525 3841 
Q 891 4491 1816 4491 
Q 2584 4491 2939 4075 
Q 3294 3659 3294 3150 
Q 3294 2613 2916 2231 
Q 2697 2009 2131 1694 
L 1703 1456 
Q 1397 1288 1222 1134 
Q 909 863 828 531 
L 3272 531 
L 3272 0 
L 200 0 
z
" transform="scale(0.015625)"/>
       </defs>
       <use xlink:href="#Helvetica-30"/>
       <use xlink:href="#Helvetica-2e" x="55.615234"/>
       <use xlink:href="#Helvetica-32" x="83.398438"/>
      </g>
     </g>
    </g>
    <g id="xtick_4">
     <g id="line2d_5">
      <g>
       <use xlink:href="#m73fd52d58d" x="272.356364" y="384.48" style="stroke: #000000; stroke-width: 0.8"/>
      </g>
     </g>
     <g id="text_4">
      <!-- 0.3 -->
      <g transform="translate(265.406364 398.653437) scale(0.1 -0.1)">
       <defs>
        <path id="Helvetica-33" d="M 1663 -122 
Q 869 -122 511 314 
Q 153 750 153 1375 
L 741 1375 
Q 778 941 903 744 
Q 1122 391 1694 391 
Q 2138 391 2406 628 
Q 2675 866 2675 1241 
Q 2675 1703 2392 1887 
Q 2109 2072 1606 2072 
Q 1550 2072 1492 2070 
Q 1434 2069 1375 2066 
L 1375 2563 
Q 1463 2553 1522 2550 
Q 1581 2547 1650 2547 
Q 1966 2547 2169 2647 
Q 2525 2822 2525 3272 
Q 2525 3606 2287 3787 
Q 2050 3969 1734 3969 
Q 1172 3969 956 3594 
Q 838 3388 822 3006 
L 266 3006 
Q 266 3506 466 3856 
Q 809 4481 1675 4481 
Q 2359 4481 2734 4176 
Q 3109 3872 3109 3294 
Q 3109 2881 2888 2625 
Q 2750 2466 2531 2375 
Q 2884 2278 3082 2001 
Q 3281 1725 3281 1325 
Q 3281 684 2859 281 
Q 2438 -122 1663 -122 
z
" transform="scale(0.015625)"/>
       </defs>
       <use xlink:href="#Helvetica-30"/>
       <use xlink:href="#Helvetica-2e" x="55.615234"/>
       <use xlink:href="#Helvetica-33" x="83.398438"/>
      </g>
     </g>
    </g>
    <g id="xtick_5">
     <g id="line2d_6">
      <g>
       <use xlink:href="#m73fd52d58d" x="327.141818" y="384.48" style="stroke: #000000; stroke-width: 0.8"/>
      </g>
     </g>
     <g id="text_5">
      <!-- 0.4 -->
      <g transform="translate(320.191818 398.653437) scale(0.1 -0.1)">
       <defs>
        <path id="Helvetica-34" d="M 2116 1584 
L 2116 3613 
L 681 1584 
L 2116 1584 
z
M 2125 0 
L 2125 1094 
L 163 1094 
L 163 1644 
L 2213 4488 
L 2688 4488 
L 2688 1584 
L 3347 1584 
L 3347 1094 
L 2688 1094 
L 2688 0 
L 2125 0 
z
" transform="scale(0.015625)"/>
       </defs>
       <use xlink:href="#Helvetica-30"/>
       <use xlink:href="#Helvetica-2e" x="55.615234"/>
       <use xlink:href="#Helvetica-34" x="83.398438"/>
      </g>
     </g>
    </g>
    <g id="xtick_6">
     <g id="line2d_7">
      <g>
       <use xlink:href="#m73fd52d58d" x="381.927273" y="384.48" style="stroke: #000000; stroke-width: 0.8"/>
      </g>
     </g>
     <g id="text_6">
      <!-- 0.5 -->
      <g transform="translate(374.977273 398.653437) scale(0.1 -0.1)">
       <defs>
        <path id="Helvetica-35" d="M 791 1141 
Q 847 659 1238 475 
Q 1438 381 1700 381 
Q 2200 381 2440 700 
Q 2681 1019 2681 1406 
Q 2681 1875 2395 2131 
Q 2109 2388 1709 2388 
Q 1419 2388 1211 2275 
Q 1003 2163 856 1963 
L 369 1991 
L 709 4400 
L 3034 4400 
L 3034 3856 
L 1131 3856 
L 941 2613 
Q 1097 2731 1238 2791 
Q 1488 2894 1816 2894 
Q 2431 2894 2859 2497 
Q 3288 2100 3288 1491 
Q 3288 856 2895 371 
Q 2503 -113 1644 -113 
Q 1097 -113 676 195 
Q 256 503 206 1141 
L 791 1141 
z
" transform="scale(0.015625)"/>
       </defs>
       <use xlink:href="#Helvetica-30"/>
       <use xlink:href="#Helvetica-2e" x="55.615234"/>
       <use xlink:href="#Helvetica-35" x="83.398438"/>
      </g>
     </g>
    </g>
    <g id="xtick_7">
     <g id="line2d_8">
      <g>
       <use xlink:href="#m73fd52d58d" x="436.712727" y="384.48" style="stroke: #000000; stroke-width: 0.8"/>
      </g>
     </g>
     <g id="text_7">
      <!-- 0.6 -->
      <g transform="translate(429.762727 398.653437) scale(0.1 -0.1)">
       <defs>
        <path id="Helvetica-36" d="M 1872 4494 
Q 2622 4494 2917 4105 
Q 3213 3716 3213 3303 
L 2656 3303 
Q 2606 3569 2497 3719 
Q 2294 4000 1881 4000 
Q 1409 4000 1131 3564 
Q 853 3128 822 2316 
Q 1016 2600 1309 2741 
Q 1578 2866 1909 2866 
Q 2472 2866 2890 2506 
Q 3309 2147 3309 1434 
Q 3309 825 2912 354 
Q 2516 -116 1781 -116 
Q 1153 -116 697 361 
Q 241 838 241 1966 
Q 241 2800 444 3381 
Q 834 4494 1872 4494 
z
M 1831 384 
Q 2275 384 2495 682 
Q 2716 981 2716 1388 
Q 2716 1731 2519 2042 
Q 2322 2353 1803 2353 
Q 1441 2353 1167 2112 
Q 894 1872 894 1388 
Q 894 963 1142 673 
Q 1391 384 1831 384 
z
" transform="scale(0.015625)"/>
       </defs>
       <use xlink:href="#Helvetica-30"/>
       <use xlink:href="#Helvetica-2e" x="55.615234"/>
       <use xlink:href="#Helvetica-36" x="83.398438"/>
      </g>
     </g>
    </g>
    <g id="xtick_8">
     <g id="line2d_9">
      <g>
       <use xlink:href="#m73fd52d58d" x="491.498182" y="384.48" style="stroke: #000000; stroke-width: 0.8"/>
      </g>
     </g>
     <g id="text_8">
      <!-- 0.7 -->
      <g transform="translate(484.548182 398.653437) scale(0.1 -0.1)">
       <defs>
        <path id="Helvetica-37" d="M 3347 4400 
L 3347 3909 
Q 3131 3700 2773 3181 
Q 2416 2663 2141 2063 
Q 1869 1478 1728 997 
Q 1638 688 1494 0 
L 872 0 
Q 1084 1281 1809 2550 
Q 2238 3294 2709 3834 
L 234 3834 
L 234 4400 
L 3347 4400 
z
" transform="scale(0.015625)"/>
       </defs>
       <use xlink:href="#Helvetica-30"/>
       <use xlink:href="#Helvetica-2e" x="55.615234"/>
       <use xlink:href="#Helvetica-37" x="83.398438"/>
      </g>
     </g>
    </g>
    <g id="xtick_9">
     <g id="line2d_10">
      <g>
       <use xlink:href="#m73fd52d58d" x="546.283636" y="384.48" style="stroke: #000000; stroke-width: 0.8"/>
      </g>
     </g>
     <g id="text_9">
      <!-- 0.8 -->
      <g transform="translate(539.333636 398.653437) scale(0.1 -0.1)">
       <defs>
        <path id="Helvetica-38" d="M 1741 2600 
Q 2113 2600 2322 2808 
Q 2531 3016 2531 3303 
Q 2531 3553 2331 3762 
Q 2131 3972 1722 3972 
Q 1316 3972 1134 3762 
Q 953 3553 953 3272 
Q 953 2956 1187 2778 
Q 1422 2600 1741 2600 
z
M 1775 384 
Q 2166 384 2423 595 
Q 2681 806 2681 1225 
Q 2681 1659 2415 1884 
Q 2150 2109 1734 2109 
Q 1331 2109 1076 1879 
Q 822 1650 822 1244 
Q 822 894 1055 639 
Q 1288 384 1775 384 
z
M 975 2384 
Q 741 2484 609 2619 
Q 363 2869 363 3269 
Q 363 3769 725 4128 
Q 1088 4488 1753 4488 
Q 2397 4488 2762 4148 
Q 3128 3809 3128 3356 
Q 3128 2938 2916 2678 
Q 2797 2531 2547 2391 
Q 2825 2263 2984 2097 
Q 3281 1784 3281 1284 
Q 3281 694 2884 283 
Q 2488 -128 1763 -128 
Q 1109 -128 657 226 
Q 206 581 206 1256 
Q 206 1653 400 1942 
Q 594 2231 975 2384 
z
" transform="scale(0.015625)"/>
       </defs>
       <use xlink:href="#Helvetica-30"/>
       <use xlink:href="#Helvetica-2e" x="55.615234"/>
       <use xlink:href="#Helvetica-38" x="83.398438"/>
      </g>
     </g>
    </g>
    <g id="xtick_10">
     <g id="line2d_11">
      <g>
       <use xlink:href="#m73fd52d58d" x="601.069091" y="384.48" style="stroke: #000000; stroke-width: 0.8"/>
      </g>
     </g>
     <g id="text_10">
      <!-- 0.9 -->
      <g transform="translate(594.119091 398.653437) scale(0.1 -0.1)">
       <defs>
        <path id="Helvetica-39" d="M 850 1081 
Q 875 616 1209 438 
Q 1381 344 1597 344 
Q 2000 344 2284 680 
Q 2569 1016 2688 2044 
Q 2500 1747 2223 1626 
Q 1947 1506 1628 1506 
Q 981 1506 604 1909 
Q 228 2313 228 2947 
Q 228 3556 600 4018 
Q 972 4481 1697 4481 
Q 2675 4481 3047 3600 
Q 3253 3116 3253 2388 
Q 3253 1566 3006 931 
Q 2597 -125 1619 -125 
Q 963 -125 622 219 
Q 281 563 281 1081 
L 850 1081 
z
M 1703 2000 
Q 2038 2000 2314 2220 
Q 2591 2441 2591 2991 
Q 2591 3484 2342 3726 
Q 2094 3969 1709 3969 
Q 1297 3969 1055 3692 
Q 813 3416 813 2953 
Q 813 2516 1025 2258 
Q 1238 2000 1703 2000 
z
" transform="scale(0.015625)"/>
       </defs>
       <use xlink:href="#Helvetica-30"/>
       <use xlink:href="#Helvetica-2e" x="55.615234"/>
       <use xlink:href="#Helvetica-39" x="83.398438"/>
      </g>
     </g>
    </g>
    <g id="xtick_11">
     <g id="line2d_12">
      <g>
       <use xlink:href="#m73fd52d58d" x="655.854545" y="384.48" style="stroke: #000000; stroke-width: 0.8"/>
      </g>
     </g>
     <g id="text_11">
      <!-- 1.0 -->
      <g transform="translate(648.904545 398.653437) scale(0.1 -0.1)">
       <use xlink:href="#Helvetica-31"/>
       <use xlink:href="#Helvetica-2e" x="55.615234"/>
       <use xlink:href="#Helvetica-30" x="83.398438"/>
      </g>
     </g>
    </g>
    <g id="text_12">
     <!-- $U_L/U_0$ -->
     <g transform="translate(395.82 411.91125) scale(0.1 -0.1)">
      <defs>
       <path id="DejaVuSans-Oblique-55" d="M 991 4666 
L 1625 4666 
L 1075 1831 
Q 1041 1641 1027 1517 
Q 1013 1394 1013 1300 
Q 1013 869 1253 645 
Q 1494 422 1959 422 
Q 2563 422 2898 753 
Q 3234 1084 3378 1831 
L 3928 4666 
L 4563 4666 
L 4000 1753 
Q 3816 809 3300 359 
Q 2784 -91 1888 -91 
Q 1188 -91 780 261 
Q 372 613 372 1216 
Q 372 1325 387 1461 
Q 403 1597 434 1753 
L 991 4666 
z
" transform="scale(0.015625)"/>
       <path id="DejaVuSans-Oblique-4c" d="M 1075 4666 
L 1709 4666 
L 909 525 
L 3181 525 
L 3078 0 
L 172 0 
L 1075 4666 
z
" transform="scale(0.015625)"/>
       <path id="DejaVuSans-2f" d="M 1625 4666 
L 2156 4666 
L 531 -594 
L 0 -594 
L 1625 4666 
z
" transform="scale(0.015625)"/>
       <path id="DejaVuSans-30" d="M 2034 4250 
Q 1547 4250 1301 3770 
Q 1056 3291 1056 2328 
Q 1056 1369 1301 889 
Q 1547 409 2034 409 
Q 2525 409 2770 889 
Q 3016 1369 3016 2328 
Q 3016 3291 2770 3770 
Q 2525 4250 2034 4250 
z
M 2034 4750 
Q 2819 4750 3233 4129 
Q 3647 3509 3647 2328 
Q 3647 1150 3233 529 
Q 2819 -91 2034 -91 
Q 1250 -91 836 529 
Q 422 1150 422 2328 
Q 422 3509 836 4129 
Q 1250 4750 2034 4750 
z
" transform="scale(0.015625)"/>
      </defs>
      <use xlink:href="#DejaVuSans-Oblique-55" transform="translate(0 0.09375)"/>
      <use xlink:href="#DejaVuSans-Oblique-4c" transform="translate(73.193359 -16.3125) scale(0.7)"/>
      <use xlink:href="#DejaVuSans-2f" transform="translate(114.926758 0.09375)"/>
      <use xlink:href="#DejaVuSans-Oblique-55" transform="translate(148.618164 0.09375)"/>
      <use xlink:href="#DejaVuSans-30" transform="translate(221.811523 -16.3125) scale(0.7)"/>
     </g>
    </g>
   </g>
   <g id="matplotlib.axis_2">
    <g id="ytick_1">
     <g id="line2d_13">
      <defs>
       <path id="mec015d6212" d="M 0 0 
L -3.5 0 
" style="stroke: #000000; stroke-width: 0.8"/>
      </defs>
      <g>
       <use xlink:href="#mec015d6212" x="108" y="369.36" style="stroke: #000000; stroke-width: 0.8"/>
      </g>
     </g>
     <g id="text_13">
      <!-- 0 -->
      <g transform="translate(95.439063 372.946719) scale(0.1 -0.1)">
       <use xlink:href="#Helvetica-30"/>
      </g>
     </g>
    </g>
    <g id="ytick_2">
     <g id="line2d_14">
      <g>
       <use xlink:href="#mec015d6212" x="108" y="329.846554" style="stroke: #000000; stroke-width: 0.8"/>
      </g>
     </g>
     <g id="text_14">
      <!-- 250 -->
      <g transform="translate(84.317188 333.433272) scale(0.1 -0.1)">
       <use xlink:href="#Helvetica-32"/>
       <use xlink:href="#Helvetica-35" x="55.615234"/>
       <use xlink:href="#Helvetica-30" x="111.230469"/>
      </g>
     </g>
    </g>
    <g id="ytick_3">
     <g id="line2d_15">
      <g>
       <use xlink:href="#mec015d6212" x="108" y="290.333107" style="stroke: #000000; stroke-width: 0.8"/>
      </g>
     </g>
     <g id="text_15">
      <!-- 500 -->
      <g transform="translate(84.317188 293.919826) scale(0.1 -0.1)">
       <use xlink:href="#Helvetica-35"/>
       <use xlink:href="#Helvetica-30" x="55.615234"/>
       <use xlink:href="#Helvetica-30" x="111.230469"/>
      </g>
     </g>
    </g>
    <g id="ytick_4">
     <g id="line2d_16">
      <g>
       <use xlink:href="#mec015d6212" x="108" y="250.819661" style="stroke: #000000; stroke-width: 0.8"/>
      </g>
     </g>
     <g id="text_16">
      <!-- 750 -->
      <g transform="translate(84.317188 254.40638) scale(0.1 -0.1)">
       <use xlink:href="#Helvetica-37"/>
       <use xlink:href="#Helvetica-35" x="55.615234"/>
       <use xlink:href="#Helvetica-30" x="111.230469"/>
      </g>
     </g>
    </g>
    <g id="ytick_5">
     <g id="line2d_17">
      <g>
       <use xlink:href="#mec015d6212" x="108" y="211.306214" style="stroke: #000000; stroke-width: 0.8"/>
      </g>
     </g>
     <g id="text_17">
      <!-- 1000 -->
      <g transform="translate(78.75625 214.892933) scale(0.1 -0.1)">
       <use xlink:href="#Helvetica-31"/>
       <use xlink:href="#Helvetica-30" x="55.615234"/>
       <use xlink:href="#Helvetica-30" x="111.230469"/>
       <use xlink:href="#Helvetica-30" x="166.845703"/>
      </g>
     </g>
    </g>
    <g id="ytick_6">
     <g id="line2d_18">
      <g>
       <use xlink:href="#mec015d6212" x="108" y="171.792768" style="stroke: #000000; stroke-width: 0.8"/>
      </g>
     </g>
     <g id="text_18">
      <!-- 1250 -->
      <g transform="translate(78.75625 175.379487) scale(0.1 -0.1)">
       <use xlink:href="#Helvetica-31"/>
       <use xlink:href="#Helvetica-32" x="55.615234"/>
       <use xlink:href="#Helvetica-35" x="111.230469"/>
       <use xlink:href="#Helvetica-30" x="166.845703"/>
      </g>
     </g>
    </g>
    <g id="ytick_7">
     <g id="line2d_19">
      <g>
       <use xlink:href="#mec015d6212" x="108" y="132.279322" style="stroke: #000000; stroke-width: 0.8"/>
      </g>
     </g>
     <g id="text_19">
      <!-- 1500 -->
      <g transform="translate(78.75625 135.86604) scale(0.1 -0.1)">
       <use xlink:href="#Helvetica-31"/>
       <use xlink:href="#Helvetica-35" x="55.615234"/>
       <use xlink:href="#Helvetica-30" x="111.230469"/>
       <use xlink:href="#Helvetica-30" x="166.845703"/>
      </g>
     </g>
    </g>
    <g id="ytick_8">
     <g id="line2d_20">
      <g>
       <use xlink:href="#mec015d6212" x="108" y="92.765875" style="stroke: #000000; stroke-width: 0.8"/>
      </g>
     </g>
     <g id="text_20">
      <!-- 1750 -->
      <g transform="translate(78.75625 96.352594) scale(0.1 -0.1)">
       <use xlink:href="#Helvetica-31"/>
       <use xlink:href="#Helvetica-37" x="55.615234"/>
       <use xlink:href="#Helvetica-35" x="111.230469"/>
       <use xlink:href="#Helvetica-30" x="166.845703"/>
      </g>
     </g>
    </g>
    <g id="ytick_9">
     <g id="line2d_21">
      <g>
       <use xlink:href="#mec015d6212" x="108" y="53.252429" style="stroke: #000000; stroke-width: 0.8"/>
      </g>
     </g>
     <g id="text_21">
      <!-- 2000 -->
      <g transform="translate(78.75625 56.839147) scale(0.1 -0.1)">
       <use xlink:href="#Helvetica-32"/>
       <use xlink:href="#Helvetica-30" x="55.615234"/>
       <use xlink:href="#Helvetica-30" x="111.230469"/>
       <use xlink:href="#Helvetica-30" x="166.845703"/>
      </g>
     </g>
    </g>
    <g id="text_22">
     <!-- Focal Length (mm) -->
     <g transform="translate(72.54375 260.114687) rotate(-90) scale(0.1 -0.1)">
      <defs>
       <path id="Helvetica-46" d="M 547 4591 
L 3731 4591 
L 3731 4028 
L 1169 4028 
L 1169 2634 
L 3422 2634 
L 3422 2088 
L 1169 2088 
L 1169 0 
L 547 0 
L 547 4591 
z
" transform="scale(0.015625)"/>
       <path id="Helvetica-6f" d="M 1741 363 
Q 2300 363 2508 786 
Q 2716 1209 2716 1728 
Q 2716 2197 2566 2491 
Q 2328 2953 1747 2953 
Q 1231 2953 997 2559 
Q 763 2166 763 1609 
Q 763 1075 997 719 
Q 1231 363 1741 363 
z
M 1763 3444 
Q 2409 3444 2856 3012 
Q 3303 2581 3303 1744 
Q 3303 934 2909 406 
Q 2516 -122 1688 -122 
Q 997 -122 590 345 
Q 184 813 184 1600 
Q 184 2444 612 2944 
Q 1041 3444 1763 3444 
z
M 1744 3428 
L 1744 3428 
z
" transform="scale(0.015625)"/>
       <path id="Helvetica-63" d="M 1703 3444 
Q 2269 3444 2623 3169 
Q 2978 2894 3050 2222 
L 2503 2222 
Q 2453 2531 2275 2736 
Q 2097 2941 1703 2941 
Q 1166 2941 934 2416 
Q 784 2075 784 1575 
Q 784 1072 996 728 
Q 1209 384 1666 384 
Q 2016 384 2220 598 
Q 2425 813 2503 1184 
L 3050 1184 
Q 2956 519 2581 211 
Q 2206 -97 1622 -97 
Q 966 -97 575 383 
Q 184 863 184 1581 
Q 184 2463 612 2953 
Q 1041 3444 1703 3444 
z
M 1616 3428 
L 1616 3428 
z
" transform="scale(0.015625)"/>
       <path id="Helvetica-61" d="M 844 891 
Q 844 647 1022 506 
Q 1200 366 1444 366 
Q 1741 366 2019 503 
Q 2488 731 2488 1250 
L 2488 1703 
Q 2384 1638 2221 1594 
Q 2059 1550 1903 1531 
L 1563 1488 
Q 1256 1447 1103 1359 
Q 844 1213 844 891 
z
M 2206 2028 
Q 2400 2053 2466 2191 
Q 2503 2266 2503 2406 
Q 2503 2694 2298 2823 
Q 2094 2953 1713 2953 
Q 1272 2953 1088 2716 
Q 984 2584 953 2325 
L 428 2325 
Q 444 2944 830 3186 
Q 1216 3428 1725 3428 
Q 2316 3428 2684 3203 
Q 3050 2978 3050 2503 
L 3050 575 
Q 3050 488 3086 434 
Q 3122 381 3238 381 
Q 3275 381 3322 386 
Q 3369 391 3422 400 
L 3422 -16 
Q 3291 -53 3222 -62 
Q 3153 -72 3034 -72 
Q 2744 -72 2613 134 
Q 2544 244 2516 444 
Q 2344 219 2022 53 
Q 1700 -113 1313 -113 
Q 847 -113 551 170 
Q 256 453 256 878 
Q 256 1344 547 1600 
Q 838 1856 1309 1916 
L 2206 2028 
z
M 1741 3428 
L 1741 3428 
z
" transform="scale(0.015625)"/>
       <path id="Helvetica-6c" d="M 428 4591 
L 991 4591 
L 991 0 
L 428 0 
L 428 4591 
z
" transform="scale(0.015625)"/>
       <path id="Helvetica-20" transform="scale(0.015625)"/>
       <path id="Helvetica-4c" d="M 488 4591 
L 1109 4591 
L 1109 547 
L 3434 547 
L 3434 0 
L 488 0 
L 488 4591 
z
" transform="scale(0.015625)"/>
       <path id="Helvetica-65" d="M 1806 3422 
Q 2163 3422 2497 3255 
Q 2831 3088 3006 2822 
Q 3175 2569 3231 2231 
Q 3281 2000 3281 1494 
L 828 1494 
Q 844 984 1069 676 
Q 1294 369 1766 369 
Q 2206 369 2469 659 
Q 2619 828 2681 1050 
L 3234 1050 
Q 3213 866 3089 639 
Q 2966 413 2813 269 
Q 2556 19 2178 -69 
Q 1975 -119 1719 -119 
Q 1094 -119 659 336 
Q 225 791 225 1609 
Q 225 2416 662 2919 
Q 1100 3422 1806 3422 
z
M 2703 1941 
Q 2669 2306 2544 2525 
Q 2313 2931 1772 2931 
Q 1384 2931 1121 2651 
Q 859 2372 844 1941 
L 2703 1941 
z
M 1753 3428 
L 1753 3428 
z
" transform="scale(0.015625)"/>
       <path id="Helvetica-6e" d="M 413 3347 
L 947 3347 
L 947 2872 
Q 1184 3166 1450 3294 
Q 1716 3422 2041 3422 
Q 2753 3422 3003 2925 
Q 3141 2653 3141 2147 
L 3141 0 
L 2569 0 
L 2569 2109 
Q 2569 2416 2478 2603 
Q 2328 2916 1934 2916 
Q 1734 2916 1606 2875 
Q 1375 2806 1200 2600 
Q 1059 2434 1017 2257 
Q 975 2081 975 1753 
L 975 0 
L 413 0 
L 413 3347 
z
M 1734 3428 
L 1734 3428 
z
" transform="scale(0.015625)"/>
       <path id="Helvetica-67" d="M 1594 3406 
Q 1988 3406 2281 3213 
Q 2441 3103 2606 2894 
L 2606 3316 
L 3125 3316 
L 3125 272 
Q 3125 -366 2938 -734 
Q 2588 -1416 1616 -1416 
Q 1075 -1416 706 -1173 
Q 338 -931 294 -416 
L 866 -416 
Q 906 -641 1028 -763 
Q 1219 -950 1628 -950 
Q 2275 -950 2475 -494 
Q 2594 -225 2584 466 
Q 2416 209 2178 84 
Q 1941 -41 1550 -41 
Q 1006 -41 598 345 
Q 191 731 191 1622 
Q 191 2463 602 2934 
Q 1013 3406 1594 3406 
z
M 2606 1688 
Q 2606 2309 2350 2609 
Q 2094 2909 1697 2909 
Q 1103 2909 884 2353 
Q 769 2056 769 1575 
Q 769 1009 998 714 
Q 1228 419 1616 419 
Q 2222 419 2469 966 
Q 2606 1275 2606 1688 
z
M 1659 3428 
L 1659 3428 
z
" transform="scale(0.015625)"/>
       <path id="Helvetica-74" d="M 525 4281 
L 1094 4281 
L 1094 3347 
L 1628 3347 
L 1628 2888 
L 1094 2888 
L 1094 703 
Q 1094 528 1213 469 
Q 1278 434 1431 434 
Q 1472 434 1519 436 
Q 1566 438 1628 444 
L 1628 0 
Q 1531 -28 1426 -40 
Q 1322 -53 1200 -53 
Q 806 -53 665 148 
Q 525 350 525 672 
L 525 2888 
L 72 2888 
L 72 3347 
L 525 3347 
L 525 4281 
z
" transform="scale(0.015625)"/>
       <path id="Helvetica-68" d="M 413 4606 
L 975 4606 
L 975 2894 
Q 1175 3147 1334 3250 
Q 1606 3428 2013 3428 
Q 2741 3428 3000 2919 
Q 3141 2641 3141 2147 
L 3141 0 
L 2563 0 
L 2563 2109 
Q 2563 2478 2469 2650 
Q 2316 2925 1894 2925 
Q 1544 2925 1259 2684 
Q 975 2444 975 1775 
L 975 0 
L 413 0 
L 413 4606 
z
" transform="scale(0.015625)"/>
       <path id="Helvetica-28" d="M 1894 4666 
Q 1403 3713 1256 3263 
Q 1034 2578 1034 1681 
Q 1034 775 1288 25 
Q 1444 -438 1903 -1306 
L 1525 -1306 
Q 1069 -594 959 -397 
Q 850 -200 722 138 
Q 547 600 478 1125 
Q 444 1397 444 1644 
Q 444 2569 734 3291 
Q 919 3750 1503 4666 
L 1894 4666 
z
" transform="scale(0.015625)"/>
       <path id="Helvetica-6d" d="M 413 3347 
L 969 3347 
L 969 2872 
Q 1169 3119 1331 3231 
Q 1609 3422 1963 3422 
Q 2363 3422 2606 3225 
Q 2744 3113 2856 2894 
Q 3044 3163 3297 3292 
Q 3550 3422 3866 3422 
Q 4541 3422 4784 2934 
Q 4916 2672 4916 2228 
L 4916 0 
L 4331 0 
L 4331 2325 
Q 4331 2659 4164 2784 
Q 3997 2909 3756 2909 
Q 3425 2909 3186 2687 
Q 2947 2466 2947 1947 
L 2947 0 
L 2375 0 
L 2375 2184 
Q 2375 2525 2294 2681 
Q 2166 2916 1816 2916 
Q 1497 2916 1236 2669 
Q 975 2422 975 1775 
L 975 0 
L 413 0 
L 413 3347 
z
" transform="scale(0.015625)"/>
       <path id="Helvetica-29" d="M 222 -1306 
Q 719 -338 863 106 
Q 1081 778 1081 1681 
Q 1081 2584 828 3334 
Q 672 3797 213 4666 
L 591 4666 
Q 1072 3897 1173 3717 
Q 1275 3538 1394 3222 
Q 1544 2831 1608 2450 
Q 1672 2069 1672 1716 
Q 1672 791 1378 66 
Q 1194 -400 613 -1306 
L 222 -1306 
z
" transform="scale(0.015625)"/>
      </defs>
      <use xlink:href="#Helvetica-46"/>
      <use xlink:href="#Helvetica-6f" x="61.083984"/>
      <use xlink:href="#Helvetica-63" x="116.699219"/>
      <use xlink:href="#Helvetica-61" x="166.699219"/>
      <use xlink:href="#Helvetica-6c" x="222.314453"/>
      <use xlink:href="#Helvetica-20" x="244.53125"/>
      <use xlink:href="#Helvetica-4c" x="272.314453"/>
      <use xlink:href="#Helvetica-65" x="327.929688"/>
      <use xlink:href="#Helvetica-6e" x="383.544922"/>
      <use xlink:href="#Helvetica-67" x="439.160156"/>
      <use xlink:href="#Helvetica-74" x="494.775391"/>
      <use xlink:href="#Helvetica-68" x="522.558594"/>
      <use xlink:href="#Helvetica-20" x="578.173828"/>
      <use xlink:href="#Helvetica-28" x="605.957031"/>
      <use xlink:href="#Helvetica-6d" x="639.257812"/>
      <use xlink:href="#Helvetica-6d" x="722.558594"/>
      <use xlink:href="#Helvetica-29" x="805.859375"/>
     </g>
    </g>
   </g>
   <g id="patch_3">
    <path d="M 108 384.48 
L 108 51.84 
" style="fill: none; stroke: #000000; stroke-width: 0.8; stroke-linejoin: miter; stroke-linecap: square"/>
   </g>
   <g id="patch_4">
    <path d="M 108 384.48 
L 710.64 384.48 
" style="fill: none; stroke: #000000; stroke-width: 0.8; stroke-linejoin: miter; stroke-linecap: square"/>
   </g>
   <g id="text_23">
    <!-- Symmetric Lens Focal Length -->
    <g transform="translate(329.956875 45.84) scale(0.12 -0.12)">
     <defs>
      <path id="Helvetica-53" d="M 894 1481 
Q 916 1091 1078 847 
Q 1388 391 2169 391 
Q 2519 391 2806 491 
Q 3363 684 3363 1184 
Q 3363 1559 3128 1719 
Q 2891 1875 2384 1991 
L 1763 2131 
Q 1153 2269 900 2434 
Q 463 2722 463 3294 
Q 463 3913 891 4309 
Q 1319 4706 2103 4706 
Q 2825 4706 3329 4357 
Q 3834 4009 3834 3244 
L 3250 3244 
Q 3203 3613 3050 3809 
Q 2766 4169 2084 4169 
Q 1534 4169 1293 3937 
Q 1053 3706 1053 3400 
Q 1053 3063 1334 2906 
Q 1519 2806 2169 2656 
L 2813 2509 
Q 3278 2403 3531 2219 
Q 3969 1897 3969 1284 
Q 3969 522 3414 194 
Q 2859 -134 2125 -134 
Q 1269 -134 784 303 
Q 300 738 309 1481 
L 894 1481 
z
M 2150 4716 
L 2150 4716 
z
" transform="scale(0.015625)"/>
      <path id="Helvetica-79" d="M 2503 3347 
L 3125 3347 
Q 3006 3025 2597 1878 
Q 2291 1016 2084 472 
Q 1597 -809 1397 -1090 
Q 1197 -1372 709 -1372 
Q 591 -1372 527 -1362 
Q 463 -1353 369 -1328 
L 369 -816 
Q 516 -856 581 -865 
Q 647 -875 697 -875 
Q 853 -875 926 -823 
Q 1000 -772 1050 -697 
Q 1066 -672 1162 -440 
Q 1259 -209 1303 -97 
L 66 3347 
L 703 3347 
L 1600 622 
L 2503 3347 
z
M 1597 3428 
L 1597 3428 
z
" transform="scale(0.015625)"/>
      <path id="Helvetica-72" d="M 428 3347 
L 963 3347 
L 963 2769 
Q 1028 2938 1284 3180 
Q 1541 3422 1875 3422 
Q 1891 3422 1928 3419 
Q 1966 3416 2056 3406 
L 2056 2813 
Q 2006 2822 1964 2825 
Q 1922 2828 1872 2828 
Q 1447 2828 1219 2554 
Q 991 2281 991 1925 
L 991 0 
L 428 0 
L 428 3347 
z
" transform="scale(0.015625)"/>
      <path id="Helvetica-69" d="M 413 3331 
L 984 3331 
L 984 0 
L 413 0 
L 413 3331 
z
M 413 4591 
L 984 4591 
L 984 3953 
L 413 3953 
L 413 4591 
z
" transform="scale(0.015625)"/>
      <path id="Helvetica-73" d="M 747 1050 
Q 772 769 888 619 
Q 1100 347 1625 347 
Q 1938 347 2175 483 
Q 2413 619 2413 903 
Q 2413 1119 2222 1231 
Q 2100 1300 1741 1391 
L 1294 1503 
Q 866 1609 663 1741 
Q 300 1969 300 2372 
Q 300 2847 642 3140 
Q 984 3434 1563 3434 
Q 2319 3434 2653 2991 
Q 2863 2709 2856 2384 
L 2325 2384 
Q 2309 2575 2191 2731 
Q 1997 2953 1519 2953 
Q 1200 2953 1036 2831 
Q 872 2709 872 2509 
Q 872 2291 1088 2159 
Q 1213 2081 1456 2022 
L 1828 1931 
Q 2434 1784 2641 1647 
Q 2969 1431 2969 969 
Q 2969 522 2630 197 
Q 2291 -128 1597 -128 
Q 850 -128 539 211 
Q 228 550 206 1050 
L 747 1050 
z
M 1578 3428 
L 1578 3428 
z
" transform="scale(0.015625)"/>
     </defs>
     <use xlink:href="#Helvetica-53"/>
     <use xlink:href="#Helvetica-79" x="66.699219"/>
     <use xlink:href="#Helvetica-6d" x="116.699219"/>
     <use xlink:href="#Helvetica-6d" x="200"/>
     <use xlink:href="#Helvetica-65" x="283.300781"/>
     <use xlink:href="#Helvetica-74" x="338.916016"/>
     <use xlink:href="#Helvetica-72" x="366.699219"/>
     <use xlink:href="#Helvetica-69" x="400"/>
     <use xlink:href="#Helvetica-63" x="422.216797"/>
     <use xlink:href="#Helvetica-20" x="472.216797"/>
     <use xlink:href="#Helvetica-4c" x="500"/>
     <use xlink:href="#Helvetica-65" x="555.615234"/>
     <use xlink:href="#Helvetica-6e" x="611.230469"/>
     <use xlink:href="#Helvetica-73" x="666.845703"/>
     <use xlink:href="#Helvetica-20" x="716.845703"/>
     <use xlink:href="#Helvetica-46" x="744.628906"/>
     <use xlink:href="#Helvetica-6f" x="805.712891"/>
     <use xlink:href="#Helvetica-63" x="861.328125"/>
     <use xlink:href="#Helvetica-61" x="911.328125"/>
     <use xlink:href="#Helvetica-6c" x="966.943359"/>
     <use xlink:href="#Helvetica-20" x="989.160156"/>
     <use xlink:href="#Helvetica-4c" x="1016.943359"/>
     <use xlink:href="#Helvetica-65" x="1072.558594"/>
     <use xlink:href="#Helvetica-6e" x="1128.173828"/>
     <use xlink:href="#Helvetica-67" x="1183.789062"/>
     <use xlink:href="#Helvetica-74" x="1239.404297"/>
     <use xlink:href="#Helvetica-68" x="1267.1875"/>
    </g>
   </g>
   <g id="patch_5">
    <path d="M 376.448727 369.36 
L 666.811636 369.36 
L 666.811636 359.876773 
L 376.448727 359.876773 
L 376.448727 369.36 
z
" clip-path="url(#p337a3dcfec)" style="fill: none; opacity: 0.5; stroke: #808080; stroke-linejoin: miter"/>
   </g>
   <g id="patch_6">
    <path d="M 288.792 317.952 
Q 332.620364 343.656 376.448727 369.36 
" style="fill: none; opacity: 0.5; stroke: #808080; stroke-linecap: round"/>
   </g>
   <g id="patch_7">
    <path d="M 710.64 317.952 
Q 688.725818 343.656 666.811636 369.36 
" style="fill: none; opacity: 0.5; stroke: #808080; stroke-linecap: round"/>
   </g>
   <g id="axes_2">
    <g id="patch_8">
     <path d="M 288.792 317.952 
L 710.64 317.952 
L 710.64 85.104 
L 288.792 85.104 
z
" style="fill: #ffffff"/>
    </g>
    <g id="line2d_22">
     <path d="M 225.925096 -1 
L 231.629063 12.44979 
L 238.864878 28.355452 
L 246.100693 43.203536 
L 253.336508 57.08245 
L 260.572322 70.071694 
L 267.808137 82.242997 
L 275.043952 93.660855 
L 282.279767 104.383937 
L 289.515581 114.465172 
L 296.751396 123.952677 
L 303.987211 132.890219 
L 311.223026 141.317676 
L 318.45884 149.271415 
L 325.694655 156.784672 
L 332.93047 163.887881 
L 340.166285 170.608908 
L 347.402099 176.973349 
L 354.637914 183.00469 
L 361.873729 188.724703 
L 369.109544 194.153199 
L 376.345358 199.308617 
L 383.581173 204.207973 
L 390.816988 208.866965 
L 398.052803 213.300156 
L 405.288617 217.521 
L 412.524432 221.542009 
L 419.760247 225.374796 
L 426.996062 229.030223 
L 434.231877 232.51822 
L 441.467691 235.848197 
L 448.703506 239.028851 
L 455.939321 242.068312 
L 463.175136 244.974152 
L 470.41095 247.753449 
L 477.646765 250.412824 
L 484.88258 252.958459 
L 492.118395 255.396134 
L 499.354209 257.731265 
L 506.590024 259.968915 
L 513.825839 262.113827 
L 521.061654 264.170434 
L 528.297468 266.142893 
L 535.533283 268.035085 
L 542.769098 269.850641 
L 550.004913 271.592945 
L 557.240727 273.265151 
L 564.476542 274.870189 
L 571.712357 276.410772 
L 578.948172 277.889395 
L 586.183986 279.308337 
L 593.419801 280.669664 
L 600.655616 281.975208 
L 607.891431 283.226563 
L 615.127245 284.425058 
L 622.36306 285.571735 
L 629.598875 286.667287 
L 636.83469 287.712012 
L 644.070504 288.705705 
L 651.306319 289.647532 
L 658.542134 290.535835 
L 665.777949 291.367834 
L 673.013763 292.139185 
L 680.249578 292.843275 
L 687.485393 293.470072 
L 694.721208 294.004168 
" clip-path="url(#pddf00822ce)" style="fill: none; stroke: #0000ff; stroke-width: 1.5; stroke-linecap: square"/>
    </g>
    <g id="PathCollection_4">
     <defs>
      <path id="mc20f6d4d79" d="M 0 1 
C 0.265203 1 0.51958 0.894634 0.707107 0.707107 
C 0.894634 0.51958 1 0.265203 1 0 
C 1 -0.265203 0.894634 -0.51958 0.707107 -0.707107 
C 0.51958 -0.894634 0.265203 -1 0 -1 
C -0.265203 -1 -0.51958 -0.894634 -0.707107 -0.707107 
C -0.894634 -0.51958 -1 -0.265203 -1 0 
C -1 0.265203 -0.894634 0.51958 -0.707107 0.707107 
C -0.51958 0.894634 -0.265203 1 0 1 
z
" style="stroke: #000000"/>
     </defs>
     <g clip-path="url(#pddf00822ce)">
      <use xlink:href="#mc20f6d4d79" x="225.925096" y="-1" style="stroke: #000000"/>
      <use xlink:href="#mc20f6d4d79" x="231.629063" y="12.44979" style="stroke: #000000"/>
      <use xlink:href="#mc20f6d4d79" x="238.864878" y="28.355452" style="stroke: #000000"/>
      <use xlink:href="#mc20f6d4d79" x="246.100693" y="43.203536" style="stroke: #000000"/>
      <use xlink:href="#mc20f6d4d79" x="253.336508" y="57.08245" style="stroke: #000000"/>
      <use xlink:href="#mc20f6d4d79" x="260.572322" y="70.071694" style="stroke: #000000"/>
      <use xlink:href="#mc20f6d4d79" x="267.808137" y="82.242997" style="stroke: #000000"/>
      <use xlink:href="#mc20f6d4d79" x="275.043952" y="93.660855" style="stroke: #000000"/>
      <use xlink:href="#mc20f6d4d79" x="282.279767" y="104.383937" style="stroke: #000000"/>
      <use xlink:href="#mc20f6d4d79" x="289.515581" y="114.465172" style="stroke: #000000"/>
      <use xlink:href="#mc20f6d4d79" x="296.751396" y="123.952677" style="stroke: #000000"/>
      <use xlink:href="#mc20f6d4d79" x="303.987211" y="132.890219" style="stroke: #000000"/>
      <use xlink:href="#mc20f6d4d79" x="311.223026" y="141.317676" style="stroke: #000000"/>
      <use xlink:href="#mc20f6d4d79" x="318.45884" y="149.271415" style="stroke: #000000"/>
      <use xlink:href="#mc20f6d4d79" x="325.694655" y="156.784672" style="stroke: #000000"/>
      <use xlink:href="#mc20f6d4d79" x="332.93047" y="163.887881" style="stroke: #000000"/>
      <use xlink:href="#mc20f6d4d79" x="340.166285" y="170.608908" style="stroke: #000000"/>
      <use xlink:href="#mc20f6d4d79" x="347.402099" y="176.973349" style="stroke: #000000"/>
      <use xlink:href="#mc20f6d4d79" x="354.637914" y="183.00469" style="stroke: #000000"/>
      <use xlink:href="#mc20f6d4d79" x="361.873729" y="188.724703" style="stroke: #000000"/>
      <use xlink:href="#mc20f6d4d79" x="369.109544" y="194.153199" style="stroke: #000000"/>
      <use xlink:href="#mc20f6d4d79" x="376.345358" y="199.308617" style="stroke: #000000"/>
      <use xlink:href="#mc20f6d4d79" x="383.581173" y="204.207973" style="stroke: #000000"/>
      <use xlink:href="#mc20f6d4d79" x="390.816988" y="208.866965" style="stroke: #000000"/>
      <use xlink:href="#mc20f6d4d79" x="398.052803" y="213.300156" style="stroke: #000000"/>
      <use xlink:href="#mc20f6d4d79" x="405.288617" y="217.521" style="stroke: #000000"/>
      <use xlink:href="#mc20f6d4d79" x="412.524432" y="221.542009" style="stroke: #000000"/>
      <use xlink:href="#mc20f6d4d79" x="419.760247" y="225.374796" style="stroke: #000000"/>
      <use xlink:href="#mc20f6d4d79" x="426.996062" y="229.030223" style="stroke: #000000"/>
      <use xlink:href="#mc20f6d4d79" x="434.231877" y="232.51822" style="stroke: #000000"/>
      <use xlink:href="#mc20f6d4d79" x="441.467691" y="235.848197" style="stroke: #000000"/>
      <use xlink:href="#mc20f6d4d79" x="448.703506" y="239.028851" style="stroke: #000000"/>
      <use xlink:href="#mc20f6d4d79" x="455.939321" y="242.068312" style="stroke: #000000"/>
      <use xlink:href="#mc20f6d4d79" x="463.175136" y="244.974152" style="stroke: #000000"/>
      <use xlink:href="#mc20f6d4d79" x="470.41095" y="247.753449" style="stroke: #000000"/>
      <use xlink:href="#mc20f6d4d79" x="477.646765" y="250.412824" style="stroke: #000000"/>
      <use xlink:href="#mc20f6d4d79" x="484.88258" y="252.958459" style="stroke: #000000"/>
      <use xlink:href="#mc20f6d4d79" x="492.118395" y="255.396134" style="stroke: #000000"/>
      <use xlink:href="#mc20f6d4d79" x="499.354209" y="257.731265" style="stroke: #000000"/>
      <use xlink:href="#mc20f6d4d79" x="506.590024" y="259.968915" style="stroke: #000000"/>
      <use xlink:href="#mc20f6d4d79" x="513.825839" y="262.113827" style="stroke: #000000"/>
      <use xlink:href="#mc20f6d4d79" x="521.061654" y="264.170434" style="stroke: #000000"/>
      <use xlink:href="#mc20f6d4d79" x="528.297468" y="266.142893" style="stroke: #000000"/>
      <use xlink:href="#mc20f6d4d79" x="535.533283" y="268.035085" style="stroke: #000000"/>
      <use xlink:href="#mc20f6d4d79" x="542.769098" y="269.850641" style="stroke: #000000"/>
      <use xlink:href="#mc20f6d4d79" x="550.004913" y="271.592945" style="stroke: #000000"/>
      <use xlink:href="#mc20f6d4d79" x="557.240727" y="273.265151" style="stroke: #000000"/>
      <use xlink:href="#mc20f6d4d79" x="564.476542" y="274.870189" style="stroke: #000000"/>
      <use xlink:href="#mc20f6d4d79" x="571.712357" y="276.410772" style="stroke: #000000"/>
      <use xlink:href="#mc20f6d4d79" x="578.948172" y="277.889395" style="stroke: #000000"/>
      <use xlink:href="#mc20f6d4d79" x="586.183986" y="279.308337" style="stroke: #000000"/>
      <use xlink:href="#mc20f6d4d79" x="593.419801" y="280.669664" style="stroke: #000000"/>
      <use xlink:href="#mc20f6d4d79" x="600.655616" y="281.975208" style="stroke: #000000"/>
      <use xlink:href="#mc20f6d4d79" x="607.891431" y="283.226563" style="stroke: #000000"/>
      <use xlink:href="#mc20f6d4d79" x="615.127245" y="284.425058" style="stroke: #000000"/>
      <use xlink:href="#mc20f6d4d79" x="622.36306" y="285.571735" style="stroke: #000000"/>
      <use xlink:href="#mc20f6d4d79" x="629.598875" y="286.667287" style="stroke: #000000"/>
      <use xlink:href="#mc20f6d4d79" x="636.83469" y="287.712012" style="stroke: #000000"/>
      <use xlink:href="#mc20f6d4d79" x="644.070504" y="288.705705" style="stroke: #000000"/>
      <use xlink:href="#mc20f6d4d79" x="651.306319" y="289.647532" style="stroke: #000000"/>
      <use xlink:href="#mc20f6d4d79" x="658.542134" y="290.535835" style="stroke: #000000"/>
      <use xlink:href="#mc20f6d4d79" x="665.777949" y="291.367834" style="stroke: #000000"/>
      <use xlink:href="#mc20f6d4d79" x="673.013763" y="292.139185" style="stroke: #000000"/>
      <use xlink:href="#mc20f6d4d79" x="680.249578" y="292.843275" style="stroke: #000000"/>
      <use xlink:href="#mc20f6d4d79" x="687.485393" y="293.470072" style="stroke: #000000"/>
      <use xlink:href="#mc20f6d4d79" x="694.721208" y="294.004168" style="stroke: #000000"/>
     </g>
    </g>
    <g id="PathCollection_5">
     <g clip-path="url(#pddf00822ce)">
      <use xlink:href="#mf5de85e3fb" x="296.751396" y="125.0145" style="fill: #ff0000; fill-opacity: 0.5; stroke: #000000; stroke-opacity: 0.5"/>
      <use xlink:href="#mf5de85e3fb" x="376.345358" y="202.1895" style="fill: #ff0000; fill-opacity: 0.5; stroke: #000000; stroke-opacity: 0.5"/>
      <use xlink:href="#mf5de85e3fb" x="455.939321" y="244.0845" style="fill: #ff0000; fill-opacity: 0.5; stroke: #000000; stroke-opacity: 0.5"/>
      <use xlink:href="#mf5de85e3fb" x="535.533283" y="268.3395" style="fill: #ff0000; fill-opacity: 0.5; stroke: #000000; stroke-opacity: 0.5"/>
      <use xlink:href="#mf5de85e3fb" x="615.127245" y="283.7745" style="fill: #ff0000; fill-opacity: 0.5; stroke: #000000; stroke-opacity: 0.5"/>
      <use xlink:href="#mf5de85e3fb" x="694.721208" y="292.5945" style="fill: #ff0000; fill-opacity: 0.5; stroke: #000000; stroke-opacity: 0.5"/>
     </g>
    </g>
    <g id="PathCollection_6">
     <g clip-path="url(#pddf00822ce)">
      <use xlink:href="#m9feb5a6415" x="694.721208" y="293.801782" style="fill: #008000; fill-opacity: 0.5; stroke: #000000; stroke-opacity: 0.5"/>
      <use xlink:href="#m9feb5a6415" x="615.127245" y="283.866934" style="fill: #008000; fill-opacity: 0.5; stroke: #000000; stroke-opacity: 0.5"/>
      <use xlink:href="#m9feb5a6415" x="535.533283" y="267.187255" style="fill: #008000; fill-opacity: 0.5; stroke: #000000; stroke-opacity: 0.5"/>
      <use xlink:href="#m9feb5a6415" x="455.939321" y="240.81916" style="fill: #008000; fill-opacity: 0.5; stroke: #000000; stroke-opacity: 0.5"/>
      <use xlink:href="#m9feb5a6415" x="376.345358" y="195.968754" style="fill: #008000; fill-opacity: 0.5; stroke: #000000; stroke-opacity: 0.5"/>
      <use xlink:href="#m9feb5a6415" x="296.751396" y="119.082344" style="fill: #008000; fill-opacity: 0.5; stroke: #000000; stroke-opacity: 0.5"/>
     </g>
    </g>
    <g id="matplotlib.axis_3">
     <g id="xtick_12">
      <g id="line2d_23">
       <g>
        <use xlink:href="#m73fd52d58d" x="296.751396" y="317.952" style="stroke: #000000; stroke-width: 0.8"/>
       </g>
      </g>
      <g id="text_24">
       <!-- 0.5 -->
       <g transform="translate(289.801396 332.125437) scale(0.1 -0.1)">
        <use xlink:href="#Helvetica-30"/>
        <use xlink:href="#Helvetica-2e" x="55.615234"/>
        <use xlink:href="#Helvetica-35" x="83.398438"/>
       </g>
      </g>
     </g>
     <g id="xtick_13">
      <g id="line2d_24">
       <g>
        <use xlink:href="#m73fd52d58d" x="376.345358" y="317.952" style="stroke: #000000; stroke-width: 0.8"/>
       </g>
      </g>
      <g id="text_25">
       <!-- 0.6 -->
       <g transform="translate(369.395358 332.125437) scale(0.1 -0.1)">
        <use xlink:href="#Helvetica-30"/>
        <use xlink:href="#Helvetica-2e" x="55.615234"/>
        <use xlink:href="#Helvetica-36" x="83.398438"/>
       </g>
      </g>
     </g>
     <g id="xtick_14">
      <g id="line2d_25">
       <g>
        <use xlink:href="#m73fd52d58d" x="455.939321" y="317.952" style="stroke: #000000; stroke-width: 0.8"/>
       </g>
      </g>
      <g id="text_26">
       <!-- 0.7 -->
       <g transform="translate(448.989321 332.125437) scale(0.1 -0.1)">
        <use xlink:href="#Helvetica-30"/>
        <use xlink:href="#Helvetica-2e" x="55.615234"/>
        <use xlink:href="#Helvetica-37" x="83.398438"/>
       </g>
      </g>
     </g>
     <g id="xtick_15">
      <g id="line2d_26">
       <g>
        <use xlink:href="#m73fd52d58d" x="535.533283" y="317.952" style="stroke: #000000; stroke-width: 0.8"/>
       </g>
      </g>
      <g id="text_27">
       <!-- 0.8 -->
       <g transform="translate(528.583283 332.125437) scale(0.1 -0.1)">
        <use xlink:href="#Helvetica-30"/>
        <use xlink:href="#Helvetica-2e" x="55.615234"/>
        <use xlink:href="#Helvetica-38" x="83.398438"/>
       </g>
      </g>
     </g>
     <g id="xtick_16">
      <g id="line2d_27">
       <g>
        <use xlink:href="#m73fd52d58d" x="615.127245" y="317.952" style="stroke: #000000; stroke-width: 0.8"/>
       </g>
      </g>
      <g id="text_28">
       <!-- 0.9 -->
       <g transform="translate(608.177245 332.125437) scale(0.1 -0.1)">
        <use xlink:href="#Helvetica-30"/>
        <use xlink:href="#Helvetica-2e" x="55.615234"/>
        <use xlink:href="#Helvetica-39" x="83.398438"/>
       </g>
      </g>
     </g>
     <g id="xtick_17">
      <g id="line2d_28">
       <g>
        <use xlink:href="#m73fd52d58d" x="694.721208" y="317.952" style="stroke: #000000; stroke-width: 0.8"/>
       </g>
      </g>
      <g id="text_29">
       <!-- 1.0 -->
       <g transform="translate(687.771208 332.125437) scale(0.1 -0.1)">
        <use xlink:href="#Helvetica-31"/>
        <use xlink:href="#Helvetica-2e" x="55.615234"/>
        <use xlink:href="#Helvetica-30" x="83.398438"/>
       </g>
      </g>
     </g>
    </g>
    <g id="matplotlib.axis_4">
     <g id="ytick_10">
      <g id="line2d_29">
       <g>
        <use xlink:href="#mec015d6212" x="288.792" y="317.952" style="stroke: #000000; stroke-width: 0.8"/>
       </g>
      </g>
      <g id="text_30">
       <!-- 0 -->
       <g transform="translate(276.231062 321.538719) scale(0.1 -0.1)">
        <use xlink:href="#Helvetica-30"/>
       </g>
      </g>
     </g>
     <g id="ytick_11">
      <g id="line2d_30">
       <g>
        <use xlink:href="#mec015d6212" x="288.792" y="279.144" style="stroke: #000000; stroke-width: 0.8"/>
       </g>
      </g>
      <g id="text_31">
       <!-- 10 -->
       <g transform="translate(270.670125 282.730719) scale(0.1 -0.1)">
        <use xlink:href="#Helvetica-31"/>
        <use xlink:href="#Helvetica-30" x="55.615234"/>
       </g>
      </g>
     </g>
     <g id="ytick_12">
      <g id="line2d_31">
       <g>
        <use xlink:href="#mec015d6212" x="288.792" y="240.336" style="stroke: #000000; stroke-width: 0.8"/>
       </g>
      </g>
      <g id="text_32">
       <!-- 20 -->
       <g transform="translate(270.670125 243.922719) scale(0.1 -0.1)">
        <use xlink:href="#Helvetica-32"/>
        <use xlink:href="#Helvetica-30" x="55.615234"/>
       </g>
      </g>
     </g>
     <g id="ytick_13">
      <g id="line2d_32">
       <g>
        <use xlink:href="#mec015d6212" x="288.792" y="201.528" style="stroke: #000000; stroke-width: 0.8"/>
       </g>
      </g>
      <g id="text_33">
       <!-- 30 -->
       <g transform="translate(270.670125 205.114719) scale(0.1 -0.1)">
        <use xlink:href="#Helvetica-33"/>
        <use xlink:href="#Helvetica-30" x="55.615234"/>
       </g>
      </g>
     </g>
     <g id="ytick_14">
      <g id="line2d_33">
       <g>
        <use xlink:href="#mec015d6212" x="288.792" y="162.72" style="stroke: #000000; stroke-width: 0.8"/>
       </g>
      </g>
      <g id="text_34">
       <!-- 40 -->
       <g transform="translate(270.670125 166.306719) scale(0.1 -0.1)">
        <use xlink:href="#Helvetica-34"/>
        <use xlink:href="#Helvetica-30" x="55.615234"/>
       </g>
      </g>
     </g>
     <g id="ytick_15">
      <g id="line2d_34">
       <g>
        <use xlink:href="#mec015d6212" x="288.792" y="123.912" style="stroke: #000000; stroke-width: 0.8"/>
       </g>
      </g>
      <g id="text_35">
       <!-- 50 -->
       <g transform="translate(270.670125 127.498719) scale(0.1 -0.1)">
        <use xlink:href="#Helvetica-35"/>
        <use xlink:href="#Helvetica-30" x="55.615234"/>
       </g>
      </g>
     </g>
     <g id="ytick_16">
      <g id="line2d_35">
       <g>
        <use xlink:href="#mec015d6212" x="288.792" y="85.104" style="stroke: #000000; stroke-width: 0.8"/>
       </g>
      </g>
      <g id="text_36">
       <!-- 60 -->
       <g transform="translate(270.670125 88.690719) scale(0.1 -0.1)">
        <use xlink:href="#Helvetica-36"/>
        <use xlink:href="#Helvetica-30" x="55.615234"/>
       </g>
      </g>
     </g>
    </g>
    <g id="patch_9">
     <path d="M 288.792 317.952 
L 288.792 85.104 
" style="fill: none; stroke: #000000; stroke-width: 0.8; stroke-linejoin: miter; stroke-linecap: square"/>
    </g>
    <g id="patch_10">
     <path d="M 288.792 317.952 
L 710.64 317.952 
" style="fill: none; stroke: #000000; stroke-width: 0.8; stroke-linejoin: miter; stroke-linecap: square"/>
    </g>
   </g>
   <g id="legend_1">
    <g id="patch_11">
     <path d="M 661.27075 73.4235 
L 824.27325 73.4235 
Q 825.87325 73.4235 825.87325 71.8235 
L 825.87325 26.176 
Q 825.87325 24.576 824.27325 24.576 
L 661.27075 24.576 
Q 659.67075 24.576 659.67075 26.176 
L 659.67075 71.8235 
Q 659.67075 73.4235 661.27075 73.4235 
z
" style="fill: #4c4c4c; opacity: 0.5; stroke: #4c4c4c; stroke-linejoin: miter"/>
    </g>
    <g id="patch_12">
     <path d="M 659.27075 71.4235 
L 822.27325 71.4235 
Q 823.87325 71.4235 823.87325 69.8235 
L 823.87325 24.176 
Q 823.87325 22.576 822.27325 22.576 
L 659.27075 22.576 
Q 657.67075 22.576 657.67075 24.176 
L 657.67075 69.8235 
Q 657.67075 71.4235 659.27075 71.4235 
z
" style="fill: #ffffff; stroke: #cccccc; stroke-linejoin: miter"/>
    </g>
    <g id="line2d_36">
     <path d="M 660.87075 28.871 
L 668.87075 28.871 
L 676.87075 28.871 
" style="fill: none; stroke: #0000ff; stroke-width: 1.5; stroke-linecap: square"/>
    </g>
    <g id="text_37">
     <!-- Our Focal Length - Linear Interpolation -->
     <g transform="translate(683.27075 31.671) scale(0.08 -0.08)">
      <defs>
       <path id="Helvetica-4f" d="M 2469 4716 
Q 3684 4716 4269 3934 
Q 4725 3325 4725 2375 
Q 4725 1347 4203 666 
Q 3591 -134 2456 -134 
Q 1397 -134 791 566 
Q 250 1241 250 2272 
Q 250 3203 713 3866 
Q 1306 4716 2469 4716 
z
M 2531 422 
Q 3353 422 3720 1011 
Q 4088 1600 4088 2366 
Q 4088 3175 3664 3669 
Q 3241 4163 2506 4163 
Q 1794 4163 1344 3673 
Q 894 3184 894 2231 
Q 894 1469 1280 945 
Q 1666 422 2531 422 
z
M 2488 4716 
L 2488 4716 
z
" transform="scale(0.015625)"/>
       <path id="Helvetica-75" d="M 975 3347 
L 975 1125 
Q 975 869 1056 706 
Q 1206 406 1616 406 
Q 2203 406 2416 931 
Q 2531 1213 2531 1703 
L 2531 3347 
L 3094 3347 
L 3094 0 
L 2563 0 
L 2569 494 
Q 2459 303 2297 172 
Q 1975 -91 1516 -91 
Q 800 -91 541 388 
Q 400 644 400 1072 
L 400 3347 
L 975 3347 
z
M 1747 3428 
L 1747 3428 
z
" transform="scale(0.015625)"/>
       <path id="Helvetica-2d" d="M 266 2072 
L 1834 2072 
L 1834 1494 
L 266 1494 
L 266 2072 
z
" transform="scale(0.015625)"/>
       <path id="Helvetica-49" d="M 628 4591 
L 1256 4591 
L 1256 0 
L 628 0 
L 628 4591 
z
" transform="scale(0.015625)"/>
       <path id="Helvetica-70" d="M 1825 378 
Q 2219 378 2480 708 
Q 2741 1038 2741 1694 
Q 2741 2094 2625 2381 
Q 2406 2934 1825 2934 
Q 1241 2934 1025 2350 
Q 909 2038 909 1556 
Q 909 1169 1025 897 
Q 1244 378 1825 378 
z
M 369 3331 
L 916 3331 
L 916 2888 
Q 1084 3116 1284 3241 
Q 1569 3428 1953 3428 
Q 2522 3428 2919 2992 
Q 3316 2556 3316 1747 
Q 3316 653 2744 184 
Q 2381 -113 1900 -113 
Q 1522 -113 1266 53 
Q 1116 147 931 375 
L 931 -1334 
L 369 -1334 
L 369 3331 
z
" transform="scale(0.015625)"/>
      </defs>
      <use xlink:href="#Helvetica-4f"/>
      <use xlink:href="#Helvetica-75" x="77.783203"/>
      <use xlink:href="#Helvetica-72" x="133.398438"/>
      <use xlink:href="#Helvetica-20" x="166.699219"/>
      <use xlink:href="#Helvetica-46" x="194.482422"/>
      <use xlink:href="#Helvetica-6f" x="255.566406"/>
      <use xlink:href="#Helvetica-63" x="311.181641"/>
      <use xlink:href="#Helvetica-61" x="361.181641"/>
      <use xlink:href="#Helvetica-6c" x="416.796875"/>
      <use xlink:href="#Helvetica-20" x="439.013672"/>
      <use xlink:href="#Helvetica-4c" x="466.796875"/>
      <use xlink:href="#Helvetica-65" x="522.412109"/>
      <use xlink:href="#Helvetica-6e" x="578.027344"/>
      <use xlink:href="#Helvetica-67" x="633.642578"/>
      <use xlink:href="#Helvetica-74" x="689.257812"/>
      <use xlink:href="#Helvetica-68" x="717.041016"/>
      <use xlink:href="#Helvetica-20" x="772.65625"/>
      <use xlink:href="#Helvetica-2d" x="800.439453"/>
      <use xlink:href="#Helvetica-20" x="833.740234"/>
      <use xlink:href="#Helvetica-4c" x="861.523438"/>
      <use xlink:href="#Helvetica-69" x="917.138672"/>
      <use xlink:href="#Helvetica-6e" x="939.355469"/>
      <use xlink:href="#Helvetica-65" x="994.970703"/>
      <use xlink:href="#Helvetica-61" x="1050.585938"/>
      <use xlink:href="#Helvetica-72" x="1106.201172"/>
      <use xlink:href="#Helvetica-20" x="1139.501953"/>
      <use xlink:href="#Helvetica-49" x="1167.285156"/>
      <use xlink:href="#Helvetica-6e" x="1195.068359"/>
      <use xlink:href="#Helvetica-74" x="1250.683594"/>
      <use xlink:href="#Helvetica-65" x="1278.466797"/>
      <use xlink:href="#Helvetica-72" x="1334.082031"/>
      <use xlink:href="#Helvetica-70" x="1367.382812"/>
      <use xlink:href="#Helvetica-6f" x="1422.998047"/>
      <use xlink:href="#Helvetica-6c" x="1478.613281"/>
      <use xlink:href="#Helvetica-61" x="1500.830078"/>
      <use xlink:href="#Helvetica-74" x="1556.445312"/>
      <use xlink:href="#Helvetica-69" x="1584.228516"/>
      <use xlink:href="#Helvetica-6f" x="1606.445312"/>
      <use xlink:href="#Helvetica-6e" x="1662.060547"/>
     </g>
    </g>
    <g id="PathCollection_7">
     <g>
      <use xlink:href="#meb13623214" x="668.87075" y="41.236" style="stroke: #000000"/>
     </g>
    </g>
    <g id="text_38">
     <!-- Our Focal Length - Datapoint -->
     <g transform="translate(683.27075 43.336) scale(0.08 -0.08)">
      <defs>
       <path id="Helvetica-44" d="M 2250 531 
Q 2566 531 2769 597 
Q 3131 719 3363 1066 
Q 3547 1344 3628 1778 
Q 3675 2038 3675 2259 
Q 3675 3113 3336 3584 
Q 2997 4056 2244 4056 
L 1141 4056 
L 1141 531 
L 2250 531 
z
M 516 4591 
L 2375 4591 
Q 3322 4591 3844 3919 
Q 4309 3313 4309 2366 
Q 4309 1634 4034 1044 
Q 3550 0 2369 0 
L 516 0 
L 516 4591 
z
" transform="scale(0.015625)"/>
      </defs>
      <use xlink:href="#Helvetica-4f"/>
      <use xlink:href="#Helvetica-75" x="77.783203"/>
      <use xlink:href="#Helvetica-72" x="133.398438"/>
      <use xlink:href="#Helvetica-20" x="166.699219"/>
      <use xlink:href="#Helvetica-46" x="194.482422"/>
      <use xlink:href="#Helvetica-6f" x="255.566406"/>
      <use xlink:href="#Helvetica-63" x="311.181641"/>
      <use xlink:href="#Helvetica-61" x="361.181641"/>
      <use xlink:href="#Helvetica-6c" x="416.796875"/>
      <use xlink:href="#Helvetica-20" x="439.013672"/>
      <use xlink:href="#Helvetica-4c" x="466.796875"/>
      <use xlink:href="#Helvetica-65" x="522.412109"/>
      <use xlink:href="#Helvetica-6e" x="578.027344"/>
      <use xlink:href="#Helvetica-67" x="633.642578"/>
      <use xlink:href="#Helvetica-74" x="689.257812"/>
      <use xlink:href="#Helvetica-68" x="717.041016"/>
      <use xlink:href="#Helvetica-20" x="772.65625"/>
      <use xlink:href="#Helvetica-2d" x="800.439453"/>
      <use xlink:href="#Helvetica-20" x="833.740234"/>
      <use xlink:href="#Helvetica-44" x="861.523438"/>
      <use xlink:href="#Helvetica-61" x="933.740234"/>
      <use xlink:href="#Helvetica-74" x="989.355469"/>
      <use xlink:href="#Helvetica-61" x="1017.138672"/>
      <use xlink:href="#Helvetica-70" x="1072.753906"/>
      <use xlink:href="#Helvetica-6f" x="1128.369141"/>
      <use xlink:href="#Helvetica-69" x="1183.984375"/>
      <use xlink:href="#Helvetica-6e" x="1206.201172"/>
      <use xlink:href="#Helvetica-74" x="1261.816406"/>
     </g>
    </g>
    <g id="PathCollection_8">
     <g>
      <use xlink:href="#mf5de85e3fb" x="668.87075" y="52.7635" style="fill: #ff0000; fill-opacity: 0.5; stroke: #000000; stroke-opacity: 0.5"/>
     </g>
    </g>
    <g id="text_39">
     <!-- Nanomi Focal Length -->
     <g transform="translate(683.27075 54.8635) scale(0.08 -0.08)">
      <defs>
       <path id="Helvetica-4e" d="M 488 4591 
L 1222 4591 
L 3541 872 
L 3541 4591 
L 4131 4591 
L 4131 0 
L 3434 0 
L 1081 3716 
L 1081 0 
L 488 0 
L 488 4591 
z
M 2269 4591 
L 2269 4591 
z
" transform="scale(0.015625)"/>
      </defs>
      <use xlink:href="#Helvetica-4e"/>
      <use xlink:href="#Helvetica-61" x="72.216797"/>
      <use xlink:href="#Helvetica-6e" x="127.832031"/>
      <use xlink:href="#Helvetica-6f" x="183.447266"/>
      <use xlink:href="#Helvetica-6d" x="239.0625"/>
      <use xlink:href="#Helvetica-69" x="322.363281"/>
      <use xlink:href="#Helvetica-20" x="344.580078"/>
      <use xlink:href="#Helvetica-46" x="372.363281"/>
      <use xlink:href="#Helvetica-6f" x="433.447266"/>
      <use xlink:href="#Helvetica-63" x="489.0625"/>
      <use xlink:href="#Helvetica-61" x="539.0625"/>
      <use xlink:href="#Helvetica-6c" x="594.677734"/>
      <use xlink:href="#Helvetica-20" x="616.894531"/>
      <use xlink:href="#Helvetica-4c" x="644.677734"/>
      <use xlink:href="#Helvetica-65" x="700.292969"/>
      <use xlink:href="#Helvetica-6e" x="755.908203"/>
      <use xlink:href="#Helvetica-67" x="811.523438"/>
      <use xlink:href="#Helvetica-74" x="867.138672"/>
      <use xlink:href="#Helvetica-68" x="894.921875"/>
     </g>
    </g>
    <g id="PathCollection_9">
     <g>
      <use xlink:href="#m9feb5a6415" x="668.87075" y="64.3535" style="fill: #008000; fill-opacity: 0.5; stroke: #000000; stroke-opacity: 0.5"/>
     </g>
    </g>
    <g id="text_40">
     <!-- Rempfer Focal Length -->
     <g transform="translate(683.27075 66.4535) scale(0.08 -0.08)">
      <defs>
       <path id="Helvetica-52" d="M 2622 2488 
Q 3059 2488 3314 2663 
Q 3569 2838 3569 3294 
Q 3569 3784 3213 3963 
Q 3022 4056 2703 4056 
L 1184 4056 
L 1184 2488 
L 2622 2488 
z
M 563 4591 
L 2688 4591 
Q 3213 4591 3553 4438 
Q 4200 4144 4200 3353 
Q 4200 2941 4029 2678 
Q 3859 2416 3553 2256 
Q 3822 2147 3958 1969 
Q 4094 1791 4109 1391 
L 4131 775 
Q 4141 513 4175 384 
Q 4231 166 4375 103 
L 4375 0 
L 3613 0 
Q 3581 59 3562 153 
Q 3544 247 3531 516 
L 3494 1281 
Q 3472 1731 3159 1884 
Q 2981 1969 2600 1969 
L 1184 1969 
L 1184 0 
L 563 0 
L 563 4591 
z
" transform="scale(0.015625)"/>
       <path id="Helvetica-66" d="M 553 3856 
Q 566 4206 675 4369 
Q 872 4656 1434 4656 
Q 1488 4656 1544 4653 
Q 1600 4650 1672 4644 
L 1672 4131 
Q 1584 4138 1545 4139 
Q 1506 4141 1472 4141 
Q 1216 4141 1166 4008 
Q 1116 3875 1116 3331 
L 1672 3331 
L 1672 2888 
L 1109 2888 
L 1109 0 
L 553 0 
L 553 2888 
L 88 2888 
L 88 3331 
L 553 3331 
L 553 3856 
z
" transform="scale(0.015625)"/>
      </defs>
      <use xlink:href="#Helvetica-52"/>
      <use xlink:href="#Helvetica-65" x="72.216797"/>
      <use xlink:href="#Helvetica-6d" x="127.832031"/>
      <use xlink:href="#Helvetica-70" x="211.132812"/>
      <use xlink:href="#Helvetica-66" x="266.748047"/>
      <use xlink:href="#Helvetica-65" x="294.53125"/>
      <use xlink:href="#Helvetica-72" x="350.146484"/>
      <use xlink:href="#Helvetica-20" x="383.447266"/>
      <use xlink:href="#Helvetica-46" x="411.230469"/>
      <use xlink:href="#Helvetica-6f" x="472.314453"/>
      <use xlink:href="#Helvetica-63" x="527.929688"/>
      <use xlink:href="#Helvetica-61" x="577.929688"/>
      <use xlink:href="#Helvetica-6c" x="633.544922"/>
      <use xlink:href="#Helvetica-20" x="655.761719"/>
      <use xlink:href="#Helvetica-4c" x="683.544922"/>
      <use xlink:href="#Helvetica-65" x="739.160156"/>
      <use xlink:href="#Helvetica-6e" x="794.775391"/>
      <use xlink:href="#Helvetica-67" x="850.390625"/>
      <use xlink:href="#Helvetica-74" x="906.005859"/>
      <use xlink:href="#Helvetica-68" x="933.789062"/>
     </g>
    </g>
   </g>
  </g>
 </g>
 <defs>
  <clipPath id="p337a3dcfec">
   <rect x="108" y="51.84" width="602.64" height="332.64"/>
  </clipPath>
  <clipPath id="pddf00822ce">
   <rect x="288.792" y="85.104" width="421.848" height="232.848"/>
  </clipPath>
 </defs>
</svg>
