<?xml version="1.0" encoding="utf-8" standalone="no"?>
<!DOCTYPE svg PUBLIC "-//W3C//DTD SVG 1.1//EN"
  "http://www.w3.org/Graphics/SVG/1.1/DTD/svg11.dtd">
<svg xmlns:xlink="http://www.w3.org/1999/xlink" width="864pt" height="432pt" viewBox="0 0 864 432" xmlns="http://www.w3.org/2000/svg" version="1.1">
 <metadata>
  <rdf:RDF xmlns:dc="http://purl.org/dc/elements/1.1/" xmlns:cc="http://creativecommons.org/ns#" xmlns:rdf="http://www.w3.org/1999/02/22-rdf-syntax-ns#">
   <cc:Work>
    <dc:type rdf:resource="http://purl.org/dc/dcmitype/StillImage"/>
    <dc:date>2023-01-06T15:50:42.464090</dc:date>
    <dc:format>image/svg+xml</dc:format>
    <dc:creator>
     <cc:Agent>
      <dc:title>Matplotlib v3.6.2, https://matplotlib.org/</dc:title>
     </cc:Agent>
    </dc:creator>
   </cc:Work>
  </rdf:RDF>
 </metadata>
 <defs>
  <style type="text/css">*{stroke-linejoin: round; stroke-linecap: butt}</style>
 </defs>
 <g id="figure_1">
  <g id="patch_1">
   <path d="M 0 432 
L 864 432 
L 864 0 
L 0 0 
z
" style="fill: #ffffff"/>
  </g>
  <g id="axes_1">
   <g id="patch_2">
    <path d="M 108 384.48 
L 710.64 384.48 
L 710.64 51.84 
L 108 51.84 
z
" style="fill: #ffffff"/>
   </g>
   <g id="line2d_1">
    <path d="M 162.785455 66.96 
L 167.76595 117.419855 
L 172.746446 156.532207 
L 177.726942 187.42809 
L 182.707438 212.247332 
L 187.687934 232.471494 
L 192.66843 249.160738 
L 197.648926 263.086873 
L 202.629421 274.819922 
L 207.609917 284.793728 
L 212.590413 293.339672 
L 217.570909 300.71497 
L 222.551405 307.120544 
L 227.531901 312.717082 
L 232.512397 317.633637 
L 237.492893 321.973685 
L 242.473388 325.82357 
L 247.453884 329.253133 
L 252.43438 332.319644 
L 257.414876 335.072067 
L 262.395372 337.55098 
L 267.375868 339.790853 
L 272.356364 341.820733 
L 277.33686 343.665546 
L 282.317355 345.346703 
L 287.297851 346.882398 
L 292.278347 348.288634 
L 297.258843 349.579183 
L 302.239339 350.766113 
L 307.219835 351.859895 
L 312.200331 352.86975 
L 317.180826 353.803804 
L 322.161322 354.669269 
L 327.141818 355.472449 
L 332.122314 356.219039 
L 337.10281 356.914049 
L 342.083306 357.561964 
L 347.063802 358.166806 
L 352.044298 358.732166 
L 357.024793 359.261295 
L 362.005289 359.757104 
L 366.985785 360.222229 
L 371.966281 360.659053 
L 376.946777 361.069728 
L 381.927273 361.456225 
L 386.907769 361.820316 
L 391.888264 362.163638 
L 396.86876 362.487661 
L 401.849256 362.793742 
L 406.829752 363.08312 
L 411.810248 363.356931 
L 416.790744 363.616219 
L 421.77124 363.861943 
L 426.751736 364.094984 
L 431.732231 364.316149 
L 436.712727 364.526192 
L 441.693223 364.725809 
L 446.673719 364.915628 
L 451.654215 365.096255 
L 456.634711 365.268232 
L 461.615207 365.43207 
L 466.595702 365.588245 
L 471.576198 365.73719 
L 476.556694 365.879325 
L 481.53719 366.015016 
L 486.517686 366.144633 
L 491.498182 366.268497 
L 496.478678 366.386916 
L 501.459174 366.500185 
L 506.439669 366.608568 
L 511.420165 366.712324 
L 516.400661 366.811685 
L 521.381157 366.906868 
L 526.361653 366.998086 
L 531.342149 367.08552 
L 536.322645 367.169373 
L 541.30314 367.249797 
L 546.283636 367.326959 
L 551.264132 367.400998 
L 556.244628 367.472064 
L 561.225124 367.540278 
L 566.20562 367.60576 
L 571.186116 367.668628 
L 576.166612 367.728978 
L 581.147107 367.786907 
L 586.127603 367.8425 
L 591.108099 367.89584 
L 596.088595 367.94698 
L 601.069091 367.995975 
L 606.049587 368.042846 
L 611.030083 368.087581 
L 616.010579 368.130111 
L 620.991074 368.17033 
L 625.97157 368.208045 
L 630.952066 368.242997 
L 635.932562 368.274787 
L 640.913058 368.302925 
L 645.893554 368.32667 
L 650.87405 368.34499 
L 655.854545 368.35639 
" clip-path="url(#pe1139267a3)" style="fill: none; stroke: #0000ff; stroke-width: 1.5; stroke-linecap: square"/>
   </g>
   <g id="PathCollection_1">
    <defs>
     <path id="mce24290c4a" d="M 0 0.707107 
C 0.187527 0.707107 0.367398 0.632602 0.5 0.5 
C 0.632602 0.367398 0.707107 0.187527 0.707107 0 
C 0.707107 -0.187527 0.632602 -0.367398 0.5 -0.5 
C 0.367398 -0.632602 0.187527 -0.707107 0 -0.707107 
C -0.187527 -0.707107 -0.367398 -0.632602 -0.5 -0.5 
C -0.632602 -0.367398 -0.707107 -0.187527 -0.707107 0 
C -0.707107 0.187527 -0.632602 0.367398 -0.5 0.5 
C -0.367398 0.632602 -0.187527 0.707107 0 0.707107 
z
" style="stroke: #000000"/>
    </defs>
    <g clip-path="url(#pe1139267a3)">
     <use xlink:href="#mce24290c4a" x="162.785455" y="66.96" style="stroke: #000000"/>
     <use xlink:href="#mce24290c4a" x="167.76595" y="117.419855" style="stroke: #000000"/>
     <use xlink:href="#mce24290c4a" x="172.746446" y="156.532207" style="stroke: #000000"/>
     <use xlink:href="#mce24290c4a" x="177.726942" y="187.42809" style="stroke: #000000"/>
     <use xlink:href="#mce24290c4a" x="182.707438" y="212.247332" style="stroke: #000000"/>
     <use xlink:href="#mce24290c4a" x="187.687934" y="232.471494" style="stroke: #000000"/>
     <use xlink:href="#mce24290c4a" x="192.66843" y="249.160738" style="stroke: #000000"/>
     <use xlink:href="#mce24290c4a" x="197.648926" y="263.086873" style="stroke: #000000"/>
     <use xlink:href="#mce24290c4a" x="202.629421" y="274.819922" style="stroke: #000000"/>
     <use xlink:href="#mce24290c4a" x="207.609917" y="284.793728" style="stroke: #000000"/>
     <use xlink:href="#mce24290c4a" x="212.590413" y="293.339672" style="stroke: #000000"/>
     <use xlink:href="#mce24290c4a" x="217.570909" y="300.71497" style="stroke: #000000"/>
     <use xlink:href="#mce24290c4a" x="222.551405" y="307.120544" style="stroke: #000000"/>
     <use xlink:href="#mce24290c4a" x="227.531901" y="312.717082" style="stroke: #000000"/>
     <use xlink:href="#mce24290c4a" x="232.512397" y="317.633637" style="stroke: #000000"/>
     <use xlink:href="#mce24290c4a" x="237.492893" y="321.973685" style="stroke: #000000"/>
     <use xlink:href="#mce24290c4a" x="242.473388" y="325.82357" style="stroke: #000000"/>
     <use xlink:href="#mce24290c4a" x="247.453884" y="329.253133" style="stroke: #000000"/>
     <use xlink:href="#mce24290c4a" x="252.43438" y="332.319644" style="stroke: #000000"/>
     <use xlink:href="#mce24290c4a" x="257.414876" y="335.072067" style="stroke: #000000"/>
     <use xlink:href="#mce24290c4a" x="262.395372" y="337.55098" style="stroke: #000000"/>
     <use xlink:href="#mce24290c4a" x="267.375868" y="339.790853" style="stroke: #000000"/>
     <use xlink:href="#mce24290c4a" x="272.356364" y="341.820733" style="stroke: #000000"/>
     <use xlink:href="#mce24290c4a" x="277.33686" y="343.665546" style="stroke: #000000"/>
     <use xlink:href="#mce24290c4a" x="282.317355" y="345.346703" style="stroke: #000000"/>
     <use xlink:href="#mce24290c4a" x="287.297851" y="346.882398" style="stroke: #000000"/>
     <use xlink:href="#mce24290c4a" x="292.278347" y="348.288634" style="stroke: #000000"/>
     <use xlink:href="#mce24290c4a" x="297.258843" y="349.579183" style="stroke: #000000"/>
     <use xlink:href="#mce24290c4a" x="302.239339" y="350.766113" style="stroke: #000000"/>
     <use xlink:href="#mce24290c4a" x="307.219835" y="351.859895" style="stroke: #000000"/>
     <use xlink:href="#mce24290c4a" x="312.200331" y="352.86975" style="stroke: #000000"/>
     <use xlink:href="#mce24290c4a" x="317.180826" y="353.803804" style="stroke: #000000"/>
     <use xlink:href="#mce24290c4a" x="322.161322" y="354.669269" style="stroke: #000000"/>
     <use xlink:href="#mce24290c4a" x="327.141818" y="355.472449" style="stroke: #000000"/>
     <use xlink:href="#mce24290c4a" x="332.122314" y="356.219039" style="stroke: #000000"/>
     <use xlink:href="#mce24290c4a" x="337.10281" y="356.914049" style="stroke: #000000"/>
     <use xlink:href="#mce24290c4a" x="342.083306" y="357.561964" style="stroke: #000000"/>
     <use xlink:href="#mce24290c4a" x="347.063802" y="358.166806" style="stroke: #000000"/>
     <use xlink:href="#mce24290c4a" x="352.044298" y="358.732166" style="stroke: #000000"/>
     <use xlink:href="#mce24290c4a" x="357.024793" y="359.261295" style="stroke: #000000"/>
     <use xlink:href="#mce24290c4a" x="362.005289" y="359.757104" style="stroke: #000000"/>
     <use xlink:href="#mce24290c4a" x="366.985785" y="360.222229" style="stroke: #000000"/>
     <use xlink:href="#mce24290c4a" x="371.966281" y="360.659053" style="stroke: #000000"/>
     <use xlink:href="#mce24290c4a" x="376.946777" y="361.069728" style="stroke: #000000"/>
     <use xlink:href="#mce24290c4a" x="381.927273" y="361.456225" style="stroke: #000000"/>
     <use xlink:href="#mce24290c4a" x="386.907769" y="361.820316" style="stroke: #000000"/>
     <use xlink:href="#mce24290c4a" x="391.888264" y="362.163638" style="stroke: #000000"/>
     <use xlink:href="#mce24290c4a" x="396.86876" y="362.487661" style="stroke: #000000"/>
     <use xlink:href="#mce24290c4a" x="401.849256" y="362.793742" style="stroke: #000000"/>
     <use xlink:href="#mce24290c4a" x="406.829752" y="363.08312" style="stroke: #000000"/>
     <use xlink:href="#mce24290c4a" x="411.810248" y="363.356931" style="stroke: #000000"/>
     <use xlink:href="#mce24290c4a" x="416.790744" y="363.616219" style="stroke: #000000"/>
     <use xlink:href="#mce24290c4a" x="421.77124" y="363.861943" style="stroke: #000000"/>
     <use xlink:href="#mce24290c4a" x="426.751736" y="364.094984" style="stroke: #000000"/>
     <use xlink:href="#mce24290c4a" x="431.732231" y="364.316149" style="stroke: #000000"/>
     <use xlink:href="#mce24290c4a" x="436.712727" y="364.526192" style="stroke: #000000"/>
     <use xlink:href="#mce24290c4a" x="441.693223" y="364.725809" style="stroke: #000000"/>
     <use xlink:href="#mce24290c4a" x="446.673719" y="364.915628" style="stroke: #000000"/>
     <use xlink:href="#mce24290c4a" x="451.654215" y="365.096255" style="stroke: #000000"/>
     <use xlink:href="#mce24290c4a" x="456.634711" y="365.268232" style="stroke: #000000"/>
     <use xlink:href="#mce24290c4a" x="461.615207" y="365.43207" style="stroke: #000000"/>
     <use xlink:href="#mce24290c4a" x="466.595702" y="365.588245" style="stroke: #000000"/>
     <use xlink:href="#mce24290c4a" x="471.576198" y="365.73719" style="stroke: #000000"/>
     <use xlink:href="#mce24290c4a" x="476.556694" y="365.879325" style="stroke: #000000"/>
     <use xlink:href="#mce24290c4a" x="481.53719" y="366.015016" style="stroke: #000000"/>
     <use xlink:href="#mce24290c4a" x="486.517686" y="366.144633" style="stroke: #000000"/>
     <use xlink:href="#mce24290c4a" x="491.498182" y="366.268497" style="stroke: #000000"/>
     <use xlink:href="#mce24290c4a" x="496.478678" y="366.386916" style="stroke: #000000"/>
     <use xlink:href="#mce24290c4a" x="501.459174" y="366.500185" style="stroke: #000000"/>
     <use xlink:href="#mce24290c4a" x="506.439669" y="366.608568" style="stroke: #000000"/>
     <use xlink:href="#mce24290c4a" x="511.420165" y="366.712324" style="stroke: #000000"/>
     <use xlink:href="#mce24290c4a" x="516.400661" y="366.811685" style="stroke: #000000"/>
     <use xlink:href="#mce24290c4a" x="521.381157" y="366.906868" style="stroke: #000000"/>
     <use xlink:href="#mce24290c4a" x="526.361653" y="366.998086" style="stroke: #000000"/>
     <use xlink:href="#mce24290c4a" x="531.342149" y="367.08552" style="stroke: #000000"/>
     <use xlink:href="#mce24290c4a" x="536.322645" y="367.169373" style="stroke: #000000"/>
     <use xlink:href="#mce24290c4a" x="541.30314" y="367.249797" style="stroke: #000000"/>
     <use xlink:href="#mce24290c4a" x="546.283636" y="367.326959" style="stroke: #000000"/>
     <use xlink:href="#mce24290c4a" x="551.264132" y="367.400998" style="stroke: #000000"/>
     <use xlink:href="#mce24290c4a" x="556.244628" y="367.472064" style="stroke: #000000"/>
     <use xlink:href="#mce24290c4a" x="561.225124" y="367.540278" style="stroke: #000000"/>
     <use xlink:href="#mce24290c4a" x="566.20562" y="367.60576" style="stroke: #000000"/>
     <use xlink:href="#mce24290c4a" x="571.186116" y="367.668628" style="stroke: #000000"/>
     <use xlink:href="#mce24290c4a" x="576.166612" y="367.728978" style="stroke: #000000"/>
     <use xlink:href="#mce24290c4a" x="581.147107" y="367.786907" style="stroke: #000000"/>
     <use xlink:href="#mce24290c4a" x="586.127603" y="367.8425" style="stroke: #000000"/>
     <use xlink:href="#mce24290c4a" x="591.108099" y="367.89584" style="stroke: #000000"/>
     <use xlink:href="#mce24290c4a" x="596.088595" y="367.94698" style="stroke: #000000"/>
     <use xlink:href="#mce24290c4a" x="601.069091" y="367.995975" style="stroke: #000000"/>
     <use xlink:href="#mce24290c4a" x="606.049587" y="368.042846" style="stroke: #000000"/>
     <use xlink:href="#mce24290c4a" x="611.030083" y="368.087581" style="stroke: #000000"/>
     <use xlink:href="#mce24290c4a" x="616.010579" y="368.130111" style="stroke: #000000"/>
     <use xlink:href="#mce24290c4a" x="620.991074" y="368.17033" style="stroke: #000000"/>
     <use xlink:href="#mce24290c4a" x="625.97157" y="368.208045" style="stroke: #000000"/>
     <use xlink:href="#mce24290c4a" x="630.952066" y="368.242997" style="stroke: #000000"/>
     <use xlink:href="#mce24290c4a" x="635.932562" y="368.274787" style="stroke: #000000"/>
     <use xlink:href="#mce24290c4a" x="640.913058" y="368.302925" style="stroke: #000000"/>
     <use xlink:href="#mce24290c4a" x="645.893554" y="368.32667" style="stroke: #000000"/>
     <use xlink:href="#mce24290c4a" x="650.87405" y="368.34499" style="stroke: #000000"/>
     <use xlink:href="#mce24290c4a" x="655.854545" y="368.35639" style="stroke: #000000"/>
    </g>
   </g>
   <g id="PathCollection_2">
    <defs>
     <path id="m98efcf4459" d="M -3 3 
L 3 3 
L 3 -3 
L -3 -3 
z
" style="stroke: #000000; stroke-opacity: 0.5"/>
    </defs>
    <g clip-path="url(#pe1139267a3)">
     <use xlink:href="#m98efcf4459" x="381.927273" y="361.578512" style="fill: #ff0000; fill-opacity: 0.5; stroke: #000000; stroke-opacity: 0.5"/>
     <use xlink:href="#m98efcf4459" x="436.712727" y="364.691107" style="fill: #ff0000; fill-opacity: 0.5; stroke: #000000; stroke-opacity: 0.5"/>
     <use xlink:href="#m98efcf4459" x="491.498182" y="366.380802" style="fill: #ff0000; fill-opacity: 0.5; stroke: #000000; stroke-opacity: 0.5"/>
     <use xlink:href="#m98efcf4459" x="546.283636" y="367.359046" style="fill: #ff0000; fill-opacity: 0.5; stroke: #000000; stroke-opacity: 0.5"/>
     <use xlink:href="#m98efcf4459" x="601.069091" y="367.981565" style="fill: #ff0000; fill-opacity: 0.5; stroke: #000000; stroke-opacity: 0.5"/>
     <use xlink:href="#m98efcf4459" x="655.854545" y="368.33729" style="fill: #ff0000; fill-opacity: 0.5; stroke: #000000; stroke-opacity: 0.5"/>
    </g>
   </g>
   <g id="PathCollection_3">
    <defs>
     <path id="meb2319e793" d="M 0 3 
C 0.795609 3 1.55874 2.683901 2.12132 2.12132 
C 2.683901 1.55874 3 0.795609 3 0 
C 3 -0.795609 2.683901 -1.55874 2.12132 -2.12132 
C 1.55874 -2.683901 0.795609 -3 0 -3 
C -0.795609 -3 -1.55874 -2.683901 -2.12132 -2.12132 
C -2.683901 -1.55874 -3 -0.795609 -3 0 
C -3 0.795609 -2.683901 1.55874 -2.12132 2.12132 
C -1.55874 2.683901 -0.795609 3 0 3 
z
" style="stroke: #000000; stroke-opacity: 0.5"/>
    </defs>
    <g clip-path="url(#pe1139267a3)">
     <use xlink:href="#meb2319e793" x="655.854545" y="368.385982" style="fill: #008000; fill-opacity: 0.5; stroke: #000000; stroke-opacity: 0.5"/>
     <use xlink:href="#meb2319e793" x="601.069091" y="367.985293" style="fill: #008000; fill-opacity: 0.5; stroke: #000000; stroke-opacity: 0.5"/>
     <use xlink:href="#meb2319e793" x="546.283636" y="367.312574" style="fill: #008000; fill-opacity: 0.5; stroke: #000000; stroke-opacity: 0.5"/>
     <use xlink:href="#meb2319e793" x="491.498182" y="366.249105" style="fill: #008000; fill-opacity: 0.5; stroke: #000000; stroke-opacity: 0.5"/>
     <use xlink:href="#meb2319e793" x="436.712727" y="364.440214" style="fill: #008000; fill-opacity: 0.5; stroke: #000000; stroke-opacity: 0.5"/>
     <use xlink:href="#meb2319e793" x="381.927273" y="361.339258" style="fill: #008000; fill-opacity: 0.5; stroke: #000000; stroke-opacity: 0.5"/>
    </g>
   </g>
   <g id="matplotlib.axis_1">
    <g id="xtick_1">
     <g id="line2d_2">
      <defs>
       <path id="mfd77ef25e6" d="M 0 0 
L 0 3.5 
" style="stroke: #000000; stroke-width: 0.8"/>
      </defs>
      <g>
       <use xlink:href="#mfd77ef25e6" x="108" y="384.48" style="stroke: #000000; stroke-width: 0.8"/>
      </g>
     </g>
     <g id="text_1">
      <!-- 0.0 -->
      <g transform="translate(100.048438 399.078438) scale(0.1 -0.1)">
       <defs>
        <path id="DejaVuSans-30" d="M 2034 4250 
Q 1547 4250 1301 3770 
Q 1056 3291 1056 2328 
Q 1056 1369 1301 889 
Q 1547 409 2034 409 
Q 2525 409 2770 889 
Q 3016 1369 3016 2328 
Q 3016 3291 2770 3770 
Q 2525 4250 2034 4250 
z
M 2034 4750 
Q 2819 4750 3233 4129 
Q 3647 3509 3647 2328 
Q 3647 1150 3233 529 
Q 2819 -91 2034 -91 
Q 1250 -91 836 529 
Q 422 1150 422 2328 
Q 422 3509 836 4129 
Q 1250 4750 2034 4750 
z
" transform="scale(0.015625)"/>
        <path id="DejaVuSans-2e" d="M 684 794 
L 1344 794 
L 1344 0 
L 684 0 
L 684 794 
z
" transform="scale(0.015625)"/>
       </defs>
       <use xlink:href="#DejaVuSans-30"/>
       <use xlink:href="#DejaVuSans-2e" x="63.623047"/>
       <use xlink:href="#DejaVuSans-30" x="95.410156"/>
      </g>
     </g>
    </g>
    <g id="xtick_2">
     <g id="line2d_3">
      <g>
       <use xlink:href="#mfd77ef25e6" x="162.785455" y="384.48" style="stroke: #000000; stroke-width: 0.8"/>
      </g>
     </g>
     <g id="text_2">
      <!-- 0.1 -->
      <g transform="translate(154.833892 399.078438) scale(0.1 -0.1)">
       <defs>
        <path id="DejaVuSans-31" d="M 794 531 
L 1825 531 
L 1825 4091 
L 703 3866 
L 703 4441 
L 1819 4666 
L 2450 4666 
L 2450 531 
L 3481 531 
L 3481 0 
L 794 0 
L 794 531 
z
" transform="scale(0.015625)"/>
       </defs>
       <use xlink:href="#DejaVuSans-30"/>
       <use xlink:href="#DejaVuSans-2e" x="63.623047"/>
       <use xlink:href="#DejaVuSans-31" x="95.410156"/>
      </g>
     </g>
    </g>
    <g id="xtick_3">
     <g id="line2d_4">
      <g>
       <use xlink:href="#mfd77ef25e6" x="217.570909" y="384.48" style="stroke: #000000; stroke-width: 0.8"/>
      </g>
     </g>
     <g id="text_3">
      <!-- 0.2 -->
      <g transform="translate(209.619347 399.078438) scale(0.1 -0.1)">
       <defs>
        <path id="DejaVuSans-32" d="M 1228 531 
L 3431 531 
L 3431 0 
L 469 0 
L 469 531 
Q 828 903 1448 1529 
Q 2069 2156 2228 2338 
Q 2531 2678 2651 2914 
Q 2772 3150 2772 3378 
Q 2772 3750 2511 3984 
Q 2250 4219 1831 4219 
Q 1534 4219 1204 4116 
Q 875 4013 500 3803 
L 500 4441 
Q 881 4594 1212 4672 
Q 1544 4750 1819 4750 
Q 2544 4750 2975 4387 
Q 3406 4025 3406 3419 
Q 3406 3131 3298 2873 
Q 3191 2616 2906 2266 
Q 2828 2175 2409 1742 
Q 1991 1309 1228 531 
z
" transform="scale(0.015625)"/>
       </defs>
       <use xlink:href="#DejaVuSans-30"/>
       <use xlink:href="#DejaVuSans-2e" x="63.623047"/>
       <use xlink:href="#DejaVuSans-32" x="95.410156"/>
      </g>
     </g>
    </g>
    <g id="xtick_4">
     <g id="line2d_5">
      <g>
       <use xlink:href="#mfd77ef25e6" x="272.356364" y="384.48" style="stroke: #000000; stroke-width: 0.8"/>
      </g>
     </g>
     <g id="text_4">
      <!-- 0.3 -->
      <g transform="translate(264.404801 399.078438) scale(0.1 -0.1)">
       <defs>
        <path id="DejaVuSans-33" d="M 2597 2516 
Q 3050 2419 3304 2112 
Q 3559 1806 3559 1356 
Q 3559 666 3084 287 
Q 2609 -91 1734 -91 
Q 1441 -91 1130 -33 
Q 819 25 488 141 
L 488 750 
Q 750 597 1062 519 
Q 1375 441 1716 441 
Q 2309 441 2620 675 
Q 2931 909 2931 1356 
Q 2931 1769 2642 2001 
Q 2353 2234 1838 2234 
L 1294 2234 
L 1294 2753 
L 1863 2753 
Q 2328 2753 2575 2939 
Q 2822 3125 2822 3475 
Q 2822 3834 2567 4026 
Q 2313 4219 1838 4219 
Q 1578 4219 1281 4162 
Q 984 4106 628 3988 
L 628 4550 
Q 988 4650 1302 4700 
Q 1616 4750 1894 4750 
Q 2613 4750 3031 4423 
Q 3450 4097 3450 3541 
Q 3450 3153 3228 2886 
Q 3006 2619 2597 2516 
z
" transform="scale(0.015625)"/>
       </defs>
       <use xlink:href="#DejaVuSans-30"/>
       <use xlink:href="#DejaVuSans-2e" x="63.623047"/>
       <use xlink:href="#DejaVuSans-33" x="95.410156"/>
      </g>
     </g>
    </g>
    <g id="xtick_5">
     <g id="line2d_6">
      <g>
       <use xlink:href="#mfd77ef25e6" x="327.141818" y="384.48" style="stroke: #000000; stroke-width: 0.8"/>
      </g>
     </g>
     <g id="text_5">
      <!-- 0.4 -->
      <g transform="translate(319.190256 399.078438) scale(0.1 -0.1)">
       <defs>
        <path id="DejaVuSans-34" d="M 2419 4116 
L 825 1625 
L 2419 1625 
L 2419 4116 
z
M 2253 4666 
L 3047 4666 
L 3047 1625 
L 3713 1625 
L 3713 1100 
L 3047 1100 
L 3047 0 
L 2419 0 
L 2419 1100 
L 313 1100 
L 313 1709 
L 2253 4666 
z
" transform="scale(0.015625)"/>
       </defs>
       <use xlink:href="#DejaVuSans-30"/>
       <use xlink:href="#DejaVuSans-2e" x="63.623047"/>
       <use xlink:href="#DejaVuSans-34" x="95.410156"/>
      </g>
     </g>
    </g>
    <g id="xtick_6">
     <g id="line2d_7">
      <g>
       <use xlink:href="#mfd77ef25e6" x="381.927273" y="384.48" style="stroke: #000000; stroke-width: 0.8"/>
      </g>
     </g>
     <g id="text_6">
      <!-- 0.5 -->
      <g transform="translate(373.97571 399.078438) scale(0.1 -0.1)">
       <defs>
        <path id="DejaVuSans-35" d="M 691 4666 
L 3169 4666 
L 3169 4134 
L 1269 4134 
L 1269 2991 
Q 1406 3038 1543 3061 
Q 1681 3084 1819 3084 
Q 2600 3084 3056 2656 
Q 3513 2228 3513 1497 
Q 3513 744 3044 326 
Q 2575 -91 1722 -91 
Q 1428 -91 1123 -41 
Q 819 9 494 109 
L 494 744 
Q 775 591 1075 516 
Q 1375 441 1709 441 
Q 2250 441 2565 725 
Q 2881 1009 2881 1497 
Q 2881 1984 2565 2268 
Q 2250 2553 1709 2553 
Q 1456 2553 1204 2497 
Q 953 2441 691 2322 
L 691 4666 
z
" transform="scale(0.015625)"/>
       </defs>
       <use xlink:href="#DejaVuSans-30"/>
       <use xlink:href="#DejaVuSans-2e" x="63.623047"/>
       <use xlink:href="#DejaVuSans-35" x="95.410156"/>
      </g>
     </g>
    </g>
    <g id="xtick_7">
     <g id="line2d_8">
      <g>
       <use xlink:href="#mfd77ef25e6" x="436.712727" y="384.48" style="stroke: #000000; stroke-width: 0.8"/>
      </g>
     </g>
     <g id="text_7">
      <!-- 0.6 -->
      <g transform="translate(428.761165 399.078438) scale(0.1 -0.1)">
       <defs>
        <path id="DejaVuSans-36" d="M 2113 2584 
Q 1688 2584 1439 2293 
Q 1191 2003 1191 1497 
Q 1191 994 1439 701 
Q 1688 409 2113 409 
Q 2538 409 2786 701 
Q 3034 994 3034 1497 
Q 3034 2003 2786 2293 
Q 2538 2584 2113 2584 
z
M 3366 4563 
L 3366 3988 
Q 3128 4100 2886 4159 
Q 2644 4219 2406 4219 
Q 1781 4219 1451 3797 
Q 1122 3375 1075 2522 
Q 1259 2794 1537 2939 
Q 1816 3084 2150 3084 
Q 2853 3084 3261 2657 
Q 3669 2231 3669 1497 
Q 3669 778 3244 343 
Q 2819 -91 2113 -91 
Q 1303 -91 875 529 
Q 447 1150 447 2328 
Q 447 3434 972 4092 
Q 1497 4750 2381 4750 
Q 2619 4750 2861 4703 
Q 3103 4656 3366 4563 
z
" transform="scale(0.015625)"/>
       </defs>
       <use xlink:href="#DejaVuSans-30"/>
       <use xlink:href="#DejaVuSans-2e" x="63.623047"/>
       <use xlink:href="#DejaVuSans-36" x="95.410156"/>
      </g>
     </g>
    </g>
    <g id="xtick_8">
     <g id="line2d_9">
      <g>
       <use xlink:href="#mfd77ef25e6" x="491.498182" y="384.48" style="stroke: #000000; stroke-width: 0.8"/>
      </g>
     </g>
     <g id="text_8">
      <!-- 0.7 -->
      <g transform="translate(483.546619 399.078438) scale(0.1 -0.1)">
       <defs>
        <path id="DejaVuSans-37" d="M 525 4666 
L 3525 4666 
L 3525 4397 
L 1831 0 
L 1172 0 
L 2766 4134 
L 525 4134 
L 525 4666 
z
" transform="scale(0.015625)"/>
       </defs>
       <use xlink:href="#DejaVuSans-30"/>
       <use xlink:href="#DejaVuSans-2e" x="63.623047"/>
       <use xlink:href="#DejaVuSans-37" x="95.410156"/>
      </g>
     </g>
    </g>
    <g id="xtick_9">
     <g id="line2d_10">
      <g>
       <use xlink:href="#mfd77ef25e6" x="546.283636" y="384.48" style="stroke: #000000; stroke-width: 0.8"/>
      </g>
     </g>
     <g id="text_9">
      <!-- 0.8 -->
      <g transform="translate(538.332074 399.078438) scale(0.1 -0.1)">
       <defs>
        <path id="DejaVuSans-38" d="M 2034 2216 
Q 1584 2216 1326 1975 
Q 1069 1734 1069 1313 
Q 1069 891 1326 650 
Q 1584 409 2034 409 
Q 2484 409 2743 651 
Q 3003 894 3003 1313 
Q 3003 1734 2745 1975 
Q 2488 2216 2034 2216 
z
M 1403 2484 
Q 997 2584 770 2862 
Q 544 3141 544 3541 
Q 544 4100 942 4425 
Q 1341 4750 2034 4750 
Q 2731 4750 3128 4425 
Q 3525 4100 3525 3541 
Q 3525 3141 3298 2862 
Q 3072 2584 2669 2484 
Q 3125 2378 3379 2068 
Q 3634 1759 3634 1313 
Q 3634 634 3220 271 
Q 2806 -91 2034 -91 
Q 1263 -91 848 271 
Q 434 634 434 1313 
Q 434 1759 690 2068 
Q 947 2378 1403 2484 
z
M 1172 3481 
Q 1172 3119 1398 2916 
Q 1625 2713 2034 2713 
Q 2441 2713 2670 2916 
Q 2900 3119 2900 3481 
Q 2900 3844 2670 4047 
Q 2441 4250 2034 4250 
Q 1625 4250 1398 4047 
Q 1172 3844 1172 3481 
z
" transform="scale(0.015625)"/>
       </defs>
       <use xlink:href="#DejaVuSans-30"/>
       <use xlink:href="#DejaVuSans-2e" x="63.623047"/>
       <use xlink:href="#DejaVuSans-38" x="95.410156"/>
      </g>
     </g>
    </g>
    <g id="xtick_10">
     <g id="line2d_11">
      <g>
       <use xlink:href="#mfd77ef25e6" x="601.069091" y="384.48" style="stroke: #000000; stroke-width: 0.8"/>
      </g>
     </g>
     <g id="text_10">
      <!-- 0.9 -->
      <g transform="translate(593.117528 399.078438) scale(0.1 -0.1)">
       <defs>
        <path id="DejaVuSans-39" d="M 703 97 
L 703 672 
Q 941 559 1184 500 
Q 1428 441 1663 441 
Q 2288 441 2617 861 
Q 2947 1281 2994 2138 
Q 2813 1869 2534 1725 
Q 2256 1581 1919 1581 
Q 1219 1581 811 2004 
Q 403 2428 403 3163 
Q 403 3881 828 4315 
Q 1253 4750 1959 4750 
Q 2769 4750 3195 4129 
Q 3622 3509 3622 2328 
Q 3622 1225 3098 567 
Q 2575 -91 1691 -91 
Q 1453 -91 1209 -44 
Q 966 3 703 97 
z
M 1959 2075 
Q 2384 2075 2632 2365 
Q 2881 2656 2881 3163 
Q 2881 3666 2632 3958 
Q 2384 4250 1959 4250 
Q 1534 4250 1286 3958 
Q 1038 3666 1038 3163 
Q 1038 2656 1286 2365 
Q 1534 2075 1959 2075 
z
" transform="scale(0.015625)"/>
       </defs>
       <use xlink:href="#DejaVuSans-30"/>
       <use xlink:href="#DejaVuSans-2e" x="63.623047"/>
       <use xlink:href="#DejaVuSans-39" x="95.410156"/>
      </g>
     </g>
    </g>
    <g id="xtick_11">
     <g id="line2d_12">
      <g>
       <use xlink:href="#mfd77ef25e6" x="655.854545" y="384.48" style="stroke: #000000; stroke-width: 0.8"/>
      </g>
     </g>
     <g id="text_11">
      <!-- 1.0 -->
      <g transform="translate(647.902983 399.078438) scale(0.1 -0.1)">
       <use xlink:href="#DejaVuSans-31"/>
       <use xlink:href="#DejaVuSans-2e" x="63.623047"/>
       <use xlink:href="#DejaVuSans-30" x="95.410156"/>
      </g>
     </g>
    </g>
    <g id="text_12">
     <!-- $U_L/U_0$ -->
     <g transform="translate(395.82 412.756563) scale(0.1 -0.1)">
      <defs>
       <path id="DejaVuSans-Oblique-55" d="M 991 4666 
L 1625 4666 
L 1075 1831 
Q 1041 1641 1027 1517 
Q 1013 1394 1013 1300 
Q 1013 869 1253 645 
Q 1494 422 1959 422 
Q 2563 422 2898 753 
Q 3234 1084 3378 1831 
L 3928 4666 
L 4563 4666 
L 4000 1753 
Q 3816 809 3300 359 
Q 2784 -91 1888 -91 
Q 1188 -91 780 261 
Q 372 613 372 1216 
Q 372 1325 387 1461 
Q 403 1597 434 1753 
L 991 4666 
z
" transform="scale(0.015625)"/>
       <path id="DejaVuSans-Oblique-4c" d="M 1075 4666 
L 1709 4666 
L 909 525 
L 3181 525 
L 3078 0 
L 172 0 
L 1075 4666 
z
" transform="scale(0.015625)"/>
       <path id="DejaVuSans-2f" d="M 1625 4666 
L 2156 4666 
L 531 -594 
L 0 -594 
L 1625 4666 
z
" transform="scale(0.015625)"/>
      </defs>
      <use xlink:href="#DejaVuSans-Oblique-55" transform="translate(0 0.09375)"/>
      <use xlink:href="#DejaVuSans-Oblique-4c" transform="translate(73.193359 -16.3125) scale(0.7)"/>
      <use xlink:href="#DejaVuSans-2f" transform="translate(114.926758 0.09375)"/>
      <use xlink:href="#DejaVuSans-Oblique-55" transform="translate(148.618164 0.09375)"/>
      <use xlink:href="#DejaVuSans-30" transform="translate(221.811523 -16.3125) scale(0.7)"/>
     </g>
    </g>
   </g>
   <g id="matplotlib.axis_2">
    <g id="ytick_1">
     <g id="line2d_13">
      <defs>
       <path id="m5c0d3d34f3" d="M 0 0 
L -3.5 0 
" style="stroke: #000000; stroke-width: 0.8"/>
      </defs>
      <g>
       <use xlink:href="#m5c0d3d34f3" x="108" y="369.36" style="stroke: #000000; stroke-width: 0.8"/>
      </g>
     </g>
     <g id="text_13">
      <!-- 0 -->
      <g transform="translate(94.6375 373.159219) scale(0.1 -0.1)">
       <use xlink:href="#DejaVuSans-30"/>
      </g>
     </g>
    </g>
    <g id="ytick_2">
     <g id="line2d_14">
      <g>
       <use xlink:href="#m5c0d3d34f3" x="108" y="330.230231" style="stroke: #000000; stroke-width: 0.8"/>
      </g>
     </g>
     <g id="text_14">
      <!-- 250 -->
      <g transform="translate(81.9125 334.02945) scale(0.1 -0.1)">
       <use xlink:href="#DejaVuSans-32"/>
       <use xlink:href="#DejaVuSans-35" x="63.623047"/>
       <use xlink:href="#DejaVuSans-30" x="127.246094"/>
      </g>
     </g>
    </g>
    <g id="ytick_3">
     <g id="line2d_15">
      <g>
       <use xlink:href="#m5c0d3d34f3" x="108" y="291.100462" style="stroke: #000000; stroke-width: 0.8"/>
      </g>
     </g>
     <g id="text_15">
      <!-- 500 -->
      <g transform="translate(81.9125 294.89968) scale(0.1 -0.1)">
       <use xlink:href="#DejaVuSans-35"/>
       <use xlink:href="#DejaVuSans-30" x="63.623047"/>
       <use xlink:href="#DejaVuSans-30" x="127.246094"/>
      </g>
     </g>
    </g>
    <g id="ytick_4">
     <g id="line2d_16">
      <g>
       <use xlink:href="#m5c0d3d34f3" x="108" y="251.970692" style="stroke: #000000; stroke-width: 0.8"/>
      </g>
     </g>
     <g id="text_16">
      <!-- 750 -->
      <g transform="translate(81.9125 255.769911) scale(0.1 -0.1)">
       <use xlink:href="#DejaVuSans-37"/>
       <use xlink:href="#DejaVuSans-35" x="63.623047"/>
       <use xlink:href="#DejaVuSans-30" x="127.246094"/>
      </g>
     </g>
    </g>
    <g id="ytick_5">
     <g id="line2d_17">
      <g>
       <use xlink:href="#m5c0d3d34f3" x="108" y="212.840923" style="stroke: #000000; stroke-width: 0.8"/>
      </g>
     </g>
     <g id="text_17">
      <!-- 1000 -->
      <g transform="translate(75.55 216.640142) scale(0.1 -0.1)">
       <use xlink:href="#DejaVuSans-31"/>
       <use xlink:href="#DejaVuSans-30" x="63.623047"/>
       <use xlink:href="#DejaVuSans-30" x="127.246094"/>
       <use xlink:href="#DejaVuSans-30" x="190.869141"/>
      </g>
     </g>
    </g>
    <g id="ytick_6">
     <g id="line2d_18">
      <g>
       <use xlink:href="#m5c0d3d34f3" x="108" y="173.711154" style="stroke: #000000; stroke-width: 0.8"/>
      </g>
     </g>
     <g id="text_18">
      <!-- 1250 -->
      <g transform="translate(75.55 177.510373) scale(0.1 -0.1)">
       <use xlink:href="#DejaVuSans-31"/>
       <use xlink:href="#DejaVuSans-32" x="63.623047"/>
       <use xlink:href="#DejaVuSans-35" x="127.246094"/>
       <use xlink:href="#DejaVuSans-30" x="190.869141"/>
      </g>
     </g>
    </g>
    <g id="ytick_7">
     <g id="line2d_19">
      <g>
       <use xlink:href="#m5c0d3d34f3" x="108" y="134.581385" style="stroke: #000000; stroke-width: 0.8"/>
      </g>
     </g>
     <g id="text_19">
      <!-- 1500 -->
      <g transform="translate(75.55 138.380604) scale(0.1 -0.1)">
       <use xlink:href="#DejaVuSans-31"/>
       <use xlink:href="#DejaVuSans-35" x="63.623047"/>
       <use xlink:href="#DejaVuSans-30" x="127.246094"/>
       <use xlink:href="#DejaVuSans-30" x="190.869141"/>
      </g>
     </g>
    </g>
    <g id="ytick_8">
     <g id="line2d_20">
      <g>
       <use xlink:href="#m5c0d3d34f3" x="108" y="95.451616" style="stroke: #000000; stroke-width: 0.8"/>
      </g>
     </g>
     <g id="text_20">
      <!-- 1750 -->
      <g transform="translate(75.55 99.250834) scale(0.1 -0.1)">
       <use xlink:href="#DejaVuSans-31"/>
       <use xlink:href="#DejaVuSans-37" x="63.623047"/>
       <use xlink:href="#DejaVuSans-35" x="127.246094"/>
       <use xlink:href="#DejaVuSans-30" x="190.869141"/>
      </g>
     </g>
    </g>
    <g id="ytick_9">
     <g id="line2d_21">
      <g>
       <use xlink:href="#m5c0d3d34f3" x="108" y="56.321847" style="stroke: #000000; stroke-width: 0.8"/>
      </g>
     </g>
     <g id="text_21">
      <!-- 2000 -->
      <g transform="translate(75.55 60.121065) scale(0.1 -0.1)">
       <use xlink:href="#DejaVuSans-32"/>
       <use xlink:href="#DejaVuSans-30" x="63.623047"/>
       <use xlink:href="#DejaVuSans-30" x="127.246094"/>
       <use xlink:href="#DejaVuSans-30" x="190.869141"/>
      </g>
     </g>
    </g>
    <g id="text_22">
     <!-- Focal Length (mm) -->
     <g transform="translate(69.470312 265.183437) rotate(-90) scale(0.1 -0.1)">
      <defs>
       <path id="DejaVuSans-46" d="M 628 4666 
L 3309 4666 
L 3309 4134 
L 1259 4134 
L 1259 2759 
L 3109 2759 
L 3109 2228 
L 1259 2228 
L 1259 0 
L 628 0 
L 628 4666 
z
" transform="scale(0.015625)"/>
       <path id="DejaVuSans-6f" d="M 1959 3097 
Q 1497 3097 1228 2736 
Q 959 2375 959 1747 
Q 959 1119 1226 758 
Q 1494 397 1959 397 
Q 2419 397 2687 759 
Q 2956 1122 2956 1747 
Q 2956 2369 2687 2733 
Q 2419 3097 1959 3097 
z
M 1959 3584 
Q 2709 3584 3137 3096 
Q 3566 2609 3566 1747 
Q 3566 888 3137 398 
Q 2709 -91 1959 -91 
Q 1206 -91 779 398 
Q 353 888 353 1747 
Q 353 2609 779 3096 
Q 1206 3584 1959 3584 
z
" transform="scale(0.015625)"/>
       <path id="DejaVuSans-63" d="M 3122 3366 
L 3122 2828 
Q 2878 2963 2633 3030 
Q 2388 3097 2138 3097 
Q 1578 3097 1268 2742 
Q 959 2388 959 1747 
Q 959 1106 1268 751 
Q 1578 397 2138 397 
Q 2388 397 2633 464 
Q 2878 531 3122 666 
L 3122 134 
Q 2881 22 2623 -34 
Q 2366 -91 2075 -91 
Q 1284 -91 818 406 
Q 353 903 353 1747 
Q 353 2603 823 3093 
Q 1294 3584 2113 3584 
Q 2378 3584 2631 3529 
Q 2884 3475 3122 3366 
z
" transform="scale(0.015625)"/>
       <path id="DejaVuSans-61" d="M 2194 1759 
Q 1497 1759 1228 1600 
Q 959 1441 959 1056 
Q 959 750 1161 570 
Q 1363 391 1709 391 
Q 2188 391 2477 730 
Q 2766 1069 2766 1631 
L 2766 1759 
L 2194 1759 
z
M 3341 1997 
L 3341 0 
L 2766 0 
L 2766 531 
Q 2569 213 2275 61 
Q 1981 -91 1556 -91 
Q 1019 -91 701 211 
Q 384 513 384 1019 
Q 384 1609 779 1909 
Q 1175 2209 1959 2209 
L 2766 2209 
L 2766 2266 
Q 2766 2663 2505 2880 
Q 2244 3097 1772 3097 
Q 1472 3097 1187 3025 
Q 903 2953 641 2809 
L 641 3341 
Q 956 3463 1253 3523 
Q 1550 3584 1831 3584 
Q 2591 3584 2966 3190 
Q 3341 2797 3341 1997 
z
" transform="scale(0.015625)"/>
       <path id="DejaVuSans-6c" d="M 603 4863 
L 1178 4863 
L 1178 0 
L 603 0 
L 603 4863 
z
" transform="scale(0.015625)"/>
       <path id="DejaVuSans-20" transform="scale(0.015625)"/>
       <path id="DejaVuSans-4c" d="M 628 4666 
L 1259 4666 
L 1259 531 
L 3531 531 
L 3531 0 
L 628 0 
L 628 4666 
z
" transform="scale(0.015625)"/>
       <path id="DejaVuSans-65" d="M 3597 1894 
L 3597 1613 
L 953 1613 
Q 991 1019 1311 708 
Q 1631 397 2203 397 
Q 2534 397 2845 478 
Q 3156 559 3463 722 
L 3463 178 
Q 3153 47 2828 -22 
Q 2503 -91 2169 -91 
Q 1331 -91 842 396 
Q 353 884 353 1716 
Q 353 2575 817 3079 
Q 1281 3584 2069 3584 
Q 2775 3584 3186 3129 
Q 3597 2675 3597 1894 
z
M 3022 2063 
Q 3016 2534 2758 2815 
Q 2500 3097 2075 3097 
Q 1594 3097 1305 2825 
Q 1016 2553 972 2059 
L 3022 2063 
z
" transform="scale(0.015625)"/>
       <path id="DejaVuSans-6e" d="M 3513 2113 
L 3513 0 
L 2938 0 
L 2938 2094 
Q 2938 2591 2744 2837 
Q 2550 3084 2163 3084 
Q 1697 3084 1428 2787 
Q 1159 2491 1159 1978 
L 1159 0 
L 581 0 
L 581 3500 
L 1159 3500 
L 1159 2956 
Q 1366 3272 1645 3428 
Q 1925 3584 2291 3584 
Q 2894 3584 3203 3211 
Q 3513 2838 3513 2113 
z
" transform="scale(0.015625)"/>
       <path id="DejaVuSans-67" d="M 2906 1791 
Q 2906 2416 2648 2759 
Q 2391 3103 1925 3103 
Q 1463 3103 1205 2759 
Q 947 2416 947 1791 
Q 947 1169 1205 825 
Q 1463 481 1925 481 
Q 2391 481 2648 825 
Q 2906 1169 2906 1791 
z
M 3481 434 
Q 3481 -459 3084 -895 
Q 2688 -1331 1869 -1331 
Q 1566 -1331 1297 -1286 
Q 1028 -1241 775 -1147 
L 775 -588 
Q 1028 -725 1275 -790 
Q 1522 -856 1778 -856 
Q 2344 -856 2625 -561 
Q 2906 -266 2906 331 
L 2906 616 
Q 2728 306 2450 153 
Q 2172 0 1784 0 
Q 1141 0 747 490 
Q 353 981 353 1791 
Q 353 2603 747 3093 
Q 1141 3584 1784 3584 
Q 2172 3584 2450 3431 
Q 2728 3278 2906 2969 
L 2906 3500 
L 3481 3500 
L 3481 434 
z
" transform="scale(0.015625)"/>
       <path id="DejaVuSans-74" d="M 1172 4494 
L 1172 3500 
L 2356 3500 
L 2356 3053 
L 1172 3053 
L 1172 1153 
Q 1172 725 1289 603 
Q 1406 481 1766 481 
L 2356 481 
L 2356 0 
L 1766 0 
Q 1100 0 847 248 
Q 594 497 594 1153 
L 594 3053 
L 172 3053 
L 172 3500 
L 594 3500 
L 594 4494 
L 1172 4494 
z
" transform="scale(0.015625)"/>
       <path id="DejaVuSans-68" d="M 3513 2113 
L 3513 0 
L 2938 0 
L 2938 2094 
Q 2938 2591 2744 2837 
Q 2550 3084 2163 3084 
Q 1697 3084 1428 2787 
Q 1159 2491 1159 1978 
L 1159 0 
L 581 0 
L 581 4863 
L 1159 4863 
L 1159 2956 
Q 1366 3272 1645 3428 
Q 1925 3584 2291 3584 
Q 2894 3584 3203 3211 
Q 3513 2838 3513 2113 
z
" transform="scale(0.015625)"/>
       <path id="DejaVuSans-28" d="M 1984 4856 
Q 1566 4138 1362 3434 
Q 1159 2731 1159 2009 
Q 1159 1288 1364 580 
Q 1569 -128 1984 -844 
L 1484 -844 
Q 1016 -109 783 600 
Q 550 1309 550 2009 
Q 550 2706 781 3412 
Q 1013 4119 1484 4856 
L 1984 4856 
z
" transform="scale(0.015625)"/>
       <path id="DejaVuSans-6d" d="M 3328 2828 
Q 3544 3216 3844 3400 
Q 4144 3584 4550 3584 
Q 5097 3584 5394 3201 
Q 5691 2819 5691 2113 
L 5691 0 
L 5113 0 
L 5113 2094 
Q 5113 2597 4934 2840 
Q 4756 3084 4391 3084 
Q 3944 3084 3684 2787 
Q 3425 2491 3425 1978 
L 3425 0 
L 2847 0 
L 2847 2094 
Q 2847 2600 2669 2842 
Q 2491 3084 2119 3084 
Q 1678 3084 1418 2786 
Q 1159 2488 1159 1978 
L 1159 0 
L 581 0 
L 581 3500 
L 1159 3500 
L 1159 2956 
Q 1356 3278 1631 3431 
Q 1906 3584 2284 3584 
Q 2666 3584 2933 3390 
Q 3200 3197 3328 2828 
z
" transform="scale(0.015625)"/>
       <path id="DejaVuSans-29" d="M 513 4856 
L 1013 4856 
Q 1481 4119 1714 3412 
Q 1947 2706 1947 2009 
Q 1947 1309 1714 600 
Q 1481 -109 1013 -844 
L 513 -844 
Q 928 -128 1133 580 
Q 1338 1288 1338 2009 
Q 1338 2731 1133 3434 
Q 928 4138 513 4856 
z
" transform="scale(0.015625)"/>
      </defs>
      <use xlink:href="#DejaVuSans-46"/>
      <use xlink:href="#DejaVuSans-6f" x="53.894531"/>
      <use xlink:href="#DejaVuSans-63" x="115.076172"/>
      <use xlink:href="#DejaVuSans-61" x="170.056641"/>
      <use xlink:href="#DejaVuSans-6c" x="231.335938"/>
      <use xlink:href="#DejaVuSans-20" x="259.119141"/>
      <use xlink:href="#DejaVuSans-4c" x="290.90625"/>
      <use xlink:href="#DejaVuSans-65" x="344.869141"/>
      <use xlink:href="#DejaVuSans-6e" x="406.392578"/>
      <use xlink:href="#DejaVuSans-67" x="469.771484"/>
      <use xlink:href="#DejaVuSans-74" x="533.248047"/>
      <use xlink:href="#DejaVuSans-68" x="572.457031"/>
      <use xlink:href="#DejaVuSans-20" x="635.835938"/>
      <use xlink:href="#DejaVuSans-28" x="667.623047"/>
      <use xlink:href="#DejaVuSans-6d" x="706.636719"/>
      <use xlink:href="#DejaVuSans-6d" x="804.048828"/>
      <use xlink:href="#DejaVuSans-29" x="901.460938"/>
     </g>
    </g>
   </g>
   <g id="patch_3">
    <path d="M 108 384.48 
L 108 51.84 
" style="fill: none; stroke: #000000; stroke-width: 0.8; stroke-linejoin: miter; stroke-linecap: square"/>
   </g>
   <g id="patch_4">
    <path d="M 108 384.48 
L 710.64 384.48 
" style="fill: none; stroke: #000000; stroke-width: 0.8; stroke-linejoin: miter; stroke-linecap: square"/>
   </g>
   <g id="text_23">
    <!-- Symmetric Lens Focal Length -->
    <g transform="translate(320.971875 45.84) scale(0.12 -0.12)">
     <defs>
      <path id="DejaVuSans-53" d="M 3425 4513 
L 3425 3897 
Q 3066 4069 2747 4153 
Q 2428 4238 2131 4238 
Q 1616 4238 1336 4038 
Q 1056 3838 1056 3469 
Q 1056 3159 1242 3001 
Q 1428 2844 1947 2747 
L 2328 2669 
Q 3034 2534 3370 2195 
Q 3706 1856 3706 1288 
Q 3706 609 3251 259 
Q 2797 -91 1919 -91 
Q 1588 -91 1214 -16 
Q 841 59 441 206 
L 441 856 
Q 825 641 1194 531 
Q 1563 422 1919 422 
Q 2459 422 2753 634 
Q 3047 847 3047 1241 
Q 3047 1584 2836 1778 
Q 2625 1972 2144 2069 
L 1759 2144 
Q 1053 2284 737 2584 
Q 422 2884 422 3419 
Q 422 4038 858 4394 
Q 1294 4750 2059 4750 
Q 2388 4750 2728 4690 
Q 3069 4631 3425 4513 
z
" transform="scale(0.015625)"/>
      <path id="DejaVuSans-79" d="M 2059 -325 
Q 1816 -950 1584 -1140 
Q 1353 -1331 966 -1331 
L 506 -1331 
L 506 -850 
L 844 -850 
Q 1081 -850 1212 -737 
Q 1344 -625 1503 -206 
L 1606 56 
L 191 3500 
L 800 3500 
L 1894 763 
L 2988 3500 
L 3597 3500 
L 2059 -325 
z
" transform="scale(0.015625)"/>
      <path id="DejaVuSans-72" d="M 2631 2963 
Q 2534 3019 2420 3045 
Q 2306 3072 2169 3072 
Q 1681 3072 1420 2755 
Q 1159 2438 1159 1844 
L 1159 0 
L 581 0 
L 581 3500 
L 1159 3500 
L 1159 2956 
Q 1341 3275 1631 3429 
Q 1922 3584 2338 3584 
Q 2397 3584 2469 3576 
Q 2541 3569 2628 3553 
L 2631 2963 
z
" transform="scale(0.015625)"/>
      <path id="DejaVuSans-69" d="M 603 3500 
L 1178 3500 
L 1178 0 
L 603 0 
L 603 3500 
z
M 603 4863 
L 1178 4863 
L 1178 4134 
L 603 4134 
L 603 4863 
z
" transform="scale(0.015625)"/>
      <path id="DejaVuSans-73" d="M 2834 3397 
L 2834 2853 
Q 2591 2978 2328 3040 
Q 2066 3103 1784 3103 
Q 1356 3103 1142 2972 
Q 928 2841 928 2578 
Q 928 2378 1081 2264 
Q 1234 2150 1697 2047 
L 1894 2003 
Q 2506 1872 2764 1633 
Q 3022 1394 3022 966 
Q 3022 478 2636 193 
Q 2250 -91 1575 -91 
Q 1294 -91 989 -36 
Q 684 19 347 128 
L 347 722 
Q 666 556 975 473 
Q 1284 391 1588 391 
Q 1994 391 2212 530 
Q 2431 669 2431 922 
Q 2431 1156 2273 1281 
Q 2116 1406 1581 1522 
L 1381 1569 
Q 847 1681 609 1914 
Q 372 2147 372 2553 
Q 372 3047 722 3315 
Q 1072 3584 1716 3584 
Q 2034 3584 2315 3537 
Q 2597 3491 2834 3397 
z
" transform="scale(0.015625)"/>
     </defs>
     <use xlink:href="#DejaVuSans-53"/>
     <use xlink:href="#DejaVuSans-79" x="63.476562"/>
     <use xlink:href="#DejaVuSans-6d" x="122.65625"/>
     <use xlink:href="#DejaVuSans-6d" x="220.068359"/>
     <use xlink:href="#DejaVuSans-65" x="317.480469"/>
     <use xlink:href="#DejaVuSans-74" x="379.003906"/>
     <use xlink:href="#DejaVuSans-72" x="418.212891"/>
     <use xlink:href="#DejaVuSans-69" x="459.326172"/>
     <use xlink:href="#DejaVuSans-63" x="487.109375"/>
     <use xlink:href="#DejaVuSans-20" x="542.089844"/>
     <use xlink:href="#DejaVuSans-4c" x="573.876953"/>
     <use xlink:href="#DejaVuSans-65" x="627.839844"/>
     <use xlink:href="#DejaVuSans-6e" x="689.363281"/>
     <use xlink:href="#DejaVuSans-73" x="752.742188"/>
     <use xlink:href="#DejaVuSans-20" x="804.841797"/>
     <use xlink:href="#DejaVuSans-46" x="836.628906"/>
     <use xlink:href="#DejaVuSans-6f" x="890.523438"/>
     <use xlink:href="#DejaVuSans-63" x="951.705078"/>
     <use xlink:href="#DejaVuSans-61" x="1006.685547"/>
     <use xlink:href="#DejaVuSans-6c" x="1067.964844"/>
     <use xlink:href="#DejaVuSans-20" x="1095.748047"/>
     <use xlink:href="#DejaVuSans-4c" x="1127.535156"/>
     <use xlink:href="#DejaVuSans-65" x="1181.498047"/>
     <use xlink:href="#DejaVuSans-6e" x="1243.021484"/>
     <use xlink:href="#DejaVuSans-67" x="1306.400391"/>
     <use xlink:href="#DejaVuSans-74" x="1369.876953"/>
     <use xlink:href="#DejaVuSans-68" x="1409.085938"/>
    </g>
   </g>
   <g id="patch_5">
    <path d="M 376.448727 369.36 
L 666.811636 369.36 
L 666.811636 359.968855 
L 376.448727 359.968855 
L 376.448727 369.36 
z
" clip-path="url(#pe1139267a3)" style="fill: none; opacity: 0.5; stroke: #808080; stroke-linejoin: miter"/>
   </g>
   <g id="patch_6">
    <path d="M 288.792 317.952 
Q 332.620364 343.656 376.448727 369.36 
" style="fill: none; opacity: 0.5; stroke: #808080; stroke-linecap: round"/>
   </g>
   <g id="patch_7">
    <path d="M 710.64 317.952 
Q 688.725818 343.656 666.811636 369.36 
" style="fill: none; opacity: 0.5; stroke: #808080; stroke-linecap: round"/>
   </g>
   <g id="axes_2">
    <g id="patch_8">
     <path d="M 288.792 317.952 
L 710.64 317.952 
L 710.64 85.104 
L 288.792 85.104 
z
" style="fill: #ffffff"/>
    </g>
    <g id="line2d_22">
     <path d="M 227.278162 -1 
L 231.629063 9.36184 
L 238.864878 25.426528 
L 246.100693 40.423221 
L 253.336508 54.44101 
L 260.572322 67.560457 
L 267.808137 79.853749 
L 275.043952 91.386253 
L 282.279767 102.217047 
L 289.515581 112.399498 
L 296.751396 121.982467 
L 303.987211 131.009896 
L 311.223026 139.522355 
L 318.45884 147.556335 
L 325.694655 155.145421 
L 332.93047 162.320399 
L 340.166285 169.109366 
L 347.402099 175.538263 
L 354.637914 181.630857 
L 361.873729 187.408963 
L 369.109544 192.892624 
L 376.345358 198.100521 
L 383.581173 203.049915 
L 390.816988 207.756356 
L 398.052803 212.234907 
L 405.288617 216.49899 
L 412.524432 220.561238 
L 419.760247 224.433525 
L 426.996062 228.126533 
L 434.231877 231.650674 
L 441.467691 235.015056 
L 448.703506 238.228832 
L 455.939321 241.299961 
L 463.175136 244.236099 
L 470.41095 247.04453 
L 477.646765 249.731843 
L 484.88258 252.304408 
L 492.118395 254.767995 
L 499.354209 257.12802 
L 506.590024 259.3897 
L 513.825839 261.557592 
L 521.061654 263.636665 
L 528.297468 265.630739 
L 535.533283 267.543913 
L 542.769098 269.379669 
L 550.004913 271.141717 
L 557.240727 272.833043 
L 564.476542 274.456638 
L 571.712357 276.015397 
L 578.948172 277.51176 
L 586.183986 278.948078 
L 593.419801 280.326475 
L 600.655616 281.648994 
L 607.891431 282.916986 
L 615.127245 284.131777 
L 622.36306 285.293924 
L 629.598875 286.403094 
L 636.83469 287.457618 
L 644.070504 288.454829 
L 651.306319 289.38995 
L 658.542134 290.256566 
L 665.777949 291.044772 
L 673.013763 291.742443 
L 680.249578 292.331169 
L 687.485393 292.785403 
L 694.721208 293.068068 
" clip-path="url(#pd45e4f3cdd)" style="fill: none; stroke: #0000ff; stroke-width: 1.5; stroke-linecap: square"/>
    </g>
    <g id="PathCollection_4">
     <defs>
      <path id="me107d7f896" d="M 0 1 
C 0.265203 1 0.51958 0.894634 0.707107 0.707107 
C 0.894634 0.51958 1 0.265203 1 0 
C 1 -0.265203 0.894634 -0.51958 0.707107 -0.707107 
C 0.51958 -0.894634 0.265203 -1 0 -1 
C -0.265203 -1 -0.51958 -0.894634 -0.707107 -0.707107 
C -0.894634 -0.51958 -1 -0.265203 -1 0 
C -1 0.265203 -0.894634 0.51958 -0.707107 0.707107 
C -0.51958 0.894634 -0.265203 1 0 1 
z
" style="stroke: #000000"/>
     </defs>
     <g clip-path="url(#pd45e4f3cdd)">
      <use xlink:href="#me107d7f896" x="227.278162" y="-1" style="stroke: #000000"/>
      <use xlink:href="#me107d7f896" x="231.629063" y="9.36184" style="stroke: #000000"/>
      <use xlink:href="#me107d7f896" x="238.864878" y="25.426528" style="stroke: #000000"/>
      <use xlink:href="#me107d7f896" x="246.100693" y="40.423221" style="stroke: #000000"/>
      <use xlink:href="#me107d7f896" x="253.336508" y="54.44101" style="stroke: #000000"/>
      <use xlink:href="#me107d7f896" x="260.572322" y="67.560457" style="stroke: #000000"/>
      <use xlink:href="#me107d7f896" x="267.808137" y="79.853749" style="stroke: #000000"/>
      <use xlink:href="#me107d7f896" x="275.043952" y="91.386253" style="stroke: #000000"/>
      <use xlink:href="#me107d7f896" x="282.279767" y="102.217047" style="stroke: #000000"/>
      <use xlink:href="#me107d7f896" x="289.515581" y="112.399498" style="stroke: #000000"/>
      <use xlink:href="#me107d7f896" x="296.751396" y="121.982467" style="stroke: #000000"/>
      <use xlink:href="#me107d7f896" x="303.987211" y="131.009896" style="stroke: #000000"/>
      <use xlink:href="#me107d7f896" x="311.223026" y="139.522355" style="stroke: #000000"/>
      <use xlink:href="#me107d7f896" x="318.45884" y="147.556335" style="stroke: #000000"/>
      <use xlink:href="#me107d7f896" x="325.694655" y="155.145421" style="stroke: #000000"/>
      <use xlink:href="#me107d7f896" x="332.93047" y="162.320399" style="stroke: #000000"/>
      <use xlink:href="#me107d7f896" x="340.166285" y="169.109366" style="stroke: #000000"/>
      <use xlink:href="#me107d7f896" x="347.402099" y="175.538263" style="stroke: #000000"/>
      <use xlink:href="#me107d7f896" x="354.637914" y="181.630857" style="stroke: #000000"/>
      <use xlink:href="#me107d7f896" x="361.873729" y="187.408963" style="stroke: #000000"/>
      <use xlink:href="#me107d7f896" x="369.109544" y="192.892624" style="stroke: #000000"/>
      <use xlink:href="#me107d7f896" x="376.345358" y="198.100521" style="stroke: #000000"/>
      <use xlink:href="#me107d7f896" x="383.581173" y="203.049915" style="stroke: #000000"/>
      <use xlink:href="#me107d7f896" x="390.816988" y="207.756356" style="stroke: #000000"/>
      <use xlink:href="#me107d7f896" x="398.052803" y="212.234907" style="stroke: #000000"/>
      <use xlink:href="#me107d7f896" x="405.288617" y="216.49899" style="stroke: #000000"/>
      <use xlink:href="#me107d7f896" x="412.524432" y="220.561238" style="stroke: #000000"/>
      <use xlink:href="#me107d7f896" x="419.760247" y="224.433525" style="stroke: #000000"/>
      <use xlink:href="#me107d7f896" x="426.996062" y="228.126533" style="stroke: #000000"/>
      <use xlink:href="#me107d7f896" x="434.231877" y="231.650674" style="stroke: #000000"/>
      <use xlink:href="#me107d7f896" x="441.467691" y="235.015056" style="stroke: #000000"/>
      <use xlink:href="#me107d7f896" x="448.703506" y="238.228832" style="stroke: #000000"/>
      <use xlink:href="#me107d7f896" x="455.939321" y="241.299961" style="stroke: #000000"/>
      <use xlink:href="#me107d7f896" x="463.175136" y="244.236099" style="stroke: #000000"/>
      <use xlink:href="#me107d7f896" x="470.41095" y="247.04453" style="stroke: #000000"/>
      <use xlink:href="#me107d7f896" x="477.646765" y="249.731843" style="stroke: #000000"/>
      <use xlink:href="#me107d7f896" x="484.88258" y="252.304408" style="stroke: #000000"/>
      <use xlink:href="#me107d7f896" x="492.118395" y="254.767995" style="stroke: #000000"/>
      <use xlink:href="#me107d7f896" x="499.354209" y="257.12802" style="stroke: #000000"/>
      <use xlink:href="#me107d7f896" x="506.590024" y="259.3897" style="stroke: #000000"/>
      <use xlink:href="#me107d7f896" x="513.825839" y="261.557592" style="stroke: #000000"/>
      <use xlink:href="#me107d7f896" x="521.061654" y="263.636665" style="stroke: #000000"/>
      <use xlink:href="#me107d7f896" x="528.297468" y="265.630739" style="stroke: #000000"/>
      <use xlink:href="#me107d7f896" x="535.533283" y="267.543913" style="stroke: #000000"/>
      <use xlink:href="#me107d7f896" x="542.769098" y="269.379669" style="stroke: #000000"/>
      <use xlink:href="#me107d7f896" x="550.004913" y="271.141717" style="stroke: #000000"/>
      <use xlink:href="#me107d7f896" x="557.240727" y="272.833043" style="stroke: #000000"/>
      <use xlink:href="#me107d7f896" x="564.476542" y="274.456638" style="stroke: #000000"/>
      <use xlink:href="#me107d7f896" x="571.712357" y="276.015397" style="stroke: #000000"/>
      <use xlink:href="#me107d7f896" x="578.948172" y="277.51176" style="stroke: #000000"/>
      <use xlink:href="#me107d7f896" x="586.183986" y="278.948078" style="stroke: #000000"/>
      <use xlink:href="#me107d7f896" x="593.419801" y="280.326475" style="stroke: #000000"/>
      <use xlink:href="#me107d7f896" x="600.655616" y="281.648994" style="stroke: #000000"/>
      <use xlink:href="#me107d7f896" x="607.891431" y="282.916986" style="stroke: #000000"/>
      <use xlink:href="#me107d7f896" x="615.127245" y="284.131777" style="stroke: #000000"/>
      <use xlink:href="#me107d7f896" x="622.36306" y="285.293924" style="stroke: #000000"/>
      <use xlink:href="#me107d7f896" x="629.598875" y="286.403094" style="stroke: #000000"/>
      <use xlink:href="#me107d7f896" x="636.83469" y="287.457618" style="stroke: #000000"/>
      <use xlink:href="#me107d7f896" x="644.070504" y="288.454829" style="stroke: #000000"/>
      <use xlink:href="#me107d7f896" x="651.306319" y="289.38995" style="stroke: #000000"/>
      <use xlink:href="#me107d7f896" x="658.542134" y="290.256566" style="stroke: #000000"/>
      <use xlink:href="#me107d7f896" x="665.777949" y="291.044772" style="stroke: #000000"/>
      <use xlink:href="#me107d7f896" x="673.013763" y="291.742443" style="stroke: #000000"/>
      <use xlink:href="#me107d7f896" x="680.249578" y="292.331169" style="stroke: #000000"/>
      <use xlink:href="#me107d7f896" x="687.485393" y="292.785403" style="stroke: #000000"/>
      <use xlink:href="#me107d7f896" x="694.721208" y="293.068068" style="stroke: #000000"/>
     </g>
    </g>
    <g id="PathCollection_5">
     <g clip-path="url(#pd45e4f3cdd)">
      <use xlink:href="#m98efcf4459" x="296.751396" y="125.0145" style="fill: #ff0000; fill-opacity: 0.5; stroke: #000000; stroke-opacity: 0.5"/>
      <use xlink:href="#m98efcf4459" x="376.345358" y="202.1895" style="fill: #ff0000; fill-opacity: 0.5; stroke: #000000; stroke-opacity: 0.5"/>
      <use xlink:href="#m98efcf4459" x="455.939321" y="244.0845" style="fill: #ff0000; fill-opacity: 0.5; stroke: #000000; stroke-opacity: 0.5"/>
      <use xlink:href="#m98efcf4459" x="535.533283" y="268.3395" style="fill: #ff0000; fill-opacity: 0.5; stroke: #000000; stroke-opacity: 0.5"/>
      <use xlink:href="#m98efcf4459" x="615.127245" y="283.7745" style="fill: #ff0000; fill-opacity: 0.5; stroke: #000000; stroke-opacity: 0.5"/>
      <use xlink:href="#m98efcf4459" x="694.721208" y="292.5945" style="fill: #ff0000; fill-opacity: 0.5; stroke: #000000; stroke-opacity: 0.5"/>
     </g>
    </g>
    <g id="PathCollection_6">
     <g clip-path="url(#pd45e4f3cdd)">
      <use xlink:href="#meb2319e793" x="694.721208" y="293.801782" style="fill: #008000; fill-opacity: 0.5; stroke: #000000; stroke-opacity: 0.5"/>
      <use xlink:href="#meb2319e793" x="615.127245" y="283.866934" style="fill: #008000; fill-opacity: 0.5; stroke: #000000; stroke-opacity: 0.5"/>
      <use xlink:href="#meb2319e793" x="535.533283" y="267.187255" style="fill: #008000; fill-opacity: 0.5; stroke: #000000; stroke-opacity: 0.5"/>
      <use xlink:href="#meb2319e793" x="455.939321" y="240.81916" style="fill: #008000; fill-opacity: 0.5; stroke: #000000; stroke-opacity: 0.5"/>
      <use xlink:href="#meb2319e793" x="376.345358" y="195.968754" style="fill: #008000; fill-opacity: 0.5; stroke: #000000; stroke-opacity: 0.5"/>
      <use xlink:href="#meb2319e793" x="296.751396" y="119.082344" style="fill: #008000; fill-opacity: 0.5; stroke: #000000; stroke-opacity: 0.5"/>
     </g>
    </g>
    <g id="matplotlib.axis_3">
     <g id="xtick_12">
      <g id="line2d_23">
       <g>
        <use xlink:href="#mfd77ef25e6" x="296.751396" y="317.952" style="stroke: #000000; stroke-width: 0.8"/>
       </g>
      </g>
      <g id="text_24">
       <!-- 0.5 -->
       <g transform="translate(288.799834 332.550437) scale(0.1 -0.1)">
        <use xlink:href="#DejaVuSans-30"/>
        <use xlink:href="#DejaVuSans-2e" x="63.623047"/>
        <use xlink:href="#DejaVuSans-35" x="95.410156"/>
       </g>
      </g>
     </g>
     <g id="xtick_13">
      <g id="line2d_24">
       <g>
        <use xlink:href="#mfd77ef25e6" x="376.345358" y="317.952" style="stroke: #000000; stroke-width: 0.8"/>
       </g>
      </g>
      <g id="text_25">
       <!-- 0.6 -->
       <g transform="translate(368.393796 332.550437) scale(0.1 -0.1)">
        <use xlink:href="#DejaVuSans-30"/>
        <use xlink:href="#DejaVuSans-2e" x="63.623047"/>
        <use xlink:href="#DejaVuSans-36" x="95.410156"/>
       </g>
      </g>
     </g>
     <g id="xtick_14">
      <g id="line2d_25">
       <g>
        <use xlink:href="#mfd77ef25e6" x="455.939321" y="317.952" style="stroke: #000000; stroke-width: 0.8"/>
       </g>
      </g>
      <g id="text_26">
       <!-- 0.7 -->
       <g transform="translate(447.987758 332.550437) scale(0.1 -0.1)">
        <use xlink:href="#DejaVuSans-30"/>
        <use xlink:href="#DejaVuSans-2e" x="63.623047"/>
        <use xlink:href="#DejaVuSans-37" x="95.410156"/>
       </g>
      </g>
     </g>
     <g id="xtick_15">
      <g id="line2d_26">
       <g>
        <use xlink:href="#mfd77ef25e6" x="535.533283" y="317.952" style="stroke: #000000; stroke-width: 0.8"/>
       </g>
      </g>
      <g id="text_27">
       <!-- 0.8 -->
       <g transform="translate(527.581721 332.550437) scale(0.1 -0.1)">
        <use xlink:href="#DejaVuSans-30"/>
        <use xlink:href="#DejaVuSans-2e" x="63.623047"/>
        <use xlink:href="#DejaVuSans-38" x="95.410156"/>
       </g>
      </g>
     </g>
     <g id="xtick_16">
      <g id="line2d_27">
       <g>
        <use xlink:href="#mfd77ef25e6" x="615.127245" y="317.952" style="stroke: #000000; stroke-width: 0.8"/>
       </g>
      </g>
      <g id="text_28">
       <!-- 0.9 -->
       <g transform="translate(607.175683 332.550437) scale(0.1 -0.1)">
        <use xlink:href="#DejaVuSans-30"/>
        <use xlink:href="#DejaVuSans-2e" x="63.623047"/>
        <use xlink:href="#DejaVuSans-39" x="95.410156"/>
       </g>
      </g>
     </g>
     <g id="xtick_17">
      <g id="line2d_28">
       <g>
        <use xlink:href="#mfd77ef25e6" x="694.721208" y="317.952" style="stroke: #000000; stroke-width: 0.8"/>
       </g>
      </g>
      <g id="text_29">
       <!-- 1.0 -->
       <g transform="translate(686.769645 332.550437) scale(0.1 -0.1)">
        <use xlink:href="#DejaVuSans-31"/>
        <use xlink:href="#DejaVuSans-2e" x="63.623047"/>
        <use xlink:href="#DejaVuSans-30" x="95.410156"/>
       </g>
      </g>
     </g>
    </g>
    <g id="matplotlib.axis_4">
     <g id="ytick_10">
      <g id="line2d_29">
       <g>
        <use xlink:href="#m5c0d3d34f3" x="288.792" y="317.952" style="stroke: #000000; stroke-width: 0.8"/>
       </g>
      </g>
      <g id="text_30">
       <!-- 0 -->
       <g transform="translate(275.4295 321.751219) scale(0.1 -0.1)">
        <use xlink:href="#DejaVuSans-30"/>
       </g>
      </g>
     </g>
     <g id="ytick_11">
      <g id="line2d_30">
       <g>
        <use xlink:href="#m5c0d3d34f3" x="288.792" y="279.144" style="stroke: #000000; stroke-width: 0.8"/>
       </g>
      </g>
      <g id="text_31">
       <!-- 10 -->
       <g transform="translate(269.067 282.943219) scale(0.1 -0.1)">
        <use xlink:href="#DejaVuSans-31"/>
        <use xlink:href="#DejaVuSans-30" x="63.623047"/>
       </g>
      </g>
     </g>
     <g id="ytick_12">
      <g id="line2d_31">
       <g>
        <use xlink:href="#m5c0d3d34f3" x="288.792" y="240.336" style="stroke: #000000; stroke-width: 0.8"/>
       </g>
      </g>
      <g id="text_32">
       <!-- 20 -->
       <g transform="translate(269.067 244.135219) scale(0.1 -0.1)">
        <use xlink:href="#DejaVuSans-32"/>
        <use xlink:href="#DejaVuSans-30" x="63.623047"/>
       </g>
      </g>
     </g>
     <g id="ytick_13">
      <g id="line2d_32">
       <g>
        <use xlink:href="#m5c0d3d34f3" x="288.792" y="201.528" style="stroke: #000000; stroke-width: 0.8"/>
       </g>
      </g>
      <g id="text_33">
       <!-- 30 -->
       <g transform="translate(269.067 205.327219) scale(0.1 -0.1)">
        <use xlink:href="#DejaVuSans-33"/>
        <use xlink:href="#DejaVuSans-30" x="63.623047"/>
       </g>
      </g>
     </g>
     <g id="ytick_14">
      <g id="line2d_33">
       <g>
        <use xlink:href="#m5c0d3d34f3" x="288.792" y="162.72" style="stroke: #000000; stroke-width: 0.8"/>
       </g>
      </g>
      <g id="text_34">
       <!-- 40 -->
       <g transform="translate(269.067 166.519219) scale(0.1 -0.1)">
        <use xlink:href="#DejaVuSans-34"/>
        <use xlink:href="#DejaVuSans-30" x="63.623047"/>
       </g>
      </g>
     </g>
     <g id="ytick_15">
      <g id="line2d_34">
       <g>
        <use xlink:href="#m5c0d3d34f3" x="288.792" y="123.912" style="stroke: #000000; stroke-width: 0.8"/>
       </g>
      </g>
      <g id="text_35">
       <!-- 50 -->
       <g transform="translate(269.067 127.711219) scale(0.1 -0.1)">
        <use xlink:href="#DejaVuSans-35"/>
        <use xlink:href="#DejaVuSans-30" x="63.623047"/>
       </g>
      </g>
     </g>
     <g id="ytick_16">
      <g id="line2d_35">
       <g>
        <use xlink:href="#m5c0d3d34f3" x="288.792" y="85.104" style="stroke: #000000; stroke-width: 0.8"/>
       </g>
      </g>
      <g id="text_36">
       <!-- 60 -->
       <g transform="translate(269.067 88.903219) scale(0.1 -0.1)">
        <use xlink:href="#DejaVuSans-36"/>
        <use xlink:href="#DejaVuSans-30" x="63.623047"/>
       </g>
      </g>
     </g>
    </g>
    <g id="patch_9">
     <path d="M 288.792 317.952 
L 288.792 85.104 
" style="fill: none; stroke: #000000; stroke-width: 0.8; stroke-linejoin: miter; stroke-linecap: square"/>
    </g>
    <g id="patch_10">
     <path d="M 288.792 317.952 
L 710.64 317.952 
" style="fill: none; stroke: #000000; stroke-width: 0.8; stroke-linejoin: miter; stroke-linecap: square"/>
    </g>
   </g>
   <g id="legend_1">
    <g id="patch_11">
     <path d="M 652.650125 73.946 
L 832.893875 73.946 
Q 834.493875 73.946 834.493875 72.346 
L 834.493875 26.176 
Q 834.493875 24.576 832.893875 24.576 
L 652.650125 24.576 
Q 651.050125 24.576 651.050125 26.176 
L 651.050125 72.346 
Q 651.050125 73.946 652.650125 73.946 
z
" style="fill: #4c4c4c; opacity: 0.5; stroke: #4c4c4c; stroke-linejoin: miter"/>
    </g>
    <g id="patch_12">
     <path d="M 650.650125 71.946 
L 830.893875 71.946 
Q 832.493875 71.946 832.493875 70.346 
L 832.493875 24.176 
Q 832.493875 22.576 830.893875 22.576 
L 650.650125 22.576 
Q 649.050125 22.576 649.050125 24.176 
L 649.050125 70.346 
Q 649.050125 71.946 650.650125 71.946 
z
" style="fill: #ffffff; stroke: #cccccc; stroke-linejoin: miter"/>
    </g>
    <g id="line2d_36">
     <path d="M 652.250125 29.05475 
L 660.250125 29.05475 
L 668.250125 29.05475 
" style="fill: none; stroke: #0000ff; stroke-width: 1.5; stroke-linecap: square"/>
    </g>
    <g id="text_37">
     <!-- Our Focal Length - Linear Interpolation -->
     <g transform="translate(674.650125 31.85475) scale(0.08 -0.08)">
      <defs>
       <path id="DejaVuSans-4f" d="M 2522 4238 
Q 1834 4238 1429 3725 
Q 1025 3213 1025 2328 
Q 1025 1447 1429 934 
Q 1834 422 2522 422 
Q 3209 422 3611 934 
Q 4013 1447 4013 2328 
Q 4013 3213 3611 3725 
Q 3209 4238 2522 4238 
z
M 2522 4750 
Q 3503 4750 4090 4092 
Q 4678 3434 4678 2328 
Q 4678 1225 4090 567 
Q 3503 -91 2522 -91 
Q 1538 -91 948 565 
Q 359 1222 359 2328 
Q 359 3434 948 4092 
Q 1538 4750 2522 4750 
z
" transform="scale(0.015625)"/>
       <path id="DejaVuSans-75" d="M 544 1381 
L 544 3500 
L 1119 3500 
L 1119 1403 
Q 1119 906 1312 657 
Q 1506 409 1894 409 
Q 2359 409 2629 706 
Q 2900 1003 2900 1516 
L 2900 3500 
L 3475 3500 
L 3475 0 
L 2900 0 
L 2900 538 
Q 2691 219 2414 64 
Q 2138 -91 1772 -91 
Q 1169 -91 856 284 
Q 544 659 544 1381 
z
M 1991 3584 
L 1991 3584 
z
" transform="scale(0.015625)"/>
       <path id="DejaVuSans-2d" d="M 313 2009 
L 1997 2009 
L 1997 1497 
L 313 1497 
L 313 2009 
z
" transform="scale(0.015625)"/>
       <path id="DejaVuSans-49" d="M 628 4666 
L 1259 4666 
L 1259 0 
L 628 0 
L 628 4666 
z
" transform="scale(0.015625)"/>
       <path id="DejaVuSans-70" d="M 1159 525 
L 1159 -1331 
L 581 -1331 
L 581 3500 
L 1159 3500 
L 1159 2969 
Q 1341 3281 1617 3432 
Q 1894 3584 2278 3584 
Q 2916 3584 3314 3078 
Q 3713 2572 3713 1747 
Q 3713 922 3314 415 
Q 2916 -91 2278 -91 
Q 1894 -91 1617 61 
Q 1341 213 1159 525 
z
M 3116 1747 
Q 3116 2381 2855 2742 
Q 2594 3103 2138 3103 
Q 1681 3103 1420 2742 
Q 1159 2381 1159 1747 
Q 1159 1113 1420 752 
Q 1681 391 2138 391 
Q 2594 391 2855 752 
Q 3116 1113 3116 1747 
z
" transform="scale(0.015625)"/>
      </defs>
      <use xlink:href="#DejaVuSans-4f"/>
      <use xlink:href="#DejaVuSans-75" x="78.710938"/>
      <use xlink:href="#DejaVuSans-72" x="142.089844"/>
      <use xlink:href="#DejaVuSans-20" x="183.203125"/>
      <use xlink:href="#DejaVuSans-46" x="214.990234"/>
      <use xlink:href="#DejaVuSans-6f" x="268.884766"/>
      <use xlink:href="#DejaVuSans-63" x="330.066406"/>
      <use xlink:href="#DejaVuSans-61" x="385.046875"/>
      <use xlink:href="#DejaVuSans-6c" x="446.326172"/>
      <use xlink:href="#DejaVuSans-20" x="474.109375"/>
      <use xlink:href="#DejaVuSans-4c" x="505.896484"/>
      <use xlink:href="#DejaVuSans-65" x="559.859375"/>
      <use xlink:href="#DejaVuSans-6e" x="621.382812"/>
      <use xlink:href="#DejaVuSans-67" x="684.761719"/>
      <use xlink:href="#DejaVuSans-74" x="748.238281"/>
      <use xlink:href="#DejaVuSans-68" x="787.447266"/>
      <use xlink:href="#DejaVuSans-20" x="850.826172"/>
      <use xlink:href="#DejaVuSans-2d" x="882.613281"/>
      <use xlink:href="#DejaVuSans-20" x="918.697266"/>
      <use xlink:href="#DejaVuSans-4c" x="950.484375"/>
      <use xlink:href="#DejaVuSans-69" x="1006.197266"/>
      <use xlink:href="#DejaVuSans-6e" x="1033.980469"/>
      <use xlink:href="#DejaVuSans-65" x="1097.359375"/>
      <use xlink:href="#DejaVuSans-61" x="1158.882812"/>
      <use xlink:href="#DejaVuSans-72" x="1220.162109"/>
      <use xlink:href="#DejaVuSans-20" x="1261.275391"/>
      <use xlink:href="#DejaVuSans-49" x="1293.0625"/>
      <use xlink:href="#DejaVuSans-6e" x="1322.554688"/>
      <use xlink:href="#DejaVuSans-74" x="1385.933594"/>
      <use xlink:href="#DejaVuSans-65" x="1425.142578"/>
      <use xlink:href="#DejaVuSans-72" x="1486.666016"/>
      <use xlink:href="#DejaVuSans-70" x="1527.779297"/>
      <use xlink:href="#DejaVuSans-6f" x="1591.255859"/>
      <use xlink:href="#DejaVuSans-6c" x="1652.4375"/>
      <use xlink:href="#DejaVuSans-61" x="1680.220703"/>
      <use xlink:href="#DejaVuSans-74" x="1741.5"/>
      <use xlink:href="#DejaVuSans-69" x="1780.708984"/>
      <use xlink:href="#DejaVuSans-6f" x="1808.492188"/>
      <use xlink:href="#DejaVuSans-6e" x="1869.673828"/>
     </g>
    </g>
    <g id="PathCollection_7">
     <g>
      <use xlink:href="#mce24290c4a" x="660.250125" y="41.49725" style="stroke: #000000"/>
     </g>
    </g>
    <g id="text_38">
     <!-- Our Focal Length - Datapoint -->
     <g transform="translate(674.650125 43.59725) scale(0.08 -0.08)">
      <defs>
       <path id="DejaVuSans-44" d="M 1259 4147 
L 1259 519 
L 2022 519 
Q 2988 519 3436 956 
Q 3884 1394 3884 2338 
Q 3884 3275 3436 3711 
Q 2988 4147 2022 4147 
L 1259 4147 
z
M 628 4666 
L 1925 4666 
Q 3281 4666 3915 4102 
Q 4550 3538 4550 2338 
Q 4550 1131 3912 565 
Q 3275 0 1925 0 
L 628 0 
L 628 4666 
z
" transform="scale(0.015625)"/>
      </defs>
      <use xlink:href="#DejaVuSans-4f"/>
      <use xlink:href="#DejaVuSans-75" x="78.710938"/>
      <use xlink:href="#DejaVuSans-72" x="142.089844"/>
      <use xlink:href="#DejaVuSans-20" x="183.203125"/>
      <use xlink:href="#DejaVuSans-46" x="214.990234"/>
      <use xlink:href="#DejaVuSans-6f" x="268.884766"/>
      <use xlink:href="#DejaVuSans-63" x="330.066406"/>
      <use xlink:href="#DejaVuSans-61" x="385.046875"/>
      <use xlink:href="#DejaVuSans-6c" x="446.326172"/>
      <use xlink:href="#DejaVuSans-20" x="474.109375"/>
      <use xlink:href="#DejaVuSans-4c" x="505.896484"/>
      <use xlink:href="#DejaVuSans-65" x="559.859375"/>
      <use xlink:href="#DejaVuSans-6e" x="621.382812"/>
      <use xlink:href="#DejaVuSans-67" x="684.761719"/>
      <use xlink:href="#DejaVuSans-74" x="748.238281"/>
      <use xlink:href="#DejaVuSans-68" x="787.447266"/>
      <use xlink:href="#DejaVuSans-20" x="850.826172"/>
      <use xlink:href="#DejaVuSans-2d" x="882.613281"/>
      <use xlink:href="#DejaVuSans-20" x="918.697266"/>
      <use xlink:href="#DejaVuSans-44" x="950.484375"/>
      <use xlink:href="#DejaVuSans-61" x="1027.486328"/>
      <use xlink:href="#DejaVuSans-74" x="1088.765625"/>
      <use xlink:href="#DejaVuSans-61" x="1127.974609"/>
      <use xlink:href="#DejaVuSans-70" x="1189.253906"/>
      <use xlink:href="#DejaVuSans-6f" x="1252.730469"/>
      <use xlink:href="#DejaVuSans-69" x="1313.912109"/>
      <use xlink:href="#DejaVuSans-6e" x="1341.695312"/>
      <use xlink:href="#DejaVuSans-74" x="1405.074219"/>
     </g>
    </g>
    <g id="PathCollection_8">
     <g>
      <use xlink:href="#m98efcf4459" x="660.250125" y="53.23975" style="fill: #ff0000; fill-opacity: 0.5; stroke: #000000; stroke-opacity: 0.5"/>
     </g>
    </g>
    <g id="text_39">
     <!-- Nanomi Focal Length -->
     <g transform="translate(674.650125 55.33975) scale(0.08 -0.08)">
      <defs>
       <path id="DejaVuSans-4e" d="M 628 4666 
L 1478 4666 
L 3547 763 
L 3547 4666 
L 4159 4666 
L 4159 0 
L 3309 0 
L 1241 3903 
L 1241 0 
L 628 0 
L 628 4666 
z
" transform="scale(0.015625)"/>
      </defs>
      <use xlink:href="#DejaVuSans-4e"/>
      <use xlink:href="#DejaVuSans-61" x="74.804688"/>
      <use xlink:href="#DejaVuSans-6e" x="136.083984"/>
      <use xlink:href="#DejaVuSans-6f" x="199.462891"/>
      <use xlink:href="#DejaVuSans-6d" x="260.644531"/>
      <use xlink:href="#DejaVuSans-69" x="358.056641"/>
      <use xlink:href="#DejaVuSans-20" x="385.839844"/>
      <use xlink:href="#DejaVuSans-46" x="417.626953"/>
      <use xlink:href="#DejaVuSans-6f" x="471.521484"/>
      <use xlink:href="#DejaVuSans-63" x="532.703125"/>
      <use xlink:href="#DejaVuSans-61" x="587.683594"/>
      <use xlink:href="#DejaVuSans-6c" x="648.962891"/>
      <use xlink:href="#DejaVuSans-20" x="676.746094"/>
      <use xlink:href="#DejaVuSans-4c" x="708.533203"/>
      <use xlink:href="#DejaVuSans-65" x="762.496094"/>
      <use xlink:href="#DejaVuSans-6e" x="824.019531"/>
      <use xlink:href="#DejaVuSans-67" x="887.398438"/>
      <use xlink:href="#DejaVuSans-74" x="950.875"/>
      <use xlink:href="#DejaVuSans-68" x="990.083984"/>
     </g>
    </g>
    <g id="PathCollection_9">
     <g>
      <use xlink:href="#meb2319e793" x="660.250125" y="64.98225" style="fill: #008000; fill-opacity: 0.5; stroke: #000000; stroke-opacity: 0.5"/>
     </g>
    </g>
    <g id="text_40">
     <!-- Rempfer Focal Length -->
     <g transform="translate(674.650125 67.08225) scale(0.08 -0.08)">
      <defs>
       <path id="DejaVuSans-52" d="M 2841 2188 
Q 3044 2119 3236 1894 
Q 3428 1669 3622 1275 
L 4263 0 
L 3584 0 
L 2988 1197 
Q 2756 1666 2539 1819 
Q 2322 1972 1947 1972 
L 1259 1972 
L 1259 0 
L 628 0 
L 628 4666 
L 2053 4666 
Q 2853 4666 3247 4331 
Q 3641 3997 3641 3322 
Q 3641 2881 3436 2590 
Q 3231 2300 2841 2188 
z
M 1259 4147 
L 1259 2491 
L 2053 2491 
Q 2509 2491 2742 2702 
Q 2975 2913 2975 3322 
Q 2975 3731 2742 3939 
Q 2509 4147 2053 4147 
L 1259 4147 
z
" transform="scale(0.015625)"/>
       <path id="DejaVuSans-66" d="M 2375 4863 
L 2375 4384 
L 1825 4384 
Q 1516 4384 1395 4259 
Q 1275 4134 1275 3809 
L 1275 3500 
L 2222 3500 
L 2222 3053 
L 1275 3053 
L 1275 0 
L 697 0 
L 697 3053 
L 147 3053 
L 147 3500 
L 697 3500 
L 697 3744 
Q 697 4328 969 4595 
Q 1241 4863 1831 4863 
L 2375 4863 
z
" transform="scale(0.015625)"/>
      </defs>
      <use xlink:href="#DejaVuSans-52"/>
      <use xlink:href="#DejaVuSans-65" x="64.982422"/>
      <use xlink:href="#DejaVuSans-6d" x="126.505859"/>
      <use xlink:href="#DejaVuSans-70" x="223.917969"/>
      <use xlink:href="#DejaVuSans-66" x="287.394531"/>
      <use xlink:href="#DejaVuSans-65" x="322.599609"/>
      <use xlink:href="#DejaVuSans-72" x="384.123047"/>
      <use xlink:href="#DejaVuSans-20" x="425.236328"/>
      <use xlink:href="#DejaVuSans-46" x="457.023438"/>
      <use xlink:href="#DejaVuSans-6f" x="510.917969"/>
      <use xlink:href="#DejaVuSans-63" x="572.099609"/>
      <use xlink:href="#DejaVuSans-61" x="627.080078"/>
      <use xlink:href="#DejaVuSans-6c" x="688.359375"/>
      <use xlink:href="#DejaVuSans-20" x="716.142578"/>
      <use xlink:href="#DejaVuSans-4c" x="747.929688"/>
      <use xlink:href="#DejaVuSans-65" x="801.892578"/>
      <use xlink:href="#DejaVuSans-6e" x="863.416016"/>
      <use xlink:href="#DejaVuSans-67" x="926.794922"/>
      <use xlink:href="#DejaVuSans-74" x="990.271484"/>
      <use xlink:href="#DejaVuSans-68" x="1029.480469"/>
     </g>
    </g>
   </g>
  </g>
 </g>
 <defs>
  <clipPath id="pe1139267a3">
   <rect x="108" y="51.84" width="602.64" height="332.64"/>
  </clipPath>
  <clipPath id="pd45e4f3cdd">
   <rect x="288.792" y="85.104" width="421.848" height="232.848"/>
  </clipPath>
 </defs>
</svg>
