<?xml version="1.0" encoding="utf-8" standalone="no"?>
<!DOCTYPE svg PUBLIC "-//W3C//DTD SVG 1.1//EN"
  "http://www.w3.org/Graphics/SVG/1.1/DTD/svg11.dtd">
<svg xmlns:xlink="http://www.w3.org/1999/xlink" width="460.8pt" height="345.6pt" viewBox="0 0 460.8 345.6" xmlns="http://www.w3.org/2000/svg" version="1.1">
 <metadata>
  <rdf:RDF xmlns:dc="http://purl.org/dc/elements/1.1/" xmlns:cc="http://creativecommons.org/ns#" xmlns:rdf="http://www.w3.org/1999/02/22-rdf-syntax-ns#">
   <cc:Work>
    <dc:type rdf:resource="http://purl.org/dc/dcmitype/StillImage"/>
    <dc:date>2023-02-03T22:54:39.841346</dc:date>
    <dc:format>image/svg+xml</dc:format>
    <dc:creator>
     <cc:Agent>
      <dc:title>Matplotlib v3.6.3, https://matplotlib.org/</dc:title>
     </cc:Agent>
    </dc:creator>
   </cc:Work>
  </rdf:RDF>
 </metadata>
 <defs>
  <style type="text/css">*{stroke-linejoin: round; stroke-linecap: butt}</style>
 </defs>
 <g id="figure_1">
  <g id="patch_1">
   <path d="M 0 345.6 
L 460.8 345.6 
L 460.8 0 
L 0 0 
z
" style="fill: #ffffff"/>
  </g>
  <g id="axes_1">
   <g id="patch_2">
    <path d="M 57.6 307.584 
L 414.72 307.584 
L 414.72 41.472 
L 57.6 41.472 
z
" style="fill: #ffffff"/>
   </g>
   <g id="matplotlib.axis_1">
    <g id="xtick_1">
     <g id="line2d_1">
      <defs>
       <path id="m647609ada3" d="M 0 0 
L 0 3.5 
" style="stroke: #000000; stroke-width: 0.8"/>
      </defs>
      <g>
       <use xlink:href="#m647609ada3" x="88.198779" y="307.584" style="stroke: #000000; stroke-width: 0.8"/>
      </g>
     </g>
     <g id="text_1">
      <!-- −0.14 -->
      <g transform="translate(75.547997 321.757437) scale(0.1 -0.1)">
       <defs>
        <path id="Helvetica-2212" d="M 3547 1894 
L 3547 1369 
L 288 1369 
L 288 1894 
L 3547 1894 
z
" transform="scale(0.015625)"/>
        <path id="Helvetica-30" d="M 1731 4475 
Q 2600 4475 2988 3759 
Q 3288 3206 3288 2244 
Q 3288 1331 3016 734 
Q 2622 -122 1728 -122 
Q 922 -122 528 578 
Q 200 1163 200 2147 
Q 200 2909 397 3456 
Q 766 4475 1731 4475 
z
M 1725 391 
Q 2163 391 2422 778 
Q 2681 1166 2681 2222 
Q 2681 2984 2493 3476 
Q 2306 3969 1766 3969 
Q 1269 3969 1039 3501 
Q 809 3034 809 2125 
Q 809 1441 956 1025 
Q 1181 391 1725 391 
z
" transform="scale(0.015625)"/>
        <path id="Helvetica-2e" d="M 547 681 
L 1200 681 
L 1200 0 
L 547 0 
L 547 681 
z
" transform="scale(0.015625)"/>
        <path id="Helvetica-31" d="M 613 3169 
L 613 3600 
Q 1222 3659 1462 3798 
Q 1703 3938 1822 4456 
L 2266 4456 
L 2266 0 
L 1666 0 
L 1666 3169 
L 613 3169 
z
" transform="scale(0.015625)"/>
        <path id="Helvetica-34" d="M 2116 1584 
L 2116 3613 
L 681 1584 
L 2116 1584 
z
M 2125 0 
L 2125 1094 
L 163 1094 
L 163 1644 
L 2213 4488 
L 2688 4488 
L 2688 1584 
L 3347 1584 
L 3347 1094 
L 2688 1094 
L 2688 0 
L 2125 0 
z
" transform="scale(0.015625)"/>
       </defs>
       <use xlink:href="#Helvetica-2212"/>
       <use xlink:href="#Helvetica-30" x="58.398438"/>
       <use xlink:href="#Helvetica-2e" x="114.013672"/>
       <use xlink:href="#Helvetica-31" x="141.796875"/>
       <use xlink:href="#Helvetica-34" x="197.412109"/>
      </g>
     </g>
    </g>
    <g id="xtick_2">
     <g id="line2d_2">
      <g>
       <use xlink:href="#m647609ada3" x="136.057462" y="307.584" style="stroke: #000000; stroke-width: 0.8"/>
      </g>
     </g>
     <g id="text_2">
      <!-- −0.12 -->
      <g transform="translate(123.40668 321.757437) scale(0.1 -0.1)">
       <defs>
        <path id="Helvetica-32" d="M 200 0 
Q 231 578 439 1006 
Q 647 1434 1250 1784 
L 1850 2131 
Q 2253 2366 2416 2531 
Q 2672 2791 2672 3125 
Q 2672 3516 2437 3745 
Q 2203 3975 1813 3975 
Q 1234 3975 1013 3538 
Q 894 3303 881 2888 
L 309 2888 
Q 319 3472 525 3841 
Q 891 4491 1816 4491 
Q 2584 4491 2939 4075 
Q 3294 3659 3294 3150 
Q 3294 2613 2916 2231 
Q 2697 2009 2131 1694 
L 1703 1456 
Q 1397 1288 1222 1134 
Q 909 863 828 531 
L 3272 531 
L 3272 0 
L 200 0 
z
" transform="scale(0.015625)"/>
       </defs>
       <use xlink:href="#Helvetica-2212"/>
       <use xlink:href="#Helvetica-30" x="58.398438"/>
       <use xlink:href="#Helvetica-2e" x="114.013672"/>
       <use xlink:href="#Helvetica-31" x="141.796875"/>
       <use xlink:href="#Helvetica-32" x="197.412109"/>
      </g>
     </g>
    </g>
    <g id="xtick_3">
     <g id="line2d_3">
      <g>
       <use xlink:href="#m647609ada3" x="183.916145" y="307.584" style="stroke: #000000; stroke-width: 0.8"/>
      </g>
     </g>
     <g id="text_3">
      <!-- −0.10 -->
      <g transform="translate(171.265363 321.757437) scale(0.1 -0.1)">
       <use xlink:href="#Helvetica-2212"/>
       <use xlink:href="#Helvetica-30" x="58.398438"/>
       <use xlink:href="#Helvetica-2e" x="114.013672"/>
       <use xlink:href="#Helvetica-31" x="141.796875"/>
       <use xlink:href="#Helvetica-30" x="197.412109"/>
      </g>
     </g>
    </g>
    <g id="xtick_4">
     <g id="line2d_4">
      <g>
       <use xlink:href="#m647609ada3" x="231.774827" y="307.584" style="stroke: #000000; stroke-width: 0.8"/>
      </g>
     </g>
     <g id="text_4">
      <!-- −0.08 -->
      <g transform="translate(219.124046 321.757437) scale(0.1 -0.1)">
       <defs>
        <path id="Helvetica-38" d="M 1741 2600 
Q 2113 2600 2322 2808 
Q 2531 3016 2531 3303 
Q 2531 3553 2331 3762 
Q 2131 3972 1722 3972 
Q 1316 3972 1134 3762 
Q 953 3553 953 3272 
Q 953 2956 1187 2778 
Q 1422 2600 1741 2600 
z
M 1775 384 
Q 2166 384 2423 595 
Q 2681 806 2681 1225 
Q 2681 1659 2415 1884 
Q 2150 2109 1734 2109 
Q 1331 2109 1076 1879 
Q 822 1650 822 1244 
Q 822 894 1055 639 
Q 1288 384 1775 384 
z
M 975 2384 
Q 741 2484 609 2619 
Q 363 2869 363 3269 
Q 363 3769 725 4128 
Q 1088 4488 1753 4488 
Q 2397 4488 2762 4148 
Q 3128 3809 3128 3356 
Q 3128 2938 2916 2678 
Q 2797 2531 2547 2391 
Q 2825 2263 2984 2097 
Q 3281 1784 3281 1284 
Q 3281 694 2884 283 
Q 2488 -128 1763 -128 
Q 1109 -128 657 226 
Q 206 581 206 1256 
Q 206 1653 400 1942 
Q 594 2231 975 2384 
z
" transform="scale(0.015625)"/>
       </defs>
       <use xlink:href="#Helvetica-2212"/>
       <use xlink:href="#Helvetica-30" x="58.398438"/>
       <use xlink:href="#Helvetica-2e" x="114.013672"/>
       <use xlink:href="#Helvetica-30" x="141.796875"/>
       <use xlink:href="#Helvetica-38" x="197.412109"/>
      </g>
     </g>
    </g>
    <g id="xtick_5">
     <g id="line2d_5">
      <g>
       <use xlink:href="#m647609ada3" x="279.63351" y="307.584" style="stroke: #000000; stroke-width: 0.8"/>
      </g>
     </g>
     <g id="text_5">
      <!-- −0.06 -->
      <g transform="translate(266.982729 321.757437) scale(0.1 -0.1)">
       <defs>
        <path id="Helvetica-36" d="M 1872 4494 
Q 2622 4494 2917 4105 
Q 3213 3716 3213 3303 
L 2656 3303 
Q 2606 3569 2497 3719 
Q 2294 4000 1881 4000 
Q 1409 4000 1131 3564 
Q 853 3128 822 2316 
Q 1016 2600 1309 2741 
Q 1578 2866 1909 2866 
Q 2472 2866 2890 2506 
Q 3309 2147 3309 1434 
Q 3309 825 2912 354 
Q 2516 -116 1781 -116 
Q 1153 -116 697 361 
Q 241 838 241 1966 
Q 241 2800 444 3381 
Q 834 4494 1872 4494 
z
M 1831 384 
Q 2275 384 2495 682 
Q 2716 981 2716 1388 
Q 2716 1731 2519 2042 
Q 2322 2353 1803 2353 
Q 1441 2353 1167 2112 
Q 894 1872 894 1388 
Q 894 963 1142 673 
Q 1391 384 1831 384 
z
" transform="scale(0.015625)"/>
       </defs>
       <use xlink:href="#Helvetica-2212"/>
       <use xlink:href="#Helvetica-30" x="58.398438"/>
       <use xlink:href="#Helvetica-2e" x="114.013672"/>
       <use xlink:href="#Helvetica-30" x="141.796875"/>
       <use xlink:href="#Helvetica-36" x="197.412109"/>
      </g>
     </g>
    </g>
    <g id="xtick_6">
     <g id="line2d_6">
      <g>
       <use xlink:href="#m647609ada3" x="327.492193" y="307.584" style="stroke: #000000; stroke-width: 0.8"/>
      </g>
     </g>
     <g id="text_6">
      <!-- −0.04 -->
      <g transform="translate(314.841412 321.757437) scale(0.1 -0.1)">
       <use xlink:href="#Helvetica-2212"/>
       <use xlink:href="#Helvetica-30" x="58.398438"/>
       <use xlink:href="#Helvetica-2e" x="114.013672"/>
       <use xlink:href="#Helvetica-30" x="141.796875"/>
       <use xlink:href="#Helvetica-34" x="197.412109"/>
      </g>
     </g>
    </g>
    <g id="xtick_7">
     <g id="line2d_7">
      <g>
       <use xlink:href="#m647609ada3" x="375.350876" y="307.584" style="stroke: #000000; stroke-width: 0.8"/>
      </g>
     </g>
     <g id="text_7">
      <!-- −0.02 -->
      <g transform="translate(362.700095 321.757437) scale(0.1 -0.1)">
       <use xlink:href="#Helvetica-2212"/>
       <use xlink:href="#Helvetica-30" x="58.398438"/>
       <use xlink:href="#Helvetica-2e" x="114.013672"/>
       <use xlink:href="#Helvetica-30" x="141.796875"/>
       <use xlink:href="#Helvetica-32" x="197.412109"/>
      </g>
     </g>
    </g>
    <g id="text_8">
     <!-- Magnification (m) (Asymptotic &amp; Real) -->
     <g transform="translate(152.252969 335.132437) scale(0.1 -0.1)">
      <defs>
       <path id="Helvetica-4d" d="M 472 4591 
L 1363 4591 
L 2681 709 
L 3991 4591 
L 4872 4591 
L 4872 0 
L 4281 0 
L 4281 2709 
Q 4281 2850 4287 3175 
Q 4294 3500 4294 3872 
L 2984 0 
L 2369 0 
L 1050 3872 
L 1050 3731 
Q 1050 3563 1058 3217 
Q 1066 2872 1066 2709 
L 1066 0 
L 472 0 
L 472 4591 
z
" transform="scale(0.015625)"/>
       <path id="Helvetica-61" d="M 844 891 
Q 844 647 1022 506 
Q 1200 366 1444 366 
Q 1741 366 2019 503 
Q 2488 731 2488 1250 
L 2488 1703 
Q 2384 1638 2221 1594 
Q 2059 1550 1903 1531 
L 1563 1488 
Q 1256 1447 1103 1359 
Q 844 1213 844 891 
z
M 2206 2028 
Q 2400 2053 2466 2191 
Q 2503 2266 2503 2406 
Q 2503 2694 2298 2823 
Q 2094 2953 1713 2953 
Q 1272 2953 1088 2716 
Q 984 2584 953 2325 
L 428 2325 
Q 444 2944 830 3186 
Q 1216 3428 1725 3428 
Q 2316 3428 2684 3203 
Q 3050 2978 3050 2503 
L 3050 575 
Q 3050 488 3086 434 
Q 3122 381 3238 381 
Q 3275 381 3322 386 
Q 3369 391 3422 400 
L 3422 -16 
Q 3291 -53 3222 -62 
Q 3153 -72 3034 -72 
Q 2744 -72 2613 134 
Q 2544 244 2516 444 
Q 2344 219 2022 53 
Q 1700 -113 1313 -113 
Q 847 -113 551 170 
Q 256 453 256 878 
Q 256 1344 547 1600 
Q 838 1856 1309 1916 
L 2206 2028 
z
M 1741 3428 
L 1741 3428 
z
" transform="scale(0.015625)"/>
       <path id="Helvetica-67" d="M 1594 3406 
Q 1988 3406 2281 3213 
Q 2441 3103 2606 2894 
L 2606 3316 
L 3125 3316 
L 3125 272 
Q 3125 -366 2938 -734 
Q 2588 -1416 1616 -1416 
Q 1075 -1416 706 -1173 
Q 338 -931 294 -416 
L 866 -416 
Q 906 -641 1028 -763 
Q 1219 -950 1628 -950 
Q 2275 -950 2475 -494 
Q 2594 -225 2584 466 
Q 2416 209 2178 84 
Q 1941 -41 1550 -41 
Q 1006 -41 598 345 
Q 191 731 191 1622 
Q 191 2463 602 2934 
Q 1013 3406 1594 3406 
z
M 2606 1688 
Q 2606 2309 2350 2609 
Q 2094 2909 1697 2909 
Q 1103 2909 884 2353 
Q 769 2056 769 1575 
Q 769 1009 998 714 
Q 1228 419 1616 419 
Q 2222 419 2469 966 
Q 2606 1275 2606 1688 
z
M 1659 3428 
L 1659 3428 
z
" transform="scale(0.015625)"/>
       <path id="Helvetica-6e" d="M 413 3347 
L 947 3347 
L 947 2872 
Q 1184 3166 1450 3294 
Q 1716 3422 2041 3422 
Q 2753 3422 3003 2925 
Q 3141 2653 3141 2147 
L 3141 0 
L 2569 0 
L 2569 2109 
Q 2569 2416 2478 2603 
Q 2328 2916 1934 2916 
Q 1734 2916 1606 2875 
Q 1375 2806 1200 2600 
Q 1059 2434 1017 2257 
Q 975 2081 975 1753 
L 975 0 
L 413 0 
L 413 3347 
z
M 1734 3428 
L 1734 3428 
z
" transform="scale(0.015625)"/>
       <path id="Helvetica-69" d="M 413 3331 
L 984 3331 
L 984 0 
L 413 0 
L 413 3331 
z
M 413 4591 
L 984 4591 
L 984 3953 
L 413 3953 
L 413 4591 
z
" transform="scale(0.015625)"/>
       <path id="Helvetica-66" d="M 553 3856 
Q 566 4206 675 4369 
Q 872 4656 1434 4656 
Q 1488 4656 1544 4653 
Q 1600 4650 1672 4644 
L 1672 4131 
Q 1584 4138 1545 4139 
Q 1506 4141 1472 4141 
Q 1216 4141 1166 4008 
Q 1116 3875 1116 3331 
L 1672 3331 
L 1672 2888 
L 1109 2888 
L 1109 0 
L 553 0 
L 553 2888 
L 88 2888 
L 88 3331 
L 553 3331 
L 553 3856 
z
" transform="scale(0.015625)"/>
       <path id="Helvetica-63" d="M 1703 3444 
Q 2269 3444 2623 3169 
Q 2978 2894 3050 2222 
L 2503 2222 
Q 2453 2531 2275 2736 
Q 2097 2941 1703 2941 
Q 1166 2941 934 2416 
Q 784 2075 784 1575 
Q 784 1072 996 728 
Q 1209 384 1666 384 
Q 2016 384 2220 598 
Q 2425 813 2503 1184 
L 3050 1184 
Q 2956 519 2581 211 
Q 2206 -97 1622 -97 
Q 966 -97 575 383 
Q 184 863 184 1581 
Q 184 2463 612 2953 
Q 1041 3444 1703 3444 
z
M 1616 3428 
L 1616 3428 
z
" transform="scale(0.015625)"/>
       <path id="Helvetica-74" d="M 525 4281 
L 1094 4281 
L 1094 3347 
L 1628 3347 
L 1628 2888 
L 1094 2888 
L 1094 703 
Q 1094 528 1213 469 
Q 1278 434 1431 434 
Q 1472 434 1519 436 
Q 1566 438 1628 444 
L 1628 0 
Q 1531 -28 1426 -40 
Q 1322 -53 1200 -53 
Q 806 -53 665 148 
Q 525 350 525 672 
L 525 2888 
L 72 2888 
L 72 3347 
L 525 3347 
L 525 4281 
z
" transform="scale(0.015625)"/>
       <path id="Helvetica-6f" d="M 1741 363 
Q 2300 363 2508 786 
Q 2716 1209 2716 1728 
Q 2716 2197 2566 2491 
Q 2328 2953 1747 2953 
Q 1231 2953 997 2559 
Q 763 2166 763 1609 
Q 763 1075 997 719 
Q 1231 363 1741 363 
z
M 1763 3444 
Q 2409 3444 2856 3012 
Q 3303 2581 3303 1744 
Q 3303 934 2909 406 
Q 2516 -122 1688 -122 
Q 997 -122 590 345 
Q 184 813 184 1600 
Q 184 2444 612 2944 
Q 1041 3444 1763 3444 
z
M 1744 3428 
L 1744 3428 
z
" transform="scale(0.015625)"/>
       <path id="Helvetica-20" transform="scale(0.015625)"/>
       <path id="Helvetica-28" d="M 1894 4666 
Q 1403 3713 1256 3263 
Q 1034 2578 1034 1681 
Q 1034 775 1288 25 
Q 1444 -438 1903 -1306 
L 1525 -1306 
Q 1069 -594 959 -397 
Q 850 -200 722 138 
Q 547 600 478 1125 
Q 444 1397 444 1644 
Q 444 2569 734 3291 
Q 919 3750 1503 4666 
L 1894 4666 
z
" transform="scale(0.015625)"/>
       <path id="Helvetica-6d" d="M 413 3347 
L 969 3347 
L 969 2872 
Q 1169 3119 1331 3231 
Q 1609 3422 1963 3422 
Q 2363 3422 2606 3225 
Q 2744 3113 2856 2894 
Q 3044 3163 3297 3292 
Q 3550 3422 3866 3422 
Q 4541 3422 4784 2934 
Q 4916 2672 4916 2228 
L 4916 0 
L 4331 0 
L 4331 2325 
Q 4331 2659 4164 2784 
Q 3997 2909 3756 2909 
Q 3425 2909 3186 2687 
Q 2947 2466 2947 1947 
L 2947 0 
L 2375 0 
L 2375 2184 
Q 2375 2525 2294 2681 
Q 2166 2916 1816 2916 
Q 1497 2916 1236 2669 
Q 975 2422 975 1775 
L 975 0 
L 413 0 
L 413 3347 
z
" transform="scale(0.015625)"/>
       <path id="Helvetica-29" d="M 222 -1306 
Q 719 -338 863 106 
Q 1081 778 1081 1681 
Q 1081 2584 828 3334 
Q 672 3797 213 4666 
L 591 4666 
Q 1072 3897 1173 3717 
Q 1275 3538 1394 3222 
Q 1544 2831 1608 2450 
Q 1672 2069 1672 1716 
Q 1672 791 1378 66 
Q 1194 -400 613 -1306 
L 222 -1306 
z
" transform="scale(0.015625)"/>
       <path id="Helvetica-41" d="M 2844 1881 
L 2147 3909 
L 1406 1881 
L 2844 1881 
z
M 1822 4591 
L 2525 4591 
L 4191 0 
L 3509 0 
L 3044 1375 
L 1228 1375 
L 731 0 
L 94 0 
L 1822 4591 
z
M 2144 4591 
L 2144 4591 
z
" transform="scale(0.015625)"/>
       <path id="Helvetica-73" d="M 747 1050 
Q 772 769 888 619 
Q 1100 347 1625 347 
Q 1938 347 2175 483 
Q 2413 619 2413 903 
Q 2413 1119 2222 1231 
Q 2100 1300 1741 1391 
L 1294 1503 
Q 866 1609 663 1741 
Q 300 1969 300 2372 
Q 300 2847 642 3140 
Q 984 3434 1563 3434 
Q 2319 3434 2653 2991 
Q 2863 2709 2856 2384 
L 2325 2384 
Q 2309 2575 2191 2731 
Q 1997 2953 1519 2953 
Q 1200 2953 1036 2831 
Q 872 2709 872 2509 
Q 872 2291 1088 2159 
Q 1213 2081 1456 2022 
L 1828 1931 
Q 2434 1784 2641 1647 
Q 2969 1431 2969 969 
Q 2969 522 2630 197 
Q 2291 -128 1597 -128 
Q 850 -128 539 211 
Q 228 550 206 1050 
L 747 1050 
z
M 1578 3428 
L 1578 3428 
z
" transform="scale(0.015625)"/>
       <path id="Helvetica-79" d="M 2503 3347 
L 3125 3347 
Q 3006 3025 2597 1878 
Q 2291 1016 2084 472 
Q 1597 -809 1397 -1090 
Q 1197 -1372 709 -1372 
Q 591 -1372 527 -1362 
Q 463 -1353 369 -1328 
L 369 -816 
Q 516 -856 581 -865 
Q 647 -875 697 -875 
Q 853 -875 926 -823 
Q 1000 -772 1050 -697 
Q 1066 -672 1162 -440 
Q 1259 -209 1303 -97 
L 66 3347 
L 703 3347 
L 1600 622 
L 2503 3347 
z
M 1597 3428 
L 1597 3428 
z
" transform="scale(0.015625)"/>
       <path id="Helvetica-70" d="M 1825 378 
Q 2219 378 2480 708 
Q 2741 1038 2741 1694 
Q 2741 2094 2625 2381 
Q 2406 2934 1825 2934 
Q 1241 2934 1025 2350 
Q 909 2038 909 1556 
Q 909 1169 1025 897 
Q 1244 378 1825 378 
z
M 369 3331 
L 916 3331 
L 916 2888 
Q 1084 3116 1284 3241 
Q 1569 3428 1953 3428 
Q 2522 3428 2919 2992 
Q 3316 2556 3316 1747 
Q 3316 653 2744 184 
Q 2381 -113 1900 -113 
Q 1522 -113 1266 53 
Q 1116 147 931 375 
L 931 -1334 
L 369 -1334 
L 369 3331 
z
" transform="scale(0.015625)"/>
       <path id="Helvetica-26" d="M 1828 2806 
Q 2125 3016 2238 3147 
Q 2422 3359 2422 3619 
Q 2422 3822 2287 3969 
Q 2153 4116 1925 4116 
Q 1578 4116 1444 3884 
Q 1375 3766 1375 3625 
Q 1375 3434 1479 3259 
Q 1584 3084 1828 2806 
z
M 1684 388 
Q 2031 388 2281 547 
Q 2531 706 2666 903 
L 1628 2169 
Q 1188 1875 1053 1719 
Q 847 1484 847 1147 
Q 847 781 1114 584 
Q 1381 388 1684 388 
z
M 1316 2553 
Q 1025 2888 926 3116 
Q 828 3344 828 3556 
Q 828 4000 1128 4292 
Q 1428 4584 1931 4584 
Q 2409 4584 2678 4312 
Q 2947 4041 2947 3663 
Q 2947 3222 2669 2891 
Q 2506 2697 2125 2444 
L 2963 1444 
Q 3047 1694 3080 1817 
Q 3113 1941 3147 2163 
L 3681 2163 
Q 3628 1722 3468 1317 
Q 3309 913 3309 991 
L 4125 0 
L 3400 0 
L 2969 525 
Q 2713 247 2500 119 
Q 2128 -106 1644 -106 
Q 928 -106 603 280 
Q 278 666 278 1150 
Q 278 1672 594 2022 
Q 788 2234 1316 2553 
z
" transform="scale(0.015625)"/>
       <path id="Helvetica-52" d="M 2622 2488 
Q 3059 2488 3314 2663 
Q 3569 2838 3569 3294 
Q 3569 3784 3213 3963 
Q 3022 4056 2703 4056 
L 1184 4056 
L 1184 2488 
L 2622 2488 
z
M 563 4591 
L 2688 4591 
Q 3213 4591 3553 4438 
Q 4200 4144 4200 3353 
Q 4200 2941 4029 2678 
Q 3859 2416 3553 2256 
Q 3822 2147 3958 1969 
Q 4094 1791 4109 1391 
L 4131 775 
Q 4141 513 4175 384 
Q 4231 166 4375 103 
L 4375 0 
L 3613 0 
Q 3581 59 3562 153 
Q 3544 247 3531 516 
L 3494 1281 
Q 3472 1731 3159 1884 
Q 2981 1969 2600 1969 
L 1184 1969 
L 1184 0 
L 563 0 
L 563 4591 
z
" transform="scale(0.015625)"/>
       <path id="Helvetica-65" d="M 1806 3422 
Q 2163 3422 2497 3255 
Q 2831 3088 3006 2822 
Q 3175 2569 3231 2231 
Q 3281 2000 3281 1494 
L 828 1494 
Q 844 984 1069 676 
Q 1294 369 1766 369 
Q 2206 369 2469 659 
Q 2619 828 2681 1050 
L 3234 1050 
Q 3213 866 3089 639 
Q 2966 413 2813 269 
Q 2556 19 2178 -69 
Q 1975 -119 1719 -119 
Q 1094 -119 659 336 
Q 225 791 225 1609 
Q 225 2416 662 2919 
Q 1100 3422 1806 3422 
z
M 2703 1941 
Q 2669 2306 2544 2525 
Q 2313 2931 1772 2931 
Q 1384 2931 1121 2651 
Q 859 2372 844 1941 
L 2703 1941 
z
M 1753 3428 
L 1753 3428 
z
" transform="scale(0.015625)"/>
       <path id="Helvetica-6c" d="M 428 4591 
L 991 4591 
L 991 0 
L 428 0 
L 428 4591 
z
" transform="scale(0.015625)"/>
      </defs>
      <use xlink:href="#Helvetica-4d"/>
      <use xlink:href="#Helvetica-61" x="83.300781"/>
      <use xlink:href="#Helvetica-67" x="138.916016"/>
      <use xlink:href="#Helvetica-6e" x="194.53125"/>
      <use xlink:href="#Helvetica-69" x="250.146484"/>
      <use xlink:href="#Helvetica-66" x="272.363281"/>
      <use xlink:href="#Helvetica-69" x="300.146484"/>
      <use xlink:href="#Helvetica-63" x="322.363281"/>
      <use xlink:href="#Helvetica-61" x="372.363281"/>
      <use xlink:href="#Helvetica-74" x="427.978516"/>
      <use xlink:href="#Helvetica-69" x="455.761719"/>
      <use xlink:href="#Helvetica-6f" x="477.978516"/>
      <use xlink:href="#Helvetica-6e" x="533.59375"/>
      <use xlink:href="#Helvetica-20" x="589.208984"/>
      <use xlink:href="#Helvetica-28" x="616.992188"/>
      <use xlink:href="#Helvetica-6d" x="650.292969"/>
      <use xlink:href="#Helvetica-29" x="733.59375"/>
      <use xlink:href="#Helvetica-20" x="766.894531"/>
      <use xlink:href="#Helvetica-28" x="794.677734"/>
      <use xlink:href="#Helvetica-41" x="827.978516"/>
      <use xlink:href="#Helvetica-73" x="894.677734"/>
      <use xlink:href="#Helvetica-79" x="944.677734"/>
      <use xlink:href="#Helvetica-6d" x="994.677734"/>
      <use xlink:href="#Helvetica-70" x="1077.978516"/>
      <use xlink:href="#Helvetica-74" x="1133.59375"/>
      <use xlink:href="#Helvetica-6f" x="1161.376953"/>
      <use xlink:href="#Helvetica-74" x="1216.992188"/>
      <use xlink:href="#Helvetica-69" x="1244.775391"/>
      <use xlink:href="#Helvetica-63" x="1266.992188"/>
      <use xlink:href="#Helvetica-20" x="1316.992188"/>
      <use xlink:href="#Helvetica-26" x="1344.775391"/>
      <use xlink:href="#Helvetica-20" x="1411.474609"/>
      <use xlink:href="#Helvetica-52" x="1439.257812"/>
      <use xlink:href="#Helvetica-65" x="1511.474609"/>
      <use xlink:href="#Helvetica-61" x="1567.089844"/>
      <use xlink:href="#Helvetica-6c" x="1622.705078"/>
      <use xlink:href="#Helvetica-29" x="1644.921875"/>
     </g>
    </g>
   </g>
   <g id="matplotlib.axis_2">
    <g id="ytick_1">
     <g id="line2d_8">
      <defs>
       <path id="m624ffc48ab" d="M 0 0 
L -3.5 0 
" style="stroke: #000000; stroke-width: 0.8"/>
      </defs>
      <g>
       <use xlink:href="#m624ffc48ab" x="57.6" y="276.421574" style="stroke: #000000; stroke-width: 0.8"/>
      </g>
     </g>
     <g id="text_9">
      <!-- $\mathdefault{10^{3}}$ -->
      <g transform="translate(35.2 280.008293) scale(0.1 -0.1)">
       <defs>
        <path id="Helvetica-33" d="M 1663 -122 
Q 869 -122 511 314 
Q 153 750 153 1375 
L 741 1375 
Q 778 941 903 744 
Q 1122 391 1694 391 
Q 2138 391 2406 628 
Q 2675 866 2675 1241 
Q 2675 1703 2392 1887 
Q 2109 2072 1606 2072 
Q 1550 2072 1492 2070 
Q 1434 2069 1375 2066 
L 1375 2563 
Q 1463 2553 1522 2550 
Q 1581 2547 1650 2547 
Q 1966 2547 2169 2647 
Q 2525 2822 2525 3272 
Q 2525 3606 2287 3787 
Q 2050 3969 1734 3969 
Q 1172 3969 956 3594 
Q 838 3388 822 3006 
L 266 3006 
Q 266 3506 466 3856 
Q 809 4481 1675 4481 
Q 2359 4481 2734 4176 
Q 3109 3872 3109 3294 
Q 3109 2881 2888 2625 
Q 2750 2466 2531 2375 
Q 2884 2278 3082 2001 
Q 3281 1725 3281 1325 
Q 3281 684 2859 281 
Q 2438 -122 1663 -122 
z
" transform="scale(0.015625)"/>
       </defs>
       <use xlink:href="#Helvetica-31" transform="translate(0 0.38125)"/>
       <use xlink:href="#Helvetica-30" transform="translate(55.615234 0.38125)"/>
       <use xlink:href="#Helvetica-33" transform="translate(112.145664 36.989063) scale(0.7)"/>
      </g>
     </g>
    </g>
    <g id="ytick_2">
     <g id="line2d_9">
      <g>
       <use xlink:href="#m624ffc48ab" x="57.6" y="213.127072" style="stroke: #000000; stroke-width: 0.8"/>
      </g>
     </g>
     <g id="text_10">
      <!-- $\mathdefault{10^{4}}$ -->
      <g transform="translate(35.2 216.713791) scale(0.1 -0.1)">
       <use xlink:href="#Helvetica-31" transform="translate(0 0.304688)"/>
       <use xlink:href="#Helvetica-30" transform="translate(55.615234 0.304688)"/>
       <use xlink:href="#Helvetica-34" transform="translate(112.145664 36.9125) scale(0.7)"/>
      </g>
     </g>
    </g>
    <g id="ytick_3">
     <g id="line2d_10">
      <g>
       <use xlink:href="#m624ffc48ab" x="57.6" y="149.832571" style="stroke: #000000; stroke-width: 0.8"/>
      </g>
     </g>
     <g id="text_11">
      <!-- $\mathdefault{10^{5}}$ -->
      <g transform="translate(35.2 153.41929) scale(0.1 -0.1)">
       <defs>
        <path id="Helvetica-35" d="M 791 1141 
Q 847 659 1238 475 
Q 1438 381 1700 381 
Q 2200 381 2440 700 
Q 2681 1019 2681 1406 
Q 2681 1875 2395 2131 
Q 2109 2388 1709 2388 
Q 1419 2388 1211 2275 
Q 1003 2163 856 1963 
L 369 1991 
L 709 4400 
L 3034 4400 
L 3034 3856 
L 1131 3856 
L 941 2613 
Q 1097 2731 1238 2791 
Q 1488 2894 1816 2894 
Q 2431 2894 2859 2497 
Q 3288 2100 3288 1491 
Q 3288 856 2895 371 
Q 2503 -113 1644 -113 
Q 1097 -113 676 195 
Q 256 503 206 1141 
L 791 1141 
z
" transform="scale(0.015625)"/>
       </defs>
       <use xlink:href="#Helvetica-31" transform="translate(0 0.267188)"/>
       <use xlink:href="#Helvetica-30" transform="translate(55.615234 0.267188)"/>
       <use xlink:href="#Helvetica-35" transform="translate(112.145664 36.875) scale(0.7)"/>
      </g>
     </g>
    </g>
    <g id="ytick_4">
     <g id="line2d_11">
      <g>
       <use xlink:href="#m624ffc48ab" x="57.6" y="86.538069" style="stroke: #000000; stroke-width: 0.8"/>
      </g>
     </g>
     <g id="text_12">
      <!-- $\mathdefault{10^{6}}$ -->
      <g transform="translate(35.2 90.124788) scale(0.1 -0.1)">
       <use xlink:href="#Helvetica-31" transform="translate(0 0.239063)"/>
       <use xlink:href="#Helvetica-30" transform="translate(55.615234 0.239063)"/>
       <use xlink:href="#Helvetica-36" transform="translate(112.145664 36.846875) scale(0.7)"/>
      </g>
     </g>
    </g>
    <g id="text_13">
     <!-- $C_{so}$ (m) (Asymptotic &amp; Real) -->
     <g transform="translate(29 236.578) rotate(-90) scale(0.1 -0.1)">
      <defs>
       <path id="DejaVuSans-Oblique-43" d="M 4447 4306 
L 4319 3641 
Q 4019 3944 3683 4091 
Q 3347 4238 2956 4238 
Q 2422 4238 2017 3981 
Q 1613 3725 1319 3200 
Q 1131 2863 1032 2486 
Q 934 2109 934 1728 
Q 934 1091 1264 756 
Q 1594 422 2222 422 
Q 2656 422 3056 561 
Q 3456 700 3834 978 
L 3688 231 
Q 3316 72 2936 -9 
Q 2556 -91 2175 -91 
Q 1278 -91 773 396 
Q 269 884 269 1753 
Q 269 2309 461 2846 
Q 653 3384 1013 3828 
Q 1394 4300 1883 4525 
Q 2372 4750 3022 4750 
Q 3422 4750 3780 4639 
Q 4138 4528 4447 4306 
z
" transform="scale(0.015625)"/>
       <path id="DejaVuSans-Oblique-73" d="M 3200 3397 
L 3091 2853 
Q 2863 2978 2609 3040 
Q 2356 3103 2088 3103 
Q 1634 3103 1373 2948 
Q 1113 2794 1113 2528 
Q 1113 2219 1719 2053 
Q 1766 2041 1788 2034 
L 1972 1978 
Q 2547 1819 2739 1644 
Q 2931 1469 2931 1166 
Q 2931 609 2489 259 
Q 2047 -91 1331 -91 
Q 1053 -91 747 -37 
Q 441 16 72 128 
L 184 722 
Q 500 559 806 475 
Q 1113 391 1394 391 
Q 1816 391 2080 572 
Q 2344 753 2344 1031 
Q 2344 1331 1650 1516 
L 1591 1531 
L 1394 1581 
Q 956 1697 753 1886 
Q 550 2075 550 2369 
Q 550 2928 970 3256 
Q 1391 3584 2113 3584 
Q 2397 3584 2667 3537 
Q 2938 3491 3200 3397 
z
" transform="scale(0.015625)"/>
       <path id="DejaVuSans-Oblique-6f" d="M 1625 -91 
Q 1009 -91 651 289 
Q 294 669 294 1325 
Q 294 1706 417 2101 
Q 541 2497 738 2766 
Q 1047 3184 1428 3384 
Q 1809 3584 2291 3584 
Q 2888 3584 3255 3212 
Q 3622 2841 3622 2241 
Q 3622 1825 3500 1412 
Q 3378 1000 3181 728 
Q 2875 309 2494 109 
Q 2113 -91 1625 -91 
z
M 891 1344 
Q 891 869 1089 633 
Q 1288 397 1691 397 
Q 2269 397 2648 901 
Q 3028 1406 3028 2181 
Q 3028 2634 2825 2865 
Q 2622 3097 2228 3097 
Q 1903 3097 1650 2945 
Q 1397 2794 1197 2484 
Q 1050 2253 970 1956 
Q 891 1659 891 1344 
z
" transform="scale(0.015625)"/>
      </defs>
      <use xlink:href="#DejaVuSans-Oblique-43" transform="translate(0 0.78125)"/>
      <use xlink:href="#DejaVuSans-Oblique-73" transform="translate(69.824219 -15.625) scale(0.7)"/>
      <use xlink:href="#DejaVuSans-Oblique-6f" transform="translate(106.293945 -15.625) scale(0.7)"/>
      <use xlink:href="#Helvetica-20" transform="translate(151.855469 0.78125)"/>
      <use xlink:href="#Helvetica-28" transform="translate(179.638672 0.78125)"/>
      <use xlink:href="#Helvetica-6d" transform="translate(212.939453 0.78125)"/>
      <use xlink:href="#Helvetica-29" transform="translate(296.240234 0.78125)"/>
      <use xlink:href="#Helvetica-20" transform="translate(329.541016 0.78125)"/>
      <use xlink:href="#Helvetica-28" transform="translate(357.324219 0.78125)"/>
      <use xlink:href="#Helvetica-41" transform="translate(390.625 0.78125)"/>
      <use xlink:href="#Helvetica-73" transform="translate(457.324219 0.78125)"/>
      <use xlink:href="#Helvetica-79" transform="translate(507.324219 0.78125)"/>
      <use xlink:href="#Helvetica-6d" transform="translate(557.324219 0.78125)"/>
      <use xlink:href="#Helvetica-70" transform="translate(640.625 0.78125)"/>
      <use xlink:href="#Helvetica-74" transform="translate(696.240234 0.78125)"/>
      <use xlink:href="#Helvetica-6f" transform="translate(724.023438 0.78125)"/>
      <use xlink:href="#Helvetica-74" transform="translate(779.638672 0.78125)"/>
      <use xlink:href="#Helvetica-69" transform="translate(807.421875 0.78125)"/>
      <use xlink:href="#Helvetica-63" transform="translate(829.638672 0.78125)"/>
      <use xlink:href="#Helvetica-20" transform="translate(879.638672 0.78125)"/>
      <use xlink:href="#Helvetica-26" transform="translate(907.421875 0.78125)"/>
      <use xlink:href="#Helvetica-20" transform="translate(974.121094 0.78125)"/>
      <use xlink:href="#Helvetica-52" transform="translate(1001.904297 0.78125)"/>
      <use xlink:href="#Helvetica-65" transform="translate(1074.121094 0.78125)"/>
      <use xlink:href="#Helvetica-61" transform="translate(1129.736328 0.78125)"/>
      <use xlink:href="#Helvetica-6c" transform="translate(1185.351562 0.78125)"/>
      <use xlink:href="#Helvetica-29" transform="translate(1207.568359 0.78125)"/>
     </g>
    </g>
   </g>
   <g id="line2d_12">
    <path d="M 73.832727 295.488 
L 104.491906 286.446052 
L 130.204256 278.088366 
L 152.077649 270.318975 
L 170.912121 263.060726 
L 187.299845 256.250808 
L 201.688519 249.837109 
L 214.422897 243.776159 
L 225.772765 238.031217 
L 235.952273 232.571071 
L 245.13357 227.368872 
L 253.456622 222.40133 
L 261.036395 217.648239 
L 267.9682 213.091907 
L 274.331719 208.716684 
L 280.194084 204.508708 
L 285.612256 200.455647 
L 290.634875 196.546561 
L 295.303732 192.771643 
L 299.654933 189.121911 
L 303.719828 185.589316 
L 307.525775 182.166642 
L 311.096754 178.847254 
L 314.453874 175.625014 
L 317.615786 172.494467 
L 320.599037 169.450617 
L 323.418353 166.488714 
L 326.086885 163.604371 
L 328.616415 160.793785 
L 331.017528 158.05328 
L 333.299761 155.379281 
L 335.471729 152.768791 
L 337.541235 150.218867 
L 339.515362 147.726677 
L 341.400556 145.289746 
L 343.202693 142.905592 
L 344.927144 140.571972 
L 346.578827 138.286954 
L 348.162253 136.04839 
L 349.681566 133.854425 
L 351.140583 131.703395 
L 352.542825 129.593654 
L 353.891541 127.523648 
L 355.18974 125.491821 
L 356.440206 123.496958 
L 357.645526 121.537573 
L 358.808101 119.612419 
L 359.930164 117.720489 
L 361.013798 115.860489 
L 362.060943 114.031441 
L 363.073412 112.232331 
L 364.052899 110.462196 
L 365.00099 108.72003 
L 365.919171 107.005046 
L 366.808834 105.316497 
L 367.671289 103.653409 
L 368.507765 102.01511 
L 369.319418 100.400783 
L 370.107337 98.809909 
L 370.872547 97.241733 
" clip-path="url(#p63bd4e5c82)" style="fill: none; stroke: #ff0000; stroke-width: 1.5; stroke-linecap: square"/>
   </g>
   <g id="line2d_13">
    <path d="M 73.832948 295.475107 
L 104.492128 286.434167 
L 130.204482 278.077309 
L 152.077882 270.308655 
L 170.912359 263.051098 
L 187.300085 256.241716 
L 201.688759 249.828506 
L 214.423135 243.767999 
L 225.773 238.023494 
L 235.952505 232.563727 
L 245.133799 227.361846 
L 253.456847 222.394621 
L 261.036616 217.641822 
L 267.968418 213.085724 
L 274.331934 208.710709 
L 280.194297 204.502947 
L 285.612466 200.450133 
L 290.635083 196.541271 
L 295.303937 192.766492 
L 299.655136 189.116909 
L 303.720028 185.584492 
L 307.525973 182.161954 
L 311.09695 178.842671 
L 314.454068 175.620599 
L 317.615978 172.490209 
L 320.599227 169.44643 
L 323.418541 166.484601 
L 326.087071 163.600426 
L 328.616599 160.78994 
L 331.01771 158.049473 
L 333.299941 155.375621 
L 335.471907 152.765225 
L 337.541411 150.215343 
L 339.515537 147.723234 
L 341.400728 145.286339 
L 343.202864 142.902266 
L 344.927313 140.568773 
L 346.578994 138.283759 
L 348.162418 136.045253 
L 349.681729 133.851398 
L 351.140745 131.70045 
L 352.542985 129.590761 
L 353.891699 127.52078 
L 355.189896 125.489039 
L 356.440361 123.494153 
L 357.645679 121.534807 
L 358.808252 119.609757 
L 359.930314 117.717825 
L 361.013946 115.85789 
L 362.06109 114.028888 
L 363.073557 112.229807 
L 364.053043 110.459684 
L 365.001132 108.717602 
L 365.919311 107.002686 
L 366.808974 105.314102 
L 367.671427 103.651054 
L 368.507902 102.012782 
L 369.319553 100.398557 
L 370.107471 98.807685 
L 370.87268 97.239499 
" clip-path="url(#p63bd4e5c82)" style="fill: none; stroke-dasharray: 5.55,2.4; stroke-dashoffset: 0; stroke: #ff0000; stroke-opacity: 0.5; stroke-width: 1.5"/>
   </g>
   <g id="line2d_14">
    <path d="M 199.716656 278.362126 
L 218.248927 269.292548 
L 233.93279 260.912127 
L 247.379558 253.123756 
L 259.037051 245.849565 
L 269.240869 239.025759 
L 278.247498 232.600103 
L 286.256352 226.52862 
L 293.424822 220.774435 
L 299.878805 215.306193 
L 305.720216 210.096567 
L 311.032441 205.122575 
L 315.884369 200.363595 
L 320.333419 195.801763 
L 324.427828 191.421575 
L 328.208421 187.209106 
L 331.709984 183.151968 
L 334.962337 179.239097 
L 337.991196 175.460797 
L 340.818852 171.807665 
L 343.464727 168.27209 
L 345.945816 164.846751 
L 348.27706 161.524517 
L 350.471646 158.300023 
L 352.541256 155.167003 
L 354.496276 152.121075 
L 356.345973 149.157083 
L 358.09864 146.270951 
L 359.761719 143.458456 
L 361.341913 140.716155 
L 362.84527 138.04063 
L 364.277264 135.42847 
L 365.642861 132.877203 
L 366.946575 130.383598 
L 368.192523 127.945326 
L 369.384461 125.559746 
L 370.525829 123.225093 
L 371.619778 120.938776 
L 372.669206 118.699056 
L 373.676775 116.504075 
L 374.644943 114.352081 
L 375.575978 112.241423 
L 376.471975 110.170544 
L 377.334878 108.13773 
L 378.166486 106.141833 
L 378.968472 104.181782 
L 379.742392 102.25584 
L 380.489694 100.36307 
L 381.211728 98.502347 
L 381.909756 96.672607 
L 382.584954 94.872833 
L 383.238425 93.102062 
L 383.871202 91.359128 
L 384.484252 89.643645 
L 385.078483 87.954287 
L 385.654751 86.290747 
L 386.213856 84.65177 
L 386.756554 83.037121 
L 387.283559 81.445609 
L 387.795539 79.876813 
" clip-path="url(#p63bd4e5c82)" style="fill: none; stroke: #008000; stroke-width: 1.5; stroke-linecap: square"/>
   </g>
   <g id="line2d_15">
    <path d="M 200.900129 278.350818 
L 219.467613 269.282204 
L 235.172626 260.902553 
L 248.629739 253.114827 
L 260.289341 245.841095 
L 270.489034 239.017835 
L 279.486858 232.592595 
L 287.483424 226.521567 
L 294.637052 220.767789 
L 301.074351 215.299788 
L 306.897786 210.09055 
L 312.191169 205.116714 
L 317.023718 200.357944 
L 321.453101 195.796427 
L 325.527752 191.416473 
L 329.288643 187.204192 
L 332.77067 183.147227 
L 336.003742 179.23454 
L 339.013637 175.456225 
L 341.822691 171.803366 
L 344.450358 168.267902 
L 346.913657 164.842526 
L 349.227544 161.520592 
L 351.405212 158.296038 
L 353.458345 155.16332 
L 355.39733 152.117353 
L 357.231429 149.153464 
L 358.968928 146.267346 
L 360.617263 143.455025 
L 362.183125 140.712821 
L 363.672554 138.037323 
L 365.091011 135.425366 
L 366.443453 132.874 
L 367.734383 130.38048 
L 368.967903 127.942242 
L 370.147761 125.556887 
L 371.277383 123.22217 
L 372.359911 120.935988 
L 373.39823 118.696363 
L 374.394994 116.501438 
L 375.352648 114.349464 
L 376.27345 112.238791 
L 377.159488 110.167865 
L 378.012693 108.135217 
L 378.834857 106.139458 
L 379.627644 104.179272 
L 380.3926 102.253415 
L 381.131167 100.360704 
L 381.844686 98.500018 
L 382.53441 96.670291 
L 383.201511 94.870511 
L 383.847083 93.099712 
L 384.472151 91.356977 
L 385.077678 89.641429 
L 385.664566 87.952234 
L 386.233662 86.288595 
L 386.785763 84.649749 
L 387.321619 83.034969 
L 387.841937 81.443558 
L 388.347384 79.874849 
" clip-path="url(#p63bd4e5c82)" style="fill: none; stroke-dasharray: 5.55,2.4; stroke-dashoffset: 0; stroke: #008000; stroke-opacity: 0.5; stroke-width: 1.5"/>
   </g>
   <g id="line2d_16">
    <path d="M 236.782709 252.466108 
L 251.51839 243.393684 
L 264.097829 235.010544 
L 274.96159 227.221264 
L 284.437965 219.946147 
L 292.776569 213.121995 
L 300.170568 206.695888 
L 306.771767 200.62463 
L 312.701116 194.87099 
L 318.056163 189.403276 
L 322.916453 184.194298 
L 327.347496 179.220549 
L 331.403728 174.461571 
L 335.13076 169.900465 
L 338.567091 165.52045 
L 341.745445 161.308585 
L 344.693813 157.252461 
L 347.436279 153.339964 
L 349.993679 149.562176 
L 352.38413 145.909109 
L 354.623459 142.373706 
L 356.725555 138.948633 
L 358.702654 135.627225 
L 360.565583 132.403399 
L 362.323951 129.270545 
L 363.986319 126.224608 
L 365.560339 123.260902 
L 367.052871 120.375109 
L 368.470081 117.563241 
L 369.817531 114.821612 
L 371.100247 112.145741 
L 372.322784 109.534572 
L 373.489279 106.98303 
L 374.603499 104.490484 
L 375.668881 102.052239 
L 376.688566 99.666954 
L 377.665432 97.33238 
L 378.60212 95.046406 
L 379.50106 92.807053 
L 380.364488 90.61246 
L 381.194467 88.460872 
L 381.992903 86.35064 
L 382.761562 84.27913 
L 383.502078 82.247017 
L 384.215969 80.251839 
L 384.904646 78.291199 
L 385.569421 76.366003 
L 386.211517 74.472913 
L 386.832075 72.612962 
L 387.432161 70.782924 
L 388.012771 68.982864 
L 388.574839 67.212897 
L 389.119238 65.469941 
L 389.646789 63.754199 
L 390.158262 62.065919 
L 390.654381 60.402136 
L 391.135827 58.763171 
L 391.603241 57.148293 
L 392.057229 55.557892 
L 392.498359 53.989129 
" clip-path="url(#p63bd4e5c82)" style="fill: none; stroke: #0000ff; stroke-width: 1.5; stroke-linecap: square"/>
   </g>
   <g id="line2d_17">
    <path d="M 271.435623 252.174779 
L 283.596521 243.09151 
L 293.953196 234.699759 
L 302.87944 226.90188 
L 310.652459 219.619511 
L 317.482178 212.788817 
L 323.530486 206.357114 
L 328.924233 200.280415 
L 333.764221 194.521622 
L 338.131565 189.049156 
L 342.092276 183.835917 
L 345.700618 178.858476 
L 349.001611 174.096441 
L 352.032921 169.531952 
L 354.826299 165.149283 
L 357.408701 160.934512 
L 359.803159 156.875256 
L 362.029469 152.960451 
L 364.104743 149.180176 
L 366.043846 145.525495 
L 367.859756 141.988335 
L 369.56385 138.561375 
L 371.166147 135.23796 
L 372.675506 132.012016 
L 374.099783 128.877993 
L 375.445976 125.830797 
L 376.720335 122.865749 
L 377.928459 119.978537 
L 379.075383 117.16518 
L 380.165641 114.421995 
L 381.203332 111.745567 
L 382.192167 109.132725 
L 383.135519 106.580518 
L 384.036454 104.086196 
L 384.897771 101.647194 
L 385.722026 99.261109 
L 386.511562 96.925696 
L 387.268526 94.638847 
L 387.994894 92.398584 
L 388.692484 90.203047 
L 389.362972 88.050486 
L 390.007909 85.93925 
L 390.628727 83.867783 
L 391.226754 81.834614 
L 391.803224 79.838354 
L 392.35928 77.877686 
L 392.895989 75.951364 
L 393.414342 74.058205 
L 393.915267 72.197086 
L 394.399626 70.366942 
L 394.868229 68.566758 
L 395.321832 66.795569 
L 395.761144 65.052457 
L 396.186829 63.336544 
L 396.599513 61.646996 
L 396.999781 59.983014 
L 397.388187 58.343837 
L 397.765248 56.728735 
L 398.131456 55.137011 
L 398.487273 53.568 
" clip-path="url(#p63bd4e5c82)" style="fill: none; stroke-dasharray: 5.55,2.4; stroke-dashoffset: 0; stroke: #0000ff; stroke-opacity: 0.5; stroke-width: 1.5"/>
   </g>
   <g id="patch_3">
    <path d="M 57.6 307.584 
L 57.6 41.472 
" style="fill: none; stroke: #000000; stroke-width: 0.8; stroke-linejoin: miter; stroke-linecap: square"/>
   </g>
   <g id="patch_4">
    <path d="M 57.6 307.584 
L 414.72 307.584 
" style="fill: none; stroke: #000000; stroke-width: 0.8; stroke-linejoin: miter; stroke-linecap: square"/>
   </g>
   <g id="text_14">
    <!-- $C_{so}$ Vs Magnification -->
    <g transform="translate(181.32 35.472) scale(0.12 -0.12)">
     <defs>
      <path id="Helvetica-56" d="M 850 4591 
L 2169 681 
L 3472 4591 
L 4169 4591 
L 2494 0 
L 1834 0 
L 163 4591 
L 850 4591 
z
" transform="scale(0.015625)"/>
     </defs>
     <use xlink:href="#DejaVuSans-Oblique-43" transform="translate(0 0.78125)"/>
     <use xlink:href="#DejaVuSans-Oblique-73" transform="translate(69.824219 -15.625) scale(0.7)"/>
     <use xlink:href="#DejaVuSans-Oblique-6f" transform="translate(106.293945 -15.625) scale(0.7)"/>
     <use xlink:href="#Helvetica-20" transform="translate(151.855469 0.78125)"/>
     <use xlink:href="#Helvetica-56" transform="translate(179.638672 0.78125)"/>
     <use xlink:href="#Helvetica-73" transform="translate(246.337891 0.78125)"/>
     <use xlink:href="#Helvetica-20" transform="translate(296.337891 0.78125)"/>
     <use xlink:href="#Helvetica-4d" transform="translate(324.121094 0.78125)"/>
     <use xlink:href="#Helvetica-61" transform="translate(407.421875 0.78125)"/>
     <use xlink:href="#Helvetica-67" transform="translate(463.037109 0.78125)"/>
     <use xlink:href="#Helvetica-6e" transform="translate(518.652344 0.78125)"/>
     <use xlink:href="#Helvetica-69" transform="translate(574.267578 0.78125)"/>
     <use xlink:href="#Helvetica-66" transform="translate(596.484375 0.78125)"/>
     <use xlink:href="#Helvetica-69" transform="translate(624.267578 0.78125)"/>
     <use xlink:href="#Helvetica-63" transform="translate(646.484375 0.78125)"/>
     <use xlink:href="#Helvetica-61" transform="translate(696.484375 0.78125)"/>
     <use xlink:href="#Helvetica-74" transform="translate(752.099609 0.78125)"/>
     <use xlink:href="#Helvetica-69" transform="translate(779.882812 0.78125)"/>
     <use xlink:href="#Helvetica-6f" transform="translate(802.099609 0.78125)"/>
     <use xlink:href="#Helvetica-6e" transform="translate(857.714844 0.78125)"/>
    </g>
   </g>
   <g id="legend_1">
    <g id="patch_5">
     <path d="M 64.6 136.472 
L 227.5 136.472 
Q 229.5 136.472 229.5 134.472 
L 229.5 48.472 
Q 229.5 46.472 227.5 46.472 
L 64.6 46.472 
Q 62.6 46.472 62.6 48.472 
L 62.6 134.472 
Q 62.6 136.472 64.6 136.472 
z
" style="fill: #ffffff; opacity: 0.8; stroke: #cccccc; stroke-linejoin: miter"/>
    </g>
    <g id="line2d_18">
     <path d="M 66.6 54.187625 
L 76.6 54.187625 
L 86.6 54.187625 
" style="fill: none; stroke: #ff0000; stroke-width: 1.5; stroke-linecap: square"/>
    </g>
    <g id="text_15">
     <!-- $U_L/U_0 = 0.8$ - Real $C_{so}$ -->
     <g transform="translate(94.6 57.687625) scale(0.1 -0.1)">
      <defs>
       <path id="DejaVuSans-Oblique-55" d="M 991 4666 
L 1625 4666 
L 1075 1831 
Q 1041 1641 1027 1517 
Q 1013 1394 1013 1300 
Q 1013 869 1253 645 
Q 1494 422 1959 422 
Q 2563 422 2898 753 
Q 3234 1084 3378 1831 
L 3928 4666 
L 4563 4666 
L 4000 1753 
Q 3816 809 3300 359 
Q 2784 -91 1888 -91 
Q 1188 -91 780 261 
Q 372 613 372 1216 
Q 372 1325 387 1461 
Q 403 1597 434 1753 
L 991 4666 
z
" transform="scale(0.015625)"/>
       <path id="DejaVuSans-Oblique-4c" d="M 1075 4666 
L 1709 4666 
L 909 525 
L 3181 525 
L 3078 0 
L 172 0 
L 1075 4666 
z
" transform="scale(0.015625)"/>
       <path id="DejaVuSans-2f" d="M 1625 4666 
L 2156 4666 
L 531 -594 
L 0 -594 
L 1625 4666 
z
" transform="scale(0.015625)"/>
       <path id="DejaVuSans-30" d="M 2034 4250 
Q 1547 4250 1301 3770 
Q 1056 3291 1056 2328 
Q 1056 1369 1301 889 
Q 1547 409 2034 409 
Q 2525 409 2770 889 
Q 3016 1369 3016 2328 
Q 3016 3291 2770 3770 
Q 2525 4250 2034 4250 
z
M 2034 4750 
Q 2819 4750 3233 4129 
Q 3647 3509 3647 2328 
Q 3647 1150 3233 529 
Q 2819 -91 2034 -91 
Q 1250 -91 836 529 
Q 422 1150 422 2328 
Q 422 3509 836 4129 
Q 1250 4750 2034 4750 
z
" transform="scale(0.015625)"/>
       <path id="DejaVuSans-3d" d="M 678 2906 
L 4684 2906 
L 4684 2381 
L 678 2381 
L 678 2906 
z
M 678 1631 
L 4684 1631 
L 4684 1100 
L 678 1100 
L 678 1631 
z
" transform="scale(0.015625)"/>
       <path id="DejaVuSans-2e" d="M 684 794 
L 1344 794 
L 1344 0 
L 684 0 
L 684 794 
z
" transform="scale(0.015625)"/>
       <path id="DejaVuSans-38" d="M 2034 2216 
Q 1584 2216 1326 1975 
Q 1069 1734 1069 1313 
Q 1069 891 1326 650 
Q 1584 409 2034 409 
Q 2484 409 2743 651 
Q 3003 894 3003 1313 
Q 3003 1734 2745 1975 
Q 2488 2216 2034 2216 
z
M 1403 2484 
Q 997 2584 770 2862 
Q 544 3141 544 3541 
Q 544 4100 942 4425 
Q 1341 4750 2034 4750 
Q 2731 4750 3128 4425 
Q 3525 4100 3525 3541 
Q 3525 3141 3298 2862 
Q 3072 2584 2669 2484 
Q 3125 2378 3379 2068 
Q 3634 1759 3634 1313 
Q 3634 634 3220 271 
Q 2806 -91 2034 -91 
Q 1263 -91 848 271 
Q 434 634 434 1313 
Q 434 1759 690 2068 
Q 947 2378 1403 2484 
z
M 1172 3481 
Q 1172 3119 1398 2916 
Q 1625 2713 2034 2713 
Q 2441 2713 2670 2916 
Q 2900 3119 2900 3481 
Q 2900 3844 2670 4047 
Q 2441 4250 2034 4250 
Q 1625 4250 1398 4047 
Q 1172 3844 1172 3481 
z
" transform="scale(0.015625)"/>
       <path id="Helvetica-2d" d="M 266 2072 
L 1834 2072 
L 1834 1494 
L 266 1494 
L 266 2072 
z
" transform="scale(0.015625)"/>
      </defs>
      <use xlink:href="#DejaVuSans-Oblique-55" transform="translate(0 0.78125)"/>
      <use xlink:href="#DejaVuSans-Oblique-4c" transform="translate(73.193359 -15.625) scale(0.7)"/>
      <use xlink:href="#DejaVuSans-2f" transform="translate(114.926758 0.78125)"/>
      <use xlink:href="#DejaVuSans-Oblique-55" transform="translate(148.618164 0.78125)"/>
      <use xlink:href="#DejaVuSans-30" transform="translate(221.811523 -15.625) scale(0.7)"/>
      <use xlink:href="#DejaVuSans-3d" transform="translate(288.564453 0.78125)"/>
      <use xlink:href="#DejaVuSans-30" transform="translate(391.835938 0.78125)"/>
      <use xlink:href="#DejaVuSans-2e" transform="translate(455.458984 0.78125)"/>
      <use xlink:href="#DejaVuSans-38" transform="translate(484.621094 0.78125)"/>
      <use xlink:href="#Helvetica-20" transform="translate(548.244141 0.78125)"/>
      <use xlink:href="#Helvetica-2d" transform="translate(576.027344 0.78125)"/>
      <use xlink:href="#Helvetica-20" transform="translate(609.328125 0.78125)"/>
      <use xlink:href="#Helvetica-52" transform="translate(637.111328 0.78125)"/>
      <use xlink:href="#Helvetica-65" transform="translate(709.328125 0.78125)"/>
      <use xlink:href="#Helvetica-61" transform="translate(764.943359 0.78125)"/>
      <use xlink:href="#Helvetica-6c" transform="translate(820.558594 0.78125)"/>
      <use xlink:href="#Helvetica-20" transform="translate(842.775391 0.78125)"/>
      <use xlink:href="#DejaVuSans-Oblique-43" transform="translate(870.558594 0.78125)"/>
      <use xlink:href="#DejaVuSans-Oblique-73" transform="translate(940.382812 -15.625) scale(0.7)"/>
      <use xlink:href="#DejaVuSans-Oblique-6f" transform="translate(976.852539 -15.625) scale(0.7)"/>
     </g>
    </g>
    <g id="line2d_19">
     <path d="M 66.6 68.772 
L 76.6 68.772 
L 86.6 68.772 
" style="fill: none; stroke-dasharray: 5.55,2.4; stroke-dashoffset: 0; stroke: #ff0000; stroke-opacity: 0.5; stroke-width: 1.5"/>
    </g>
    <g id="text_16">
     <!-- $U_L/U_0 = 0.8$ - Asymptotic $C_{so}$ -->
     <g transform="translate(94.6 72.272) scale(0.1 -0.1)">
      <use xlink:href="#DejaVuSans-Oblique-55" transform="translate(0 0.78125)"/>
      <use xlink:href="#DejaVuSans-Oblique-4c" transform="translate(73.193359 -15.625) scale(0.7)"/>
      <use xlink:href="#DejaVuSans-2f" transform="translate(114.926758 0.78125)"/>
      <use xlink:href="#DejaVuSans-Oblique-55" transform="translate(148.618164 0.78125)"/>
      <use xlink:href="#DejaVuSans-30" transform="translate(221.811523 -15.625) scale(0.7)"/>
      <use xlink:href="#DejaVuSans-3d" transform="translate(288.564453 0.78125)"/>
      <use xlink:href="#DejaVuSans-30" transform="translate(391.835938 0.78125)"/>
      <use xlink:href="#DejaVuSans-2e" transform="translate(455.458984 0.78125)"/>
      <use xlink:href="#DejaVuSans-38" transform="translate(484.621094 0.78125)"/>
      <use xlink:href="#Helvetica-20" transform="translate(548.244141 0.78125)"/>
      <use xlink:href="#Helvetica-2d" transform="translate(576.027344 0.78125)"/>
      <use xlink:href="#Helvetica-20" transform="translate(609.328125 0.78125)"/>
      <use xlink:href="#Helvetica-41" transform="translate(637.111328 0.78125)"/>
      <use xlink:href="#Helvetica-73" transform="translate(703.810547 0.78125)"/>
      <use xlink:href="#Helvetica-79" transform="translate(753.810547 0.78125)"/>
      <use xlink:href="#Helvetica-6d" transform="translate(803.810547 0.78125)"/>
      <use xlink:href="#Helvetica-70" transform="translate(887.111328 0.78125)"/>
      <use xlink:href="#Helvetica-74" transform="translate(942.726562 0.78125)"/>
      <use xlink:href="#Helvetica-6f" transform="translate(970.509766 0.78125)"/>
      <use xlink:href="#Helvetica-74" transform="translate(1026.125 0.78125)"/>
      <use xlink:href="#Helvetica-69" transform="translate(1053.908203 0.78125)"/>
      <use xlink:href="#Helvetica-63" transform="translate(1076.125 0.78125)"/>
      <use xlink:href="#Helvetica-20" transform="translate(1126.125 0.78125)"/>
      <use xlink:href="#DejaVuSans-Oblique-43" transform="translate(1153.908203 0.78125)"/>
      <use xlink:href="#DejaVuSans-Oblique-73" transform="translate(1223.732422 -15.625) scale(0.7)"/>
      <use xlink:href="#DejaVuSans-Oblique-6f" transform="translate(1260.202148 -15.625) scale(0.7)"/>
     </g>
    </g>
    <g id="line2d_20">
     <path d="M 66.6 83.187625 
L 76.6 83.187625 
L 86.6 83.187625 
" style="fill: none; stroke: #008000; stroke-width: 1.5; stroke-linecap: square"/>
    </g>
    <g id="text_17">
     <!-- $U_L/U_0 = 0.9$ - Real $C_{so}$ -->
     <g transform="translate(94.6 86.687625) scale(0.1 -0.1)">
      <defs>
       <path id="DejaVuSans-39" d="M 703 97 
L 703 672 
Q 941 559 1184 500 
Q 1428 441 1663 441 
Q 2288 441 2617 861 
Q 2947 1281 2994 2138 
Q 2813 1869 2534 1725 
Q 2256 1581 1919 1581 
Q 1219 1581 811 2004 
Q 403 2428 403 3163 
Q 403 3881 828 4315 
Q 1253 4750 1959 4750 
Q 2769 4750 3195 4129 
Q 3622 3509 3622 2328 
Q 3622 1225 3098 567 
Q 2575 -91 1691 -91 
Q 1453 -91 1209 -44 
Q 966 3 703 97 
z
M 1959 2075 
Q 2384 2075 2632 2365 
Q 2881 2656 2881 3163 
Q 2881 3666 2632 3958 
Q 2384 4250 1959 4250 
Q 1534 4250 1286 3958 
Q 1038 3666 1038 3163 
Q 1038 2656 1286 2365 
Q 1534 2075 1959 2075 
z
" transform="scale(0.015625)"/>
      </defs>
      <use xlink:href="#DejaVuSans-Oblique-55" transform="translate(0 0.78125)"/>
      <use xlink:href="#DejaVuSans-Oblique-4c" transform="translate(73.193359 -15.625) scale(0.7)"/>
      <use xlink:href="#DejaVuSans-2f" transform="translate(114.926758 0.78125)"/>
      <use xlink:href="#DejaVuSans-Oblique-55" transform="translate(148.618164 0.78125)"/>
      <use xlink:href="#DejaVuSans-30" transform="translate(221.811523 -15.625) scale(0.7)"/>
      <use xlink:href="#DejaVuSans-3d" transform="translate(288.564453 0.78125)"/>
      <use xlink:href="#DejaVuSans-30" transform="translate(391.835938 0.78125)"/>
      <use xlink:href="#DejaVuSans-2e" transform="translate(455.458984 0.78125)"/>
      <use xlink:href="#DejaVuSans-39" transform="translate(487.246094 0.78125)"/>
      <use xlink:href="#Helvetica-20" transform="translate(550.869141 0.78125)"/>
      <use xlink:href="#Helvetica-2d" transform="translate(578.652344 0.78125)"/>
      <use xlink:href="#Helvetica-20" transform="translate(611.953125 0.78125)"/>
      <use xlink:href="#Helvetica-52" transform="translate(639.736328 0.78125)"/>
      <use xlink:href="#Helvetica-65" transform="translate(711.953125 0.78125)"/>
      <use xlink:href="#Helvetica-61" transform="translate(767.568359 0.78125)"/>
      <use xlink:href="#Helvetica-6c" transform="translate(823.183594 0.78125)"/>
      <use xlink:href="#Helvetica-20" transform="translate(845.400391 0.78125)"/>
      <use xlink:href="#DejaVuSans-Oblique-43" transform="translate(873.183594 0.78125)"/>
      <use xlink:href="#DejaVuSans-Oblique-73" transform="translate(943.007812 -15.625) scale(0.7)"/>
      <use xlink:href="#DejaVuSans-Oblique-6f" transform="translate(979.477539 -15.625) scale(0.7)"/>
     </g>
    </g>
    <g id="line2d_21">
     <path d="M 66.6 97.772 
L 76.6 97.772 
L 86.6 97.772 
" style="fill: none; stroke-dasharray: 5.55,2.4; stroke-dashoffset: 0; stroke: #008000; stroke-opacity: 0.5; stroke-width: 1.5"/>
    </g>
    <g id="text_18">
     <!-- $U_L/U_0 = 0.9$ - Asymptotic $C_{so}$ -->
     <g transform="translate(94.6 101.272) scale(0.1 -0.1)">
      <use xlink:href="#DejaVuSans-Oblique-55" transform="translate(0 0.78125)"/>
      <use xlink:href="#DejaVuSans-Oblique-4c" transform="translate(73.193359 -15.625) scale(0.7)"/>
      <use xlink:href="#DejaVuSans-2f" transform="translate(114.926758 0.78125)"/>
      <use xlink:href="#DejaVuSans-Oblique-55" transform="translate(148.618164 0.78125)"/>
      <use xlink:href="#DejaVuSans-30" transform="translate(221.811523 -15.625) scale(0.7)"/>
      <use xlink:href="#DejaVuSans-3d" transform="translate(288.564453 0.78125)"/>
      <use xlink:href="#DejaVuSans-30" transform="translate(391.835938 0.78125)"/>
      <use xlink:href="#DejaVuSans-2e" transform="translate(455.458984 0.78125)"/>
      <use xlink:href="#DejaVuSans-39" transform="translate(487.246094 0.78125)"/>
      <use xlink:href="#Helvetica-20" transform="translate(550.869141 0.78125)"/>
      <use xlink:href="#Helvetica-2d" transform="translate(578.652344 0.78125)"/>
      <use xlink:href="#Helvetica-20" transform="translate(611.953125 0.78125)"/>
      <use xlink:href="#Helvetica-41" transform="translate(639.736328 0.78125)"/>
      <use xlink:href="#Helvetica-73" transform="translate(706.435547 0.78125)"/>
      <use xlink:href="#Helvetica-79" transform="translate(756.435547 0.78125)"/>
      <use xlink:href="#Helvetica-6d" transform="translate(806.435547 0.78125)"/>
      <use xlink:href="#Helvetica-70" transform="translate(889.736328 0.78125)"/>
      <use xlink:href="#Helvetica-74" transform="translate(945.351562 0.78125)"/>
      <use xlink:href="#Helvetica-6f" transform="translate(973.134766 0.78125)"/>
      <use xlink:href="#Helvetica-74" transform="translate(1028.75 0.78125)"/>
      <use xlink:href="#Helvetica-69" transform="translate(1056.533203 0.78125)"/>
      <use xlink:href="#Helvetica-63" transform="translate(1078.75 0.78125)"/>
      <use xlink:href="#Helvetica-20" transform="translate(1128.75 0.78125)"/>
      <use xlink:href="#DejaVuSans-Oblique-43" transform="translate(1156.533203 0.78125)"/>
      <use xlink:href="#DejaVuSans-Oblique-73" transform="translate(1226.357422 -15.625) scale(0.7)"/>
      <use xlink:href="#DejaVuSans-Oblique-6f" transform="translate(1262.827148 -15.625) scale(0.7)"/>
     </g>
    </g>
    <g id="line2d_22">
     <path d="M 66.6 112.187625 
L 76.6 112.187625 
L 86.6 112.187625 
" style="fill: none; stroke: #0000ff; stroke-width: 1.5; stroke-linecap: square"/>
    </g>
    <g id="text_19">
     <!-- $U_L/U_0 = 1.0$ - Real $C_{so}$ -->
     <g transform="translate(94.6 115.687625) scale(0.1 -0.1)">
      <defs>
       <path id="DejaVuSans-31" d="M 794 531 
L 1825 531 
L 1825 4091 
L 703 3866 
L 703 4441 
L 1819 4666 
L 2450 4666 
L 2450 531 
L 3481 531 
L 3481 0 
L 794 0 
L 794 531 
z
" transform="scale(0.015625)"/>
      </defs>
      <use xlink:href="#DejaVuSans-Oblique-55" transform="translate(0 0.78125)"/>
      <use xlink:href="#DejaVuSans-Oblique-4c" transform="translate(73.193359 -15.625) scale(0.7)"/>
      <use xlink:href="#DejaVuSans-2f" transform="translate(114.926758 0.78125)"/>
      <use xlink:href="#DejaVuSans-Oblique-55" transform="translate(148.618164 0.78125)"/>
      <use xlink:href="#DejaVuSans-30" transform="translate(221.811523 -15.625) scale(0.7)"/>
      <use xlink:href="#DejaVuSans-3d" transform="translate(288.564453 0.78125)"/>
      <use xlink:href="#DejaVuSans-31" transform="translate(391.835938 0.78125)"/>
      <use xlink:href="#DejaVuSans-2e" transform="translate(455.458984 0.78125)"/>
      <use xlink:href="#DejaVuSans-30" transform="translate(487.246094 0.78125)"/>
      <use xlink:href="#Helvetica-20" transform="translate(550.869141 0.78125)"/>
      <use xlink:href="#Helvetica-2d" transform="translate(578.652344 0.78125)"/>
      <use xlink:href="#Helvetica-20" transform="translate(611.953125 0.78125)"/>
      <use xlink:href="#Helvetica-52" transform="translate(639.736328 0.78125)"/>
      <use xlink:href="#Helvetica-65" transform="translate(711.953125 0.78125)"/>
      <use xlink:href="#Helvetica-61" transform="translate(767.568359 0.78125)"/>
      <use xlink:href="#Helvetica-6c" transform="translate(823.183594 0.78125)"/>
      <use xlink:href="#Helvetica-20" transform="translate(845.400391 0.78125)"/>
      <use xlink:href="#DejaVuSans-Oblique-43" transform="translate(873.183594 0.78125)"/>
      <use xlink:href="#DejaVuSans-Oblique-73" transform="translate(943.007812 -15.625) scale(0.7)"/>
      <use xlink:href="#DejaVuSans-Oblique-6f" transform="translate(979.477539 -15.625) scale(0.7)"/>
     </g>
    </g>
    <g id="line2d_23">
     <path d="M 66.6 126.772 
L 76.6 126.772 
L 86.6 126.772 
" style="fill: none; stroke-dasharray: 5.55,2.4; stroke-dashoffset: 0; stroke: #0000ff; stroke-opacity: 0.5; stroke-width: 1.5"/>
    </g>
    <g id="text_20">
     <!-- $U_L/U_0 = 1.0$ - Asymptotic $C_{so}$ -->
     <g transform="translate(94.6 130.272) scale(0.1 -0.1)">
      <use xlink:href="#DejaVuSans-Oblique-55" transform="translate(0 0.78125)"/>
      <use xlink:href="#DejaVuSans-Oblique-4c" transform="translate(73.193359 -15.625) scale(0.7)"/>
      <use xlink:href="#DejaVuSans-2f" transform="translate(114.926758 0.78125)"/>
      <use xlink:href="#DejaVuSans-Oblique-55" transform="translate(148.618164 0.78125)"/>
      <use xlink:href="#DejaVuSans-30" transform="translate(221.811523 -15.625) scale(0.7)"/>
      <use xlink:href="#DejaVuSans-3d" transform="translate(288.564453 0.78125)"/>
      <use xlink:href="#DejaVuSans-31" transform="translate(391.835938 0.78125)"/>
      <use xlink:href="#DejaVuSans-2e" transform="translate(455.458984 0.78125)"/>
      <use xlink:href="#DejaVuSans-30" transform="translate(487.246094 0.78125)"/>
      <use xlink:href="#Helvetica-20" transform="translate(550.869141 0.78125)"/>
      <use xlink:href="#Helvetica-2d" transform="translate(578.652344 0.78125)"/>
      <use xlink:href="#Helvetica-20" transform="translate(611.953125 0.78125)"/>
      <use xlink:href="#Helvetica-41" transform="translate(639.736328 0.78125)"/>
      <use xlink:href="#Helvetica-73" transform="translate(706.435547 0.78125)"/>
      <use xlink:href="#Helvetica-79" transform="translate(756.435547 0.78125)"/>
      <use xlink:href="#Helvetica-6d" transform="translate(806.435547 0.78125)"/>
      <use xlink:href="#Helvetica-70" transform="translate(889.736328 0.78125)"/>
      <use xlink:href="#Helvetica-74" transform="translate(945.351562 0.78125)"/>
      <use xlink:href="#Helvetica-6f" transform="translate(973.134766 0.78125)"/>
      <use xlink:href="#Helvetica-74" transform="translate(1028.75 0.78125)"/>
      <use xlink:href="#Helvetica-69" transform="translate(1056.533203 0.78125)"/>
      <use xlink:href="#Helvetica-63" transform="translate(1078.75 0.78125)"/>
      <use xlink:href="#Helvetica-20" transform="translate(1128.75 0.78125)"/>
      <use xlink:href="#DejaVuSans-Oblique-43" transform="translate(1156.533203 0.78125)"/>
      <use xlink:href="#DejaVuSans-Oblique-73" transform="translate(1226.357422 -15.625) scale(0.7)"/>
      <use xlink:href="#DejaVuSans-Oblique-6f" transform="translate(1262.827148 -15.625) scale(0.7)"/>
     </g>
    </g>
   </g>
  </g>
 </g>
 <defs>
  <clipPath id="p63bd4e5c82">
   <rect x="57.6" y="41.472" width="357.12" height="266.112"/>
  </clipPath>
 </defs>
</svg>
