<?xml version="1.0" encoding="utf-8" standalone="no"?>
<!DOCTYPE svg PUBLIC "-//W3C//DTD SVG 1.1//EN"
  "http://www.w3.org/Graphics/SVG/1.1/DTD/svg11.dtd">
<svg xmlns:xlink="http://www.w3.org/1999/xlink" width="460.8pt" height="345.6pt" viewBox="0 0 460.8 345.6" xmlns="http://www.w3.org/2000/svg" version="1.1">
 <metadata>
  <rdf:RDF xmlns:dc="http://purl.org/dc/elements/1.1/" xmlns:cc="http://creativecommons.org/ns#" xmlns:rdf="http://www.w3.org/1999/02/22-rdf-syntax-ns#">
   <cc:Work>
    <dc:type rdf:resource="http://purl.org/dc/dcmitype/StillImage"/>
    <dc:date>2023-02-03T00:01:11.495585</dc:date>
    <dc:format>image/svg+xml</dc:format>
    <dc:creator>
     <cc:Agent>
      <dc:title>Matplotlib v3.6.3, https://matplotlib.org/</dc:title>
     </cc:Agent>
    </dc:creator>
   </cc:Work>
  </rdf:RDF>
 </metadata>
 <defs>
  <style type="text/css">*{stroke-linejoin: round; stroke-linecap: butt}</style>
 </defs>
 <g id="figure_1">
  <g id="patch_1">
   <path d="M 0 345.6 
L 460.8 345.6 
L 460.8 0 
L 0 0 
z
" style="fill: #ffffff"/>
  </g>
  <g id="axes_1">
   <g id="patch_2">
    <path d="M 57.6 307.584 
L 414.72 307.584 
L 414.72 41.472 
L 57.6 41.472 
z
" style="fill: #ffffff"/>
   </g>
   <g id="matplotlib.axis_1">
    <g id="xtick_1">
     <g id="line2d_1">
      <defs>
       <path id="mef489d688c" d="M 0 0 
L 0 3.5 
" style="stroke: #000000; stroke-width: 0.8"/>
      </defs>
      <g>
       <use xlink:href="#mef489d688c" x="92.018173" y="307.584" style="stroke: #000000; stroke-width: 0.8"/>
      </g>
     </g>
     <g id="text_1">
      <!-- −0.14 -->
      <g transform="translate(79.367392 321.757437) scale(0.1 -0.1)">
       <defs>
        <path id="Helvetica-2212" d="M 3547 1894 
L 3547 1369 
L 288 1369 
L 288 1894 
L 3547 1894 
z
" transform="scale(0.015625)"/>
        <path id="Helvetica-30" d="M 1731 4475 
Q 2600 4475 2988 3759 
Q 3288 3206 3288 2244 
Q 3288 1331 3016 734 
Q 2622 -122 1728 -122 
Q 922 -122 528 578 
Q 200 1163 200 2147 
Q 200 2909 397 3456 
Q 766 4475 1731 4475 
z
M 1725 391 
Q 2163 391 2422 778 
Q 2681 1166 2681 2222 
Q 2681 2984 2493 3476 
Q 2306 3969 1766 3969 
Q 1269 3969 1039 3501 
Q 809 3034 809 2125 
Q 809 1441 956 1025 
Q 1181 391 1725 391 
z
" transform="scale(0.015625)"/>
        <path id="Helvetica-2e" d="M 547 681 
L 1200 681 
L 1200 0 
L 547 0 
L 547 681 
z
" transform="scale(0.015625)"/>
        <path id="Helvetica-31" d="M 613 3169 
L 613 3600 
Q 1222 3659 1462 3798 
Q 1703 3938 1822 4456 
L 2266 4456 
L 2266 0 
L 1666 0 
L 1666 3169 
L 613 3169 
z
" transform="scale(0.015625)"/>
        <path id="Helvetica-34" d="M 2116 1584 
L 2116 3613 
L 681 1584 
L 2116 1584 
z
M 2125 0 
L 2125 1094 
L 163 1094 
L 163 1644 
L 2213 4488 
L 2688 4488 
L 2688 1584 
L 3347 1584 
L 3347 1094 
L 2688 1094 
L 2688 0 
L 2125 0 
z
" transform="scale(0.015625)"/>
       </defs>
       <use xlink:href="#Helvetica-2212"/>
       <use xlink:href="#Helvetica-30" x="58.398438"/>
       <use xlink:href="#Helvetica-2e" x="114.013672"/>
       <use xlink:href="#Helvetica-31" x="141.796875"/>
       <use xlink:href="#Helvetica-34" x="197.412109"/>
      </g>
     </g>
    </g>
    <g id="xtick_2">
     <g id="line2d_2">
      <g>
       <use xlink:href="#mef489d688c" x="139.296285" y="307.584" style="stroke: #000000; stroke-width: 0.8"/>
      </g>
     </g>
     <g id="text_2">
      <!-- −0.12 -->
      <g transform="translate(126.645504 321.757437) scale(0.1 -0.1)">
       <defs>
        <path id="Helvetica-32" d="M 200 0 
Q 231 578 439 1006 
Q 647 1434 1250 1784 
L 1850 2131 
Q 2253 2366 2416 2531 
Q 2672 2791 2672 3125 
Q 2672 3516 2437 3745 
Q 2203 3975 1813 3975 
Q 1234 3975 1013 3538 
Q 894 3303 881 2888 
L 309 2888 
Q 319 3472 525 3841 
Q 891 4491 1816 4491 
Q 2584 4491 2939 4075 
Q 3294 3659 3294 3150 
Q 3294 2613 2916 2231 
Q 2697 2009 2131 1694 
L 1703 1456 
Q 1397 1288 1222 1134 
Q 909 863 828 531 
L 3272 531 
L 3272 0 
L 200 0 
z
" transform="scale(0.015625)"/>
       </defs>
       <use xlink:href="#Helvetica-2212"/>
       <use xlink:href="#Helvetica-30" x="58.398438"/>
       <use xlink:href="#Helvetica-2e" x="114.013672"/>
       <use xlink:href="#Helvetica-31" x="141.796875"/>
       <use xlink:href="#Helvetica-32" x="197.412109"/>
      </g>
     </g>
    </g>
    <g id="xtick_3">
     <g id="line2d_3">
      <g>
       <use xlink:href="#mef489d688c" x="186.574398" y="307.584" style="stroke: #000000; stroke-width: 0.8"/>
      </g>
     </g>
     <g id="text_3">
      <!-- −0.10 -->
      <g transform="translate(173.923617 321.757437) scale(0.1 -0.1)">
       <use xlink:href="#Helvetica-2212"/>
       <use xlink:href="#Helvetica-30" x="58.398438"/>
       <use xlink:href="#Helvetica-2e" x="114.013672"/>
       <use xlink:href="#Helvetica-31" x="141.796875"/>
       <use xlink:href="#Helvetica-30" x="197.412109"/>
      </g>
     </g>
    </g>
    <g id="xtick_4">
     <g id="line2d_4">
      <g>
       <use xlink:href="#mef489d688c" x="233.852511" y="307.584" style="stroke: #000000; stroke-width: 0.8"/>
      </g>
     </g>
     <g id="text_4">
      <!-- −0.08 -->
      <g transform="translate(221.201729 321.757437) scale(0.1 -0.1)">
       <defs>
        <path id="Helvetica-38" d="M 1741 2600 
Q 2113 2600 2322 2808 
Q 2531 3016 2531 3303 
Q 2531 3553 2331 3762 
Q 2131 3972 1722 3972 
Q 1316 3972 1134 3762 
Q 953 3553 953 3272 
Q 953 2956 1187 2778 
Q 1422 2600 1741 2600 
z
M 1775 384 
Q 2166 384 2423 595 
Q 2681 806 2681 1225 
Q 2681 1659 2415 1884 
Q 2150 2109 1734 2109 
Q 1331 2109 1076 1879 
Q 822 1650 822 1244 
Q 822 894 1055 639 
Q 1288 384 1775 384 
z
M 975 2384 
Q 741 2484 609 2619 
Q 363 2869 363 3269 
Q 363 3769 725 4128 
Q 1088 4488 1753 4488 
Q 2397 4488 2762 4148 
Q 3128 3809 3128 3356 
Q 3128 2938 2916 2678 
Q 2797 2531 2547 2391 
Q 2825 2263 2984 2097 
Q 3281 1784 3281 1284 
Q 3281 694 2884 283 
Q 2488 -128 1763 -128 
Q 1109 -128 657 226 
Q 206 581 206 1256 
Q 206 1653 400 1942 
Q 594 2231 975 2384 
z
" transform="scale(0.015625)"/>
       </defs>
       <use xlink:href="#Helvetica-2212"/>
       <use xlink:href="#Helvetica-30" x="58.398438"/>
       <use xlink:href="#Helvetica-2e" x="114.013672"/>
       <use xlink:href="#Helvetica-30" x="141.796875"/>
       <use xlink:href="#Helvetica-38" x="197.412109"/>
      </g>
     </g>
    </g>
    <g id="xtick_5">
     <g id="line2d_5">
      <g>
       <use xlink:href="#mef489d688c" x="281.130623" y="307.584" style="stroke: #000000; stroke-width: 0.8"/>
      </g>
     </g>
     <g id="text_5">
      <!-- −0.06 -->
      <g transform="translate(268.479842 321.757437) scale(0.1 -0.1)">
       <defs>
        <path id="Helvetica-36" d="M 1872 4494 
Q 2622 4494 2917 4105 
Q 3213 3716 3213 3303 
L 2656 3303 
Q 2606 3569 2497 3719 
Q 2294 4000 1881 4000 
Q 1409 4000 1131 3564 
Q 853 3128 822 2316 
Q 1016 2600 1309 2741 
Q 1578 2866 1909 2866 
Q 2472 2866 2890 2506 
Q 3309 2147 3309 1434 
Q 3309 825 2912 354 
Q 2516 -116 1781 -116 
Q 1153 -116 697 361 
Q 241 838 241 1966 
Q 241 2800 444 3381 
Q 834 4494 1872 4494 
z
M 1831 384 
Q 2275 384 2495 682 
Q 2716 981 2716 1388 
Q 2716 1731 2519 2042 
Q 2322 2353 1803 2353 
Q 1441 2353 1167 2112 
Q 894 1872 894 1388 
Q 894 963 1142 673 
Q 1391 384 1831 384 
z
" transform="scale(0.015625)"/>
       </defs>
       <use xlink:href="#Helvetica-2212"/>
       <use xlink:href="#Helvetica-30" x="58.398438"/>
       <use xlink:href="#Helvetica-2e" x="114.013672"/>
       <use xlink:href="#Helvetica-30" x="141.796875"/>
       <use xlink:href="#Helvetica-36" x="197.412109"/>
      </g>
     </g>
    </g>
    <g id="xtick_6">
     <g id="line2d_6">
      <g>
       <use xlink:href="#mef489d688c" x="328.408736" y="307.584" style="stroke: #000000; stroke-width: 0.8"/>
      </g>
     </g>
     <g id="text_6">
      <!-- −0.04 -->
      <g transform="translate(315.757955 321.757437) scale(0.1 -0.1)">
       <use xlink:href="#Helvetica-2212"/>
       <use xlink:href="#Helvetica-30" x="58.398438"/>
       <use xlink:href="#Helvetica-2e" x="114.013672"/>
       <use xlink:href="#Helvetica-30" x="141.796875"/>
       <use xlink:href="#Helvetica-34" x="197.412109"/>
      </g>
     </g>
    </g>
    <g id="xtick_7">
     <g id="line2d_7">
      <g>
       <use xlink:href="#mef489d688c" x="375.686848" y="307.584" style="stroke: #000000; stroke-width: 0.8"/>
      </g>
     </g>
     <g id="text_7">
      <!-- −0.02 -->
      <g transform="translate(363.036067 321.757437) scale(0.1 -0.1)">
       <use xlink:href="#Helvetica-2212"/>
       <use xlink:href="#Helvetica-30" x="58.398438"/>
       <use xlink:href="#Helvetica-2e" x="114.013672"/>
       <use xlink:href="#Helvetica-30" x="141.796875"/>
       <use xlink:href="#Helvetica-32" x="197.412109"/>
      </g>
     </g>
    </g>
    <g id="text_8">
     <!-- Magnification (m) (Asymptotic &amp; Real) -->
     <g transform="translate(152.252969 335.132437) scale(0.1 -0.1)">
      <defs>
       <path id="Helvetica-4d" d="M 472 4591 
L 1363 4591 
L 2681 709 
L 3991 4591 
L 4872 4591 
L 4872 0 
L 4281 0 
L 4281 2709 
Q 4281 2850 4287 3175 
Q 4294 3500 4294 3872 
L 2984 0 
L 2369 0 
L 1050 3872 
L 1050 3731 
Q 1050 3563 1058 3217 
Q 1066 2872 1066 2709 
L 1066 0 
L 472 0 
L 472 4591 
z
" transform="scale(0.015625)"/>
       <path id="Helvetica-61" d="M 844 891 
Q 844 647 1022 506 
Q 1200 366 1444 366 
Q 1741 366 2019 503 
Q 2488 731 2488 1250 
L 2488 1703 
Q 2384 1638 2221 1594 
Q 2059 1550 1903 1531 
L 1563 1488 
Q 1256 1447 1103 1359 
Q 844 1213 844 891 
z
M 2206 2028 
Q 2400 2053 2466 2191 
Q 2503 2266 2503 2406 
Q 2503 2694 2298 2823 
Q 2094 2953 1713 2953 
Q 1272 2953 1088 2716 
Q 984 2584 953 2325 
L 428 2325 
Q 444 2944 830 3186 
Q 1216 3428 1725 3428 
Q 2316 3428 2684 3203 
Q 3050 2978 3050 2503 
L 3050 575 
Q 3050 488 3086 434 
Q 3122 381 3238 381 
Q 3275 381 3322 386 
Q 3369 391 3422 400 
L 3422 -16 
Q 3291 -53 3222 -62 
Q 3153 -72 3034 -72 
Q 2744 -72 2613 134 
Q 2544 244 2516 444 
Q 2344 219 2022 53 
Q 1700 -113 1313 -113 
Q 847 -113 551 170 
Q 256 453 256 878 
Q 256 1344 547 1600 
Q 838 1856 1309 1916 
L 2206 2028 
z
M 1741 3428 
L 1741 3428 
z
" transform="scale(0.015625)"/>
       <path id="Helvetica-67" d="M 1594 3406 
Q 1988 3406 2281 3213 
Q 2441 3103 2606 2894 
L 2606 3316 
L 3125 3316 
L 3125 272 
Q 3125 -366 2938 -734 
Q 2588 -1416 1616 -1416 
Q 1075 -1416 706 -1173 
Q 338 -931 294 -416 
L 866 -416 
Q 906 -641 1028 -763 
Q 1219 -950 1628 -950 
Q 2275 -950 2475 -494 
Q 2594 -225 2584 466 
Q 2416 209 2178 84 
Q 1941 -41 1550 -41 
Q 1006 -41 598 345 
Q 191 731 191 1622 
Q 191 2463 602 2934 
Q 1013 3406 1594 3406 
z
M 2606 1688 
Q 2606 2309 2350 2609 
Q 2094 2909 1697 2909 
Q 1103 2909 884 2353 
Q 769 2056 769 1575 
Q 769 1009 998 714 
Q 1228 419 1616 419 
Q 2222 419 2469 966 
Q 2606 1275 2606 1688 
z
M 1659 3428 
L 1659 3428 
z
" transform="scale(0.015625)"/>
       <path id="Helvetica-6e" d="M 413 3347 
L 947 3347 
L 947 2872 
Q 1184 3166 1450 3294 
Q 1716 3422 2041 3422 
Q 2753 3422 3003 2925 
Q 3141 2653 3141 2147 
L 3141 0 
L 2569 0 
L 2569 2109 
Q 2569 2416 2478 2603 
Q 2328 2916 1934 2916 
Q 1734 2916 1606 2875 
Q 1375 2806 1200 2600 
Q 1059 2434 1017 2257 
Q 975 2081 975 1753 
L 975 0 
L 413 0 
L 413 3347 
z
M 1734 3428 
L 1734 3428 
z
" transform="scale(0.015625)"/>
       <path id="Helvetica-69" d="M 413 3331 
L 984 3331 
L 984 0 
L 413 0 
L 413 3331 
z
M 413 4591 
L 984 4591 
L 984 3953 
L 413 3953 
L 413 4591 
z
" transform="scale(0.015625)"/>
       <path id="Helvetica-66" d="M 553 3856 
Q 566 4206 675 4369 
Q 872 4656 1434 4656 
Q 1488 4656 1544 4653 
Q 1600 4650 1672 4644 
L 1672 4131 
Q 1584 4138 1545 4139 
Q 1506 4141 1472 4141 
Q 1216 4141 1166 4008 
Q 1116 3875 1116 3331 
L 1672 3331 
L 1672 2888 
L 1109 2888 
L 1109 0 
L 553 0 
L 553 2888 
L 88 2888 
L 88 3331 
L 553 3331 
L 553 3856 
z
" transform="scale(0.015625)"/>
       <path id="Helvetica-63" d="M 1703 3444 
Q 2269 3444 2623 3169 
Q 2978 2894 3050 2222 
L 2503 2222 
Q 2453 2531 2275 2736 
Q 2097 2941 1703 2941 
Q 1166 2941 934 2416 
Q 784 2075 784 1575 
Q 784 1072 996 728 
Q 1209 384 1666 384 
Q 2016 384 2220 598 
Q 2425 813 2503 1184 
L 3050 1184 
Q 2956 519 2581 211 
Q 2206 -97 1622 -97 
Q 966 -97 575 383 
Q 184 863 184 1581 
Q 184 2463 612 2953 
Q 1041 3444 1703 3444 
z
M 1616 3428 
L 1616 3428 
z
" transform="scale(0.015625)"/>
       <path id="Helvetica-74" d="M 525 4281 
L 1094 4281 
L 1094 3347 
L 1628 3347 
L 1628 2888 
L 1094 2888 
L 1094 703 
Q 1094 528 1213 469 
Q 1278 434 1431 434 
Q 1472 434 1519 436 
Q 1566 438 1628 444 
L 1628 0 
Q 1531 -28 1426 -40 
Q 1322 -53 1200 -53 
Q 806 -53 665 148 
Q 525 350 525 672 
L 525 2888 
L 72 2888 
L 72 3347 
L 525 3347 
L 525 4281 
z
" transform="scale(0.015625)"/>
       <path id="Helvetica-6f" d="M 1741 363 
Q 2300 363 2508 786 
Q 2716 1209 2716 1728 
Q 2716 2197 2566 2491 
Q 2328 2953 1747 2953 
Q 1231 2953 997 2559 
Q 763 2166 763 1609 
Q 763 1075 997 719 
Q 1231 363 1741 363 
z
M 1763 3444 
Q 2409 3444 2856 3012 
Q 3303 2581 3303 1744 
Q 3303 934 2909 406 
Q 2516 -122 1688 -122 
Q 997 -122 590 345 
Q 184 813 184 1600 
Q 184 2444 612 2944 
Q 1041 3444 1763 3444 
z
M 1744 3428 
L 1744 3428 
z
" transform="scale(0.015625)"/>
       <path id="Helvetica-20" transform="scale(0.015625)"/>
       <path id="Helvetica-28" d="M 1894 4666 
Q 1403 3713 1256 3263 
Q 1034 2578 1034 1681 
Q 1034 775 1288 25 
Q 1444 -438 1903 -1306 
L 1525 -1306 
Q 1069 -594 959 -397 
Q 850 -200 722 138 
Q 547 600 478 1125 
Q 444 1397 444 1644 
Q 444 2569 734 3291 
Q 919 3750 1503 4666 
L 1894 4666 
z
" transform="scale(0.015625)"/>
       <path id="Helvetica-6d" d="M 413 3347 
L 969 3347 
L 969 2872 
Q 1169 3119 1331 3231 
Q 1609 3422 1963 3422 
Q 2363 3422 2606 3225 
Q 2744 3113 2856 2894 
Q 3044 3163 3297 3292 
Q 3550 3422 3866 3422 
Q 4541 3422 4784 2934 
Q 4916 2672 4916 2228 
L 4916 0 
L 4331 0 
L 4331 2325 
Q 4331 2659 4164 2784 
Q 3997 2909 3756 2909 
Q 3425 2909 3186 2687 
Q 2947 2466 2947 1947 
L 2947 0 
L 2375 0 
L 2375 2184 
Q 2375 2525 2294 2681 
Q 2166 2916 1816 2916 
Q 1497 2916 1236 2669 
Q 975 2422 975 1775 
L 975 0 
L 413 0 
L 413 3347 
z
" transform="scale(0.015625)"/>
       <path id="Helvetica-29" d="M 222 -1306 
Q 719 -338 863 106 
Q 1081 778 1081 1681 
Q 1081 2584 828 3334 
Q 672 3797 213 4666 
L 591 4666 
Q 1072 3897 1173 3717 
Q 1275 3538 1394 3222 
Q 1544 2831 1608 2450 
Q 1672 2069 1672 1716 
Q 1672 791 1378 66 
Q 1194 -400 613 -1306 
L 222 -1306 
z
" transform="scale(0.015625)"/>
       <path id="Helvetica-41" d="M 2844 1881 
L 2147 3909 
L 1406 1881 
L 2844 1881 
z
M 1822 4591 
L 2525 4591 
L 4191 0 
L 3509 0 
L 3044 1375 
L 1228 1375 
L 731 0 
L 94 0 
L 1822 4591 
z
M 2144 4591 
L 2144 4591 
z
" transform="scale(0.015625)"/>
       <path id="Helvetica-73" d="M 747 1050 
Q 772 769 888 619 
Q 1100 347 1625 347 
Q 1938 347 2175 483 
Q 2413 619 2413 903 
Q 2413 1119 2222 1231 
Q 2100 1300 1741 1391 
L 1294 1503 
Q 866 1609 663 1741 
Q 300 1969 300 2372 
Q 300 2847 642 3140 
Q 984 3434 1563 3434 
Q 2319 3434 2653 2991 
Q 2863 2709 2856 2384 
L 2325 2384 
Q 2309 2575 2191 2731 
Q 1997 2953 1519 2953 
Q 1200 2953 1036 2831 
Q 872 2709 872 2509 
Q 872 2291 1088 2159 
Q 1213 2081 1456 2022 
L 1828 1931 
Q 2434 1784 2641 1647 
Q 2969 1431 2969 969 
Q 2969 522 2630 197 
Q 2291 -128 1597 -128 
Q 850 -128 539 211 
Q 228 550 206 1050 
L 747 1050 
z
M 1578 3428 
L 1578 3428 
z
" transform="scale(0.015625)"/>
       <path id="Helvetica-79" d="M 2503 3347 
L 3125 3347 
Q 3006 3025 2597 1878 
Q 2291 1016 2084 472 
Q 1597 -809 1397 -1090 
Q 1197 -1372 709 -1372 
Q 591 -1372 527 -1362 
Q 463 -1353 369 -1328 
L 369 -816 
Q 516 -856 581 -865 
Q 647 -875 697 -875 
Q 853 -875 926 -823 
Q 1000 -772 1050 -697 
Q 1066 -672 1162 -440 
Q 1259 -209 1303 -97 
L 66 3347 
L 703 3347 
L 1600 622 
L 2503 3347 
z
M 1597 3428 
L 1597 3428 
z
" transform="scale(0.015625)"/>
       <path id="Helvetica-70" d="M 1825 378 
Q 2219 378 2480 708 
Q 2741 1038 2741 1694 
Q 2741 2094 2625 2381 
Q 2406 2934 1825 2934 
Q 1241 2934 1025 2350 
Q 909 2038 909 1556 
Q 909 1169 1025 897 
Q 1244 378 1825 378 
z
M 369 3331 
L 916 3331 
L 916 2888 
Q 1084 3116 1284 3241 
Q 1569 3428 1953 3428 
Q 2522 3428 2919 2992 
Q 3316 2556 3316 1747 
Q 3316 653 2744 184 
Q 2381 -113 1900 -113 
Q 1522 -113 1266 53 
Q 1116 147 931 375 
L 931 -1334 
L 369 -1334 
L 369 3331 
z
" transform="scale(0.015625)"/>
       <path id="Helvetica-26" d="M 1828 2806 
Q 2125 3016 2238 3147 
Q 2422 3359 2422 3619 
Q 2422 3822 2287 3969 
Q 2153 4116 1925 4116 
Q 1578 4116 1444 3884 
Q 1375 3766 1375 3625 
Q 1375 3434 1479 3259 
Q 1584 3084 1828 2806 
z
M 1684 388 
Q 2031 388 2281 547 
Q 2531 706 2666 903 
L 1628 2169 
Q 1188 1875 1053 1719 
Q 847 1484 847 1147 
Q 847 781 1114 584 
Q 1381 388 1684 388 
z
M 1316 2553 
Q 1025 2888 926 3116 
Q 828 3344 828 3556 
Q 828 4000 1128 4292 
Q 1428 4584 1931 4584 
Q 2409 4584 2678 4312 
Q 2947 4041 2947 3663 
Q 2947 3222 2669 2891 
Q 2506 2697 2125 2444 
L 2963 1444 
Q 3047 1694 3080 1817 
Q 3113 1941 3147 2163 
L 3681 2163 
Q 3628 1722 3468 1317 
Q 3309 913 3309 991 
L 4125 0 
L 3400 0 
L 2969 525 
Q 2713 247 2500 119 
Q 2128 -106 1644 -106 
Q 928 -106 603 280 
Q 278 666 278 1150 
Q 278 1672 594 2022 
Q 788 2234 1316 2553 
z
" transform="scale(0.015625)"/>
       <path id="Helvetica-52" d="M 2622 2488 
Q 3059 2488 3314 2663 
Q 3569 2838 3569 3294 
Q 3569 3784 3213 3963 
Q 3022 4056 2703 4056 
L 1184 4056 
L 1184 2488 
L 2622 2488 
z
M 563 4591 
L 2688 4591 
Q 3213 4591 3553 4438 
Q 4200 4144 4200 3353 
Q 4200 2941 4029 2678 
Q 3859 2416 3553 2256 
Q 3822 2147 3958 1969 
Q 4094 1791 4109 1391 
L 4131 775 
Q 4141 513 4175 384 
Q 4231 166 4375 103 
L 4375 0 
L 3613 0 
Q 3581 59 3562 153 
Q 3544 247 3531 516 
L 3494 1281 
Q 3472 1731 3159 1884 
Q 2981 1969 2600 1969 
L 1184 1969 
L 1184 0 
L 563 0 
L 563 4591 
z
" transform="scale(0.015625)"/>
       <path id="Helvetica-65" d="M 1806 3422 
Q 2163 3422 2497 3255 
Q 2831 3088 3006 2822 
Q 3175 2569 3231 2231 
Q 3281 2000 3281 1494 
L 828 1494 
Q 844 984 1069 676 
Q 1294 369 1766 369 
Q 2206 369 2469 659 
Q 2619 828 2681 1050 
L 3234 1050 
Q 3213 866 3089 639 
Q 2966 413 2813 269 
Q 2556 19 2178 -69 
Q 1975 -119 1719 -119 
Q 1094 -119 659 336 
Q 225 791 225 1609 
Q 225 2416 662 2919 
Q 1100 3422 1806 3422 
z
M 2703 1941 
Q 2669 2306 2544 2525 
Q 2313 2931 1772 2931 
Q 1384 2931 1121 2651 
Q 859 2372 844 1941 
L 2703 1941 
z
M 1753 3428 
L 1753 3428 
z
" transform="scale(0.015625)"/>
       <path id="Helvetica-6c" d="M 428 4591 
L 991 4591 
L 991 0 
L 428 0 
L 428 4591 
z
" transform="scale(0.015625)"/>
      </defs>
      <use xlink:href="#Helvetica-4d"/>
      <use xlink:href="#Helvetica-61" x="83.300781"/>
      <use xlink:href="#Helvetica-67" x="138.916016"/>
      <use xlink:href="#Helvetica-6e" x="194.53125"/>
      <use xlink:href="#Helvetica-69" x="250.146484"/>
      <use xlink:href="#Helvetica-66" x="272.363281"/>
      <use xlink:href="#Helvetica-69" x="300.146484"/>
      <use xlink:href="#Helvetica-63" x="322.363281"/>
      <use xlink:href="#Helvetica-61" x="372.363281"/>
      <use xlink:href="#Helvetica-74" x="427.978516"/>
      <use xlink:href="#Helvetica-69" x="455.761719"/>
      <use xlink:href="#Helvetica-6f" x="477.978516"/>
      <use xlink:href="#Helvetica-6e" x="533.59375"/>
      <use xlink:href="#Helvetica-20" x="589.208984"/>
      <use xlink:href="#Helvetica-28" x="616.992188"/>
      <use xlink:href="#Helvetica-6d" x="650.292969"/>
      <use xlink:href="#Helvetica-29" x="733.59375"/>
      <use xlink:href="#Helvetica-20" x="766.894531"/>
      <use xlink:href="#Helvetica-28" x="794.677734"/>
      <use xlink:href="#Helvetica-41" x="827.978516"/>
      <use xlink:href="#Helvetica-73" x="894.677734"/>
      <use xlink:href="#Helvetica-79" x="944.677734"/>
      <use xlink:href="#Helvetica-6d" x="994.677734"/>
      <use xlink:href="#Helvetica-70" x="1077.978516"/>
      <use xlink:href="#Helvetica-74" x="1133.59375"/>
      <use xlink:href="#Helvetica-6f" x="1161.376953"/>
      <use xlink:href="#Helvetica-74" x="1216.992188"/>
      <use xlink:href="#Helvetica-69" x="1244.775391"/>
      <use xlink:href="#Helvetica-63" x="1266.992188"/>
      <use xlink:href="#Helvetica-20" x="1316.992188"/>
      <use xlink:href="#Helvetica-26" x="1344.775391"/>
      <use xlink:href="#Helvetica-20" x="1411.474609"/>
      <use xlink:href="#Helvetica-52" x="1439.257812"/>
      <use xlink:href="#Helvetica-65" x="1511.474609"/>
      <use xlink:href="#Helvetica-61" x="1567.089844"/>
      <use xlink:href="#Helvetica-6c" x="1622.705078"/>
      <use xlink:href="#Helvetica-29" x="1644.921875"/>
     </g>
    </g>
   </g>
   <g id="matplotlib.axis_2">
    <g id="ytick_1">
     <g id="line2d_8">
      <defs>
       <path id="m7c0774c454" d="M 0 0 
L -3.5 0 
" style="stroke: #000000; stroke-width: 0.8"/>
      </defs>
      <g>
       <use xlink:href="#m7c0774c454" x="57.6" y="276.396581" style="stroke: #000000; stroke-width: 0.8"/>
      </g>
     </g>
     <g id="text_9">
      <!-- $\mathdefault{10^{3}}$ -->
      <g transform="translate(35.2 279.9833) scale(0.1 -0.1)">
       <defs>
        <path id="Helvetica-33" d="M 1663 -122 
Q 869 -122 511 314 
Q 153 750 153 1375 
L 741 1375 
Q 778 941 903 744 
Q 1122 391 1694 391 
Q 2138 391 2406 628 
Q 2675 866 2675 1241 
Q 2675 1703 2392 1887 
Q 2109 2072 1606 2072 
Q 1550 2072 1492 2070 
Q 1434 2069 1375 2066 
L 1375 2563 
Q 1463 2553 1522 2550 
Q 1581 2547 1650 2547 
Q 1966 2547 2169 2647 
Q 2525 2822 2525 3272 
Q 2525 3606 2287 3787 
Q 2050 3969 1734 3969 
Q 1172 3969 956 3594 
Q 838 3388 822 3006 
L 266 3006 
Q 266 3506 466 3856 
Q 809 4481 1675 4481 
Q 2359 4481 2734 4176 
Q 3109 3872 3109 3294 
Q 3109 2881 2888 2625 
Q 2750 2466 2531 2375 
Q 2884 2278 3082 2001 
Q 3281 1725 3281 1325 
Q 3281 684 2859 281 
Q 2438 -122 1663 -122 
z
" transform="scale(0.015625)"/>
       </defs>
       <use xlink:href="#Helvetica-31" transform="translate(0 0.38125)"/>
       <use xlink:href="#Helvetica-30" transform="translate(55.615234 0.38125)"/>
       <use xlink:href="#Helvetica-33" transform="translate(112.145664 36.989063) scale(0.7)"/>
      </g>
     </g>
    </g>
    <g id="ytick_2">
     <g id="line2d_9">
      <g>
       <use xlink:href="#m7c0774c454" x="57.6" y="213.003285" style="stroke: #000000; stroke-width: 0.8"/>
      </g>
     </g>
     <g id="text_10">
      <!-- $\mathdefault{10^{4}}$ -->
      <g transform="translate(35.2 216.590004) scale(0.1 -0.1)">
       <use xlink:href="#Helvetica-31" transform="translate(0 0.304688)"/>
       <use xlink:href="#Helvetica-30" transform="translate(55.615234 0.304688)"/>
       <use xlink:href="#Helvetica-34" transform="translate(112.145664 36.9125) scale(0.7)"/>
      </g>
     </g>
    </g>
    <g id="ytick_3">
     <g id="line2d_10">
      <g>
       <use xlink:href="#m7c0774c454" x="57.6" y="149.609989" style="stroke: #000000; stroke-width: 0.8"/>
      </g>
     </g>
     <g id="text_11">
      <!-- $\mathdefault{10^{5}}$ -->
      <g transform="translate(35.2 153.196708) scale(0.1 -0.1)">
       <defs>
        <path id="Helvetica-35" d="M 791 1141 
Q 847 659 1238 475 
Q 1438 381 1700 381 
Q 2200 381 2440 700 
Q 2681 1019 2681 1406 
Q 2681 1875 2395 2131 
Q 2109 2388 1709 2388 
Q 1419 2388 1211 2275 
Q 1003 2163 856 1963 
L 369 1991 
L 709 4400 
L 3034 4400 
L 3034 3856 
L 1131 3856 
L 941 2613 
Q 1097 2731 1238 2791 
Q 1488 2894 1816 2894 
Q 2431 2894 2859 2497 
Q 3288 2100 3288 1491 
Q 3288 856 2895 371 
Q 2503 -113 1644 -113 
Q 1097 -113 676 195 
Q 256 503 206 1141 
L 791 1141 
z
" transform="scale(0.015625)"/>
       </defs>
       <use xlink:href="#Helvetica-31" transform="translate(0 0.267188)"/>
       <use xlink:href="#Helvetica-30" transform="translate(55.615234 0.267188)"/>
       <use xlink:href="#Helvetica-35" transform="translate(112.145664 36.875) scale(0.7)"/>
      </g>
     </g>
    </g>
    <g id="ytick_4">
     <g id="line2d_11">
      <g>
       <use xlink:href="#m7c0774c454" x="57.6" y="86.216693" style="stroke: #000000; stroke-width: 0.8"/>
      </g>
     </g>
     <g id="text_12">
      <!-- $\mathdefault{10^{6}}$ -->
      <g transform="translate(35.2 89.803411) scale(0.1 -0.1)">
       <use xlink:href="#Helvetica-31" transform="translate(0 0.239063)"/>
       <use xlink:href="#Helvetica-30" transform="translate(55.615234 0.239063)"/>
       <use xlink:href="#Helvetica-36" transform="translate(112.145664 36.846875) scale(0.7)"/>
      </g>
     </g>
    </g>
    <g id="text_13">
     <!-- Cso (m) (Asymptotic &amp; Real) -->
     <g transform="translate(29.05625 237.867844) rotate(-90) scale(0.1 -0.1)">
      <defs>
       <path id="Helvetica-43" d="M 2422 4716 
Q 3294 4716 3775 4256 
Q 4256 3797 4309 3213 
L 3703 3213 
Q 3600 3656 3292 3915 
Q 2984 4175 2428 4175 
Q 1750 4175 1333 3698 
Q 916 3222 916 2238 
Q 916 1431 1292 929 
Q 1669 428 2416 428 
Q 3103 428 3463 956 
Q 3653 1234 3747 1688 
L 4353 1688 
Q 4272 963 3816 472 
Q 3269 -119 2341 -119 
Q 1541 -119 997 366 
Q 281 1006 281 2344 
Q 281 3359 819 4009 
Q 1400 4716 2422 4716 
z
M 2297 4716 
L 2297 4716 
z
" transform="scale(0.015625)"/>
      </defs>
      <use xlink:href="#Helvetica-43"/>
      <use xlink:href="#Helvetica-73" x="72.216797"/>
      <use xlink:href="#Helvetica-6f" x="122.216797"/>
      <use xlink:href="#Helvetica-20" x="177.832031"/>
      <use xlink:href="#Helvetica-28" x="205.615234"/>
      <use xlink:href="#Helvetica-6d" x="238.916016"/>
      <use xlink:href="#Helvetica-29" x="322.216797"/>
      <use xlink:href="#Helvetica-20" x="355.517578"/>
      <use xlink:href="#Helvetica-28" x="383.300781"/>
      <use xlink:href="#Helvetica-41" x="416.601562"/>
      <use xlink:href="#Helvetica-73" x="483.300781"/>
      <use xlink:href="#Helvetica-79" x="533.300781"/>
      <use xlink:href="#Helvetica-6d" x="583.300781"/>
      <use xlink:href="#Helvetica-70" x="666.601562"/>
      <use xlink:href="#Helvetica-74" x="722.216797"/>
      <use xlink:href="#Helvetica-6f" x="750"/>
      <use xlink:href="#Helvetica-74" x="805.615234"/>
      <use xlink:href="#Helvetica-69" x="833.398438"/>
      <use xlink:href="#Helvetica-63" x="855.615234"/>
      <use xlink:href="#Helvetica-20" x="905.615234"/>
      <use xlink:href="#Helvetica-26" x="933.398438"/>
      <use xlink:href="#Helvetica-20" x="1000.097656"/>
      <use xlink:href="#Helvetica-52" x="1027.880859"/>
      <use xlink:href="#Helvetica-65" x="1100.097656"/>
      <use xlink:href="#Helvetica-61" x="1155.712891"/>
      <use xlink:href="#Helvetica-6c" x="1211.328125"/>
      <use xlink:href="#Helvetica-29" x="1233.544922"/>
     </g>
    </g>
   </g>
   <g id="line2d_12">
    <path d="M 73.833764 295.485642 
L 104.516369 286.430849 
L 130.24608 278.061204 
L 152.127063 270.280673 
L 170.964109 263.012024 
L 187.351976 256.192237 
L 201.738141 249.769227 
L 214.468913 243.699457 
L 225.813193 237.94617 
L 235.988179 232.478053 
L 245.163018 227.268214 
L 253.481051 222.293386 
L 261.054147 217.53331 
L 267.98021 212.970232 
L 274.337756 208.588513 
L 280.194433 204.374301 
L 285.606446 200.315271 
L 290.623852 196.400411 
L 295.287369 192.619838 
L 299.633788 188.964652 
L 303.692428 185.426809 
L 307.494556 181.999012 
L 311.060669 178.674628 
L 314.413205 175.447602 
L 317.570091 172.312397 
L 320.550423 169.263935 
L 323.365194 166.297547 
L 326.029527 163.408933 
L 328.556374 160.594119 
L 330.953433 157.849431 
L 333.232239 155.17146 
L 335.400924 152.557041 
L 337.468142 150.003229 
L 339.43794 147.507278 
L 341.320426 145.066625 
L 343.119441 142.678875 
L 344.840199 140.341782 
L 346.489839 138.053243 
L 348.071835 135.811282 
L 349.587846 133.614041 
L 351.044894 131.459771 
L 352.444594 129.346825 
L 353.790675 127.273647 
L 355.086451 125.238768 
L 356.334817 123.240799 
L 357.538004 121.278426 
L 358.6985 119.350402 
L 359.818572 117.455545 
L 360.900173 115.592735 
L 361.945452 113.760905 
L 362.956085 111.959042 
L 363.934296 110.186182 
L 364.88012 108.441405 
L 365.796678 106.723836 
L 366.684616 105.03264 
L 367.545631 103.367019 
L 368.380379 101.726212 
L 369.189703 100.109489 
L 369.976377 98.516154 
L 370.740931 96.945541 
" clip-path="url(#pccf7f1c4ce)" style="fill: none; stroke: #ff0000; stroke-width: 1.5; stroke-linecap: square"/>
   </g>
   <g id="line2d_13">
    <path d="M 73.832727 295.488 
L 104.517602 286.433297 
L 130.246332 278.063101 
L 152.127241 270.282513 
L 170.964102 263.013949 
L 187.351258 256.194179 
L 201.738971 249.770406 
L 214.468452 243.701031 
L 225.812619 237.948149 
L 235.987413 232.47963 
L 245.162362 227.270106 
L 253.481539 222.29401 
L 261.054812 217.534195 
L 267.980513 212.97116 
L 274.337414 208.58991 
L 280.194752 204.375128 
L 285.60667 200.31653 
L 290.623986 196.401509 
L 295.287724 192.620751 
L 299.634162 188.965209 
L 303.692954 185.428327 
L 307.495037 181.999666 
L 311.062141 178.674532 
L 314.412651 175.449543 
L 317.570541 172.31406 
L 320.550736 169.26446 
L 323.365589 166.29853 
L 326.029926 163.410265 
L 328.556204 160.594912 
L 330.953677 157.850257 
L 333.232423 155.17229 
L 335.401104 152.55778 
L 337.46834 150.002745 
L 339.438172 147.50825 
L 341.320733 145.067082 
L 343.119634 142.679737 
L 344.840544 140.343623 
L 346.490021 138.05436 
L 348.072065 135.810587 
L 349.588049 133.614432 
L 351.0452 131.45923 
L 352.444834 129.346563 
L 353.790894 127.273867 
L 355.086606 125.239332 
L 356.334122 123.242579 
L 357.538058 121.278996 
L 358.698664 119.350803 
L 359.818631 117.45609 
L 360.900308 115.593286 
L 361.945681 113.761233 
L 362.956181 111.959589 
L 363.93456 110.185473 
L 364.880252 108.441889 
L 365.796746 106.724294 
L 366.684721 105.033165 
L 367.545798 103.367089 
L 368.380547 101.726586 
L 369.189794 100.111624 
L 369.976397 98.517954 
L 370.741136 96.945327 
" clip-path="url(#pccf7f1c4ce)" style="fill: none; stroke-dasharray: 5.55,2.4; stroke-dashoffset: 0; stroke: #ff0000; stroke-opacity: 0.5; stroke-width: 1.5"/>
   </g>
   <g id="line2d_14">
    <path d="M 200.126434 278.323191 
L 218.634942 269.242626 
L 234.297415 260.851798 
L 247.721618 253.053577 
L 259.357118 245.769951 
L 269.541075 238.937334 
L 278.528065 232.50322 
L 286.518792 226.423751 
L 293.670427 220.661926 
L 300.108397 215.186238 
L 305.934371 209.969641 
L 311.232863 204.988748 
L 316.071041 200.223198 
L 320.507334 195.655158 
L 324.589615 191.268919 
L 328.359423 187.050575 
L 331.8497 182.987753 
L 335.091966 179.069402 
L 338.111102 175.285604 
L 340.928641 171.62743 
L 343.566556 168.086812 
L 346.039461 164.656431 
L 348.362285 161.329634 
L 350.548813 158.10035 
L 352.611589 154.963029 
L 354.559778 151.912579 
L 356.401892 148.944321 
L 358.148304 146.053943 
L 359.805465 143.237464 
L 361.379869 140.491201 
L 362.877574 137.811738 
L 364.304192 135.195904 
L 365.664407 132.640748 
L 366.963138 130.143519 
L 368.204371 127.70165 
L 369.391273 125.31274 
L 370.528169 122.97454 
L 371.617739 120.684944 
L 372.662209 118.441972 
L 373.666357 116.243763 
L 374.630515 114.088567 
L 375.557412 111.974732 
L 376.449807 109.9007 
L 377.30932 107.865002 
L 378.137051 105.866246 
L 378.936689 103.903115 
L 379.706618 101.974361 
L 380.450856 100.078802 
L 381.169755 98.215315 
L 381.864955 96.382831 
L 382.537362 94.580338 
L 383.186884 92.806868 
L 383.817809 91.061503 
L 384.428392 89.343366 
L 385.019475 87.651619 
L 385.593556 85.985465 
L 386.150234 84.344141 
L 386.69054 82.726918 
L 387.215162 81.133099 
L 387.72475 79.562015 
" clip-path="url(#pccf7f1c4ce)" style="fill: none; stroke: #008000; stroke-width: 1.5; stroke-linecap: square"/>
   </g>
   <g id="line2d_15">
    <path d="M 201.152775 278.332322 
L 219.703042 269.249696 
L 235.384176 260.860371 
L 248.823918 253.060525 
L 260.461935 245.778481 
L 270.646337 238.944132 
L 279.627952 232.509602 
L 287.608935 226.430069 
L 294.748645 220.667677 
L 301.172817 215.191539 
L 306.983175 209.975246 
L 312.265543 204.993511 
L 317.086875 200.228027 
L 321.506493 195.659276 
L 325.570837 191.27358 
L 329.321222 187.056737 
L 332.796147 182.992132 
L 336.021251 179.073548 
L 339.02363 175.289514 
L 341.824824 171.632112 
L 344.446303 168.090562 
L 346.90339 164.659739 
L 349.210937 161.333151 
L 351.382277 158.104542 
L 353.430396 154.966346 
L 355.364284 151.915533 
L 357.192323 148.948888 
L 358.925352 146.057921 
L 360.569451 143.240792 
L 362.130985 140.494372 
L 363.616502 137.814334 
L 365.031118 135.198102 
L 366.37976 132.642772 
L 367.666723 130.145997 
L 368.89677 127.703917 
L 370.073168 125.315044 
L 371.19963 122.976533 
L 372.27887 120.687155 
L 373.313472 118.44561 
L 374.307937 116.245968 
L 375.262461 114.091416 
L 376.180217 111.978288 
L 377.064057 109.903207 
L 377.914822 107.86722 
L 378.734233 105.869145 
L 379.525506 103.903822 
L 380.287625 101.97637 
L 381.024041 100.080569 
L 381.735165 98.217665 
L 382.422948 96.384746 
L 383.088268 94.581536 
L 383.730673 92.811349 
L 384.354934 91.062879 
L 384.958585 89.344761 
L 385.543119 87.654587 
L 386.110809 85.987398 
L 386.661482 84.345223 
L 387.195592 82.728239 
L 387.71432 81.134321 
L 388.217862 79.564263 
" clip-path="url(#pccf7f1c4ce)" style="fill: none; stroke-dasharray: 5.55,2.4; stroke-dashoffset: 0; stroke: #008000; stroke-opacity: 0.5; stroke-width: 1.5"/>
   </g>
   <g id="line2d_16">
    <path d="M 239.079716 252.692626 
L 253.617796 243.607922 
L 266.029875 235.214214 
L 276.747968 227.413984 
L 286.096331 220.128967 
L 294.322073 213.295402 
L 301.616262 206.860661 
L 308.127888 200.780804 
L 313.97639 195.018766 
L 319.259221 189.542995 
L 324.052857 184.326414 
L 328.423785 179.34561 
L 332.424169 174.580204 
L 336.100723 170.012348 
L 339.490684 165.626323 
L 342.625266 161.408215 
L 345.532908 157.345645 
L 348.238126 153.427554 
L 350.760841 149.644025 
L 353.118475 145.986123 
L 355.326675 142.445777 
L 357.399893 139.015668 
L 359.349787 135.689141 
L 361.188142 132.460125 
L 362.921473 129.323068 
L 364.560994 126.272878 
L 366.1148 123.304874 
L 367.584873 120.414746 
L 368.983013 117.598511 
L 370.312098 114.852486 
L 371.577065 112.173256 
L 372.782132 109.55765 
L 373.93318 107.002716 
L 375.031823 104.505704 
L 376.082784 102.064046 
L 377.088446 99.675341 
L 378.051722 97.337342 
L 378.975475 95.047941 
L 379.861936 92.80516 
L 380.713712 90.607137 
L 381.532271 88.452121 
L 382.319566 86.338462 
L 383.077584 84.264603 
L 383.807922 82.229072 
L 384.511989 80.230479 
L 385.19137 78.267507 
L 385.846954 76.338908 
L 386.47997 74.443501 
L 387.091923 72.580161 
L 387.683698 70.747822 
L 388.256344 68.945469 
L 388.810605 67.172136 
L 389.347468 65.426905 
L 389.867752 63.708898 
L 390.372151 62.017279 
L 390.860991 60.35125 
L 391.336143 58.710048 
L 391.79818 57.092944 
L 392.245011 55.499241 
L 392.679863 53.928271 
" clip-path="url(#pccf7f1c4ce)" style="fill: none; stroke: #0000ff; stroke-width: 1.5; stroke-linecap: square"/>
   </g>
   <g id="line2d_17">
    <path d="M 272.502905 252.478618 
L 284.574919 243.382019 
L 294.854532 234.977176 
L 303.712843 227.166923 
L 311.424595 219.87376 
L 318.199521 213.032924 
L 324.198655 206.591545 
L 329.548129 200.505481 
L 334.347184 194.738682 
L 338.678037 189.257549 
L 342.604811 184.036737 
L 346.182934 179.050696 
L 349.454669 174.282454 
L 352.459972 169.710422 
L 355.229511 165.32002 
L 357.78877 161.099395 
L 360.161631 157.034554 
L 362.368604 153.112858 
L 364.42533 149.326707 
L 366.347022 145.666347 
L 368.146466 142.123871 
L 369.834849 138.692177 
L 371.422742 135.363289 
L 372.918939 132.131027 
L 374.329383 128.993919 
L 375.663434 125.941522 
L 376.926745 122.970254 
L 378.122399 120.081756 
L 379.259076 117.263161 
L 380.338972 114.516382 
L 381.367279 111.835141 
L 382.34639 109.219647 
L 383.281604 106.661676 
L 384.173814 104.164331 
L 385.027328 101.720787 
L 385.843914 99.330798 
L 386.625274 96.994028 
L 387.37563 94.702064 
L 388.095022 92.458723 
L 388.785877 90.260259 
L 389.450391 88.103172 
L 390.089048 85.989224 
L 390.703987 83.914518 
L 391.296448 81.877807 
L 391.867421 79.878498 
L 392.418386 77.914058 
L 392.950013 75.984605 
L 393.462826 74.090705 
L 393.959225 72.225736 
L 394.438952 70.392759 
L 394.903183 68.589339 
L 395.351998 66.817155 
L 395.787422 65.070048 
L 396.209087 63.351205 
L 396.617756 61.659243 
L 397.013711 59.994648 
L 397.398843 58.350962 
L 397.773006 56.730159 
L 398.135129 55.138375 
L 398.487273 53.568 
" clip-path="url(#pccf7f1c4ce)" style="fill: none; stroke-dasharray: 5.55,2.4; stroke-dashoffset: 0; stroke: #0000ff; stroke-opacity: 0.5; stroke-width: 1.5"/>
   </g>
   <g id="patch_3">
    <path d="M 57.6 307.584 
L 57.6 41.472 
" style="fill: none; stroke: #000000; stroke-width: 0.8; stroke-linejoin: miter; stroke-linecap: square"/>
   </g>
   <g id="patch_4">
    <path d="M 57.6 307.584 
L 414.72 307.584 
" style="fill: none; stroke: #000000; stroke-width: 0.8; stroke-linejoin: miter; stroke-linecap: square"/>
   </g>
   <g id="text_14">
    <!-- Cso Vs Magnification -->
    <g transform="translate(179.804062 35.472) scale(0.12 -0.12)">
     <defs>
      <path id="Helvetica-56" d="M 850 4591 
L 2169 681 
L 3472 4591 
L 4169 4591 
L 2494 0 
L 1834 0 
L 163 4591 
L 850 4591 
z
" transform="scale(0.015625)"/>
     </defs>
     <use xlink:href="#Helvetica-43"/>
     <use xlink:href="#Helvetica-73" x="72.216797"/>
     <use xlink:href="#Helvetica-6f" x="122.216797"/>
     <use xlink:href="#Helvetica-20" x="177.832031"/>
     <use xlink:href="#Helvetica-56" x="205.615234"/>
     <use xlink:href="#Helvetica-73" x="272.314453"/>
     <use xlink:href="#Helvetica-20" x="322.314453"/>
     <use xlink:href="#Helvetica-4d" x="350.097656"/>
     <use xlink:href="#Helvetica-61" x="433.398438"/>
     <use xlink:href="#Helvetica-67" x="489.013672"/>
     <use xlink:href="#Helvetica-6e" x="544.628906"/>
     <use xlink:href="#Helvetica-69" x="600.244141"/>
     <use xlink:href="#Helvetica-66" x="622.460938"/>
     <use xlink:href="#Helvetica-69" x="650.244141"/>
     <use xlink:href="#Helvetica-63" x="672.460938"/>
     <use xlink:href="#Helvetica-61" x="722.460938"/>
     <use xlink:href="#Helvetica-74" x="778.076172"/>
     <use xlink:href="#Helvetica-69" x="805.859375"/>
     <use xlink:href="#Helvetica-6f" x="828.076172"/>
     <use xlink:href="#Helvetica-6e" x="883.691406"/>
    </g>
   </g>
   <g id="legend_1">
    <g id="patch_5">
     <path d="M 64.6 136.472 
L 230.1 136.472 
Q 232.1 136.472 232.1 134.472 
L 232.1 48.472 
Q 232.1 46.472 230.1 46.472 
L 64.6 46.472 
Q 62.6 46.472 62.6 48.472 
L 62.6 134.472 
Q 62.6 136.472 64.6 136.472 
z
" style="fill: #ffffff; opacity: 0.8; stroke: #cccccc; stroke-linejoin: miter"/>
    </g>
    <g id="line2d_18">
     <path d="M 66.6 54.187625 
L 76.6 54.187625 
L 86.6 54.187625 
" style="fill: none; stroke: #ff0000; stroke-width: 1.5; stroke-linecap: square"/>
    </g>
    <g id="text_15">
     <!-- $U_L/U_0 = 0.8$ - Real Cso -->
     <g transform="translate(94.6 57.687625) scale(0.1 -0.1)">
      <defs>
       <path id="DejaVuSans-Oblique-55" d="M 991 4666 
L 1625 4666 
L 1075 1831 
Q 1041 1641 1027 1517 
Q 1013 1394 1013 1300 
Q 1013 869 1253 645 
Q 1494 422 1959 422 
Q 2563 422 2898 753 
Q 3234 1084 3378 1831 
L 3928 4666 
L 4563 4666 
L 4000 1753 
Q 3816 809 3300 359 
Q 2784 -91 1888 -91 
Q 1188 -91 780 261 
Q 372 613 372 1216 
Q 372 1325 387 1461 
Q 403 1597 434 1753 
L 991 4666 
z
" transform="scale(0.015625)"/>
       <path id="DejaVuSans-Oblique-4c" d="M 1075 4666 
L 1709 4666 
L 909 525 
L 3181 525 
L 3078 0 
L 172 0 
L 1075 4666 
z
" transform="scale(0.015625)"/>
       <path id="DejaVuSans-2f" d="M 1625 4666 
L 2156 4666 
L 531 -594 
L 0 -594 
L 1625 4666 
z
" transform="scale(0.015625)"/>
       <path id="DejaVuSans-30" d="M 2034 4250 
Q 1547 4250 1301 3770 
Q 1056 3291 1056 2328 
Q 1056 1369 1301 889 
Q 1547 409 2034 409 
Q 2525 409 2770 889 
Q 3016 1369 3016 2328 
Q 3016 3291 2770 3770 
Q 2525 4250 2034 4250 
z
M 2034 4750 
Q 2819 4750 3233 4129 
Q 3647 3509 3647 2328 
Q 3647 1150 3233 529 
Q 2819 -91 2034 -91 
Q 1250 -91 836 529 
Q 422 1150 422 2328 
Q 422 3509 836 4129 
Q 1250 4750 2034 4750 
z
" transform="scale(0.015625)"/>
       <path id="DejaVuSans-3d" d="M 678 2906 
L 4684 2906 
L 4684 2381 
L 678 2381 
L 678 2906 
z
M 678 1631 
L 4684 1631 
L 4684 1100 
L 678 1100 
L 678 1631 
z
" transform="scale(0.015625)"/>
       <path id="DejaVuSans-2e" d="M 684 794 
L 1344 794 
L 1344 0 
L 684 0 
L 684 794 
z
" transform="scale(0.015625)"/>
       <path id="DejaVuSans-38" d="M 2034 2216 
Q 1584 2216 1326 1975 
Q 1069 1734 1069 1313 
Q 1069 891 1326 650 
Q 1584 409 2034 409 
Q 2484 409 2743 651 
Q 3003 894 3003 1313 
Q 3003 1734 2745 1975 
Q 2488 2216 2034 2216 
z
M 1403 2484 
Q 997 2584 770 2862 
Q 544 3141 544 3541 
Q 544 4100 942 4425 
Q 1341 4750 2034 4750 
Q 2731 4750 3128 4425 
Q 3525 4100 3525 3541 
Q 3525 3141 3298 2862 
Q 3072 2584 2669 2484 
Q 3125 2378 3379 2068 
Q 3634 1759 3634 1313 
Q 3634 634 3220 271 
Q 2806 -91 2034 -91 
Q 1263 -91 848 271 
Q 434 634 434 1313 
Q 434 1759 690 2068 
Q 947 2378 1403 2484 
z
M 1172 3481 
Q 1172 3119 1398 2916 
Q 1625 2713 2034 2713 
Q 2441 2713 2670 2916 
Q 2900 3119 2900 3481 
Q 2900 3844 2670 4047 
Q 2441 4250 2034 4250 
Q 1625 4250 1398 4047 
Q 1172 3844 1172 3481 
z
" transform="scale(0.015625)"/>
       <path id="Helvetica-2d" d="M 266 2072 
L 1834 2072 
L 1834 1494 
L 266 1494 
L 266 2072 
z
" transform="scale(0.015625)"/>
      </defs>
      <use xlink:href="#DejaVuSans-Oblique-55" transform="translate(0 0.78125)"/>
      <use xlink:href="#DejaVuSans-Oblique-4c" transform="translate(73.193359 -15.625) scale(0.7)"/>
      <use xlink:href="#DejaVuSans-2f" transform="translate(114.926758 0.78125)"/>
      <use xlink:href="#DejaVuSans-Oblique-55" transform="translate(148.618164 0.78125)"/>
      <use xlink:href="#DejaVuSans-30" transform="translate(221.811523 -15.625) scale(0.7)"/>
      <use xlink:href="#DejaVuSans-3d" transform="translate(288.564453 0.78125)"/>
      <use xlink:href="#DejaVuSans-30" transform="translate(391.835938 0.78125)"/>
      <use xlink:href="#DejaVuSans-2e" transform="translate(455.458984 0.78125)"/>
      <use xlink:href="#DejaVuSans-38" transform="translate(484.621094 0.78125)"/>
      <use xlink:href="#Helvetica-20" transform="translate(548.244141 0.78125)"/>
      <use xlink:href="#Helvetica-2d" transform="translate(576.027344 0.78125)"/>
      <use xlink:href="#Helvetica-20" transform="translate(609.328125 0.78125)"/>
      <use xlink:href="#Helvetica-52" transform="translate(637.111328 0.78125)"/>
      <use xlink:href="#Helvetica-65" transform="translate(709.328125 0.78125)"/>
      <use xlink:href="#Helvetica-61" transform="translate(764.943359 0.78125)"/>
      <use xlink:href="#Helvetica-6c" transform="translate(820.558594 0.78125)"/>
      <use xlink:href="#Helvetica-20" transform="translate(842.775391 0.78125)"/>
      <use xlink:href="#Helvetica-43" transform="translate(870.558594 0.78125)"/>
      <use xlink:href="#Helvetica-73" transform="translate(942.775391 0.78125)"/>
      <use xlink:href="#Helvetica-6f" transform="translate(992.775391 0.78125)"/>
     </g>
    </g>
    <g id="line2d_19">
     <path d="M 66.6 68.772 
L 76.6 68.772 
L 86.6 68.772 
" style="fill: none; stroke-dasharray: 5.55,2.4; stroke-dashoffset: 0; stroke: #ff0000; stroke-opacity: 0.5; stroke-width: 1.5"/>
    </g>
    <g id="text_16">
     <!-- $U_L/U_0 = 0.8$ - Asymptotic Cso -->
     <g transform="translate(94.6 72.272) scale(0.1 -0.1)">
      <use xlink:href="#DejaVuSans-Oblique-55" transform="translate(0 0.78125)"/>
      <use xlink:href="#DejaVuSans-Oblique-4c" transform="translate(73.193359 -15.625) scale(0.7)"/>
      <use xlink:href="#DejaVuSans-2f" transform="translate(114.926758 0.78125)"/>
      <use xlink:href="#DejaVuSans-Oblique-55" transform="translate(148.618164 0.78125)"/>
      <use xlink:href="#DejaVuSans-30" transform="translate(221.811523 -15.625) scale(0.7)"/>
      <use xlink:href="#DejaVuSans-3d" transform="translate(288.564453 0.78125)"/>
      <use xlink:href="#DejaVuSans-30" transform="translate(391.835938 0.78125)"/>
      <use xlink:href="#DejaVuSans-2e" transform="translate(455.458984 0.78125)"/>
      <use xlink:href="#DejaVuSans-38" transform="translate(484.621094 0.78125)"/>
      <use xlink:href="#Helvetica-20" transform="translate(548.244141 0.78125)"/>
      <use xlink:href="#Helvetica-2d" transform="translate(576.027344 0.78125)"/>
      <use xlink:href="#Helvetica-20" transform="translate(609.328125 0.78125)"/>
      <use xlink:href="#Helvetica-41" transform="translate(637.111328 0.78125)"/>
      <use xlink:href="#Helvetica-73" transform="translate(703.810547 0.78125)"/>
      <use xlink:href="#Helvetica-79" transform="translate(753.810547 0.78125)"/>
      <use xlink:href="#Helvetica-6d" transform="translate(803.810547 0.78125)"/>
      <use xlink:href="#Helvetica-70" transform="translate(887.111328 0.78125)"/>
      <use xlink:href="#Helvetica-74" transform="translate(942.726562 0.78125)"/>
      <use xlink:href="#Helvetica-6f" transform="translate(970.509766 0.78125)"/>
      <use xlink:href="#Helvetica-74" transform="translate(1026.125 0.78125)"/>
      <use xlink:href="#Helvetica-69" transform="translate(1053.908203 0.78125)"/>
      <use xlink:href="#Helvetica-63" transform="translate(1076.125 0.78125)"/>
      <use xlink:href="#Helvetica-20" transform="translate(1126.125 0.78125)"/>
      <use xlink:href="#Helvetica-43" transform="translate(1153.908203 0.78125)"/>
      <use xlink:href="#Helvetica-73" transform="translate(1226.125 0.78125)"/>
      <use xlink:href="#Helvetica-6f" transform="translate(1276.125 0.78125)"/>
     </g>
    </g>
    <g id="line2d_20">
     <path d="M 66.6 83.187625 
L 76.6 83.187625 
L 86.6 83.187625 
" style="fill: none; stroke: #008000; stroke-width: 1.5; stroke-linecap: square"/>
    </g>
    <g id="text_17">
     <!-- $U_L/U_0 = 0.9$ - Real Cso -->
     <g transform="translate(94.6 86.687625) scale(0.1 -0.1)">
      <defs>
       <path id="DejaVuSans-39" d="M 703 97 
L 703 672 
Q 941 559 1184 500 
Q 1428 441 1663 441 
Q 2288 441 2617 861 
Q 2947 1281 2994 2138 
Q 2813 1869 2534 1725 
Q 2256 1581 1919 1581 
Q 1219 1581 811 2004 
Q 403 2428 403 3163 
Q 403 3881 828 4315 
Q 1253 4750 1959 4750 
Q 2769 4750 3195 4129 
Q 3622 3509 3622 2328 
Q 3622 1225 3098 567 
Q 2575 -91 1691 -91 
Q 1453 -91 1209 -44 
Q 966 3 703 97 
z
M 1959 2075 
Q 2384 2075 2632 2365 
Q 2881 2656 2881 3163 
Q 2881 3666 2632 3958 
Q 2384 4250 1959 4250 
Q 1534 4250 1286 3958 
Q 1038 3666 1038 3163 
Q 1038 2656 1286 2365 
Q 1534 2075 1959 2075 
z
" transform="scale(0.015625)"/>
      </defs>
      <use xlink:href="#DejaVuSans-Oblique-55" transform="translate(0 0.78125)"/>
      <use xlink:href="#DejaVuSans-Oblique-4c" transform="translate(73.193359 -15.625) scale(0.7)"/>
      <use xlink:href="#DejaVuSans-2f" transform="translate(114.926758 0.78125)"/>
      <use xlink:href="#DejaVuSans-Oblique-55" transform="translate(148.618164 0.78125)"/>
      <use xlink:href="#DejaVuSans-30" transform="translate(221.811523 -15.625) scale(0.7)"/>
      <use xlink:href="#DejaVuSans-3d" transform="translate(288.564453 0.78125)"/>
      <use xlink:href="#DejaVuSans-30" transform="translate(391.835938 0.78125)"/>
      <use xlink:href="#DejaVuSans-2e" transform="translate(455.458984 0.78125)"/>
      <use xlink:href="#DejaVuSans-39" transform="translate(487.246094 0.78125)"/>
      <use xlink:href="#Helvetica-20" transform="translate(550.869141 0.78125)"/>
      <use xlink:href="#Helvetica-2d" transform="translate(578.652344 0.78125)"/>
      <use xlink:href="#Helvetica-20" transform="translate(611.953125 0.78125)"/>
      <use xlink:href="#Helvetica-52" transform="translate(639.736328 0.78125)"/>
      <use xlink:href="#Helvetica-65" transform="translate(711.953125 0.78125)"/>
      <use xlink:href="#Helvetica-61" transform="translate(767.568359 0.78125)"/>
      <use xlink:href="#Helvetica-6c" transform="translate(823.183594 0.78125)"/>
      <use xlink:href="#Helvetica-20" transform="translate(845.400391 0.78125)"/>
      <use xlink:href="#Helvetica-43" transform="translate(873.183594 0.78125)"/>
      <use xlink:href="#Helvetica-73" transform="translate(945.400391 0.78125)"/>
      <use xlink:href="#Helvetica-6f" transform="translate(995.400391 0.78125)"/>
     </g>
    </g>
    <g id="line2d_21">
     <path d="M 66.6 97.772 
L 76.6 97.772 
L 86.6 97.772 
" style="fill: none; stroke-dasharray: 5.55,2.4; stroke-dashoffset: 0; stroke: #008000; stroke-opacity: 0.5; stroke-width: 1.5"/>
    </g>
    <g id="text_18">
     <!-- $U_L/U_0 = 0.9$ - Asymptotic Cso -->
     <g transform="translate(94.6 101.272) scale(0.1 -0.1)">
      <use xlink:href="#DejaVuSans-Oblique-55" transform="translate(0 0.78125)"/>
      <use xlink:href="#DejaVuSans-Oblique-4c" transform="translate(73.193359 -15.625) scale(0.7)"/>
      <use xlink:href="#DejaVuSans-2f" transform="translate(114.926758 0.78125)"/>
      <use xlink:href="#DejaVuSans-Oblique-55" transform="translate(148.618164 0.78125)"/>
      <use xlink:href="#DejaVuSans-30" transform="translate(221.811523 -15.625) scale(0.7)"/>
      <use xlink:href="#DejaVuSans-3d" transform="translate(288.564453 0.78125)"/>
      <use xlink:href="#DejaVuSans-30" transform="translate(391.835938 0.78125)"/>
      <use xlink:href="#DejaVuSans-2e" transform="translate(455.458984 0.78125)"/>
      <use xlink:href="#DejaVuSans-39" transform="translate(487.246094 0.78125)"/>
      <use xlink:href="#Helvetica-20" transform="translate(550.869141 0.78125)"/>
      <use xlink:href="#Helvetica-2d" transform="translate(578.652344 0.78125)"/>
      <use xlink:href="#Helvetica-20" transform="translate(611.953125 0.78125)"/>
      <use xlink:href="#Helvetica-41" transform="translate(639.736328 0.78125)"/>
      <use xlink:href="#Helvetica-73" transform="translate(706.435547 0.78125)"/>
      <use xlink:href="#Helvetica-79" transform="translate(756.435547 0.78125)"/>
      <use xlink:href="#Helvetica-6d" transform="translate(806.435547 0.78125)"/>
      <use xlink:href="#Helvetica-70" transform="translate(889.736328 0.78125)"/>
      <use xlink:href="#Helvetica-74" transform="translate(945.351562 0.78125)"/>
      <use xlink:href="#Helvetica-6f" transform="translate(973.134766 0.78125)"/>
      <use xlink:href="#Helvetica-74" transform="translate(1028.75 0.78125)"/>
      <use xlink:href="#Helvetica-69" transform="translate(1056.533203 0.78125)"/>
      <use xlink:href="#Helvetica-63" transform="translate(1078.75 0.78125)"/>
      <use xlink:href="#Helvetica-20" transform="translate(1128.75 0.78125)"/>
      <use xlink:href="#Helvetica-43" transform="translate(1156.533203 0.78125)"/>
      <use xlink:href="#Helvetica-73" transform="translate(1228.75 0.78125)"/>
      <use xlink:href="#Helvetica-6f" transform="translate(1278.75 0.78125)"/>
     </g>
    </g>
    <g id="line2d_22">
     <path d="M 66.6 112.187625 
L 76.6 112.187625 
L 86.6 112.187625 
" style="fill: none; stroke: #0000ff; stroke-width: 1.5; stroke-linecap: square"/>
    </g>
    <g id="text_19">
     <!-- $U_L/U_0 = 1.0$ - Real Cso -->
     <g transform="translate(94.6 115.687625) scale(0.1 -0.1)">
      <defs>
       <path id="DejaVuSans-31" d="M 794 531 
L 1825 531 
L 1825 4091 
L 703 3866 
L 703 4441 
L 1819 4666 
L 2450 4666 
L 2450 531 
L 3481 531 
L 3481 0 
L 794 0 
L 794 531 
z
" transform="scale(0.015625)"/>
      </defs>
      <use xlink:href="#DejaVuSans-Oblique-55" transform="translate(0 0.78125)"/>
      <use xlink:href="#DejaVuSans-Oblique-4c" transform="translate(73.193359 -15.625) scale(0.7)"/>
      <use xlink:href="#DejaVuSans-2f" transform="translate(114.926758 0.78125)"/>
      <use xlink:href="#DejaVuSans-Oblique-55" transform="translate(148.618164 0.78125)"/>
      <use xlink:href="#DejaVuSans-30" transform="translate(221.811523 -15.625) scale(0.7)"/>
      <use xlink:href="#DejaVuSans-3d" transform="translate(288.564453 0.78125)"/>
      <use xlink:href="#DejaVuSans-31" transform="translate(391.835938 0.78125)"/>
      <use xlink:href="#DejaVuSans-2e" transform="translate(455.458984 0.78125)"/>
      <use xlink:href="#DejaVuSans-30" transform="translate(487.246094 0.78125)"/>
      <use xlink:href="#Helvetica-20" transform="translate(550.869141 0.78125)"/>
      <use xlink:href="#Helvetica-2d" transform="translate(578.652344 0.78125)"/>
      <use xlink:href="#Helvetica-20" transform="translate(611.953125 0.78125)"/>
      <use xlink:href="#Helvetica-52" transform="translate(639.736328 0.78125)"/>
      <use xlink:href="#Helvetica-65" transform="translate(711.953125 0.78125)"/>
      <use xlink:href="#Helvetica-61" transform="translate(767.568359 0.78125)"/>
      <use xlink:href="#Helvetica-6c" transform="translate(823.183594 0.78125)"/>
      <use xlink:href="#Helvetica-20" transform="translate(845.400391 0.78125)"/>
      <use xlink:href="#Helvetica-43" transform="translate(873.183594 0.78125)"/>
      <use xlink:href="#Helvetica-73" transform="translate(945.400391 0.78125)"/>
      <use xlink:href="#Helvetica-6f" transform="translate(995.400391 0.78125)"/>
     </g>
    </g>
    <g id="line2d_23">
     <path d="M 66.6 126.772 
L 76.6 126.772 
L 86.6 126.772 
" style="fill: none; stroke-dasharray: 5.55,2.4; stroke-dashoffset: 0; stroke: #0000ff; stroke-opacity: 0.5; stroke-width: 1.5"/>
    </g>
    <g id="text_20">
     <!-- $U_L/U_0 = 1.0$ - Asymptotic Cso -->
     <g transform="translate(94.6 130.272) scale(0.1 -0.1)">
      <use xlink:href="#DejaVuSans-Oblique-55" transform="translate(0 0.78125)"/>
      <use xlink:href="#DejaVuSans-Oblique-4c" transform="translate(73.193359 -15.625) scale(0.7)"/>
      <use xlink:href="#DejaVuSans-2f" transform="translate(114.926758 0.78125)"/>
      <use xlink:href="#DejaVuSans-Oblique-55" transform="translate(148.618164 0.78125)"/>
      <use xlink:href="#DejaVuSans-30" transform="translate(221.811523 -15.625) scale(0.7)"/>
      <use xlink:href="#DejaVuSans-3d" transform="translate(288.564453 0.78125)"/>
      <use xlink:href="#DejaVuSans-31" transform="translate(391.835938 0.78125)"/>
      <use xlink:href="#DejaVuSans-2e" transform="translate(455.458984 0.78125)"/>
      <use xlink:href="#DejaVuSans-30" transform="translate(487.246094 0.78125)"/>
      <use xlink:href="#Helvetica-20" transform="translate(550.869141 0.78125)"/>
      <use xlink:href="#Helvetica-2d" transform="translate(578.652344 0.78125)"/>
      <use xlink:href="#Helvetica-20" transform="translate(611.953125 0.78125)"/>
      <use xlink:href="#Helvetica-41" transform="translate(639.736328 0.78125)"/>
      <use xlink:href="#Helvetica-73" transform="translate(706.435547 0.78125)"/>
      <use xlink:href="#Helvetica-79" transform="translate(756.435547 0.78125)"/>
      <use xlink:href="#Helvetica-6d" transform="translate(806.435547 0.78125)"/>
      <use xlink:href="#Helvetica-70" transform="translate(889.736328 0.78125)"/>
      <use xlink:href="#Helvetica-74" transform="translate(945.351562 0.78125)"/>
      <use xlink:href="#Helvetica-6f" transform="translate(973.134766 0.78125)"/>
      <use xlink:href="#Helvetica-74" transform="translate(1028.75 0.78125)"/>
      <use xlink:href="#Helvetica-69" transform="translate(1056.533203 0.78125)"/>
      <use xlink:href="#Helvetica-63" transform="translate(1078.75 0.78125)"/>
      <use xlink:href="#Helvetica-20" transform="translate(1128.75 0.78125)"/>
      <use xlink:href="#Helvetica-43" transform="translate(1156.533203 0.78125)"/>
      <use xlink:href="#Helvetica-73" transform="translate(1228.75 0.78125)"/>
      <use xlink:href="#Helvetica-6f" transform="translate(1278.75 0.78125)"/>
     </g>
    </g>
   </g>
  </g>
 </g>
 <defs>
  <clipPath id="pccf7f1c4ce">
   <rect x="57.6" y="41.472" width="357.12" height="266.112"/>
  </clipPath>
 </defs>
</svg>
